<?xml version="1.0" standalone="no"?>
<!DOCTYPE svg PUBLIC "-//W3C//DTD SVG 20010904//EN"
 "http://www.w3.org/TR/2001/REC-SVG-20010904/DTD/svg10.dtd">
<svg version="1.0" xmlns="http://www.w3.org/2000/svg"
 width="245.000000pt" height="245.000000pt" viewBox="0 0 245.000000 245.000000"
 preserveAspectRatio="xMidYMid meet">
<metadata>
Created by potrace 1.11, written by Peter Selinger 2001-2013
</metadata>
<g transform="translate(0.000000,245.000000) scale(0.100000,-0.100000)"
fill="#000000" stroke="none">
<path d="M1089 2176 c-2 -2 -20 -7 -39 -10 -74 -12 -93 -17 -170 -45 -223 -82
-415 -257 -518 -471 -101 -211 -118 -473 -46 -695 129 -394 505 -657 919 -641
122 5 139 7 240 37 304 90 535 325 631 644 25 82 27 104 27 250 0 145 -3 169
-27 250 -75 249 -221 435 -442 563 -66 38 -204 91 -279 107 -35 8 -290 17
-296 11z m273 -318 c421 -106 611 -607 367 -968 -114 -169 -296 -270 -499
-276 -190 -6 -353 60 -484 194 -51 53 -54 57 -102 148 -49 93 -63 143 -71 254
-4 66 -1 102 21 210 3 14 24 63 47 110 55 111 170 229 273 278 145 71 300 88
448 50z"/>
</g>
</svg>
