<?xml version="1.0" standalone="no"?>
<!DOCTYPE svg PUBLIC "-//W3C//DTD SVG 1.1//EN" "http://www.w3.org/Graphics/SVG/1.1/DTD/svg11.dtd" >
<svg xmlns="http://www.w3.org/2000/svg" xmlns:xlink="http://www.w3.org/1999/xlink" version="1.1">
<metadata>
Created by FontForge 20170731 at Wed Jan 25 17:59:16 2017
 By Aleksey,,,
Copyright (c) 2016 by Aaron James Draplin, Draplin Design Company. All rights reserved.
</metadata>
<defs>
<font id="DDCHardware-Regular" horiz-adv-x="687" >
  <font-face 
    font-family="DDC Hardware Regular"
    font-weight="400"
    font-stretch="normal"
    units-per-em="1000"
    panose-1="2 0 0 0 0 0 0 0 0 0"
    ascent="800"
    descent="-200"
    x-height="675"
    cap-height="675"
    bbox="-220 -304 2286 971"
    underline-thickness="0"
    underline-position="0"
    unicode-range="U+000D-FB02"
  />
<missing-glyph horiz-adv-x="1036" 
d="M556 585l343 -111q16 -5 26.5 -19.5t10.5 -30.5v-168q0 -16 -10.5 -30.5t-26.5 -19.5l-343 -108q-38 -12 -75 0l-342 108q-16 5 -27.5 19.5t-11.5 30.5v168q0 16 11.5 30.5t27.5 19.5l342 111q37 13 75 0zM390 283v121q0 15 -11.5 26t-26.5 11h-146v-195h146
q15 0 26.5 11.5t11.5 25.5zM617 283v121q0 15 -10.5 26t-26.5 11h-146v-195h146q15 0 26 11t11 26zM845 374v30q0 15 -11 26t-26 11h-109q-17 0 -28 -11t-11 -26v-121q0 -15 11 -26t28 -11h109q15 0 26 11.5t11 25.5v27h-57v-12l-6 -9h-58q-6 0 -6 9v92q0 6 6 6h58
q6 -2 6 -6v-16h57zM555 396q5 0 5 -6v-92q0 -9 -5 -9h-64v107h64zM324 396q9 0 9 -6v-92q0 -9 -9 -9h-60v107h60z" />
    <glyph glyph-name=".notdef" horiz-adv-x="1036" 
d="M556 585l343 -111q16 -5 26.5 -19.5t10.5 -30.5v-168q0 -16 -10.5 -30.5t-26.5 -19.5l-343 -108q-38 -12 -75 0l-342 108q-16 5 -27.5 19.5t-11.5 30.5v168q0 16 11.5 30.5t27.5 19.5l342 111q37 13 75 0zM390 283v121q0 15 -11.5 26t-26.5 11h-146v-195h146
q15 0 26.5 11.5t11.5 25.5zM617 283v121q0 15 -10.5 26t-26.5 11h-146v-195h146q15 0 26 11t11 26zM845 374v30q0 15 -11 26t-26 11h-109q-17 0 -28 -11t-11 -26v-121q0 -15 11 -26t28 -11h109q15 0 26 11.5t11 25.5v27h-57v-12l-6 -9h-58q-6 0 -6 9v92q0 6 6 6h58
q6 -2 6 -6v-16h57zM555 396q5 0 5 -6v-92q0 -9 -5 -9h-64v107h64zM324 396q9 0 9 -6v-92q0 -9 -9 -9h-60v107h60z" />
    <glyph glyph-name=".null" horiz-adv-x="0" 
 />
    <glyph glyph-name="nonmarkingreturn" horiz-adv-x="333" 
 />
    <glyph glyph-name="NULL" horiz-adv-x="0" 
 />
    <glyph glyph-name="NULL" horiz-adv-x="0" 
 />
    <glyph glyph-name="CR" unicode="&#xd;" horiz-adv-x="243" 
 />
    <glyph glyph-name="space" unicode=" " horiz-adv-x="243" 
 />
    <glyph glyph-name="exclam" unicode="!" horiz-adv-x="357" 
d="M277 675l-15 -425h-167l-15 425h197zM272 178v-178h-187v178h187z" />
    <glyph glyph-name="quotedbl" unicode="&#x22;" horiz-adv-x="566" 
d="M225 373h-123l-22 302h167zM464 373h-123l-22 302h167z" />
    <glyph glyph-name="numbersign" unicode="#" horiz-adv-x="904" 
d="M519 268l38 155h-170l-37 -155h169zM447 -1l38 156h-162l-38 -156h-171l38 156h-122v117h153l36 147h-116v117h147l34 139h172l-34 -139h161l34 139h170l-34 -139h121v-117h-152l-36 -147h115v-117h-146l-38 -156h-170z" />
    <glyph glyph-name="dollar" unicode="$" horiz-adv-x="563" 
d="M347 733v-106h131v-127h-237q-8 0 -8 -9v-75q0 -8 8 -8h181q28 0 45.5 -17.5t17.5 -45.5v-222q0 -28 -17.5 -46t-45.5 -18h-75v-107h-116v107h-149v128h245q9 0 9 8v76q0 7 -9 7h-181q-29 0 -46.5 17.5t-17.5 46.5v221q0 29 17.5 46.5t46.5 17.5h85v106h116z" />
    <glyph glyph-name="percent" unicode="%" horiz-adv-x="863" 
d="M752 403q20 0 33.5 -13t13.5 -32v-312q0 -19 -13.5 -32.5t-33.5 -13.5h-214q-19 0 -33.5 13.5t-14.5 32.5v312q0 18 14.5 31.5t33.5 13.5h214zM694 87v230h-99v-230h99zM328 675q20 0 33.5 -13t13.5 -32v-312q0 -19 -13.5 -32.5t-33.5 -13.5h-214q-19 0 -33.5 13.5
t-14.5 32.5v312q0 18 14.5 31.5t33.5 13.5h214zM270 359v230h-99v-230h99zM260 148h123l-106 -187h-123zM699 704l-107 -188h-124l107 188h124z" />
    <glyph glyph-name="ampersand" unicode="&#x26;" horiz-adv-x="678" 
d="M90 431v165q0 35 22 57t57 22h329q35 0 57 -22t22 -57v-134h-166v53q0 17 -17 17h-121q-17 0 -17 -17v-99q0 -17 17 -17h371v-121h-62v-199q0 -35 -22 -57t-57 -22h-334q-35 0 -57 22t-22 57v157q0 41 24.5 69.5t64.5 29.5q-41 1 -65 28t-24 68zM256 261v-100
q0 -17 17 -17h126q17 0 17 17v117h-143q-17 0 -17 -17z" />
    <glyph glyph-name="quotesingle" unicode="'" horiz-adv-x="327" 
d="M225 373h-123l-22 302h167z" />
    <glyph glyph-name="parenleft" unicode="(" horiz-adv-x="369" 
d="M220 282q0 -90 16.5 -170t36.5 -127.5t47 -88t38 -52t20 -18.5l-153 -88q-8 8 -20.5 23t-45 67t-57.5 110.5t-45.5 151.5t-20.5 192t19.5 191t47 153.5t55.5 109t48 69.5l19 22l153 -89q-9 -7 -20 -18.5t-38 -52t-47 -88t-36.5 -127.5t-16.5 -170z" />
    <glyph glyph-name="parenright" unicode=")" horiz-adv-x="369" 
d="M139 282q0 90 -16.5 170t-36.5 127.5t-47 88t-38 52t-20 18.5l153 89q8 -8 20.5 -23t45 -67.5t57.5 -111t45.5 -151.5t20.5 -192t-19.5 -191t-47.5 -153.5t-55.5 -108.5t-46.5 -69l-20 -22l-153 88q9 7 20 18.5t38 52t47 88t36.5 127.5t16.5 170z" />
    <glyph glyph-name="asterisk" unicode="*" horiz-adv-x="607" 
d="M527 525l-128 -68l128 -68l-52 -92l-124 76l4 -144h-103l4 144l-124 -76l-52 92l128 68l-128 68l52 91l124 -76l-4 145h103l-4 -145l124 76z" />
    <glyph glyph-name="plus" unicode="+" horiz-adv-x="720" 
d="M624 277h-188v-199h-152v199h-188v143h188v199h152v-199h188v-143z" />
    <glyph glyph-name="comma" unicode="," horiz-adv-x="424" 
d="M80 -119l92 302h172l-124 -302h-140z" />
    <glyph glyph-name="hyphen" unicode="-" horiz-adv-x="585" 
d="M96 406h393v-153h-393v153z" />
    <glyph glyph-name="period" unicode="." horiz-adv-x="347" 
d="M267 183v-183h-187v183h187z" />
    <glyph glyph-name="slash" unicode="/" horiz-adv-x="456" 
d="M460 746l-294 -817h-170l295 817h169z" />
    <glyph glyph-name="zero" unicode="0" horiz-adv-x="651" 
d="M497 675q32 0 54 -22t22 -54v-522q0 -33 -22 -55t-54 -22h-342q-31 0 -54 22.5t-23 54.5v522q0 32 23 54t54 22h342zM263 144h125q11 0 11 11v366q0 11 -11 11h-125q-11 0 -11 -11v-366q0 -11 11 -11z" />
    <glyph glyph-name="one" unicode="1" horiz-adv-x="650" 
d="M108 493l-20 122l181 60h157v-522h182v-153h-542v153h186v373z" />
    <glyph glyph-name="two" unicode="2" horiz-adv-x="650" 
d="M477 284h-213q-11 0 -11 -11v-120h293v-153h-467v356q0 28 23 43t54 15h213q11 0 11 11v96q0 11 -11 11h-275v143h383q29 0 53 -24t24 -53v-238q0 -28 -24 -52t-53 -24z" />
    <glyph glyph-name="three" unicode="3" horiz-adv-x="650" 
d="M552 436q0 -76 -81 -89q41 -9 61 -39t20 -69v-165q0 -29 -16 -51.5t-41 -22.5h-398v143h270q11 0 11 11v111q0 11 -11 11h-253v136h253q11 0 11 11v98q0 11 -11 11h-270v143h391q28 0 46 -17.5t18 -46.5v-175z" />
    <glyph glyph-name="four" unicode="4" horiz-adv-x="650" 
d="M612 297v-143h-73v-154h-174v154h-284v521h169v-378h115v378h174v-378h73z" />
    <glyph glyph-name="five" unicode="5" horiz-adv-x="650" 
d="M544 532h-292v-122h233q29 0 52.5 -24t23.5 -53v-256q0 -29 -24 -53t-52 -24h-389v143h280q11 0 11 11v110q0 11 -11 11h-275v400h443v-143z" />
    <glyph glyph-name="six" unicode="6" horiz-adv-x="650" 
d="M550 532h-294q-11 0 -11 -11v-98h244q28 0 52 -24t24 -53v-270q0 -28 -23.5 -52t-52.5 -24h-341q-39 0 -58 30t-19 65v503q0 33 18.5 55t58.5 22h402v-143zM380 300h-124q-11 0 -11 -11v-135q0 -11 11 -11h124q11 0 11 11v135q0 11 -11 11z" />
    <glyph glyph-name="seven" unicode="7" horiz-adv-x="650" 
d="M73 675h501v-144l-294 -531h-197l305 527h-315v148z" />
    <glyph glyph-name="eight" unicode="8" horiz-adv-x="650" 
d="M566 424q0 -36 -22 -54t-55 -20q31 -2 54 -25.5t23 -60.5v-187q0 -28 -23 -52.5t-50 -24.5h-348q-28 0 -51 24t-23 53v187q0 37 22.5 60.5t54.5 25.5q-33 2 -55 20t-22 54v174q0 29 23 53t51 24h348q27 0 50 -24.5t23 -52.5v-174zM392 155v118q0 11 -11 11h-125
q-11 0 -11 -11v-118q0 -11 11 -11h125q11 0 11 11zM392 410v111q0 11 -11 11h-125q-11 0 -11 -11v-111q0 -11 11 -11h125q11 0 11 11z" />
    <glyph glyph-name="nine" unicode="9" horiz-adv-x="650" 
d="M86 143h294q11 0 11 11v97h-244q-28 0 -52 24t-24 53v271q0 29 23.5 52.5t52.5 23.5h341q39 0 58 -30t19 -65v-503q0 -33 -18.5 -55t-58.5 -22h-402v143zM256 374h124q11 0 11 11v136q0 11 -11 11h-124q-11 0 -11 -11v-136q0 -11 11 -11z" />
    <glyph glyph-name="colon" unicode=":" horiz-adv-x="347" 
d="M267 183v-183h-187v183h187zM267 500v-183h-187v183h187z" />
    <glyph glyph-name="semicolon" unicode=";" horiz-adv-x="431" 
d="M351 500v-183h-187v183h187zM80 -119l92 302h172l-124 -302h-140z" />
    <glyph glyph-name="less" unicode="&#x3c;" horiz-adv-x="702" 
d="M606 56l-510 179v171l510 178v-161l-346 -102l346 -94v-171z" />
    <glyph glyph-name="equal" unicode="=" horiz-adv-x="722" 
d="M626 378h-530v153h530v-153zM626 106h-530v153h530v-153z" />
    <glyph glyph-name="greater" unicode="&#x3e;" horiz-adv-x="702" 
d="M606 235l-510 -179v171l346 94l-346 102v161l510 -178v-171z" />
    <glyph glyph-name="question" unicode="?" horiz-adv-x="520" 
d="M373 676q91 0 91 -77v-191q0 -46 -26 -71.5t-75 -25.5h-73q-4 0 -7.5 -3.5t-3.5 -7.5v-56h-169v118q0 78 83 78h92q10 0 10 10v70q0 10 -10 10h-213v146h301zM289 0v178h-189v-178h189z" />
    <glyph glyph-name="at" unicode="@" horiz-adv-x="820" 
d="M730 0h-561q-35 0 -57 22t-22 57v517q0 35 22 57t57 22h482q35 0 57 -22t22 -57v-338q0 -35 -22 -57t-57 -22h-203v93h-79v-93h-89v292q0 18 11.5 29.5t29.5 11.5h176q18 0 29.5 -11.5t11.5 -29.5v-216h76q5 0 9.5 4.5t4.5 9.5v307q0 5 -4.5 9.5t-9.5 4.5h-410
q-4 0 -8 -4.5t-4 -9.5v-480q0 -11 12 -11h526v-85zM369 348h79v83q0 10 -13 10h-54q-12 0 -12 -10v-83z" />
    <glyph glyph-name="A" unicode="A" horiz-adv-x="681" 
d="M591 596v-596h-174v168h-153v-168h-174v596q0 35 22 57t57 22h343q35 0 57 -22t22 -57zM264 314h153v203q0 20 -24 20h-108q-9 0 -15 -6t-6 -14v-203z" />
    <glyph glyph-name="B" unicode="B" 
d="M517 0h-421v675h416q41 0 65.5 -23.5t24.5 -61.5v-150q0 -36 -23.5 -65t-68.5 -40q45 -11 71 -39t26 -63v-147q0 -40 -24.5 -63t-65.5 -23zM435 138v128q0 11 -10 11h-156v-149h156q10 0 10 10zM435 412v118q0 11 -10 11h-156v-140h156q10 0 10 11z" />
    <glyph glyph-name="C" unicode="C" horiz-adv-x="656" 
d="M411 252h174v-175q0 -33 -23 -55t-56 -22h-339q-32 0 -54.5 22t-22.5 55v522q0 31 22.5 53.5t54.5 22.5h339q32 0 55.5 -22.5t23.5 -53.5v-174h-174v94q0 11 -9 11h-127q-11 0 -11 -11v-363q0 -10 11 -10h127q9 0 9 10v96z" />
    <glyph glyph-name="D" unicode="D" horiz-adv-x="686" 
d="M96 675h363q56 0 96.5 -40t40.5 -97v-400q0 -57 -40.5 -97.5t-96.5 -40.5h-363v675zM423 195v286q0 22 -13.5 35.5t-35.5 13.5h-104v-384h104q22 0 35.5 13.5t13.5 35.5z" />
    <glyph glyph-name="E" unicode="E" horiz-adv-x="609" 
d="M96 0v675h441v-145h-268v-118h232v-144h-232v-122h268v-146h-441z" />
    <glyph glyph-name="F" unicode="F" horiz-adv-x="580" 
d="M96 0v675h428v-145h-255v-153h220v-144h-220v-233h-173z" />
    <glyph glyph-name="G" unicode="G" horiz-adv-x="704" 
d="M333 271v143h306v-143h-56v-194q0 -33 -22.5 -55t-54.5 -22h-338q-33 0 -55.5 22t-22.5 55v522q0 31 23 53.5t55 22.5h418v-145h-313q-10 0 -10 -11v-362q0 -10 10 -10h140q11 0 11 10v114h-91z" />
    <glyph glyph-name="H" unicode="H" horiz-adv-x="705" 
d="M609 675v-675h-174v268h-165v-268h-174v675h174v-258h165v258h174z" />
    <glyph glyph-name="I" unicode="I" horiz-adv-x="365" 
d="M269 675v-675h-173v675h173z" />
    <glyph glyph-name="J" unicode="J" horiz-adv-x="620" 
d="M67 322h174v-167q0 -9 9 -9h89q11 0 11 9v520h174v-598q0 -33 -22 -55t-54 -22h-304q-31 0 -54 22.5t-23 54.5v245z" />
    <glyph glyph-name="K" unicode="K" horiz-adv-x="669" 
d="M647 0h-190l-132 258l-55 -89v-169h-174v675h174v-281l175 281h194l-195 -293z" />
    <glyph glyph-name="L" unicode="L" horiz-adv-x="536" 
d="M96 0v675h173v-529h215v-146h-388z" />
    <glyph glyph-name="M" unicode="M" horiz-adv-x="813" 
d="M371 121l-115 261v-382h-160v675h176l136 -315l125 315h184v-675h-164v389l-114 -268h-68z" />
    <glyph glyph-name="N" unicode="N" horiz-adv-x="714" 
d="M453 0l-197 371v-371h-160v675h160l202 -372v372h160v-675h-165z" />
    <glyph glyph-name="O" unicode="O" horiz-adv-x="685" 
d="M169 675h347q35 0 57 -22t22 -57v-517q0 -35 -22 -57t-57 -22h-347q-35 0 -57 22t-22 57v517q0 35 22 57t57 22zM421 155v363q0 11 -11 11h-137q-9 0 -9 -11v-363q0 -9 9 -9h137q11 0 11 9z" />
    <glyph glyph-name="P" unicode="P" horiz-adv-x="652" 
d="M96 675h413q31 0 53.5 -22t22.5 -54v-347q0 -30 -22.5 -53t-53.5 -23h-239v-176h-174v675zM270 319h132q9 0 9 9v192q0 10 -9 10h-132v-211z" />
    <glyph glyph-name="Q" unicode="Q" horiz-adv-x="675" 
d="M519 -133h-168l-53 133h-131q-31 0 -54 22.5t-23 54.5v522q0 32 23 54t54 22h342q32 0 54 -22t22 -54v-522q0 -33 -22 -55t-54 -22h-45zM411 155v364q0 11 -11 11h-127q-9 0 -9 -11v-364q0 -9 9 -9h127q11 0 11 9z" />
    <glyph glyph-name="R" unicode="R" horiz-adv-x="679" 
d="M96 675h424q31 0 53.5 -22t22.5 -54v-309q0 -31 -22.5 -53.5t-53.5 -22.5h-5l83 -214h-170l-84 214h-74v-214h-174v675zM423 359v161q0 10 -9 10h-144v-180h144q3 0 6 3t3 6z" />
    <glyph glyph-name="S" unicode="S" horiz-adv-x="597" 
d="M82 0v146h253q11 0 11 9v98q0 9 -11 9h-174q-35 0 -57 22t-22 57v255q0 35 22 57t57 22h349v-145h-244q-10 0 -10 -11v-99q0 -9 10 -9h174q35 0 57 -22t22 -57v-253q0 -35 -22 -57t-57 -22h-358z" />
    <glyph glyph-name="T" unicode="T" horiz-adv-x="546" 
d="M33 675h480v-146h-153v-529h-174v529h-153v146z" />
    <glyph glyph-name="U" unicode="U" 
d="M96 675h174v-520q0 -9 9 -9h127q11 0 11 9v520h174v-598q0 -33 -22 -55t-54 -22h-342q-31 0 -54 22.5t-23 54.5v598z" />
    <glyph glyph-name="V" unicode="V" horiz-adv-x="625" 
d="M423 675h172l-201 -675h-168l-196 675h186l94 -429z" />
    <glyph glyph-name="W" unicode="W" horiz-adv-x="829" 
d="M643 675h156l-127 -675h-153l-104 376l-107 -376h-150l-128 675h170l59 -424l91 424h143l86 -412z" />
    <glyph glyph-name="X" unicode="X" horiz-adv-x="621" 
d="M20 0l196 337l-191 338h194l102 -193l85 193h187l-186 -349l184 -326h-192l-100 186l-96 -186h-183z" />
    <glyph glyph-name="Y" unicode="Y" horiz-adv-x="641" 
d="M408 0h-174v198h-90q-31 0 -53.5 23.5t-22.5 56.5v397h174v-311q0 -4 3.5 -7t7.5 -3h139q7 0 7 10v311h174v-397q0 -33 -22.5 -56.5t-53.5 -23.5h-89v-198z" />
    <glyph glyph-name="Z" unicode="Z" horiz-adv-x="573" 
d="M53 139l252 390h-242v146h450v-139l-258 -390h268v-146h-470v139z" />
    <glyph glyph-name="bracketleft" unicode="[" horiz-adv-x="397" 
d="M386 -226h-318v976h318v-128h-145v-720h145v-128z" />
    <glyph glyph-name="backslash" unicode="\" horiz-adv-x="456" 
d="M290 -71l-294 817h169l295 -817h-170z" />
    <glyph glyph-name="bracketright" unicode="]" horiz-adv-x="397" 
d="M329 -226h-318v128h145v720h-145v128h318v-976z" />
    <glyph glyph-name="asciicircum" unicode="^" horiz-adv-x="349" 
d="M200 830l-73 -85h-127l153 172h94l153 -172h-127z" />
    <glyph glyph-name="underscore" unicode="_" horiz-adv-x="527" 
d="M30 -68h467v-130h-467v130z" />
    <glyph glyph-name="grave" unicode="`" horiz-adv-x="231" 
d="M108 746l-108 172h145l73 -172h-110z" />
    <glyph glyph-name="a" unicode="a" horiz-adv-x="681" 
d="M591 596v-596h-174v168h-153v-168h-174v596q0 35 22 57t57 22h343q35 0 57 -22t22 -57zM264 314h153v203q0 20 -24 20h-108q-9 0 -15 -6t-6 -14v-203z" />
    <glyph glyph-name="b" unicode="b" 
d="M517 0h-421v675h416q41 0 65.5 -23.5t24.5 -61.5v-150q0 -36 -23.5 -65t-68.5 -40q45 -11 71 -39t26 -63v-147q0 -40 -24.5 -63t-65.5 -23zM435 138v128q0 11 -10 11h-156v-149h156q10 0 10 10zM435 412v118q0 11 -10 11h-156v-140h156q10 0 10 11z" />
    <glyph glyph-name="c" unicode="c" horiz-adv-x="654" 
d="M411 252h174v-175q0 -33 -23 -55t-56 -22h-339q-32 0 -54.5 22t-22.5 55v522q0 31 22.5 53.5t54.5 22.5h339q32 0 55.5 -22.5t23.5 -53.5v-174h-174v94q0 11 -9 11h-127q-11 0 -11 -11v-363q0 -10 11 -10h127q9 0 9 10v96z" />
    <glyph glyph-name="d" unicode="d" horiz-adv-x="686" 
d="M96 675h363q56 0 96.5 -40t40.5 -97v-400q0 -57 -40.5 -97.5t-96.5 -40.5h-363v675zM423 195v286q0 22 -13.5 35.5t-35.5 13.5h-104v-384h104q22 0 35.5 13.5t13.5 35.5z" />
    <glyph glyph-name="e" unicode="e" horiz-adv-x="609" 
d="M96 0v675h441v-145h-268v-118h232v-144h-232v-122h268v-146h-441z" />
    <glyph glyph-name="f" unicode="f" horiz-adv-x="580" 
d="M96 0v675h428v-145h-255v-153h220v-144h-220v-233h-173z" />
    <glyph glyph-name="g" unicode="g" horiz-adv-x="704" 
d="M333 271v143h306v-143h-56v-194q0 -33 -22.5 -55t-54.5 -22h-338q-33 0 -55.5 22t-22.5 55v522q0 31 23 53.5t55 22.5h418v-145h-313q-10 0 -10 -11v-362q0 -10 10 -10h140q11 0 11 10v114h-91z" />
    <glyph glyph-name="h" unicode="h" horiz-adv-x="705" 
d="M609 675v-675h-174v268h-165v-268h-174v675h174v-258h165v258h174z" />
    <glyph glyph-name="i" unicode="i" horiz-adv-x="365" 
d="M269 675v-675h-173v675h173z" />
    <glyph glyph-name="j" unicode="j" horiz-adv-x="620" 
d="M67 322h174v-167q0 -9 9 -9h89q11 0 11 9v520h174v-598q0 -33 -22 -55t-54 -22h-304q-31 0 -54 22.5t-23 54.5v245z" />
    <glyph glyph-name="k" unicode="k" horiz-adv-x="666" 
d="M647 0h-190l-132 258l-55 -89v-169h-174v675h174v-281l175 281h194l-195 -293z" />
    <glyph glyph-name="l" unicode="l" horiz-adv-x="536" 
d="M96 0v675h173v-529h215v-146h-388z" />
    <glyph glyph-name="m" unicode="m" horiz-adv-x="813" 
d="M371 121l-115 261v-382h-160v675h176l136 -315l125 315h184v-675h-164v389l-114 -268h-68z" />
    <glyph glyph-name="n" unicode="n" horiz-adv-x="714" 
d="M453 0l-197 371v-371h-160v675h160l202 -372v372h160v-675h-165z" />
    <glyph glyph-name="o" unicode="o" horiz-adv-x="685" 
d="M169 675h347q35 0 57 -22t22 -57v-517q0 -35 -22 -57t-57 -22h-347q-35 0 -57 22t-22 57v517q0 35 22 57t57 22zM421 155v363q0 11 -11 11h-137q-9 0 -9 -11v-363q0 -9 9 -9h137q11 0 11 9z" />
    <glyph glyph-name="p" unicode="p" horiz-adv-x="652" 
d="M96 675h413q31 0 53.5 -22t22.5 -54v-347q0 -30 -22.5 -53t-53.5 -23h-239v-176h-174v675zM270 319h132q9 0 9 9v192q0 10 -9 10h-132v-211z" />
    <glyph glyph-name="q" unicode="q" horiz-adv-x="675" 
d="M519 -133h-168l-53 133h-131q-31 0 -54 22.5t-23 54.5v522q0 32 23 54t54 22h342q32 0 54 -22t22 -54v-522q0 -33 -22 -55t-54 -22h-45zM411 155v364q0 11 -11 11h-127q-9 0 -9 -11v-364q0 -9 9 -9h127q11 0 11 9z" />
    <glyph glyph-name="r" unicode="r" horiz-adv-x="679" 
d="M96 675h424q31 0 53.5 -22t22.5 -54v-309q0 -31 -22.5 -53.5t-53.5 -22.5h-5l83 -214h-170l-84 214h-74v-214h-174v675zM423 359v161q0 10 -9 10h-144v-180h144q3 0 6 3t3 6z" />
    <glyph glyph-name="s" unicode="s" horiz-adv-x="597" 
d="M82 0v146h253q11 0 11 9v98q0 9 -11 9h-174q-35 0 -57 22t-22 57v255q0 35 22 57t57 22h349v-145h-244q-10 0 -10 -11v-99q0 -9 10 -9h174q35 0 57 -22t22 -57v-253q0 -35 -22 -57t-57 -22h-358z" />
    <glyph glyph-name="t" unicode="t" horiz-adv-x="546" 
d="M33 675h480v-146h-153v-529h-174v529h-153v146z" />
    <glyph glyph-name="u" unicode="u" 
d="M96 675h174v-520q0 -9 9 -9h127q11 0 11 9v520h174v-598q0 -33 -22 -55t-54 -22h-342q-31 0 -54 22.5t-23 54.5v598z" />
    <glyph glyph-name="v" unicode="v" horiz-adv-x="625" 
d="M423 675h172l-201 -675h-168l-196 675h186l94 -429z" />
    <glyph glyph-name="w" unicode="w" horiz-adv-x="829" 
d="M643 675h156l-127 -675h-153l-104 376l-107 -376h-150l-128 675h170l59 -424l91 424h143l86 -412z" />
    <glyph glyph-name="x" unicode="x" horiz-adv-x="621" 
d="M20 0l196 337l-191 338h194l102 -193l85 193h187l-186 -349l184 -326h-192l-100 186l-96 -186h-183z" />
    <glyph glyph-name="y" unicode="y" horiz-adv-x="641" 
d="M408 0h-174v198h-90q-31 0 -53.5 23.5t-22.5 56.5v397h174v-311q0 -4 3.5 -7t7.5 -3h139q7 0 7 10v311h174v-397q0 -33 -22.5 -56.5t-53.5 -23.5h-89v-198z" />
    <glyph glyph-name="z" unicode="z" horiz-adv-x="573" 
d="M53 139l252 390h-242v146h450v-139l-258 -390h268v-146h-470v139z" />
    <glyph glyph-name="braceleft" unicode="{" horiz-adv-x="448" 
d="M437 -225h-180q-62 0 -94.5 33.5t-32.5 95.5v233q0 57 -55 57h-35v138h35q55 0 55 57v232q0 62 32.5 95.5t94.5 33.5h180v-128h-79q-55 0 -55 -57v-215q0 -40 -23 -58t-66 -29q43 -11 66 -29.5t23 -57.5v-216q0 -57 55 -57h79v-128z" />
    <glyph glyph-name="bar" unicode="|" horiz-adv-x="365" 
d="M269 -304h-173v1164h173v-1164z" />
    <glyph glyph-name="braceright" unicode="}" horiz-adv-x="448" 
d="M211 -225h-180v128h79q55 0 55 57v216q0 39 23 57.5t65 29.5q-43 11 -65.5 29t-22.5 58v215q0 57 -55 57h-79v128h180q62 0 94.5 -33.5t32.5 -95.5v-232q0 -57 55 -57h35v-138h-35q-55 0 -55 -57v-233q0 -62 -32.5 -95.5t-94.5 -33.5z" />
    <glyph glyph-name="asciitilde" unicode="~" horiz-adv-x="347" 
d="M121 620q40 0 81 -27t56 -27q19 0 30 15t11 37h93q0 -71 -32.5 -109.5t-87.5 -38.5q-40 0 -82 27t-57 27q-19 0 -29.5 -15t-10.5 -37h-93q0 71 32.5 109.5t88.5 38.5z" />
    <glyph glyph-name="uni00A0" unicode="&#xa0;" horiz-adv-x="243" 
 />
    <glyph glyph-name="exclamdown" unicode="&#xa1;" horiz-adv-x="357" 
d="M262 425l15 -425h-197l15 425h167zM272 675v-178h-187v178h187z" />
    <glyph glyph-name="cent" unicode="&#xa2;" horiz-adv-x="552" 
d="M344 605v-105h75q31 0 47.5 -17.5t16.5 -48.5v-119h-130v70q0 8 -6 8h-119q-8 0 -8 -8v-270q0 -7 8 -7h119q6 0 6 7v71h130v-129q0 -25 -16 -41t-43 -16h-80v-96h-116v96h-76q-28 0 -45 17t-17 45v377q0 27 16.5 44t43.5 17h78v105h116z" />
    <glyph glyph-name="sterling" unicode="&#xa3;" horiz-adv-x="671" 
d="M30 360h94v239q0 31 22.5 53.5t54.5 22.5h302q32 0 55.5 -22.5t23.5 -53.5v-149h-174v81q0 11 -9 11h-91q-11 0 -11 -11v-171h188v-106h-188v-121h305v-133h-555v133h77v121h-94v106z" />
    <glyph glyph-name="yen" unicode="&#xa5;" horiz-adv-x="625" 
d="M398 0h-174v108h-170v96h170v73h-170v96h132l-156 302h186l94 -238l113 238h172l-160 -302h133v-96h-170v-73h170v-96h-170v-108z" />
    <glyph glyph-name="brokenbar" unicode="&#xa6;" horiz-adv-x="365" 
d="M269 396h-173v464h173v-464zM269 -304h-173v478h173v-478z" />
    <glyph glyph-name="section" unicode="&#xa7;" horiz-adv-x="627" 
d="M121 -154v125h244q10 0 10 11v49q0 7 -10 9l-204 50q-79 18 -79 79v427q0 35 22 57t57 22h349v-125h-244q-10 0 -10 -11v-49q0 -7 10 -9l204 -50q79 -18 79 -79v-427q0 -35 -22 -57t-57 -22h-349zM250 205l146 -36v135q0 8 -15 12l-146 36v-135q0 -7 15 -12z" />
    <glyph glyph-name="dieresis" unicode="&#xa8;" horiz-adv-x="349" 
d="M0 772v136h139v-136h-139zM222 772v136h139v-136h-139z" />
    <glyph glyph-name="copyright" unicode="&#xa9;" horiz-adv-x="820" 
d="M169 675h482q35 0 57 -22t22 -57v-517q0 -35 -22 -57t-57 -22h-482q-35 0 -57 22t-22 57v517q0 35 22 57t57 22zM628 96v480q0 5 -4.5 9.5t-9.5 4.5h-410q-4 0 -8 -4.5t-4 -9.5v-480q0 -11 12 -11h410q14 0 14 11zM452 290h98v-98q0 -18 -13 -31t-31 -13h-191
q-18 0 -30 13t-12 31v293q0 18 12 30.5t30 12.5h191q18 0 31 -12.5t13 -30.5v-98h-98v53q0 7 -4 7h-72q-6 0 -6 -7v-204q0 -5 6 -5h72q4 0 4 5v54z" />
    <glyph glyph-name="ordfeminine" unicode="&#xaa;" horiz-adv-x="330" 
d="M240 651v-178h-52v50h-46v-50h-52v178q0 24 23 24h103q10 0 17 -6.5t7 -17.5zM142 567h46v61q0 6 -7 6h-33q-6 0 -6 -6v-61z" />
    <glyph glyph-name="guillemotleft" unicode="&#xab;" horiz-adv-x="684" 
d="M580 140l-266 141v111l266 140v-129l-161 -65l161 -65v-133zM272 140l-266 141v111l266 140v-129l-161 -65l161 -65v-133z" />
    <glyph glyph-name="registered" unicode="&#xae;" horiz-adv-x="820" 
d="M169 675h482q35 0 57 -22t22 -57v-517q0 -35 -22 -57t-57 -22h-482q-35 0 -57 22t-22 57v517q0 35 22 57t57 22zM628 96v480q0 5 -4.5 9.5t-9.5 4.5h-410q-4 0 -8 -4.5t-4 -9.5v-480q0 -11 12 -11h410q14 0 14 11zM457 350v91q0 5 -5 5h-82v-101h82q5 0 5 5zM460 148
l-48 121h-42v-121h-98v380h239q18 0 30.5 -12.5t12.5 -30.5v-173q0 -19 -12.5 -31t-30.5 -12h-2l47 -121h-96z" />
    <glyph glyph-name="macron" unicode="&#xaf;" horiz-adv-x="310" 
d="M0 786v109h339v-109h-339z" />
    <glyph glyph-name="degree" unicode="&#xb0;" horiz-adv-x="375" 
d="M352 592q0 -81 -44.5 -121t-120.5 -40q-69 0 -116.5 41t-47.5 120t47.5 121t116.5 42q75 0 120 -41t45 -122zM123 592q0 -32 17 -50t47 -18q31 0 48.5 18t17.5 50q0 33 -17.5 51.5t-47.5 18.5t-47.5 -18.5t-17.5 -51.5z" />
    <glyph glyph-name="plusminus" unicode="&#xb1;" horiz-adv-x="732" 
d="M271 220v120h-175v143h175v115h190v-115h175v-143h-175v-120h-190zM636 0h-540v143h540v-143z" />
    <glyph glyph-name="acute" unicode="&#xb4;" horiz-adv-x="231" 
d="M110 746h-110l73 172h145z" />
    <glyph glyph-name="paragraph" unicode="&#xb6;" horiz-adv-x="753" 
d="M166 259q-31 0 -53.5 23t-22.5 53v264q0 32 22.5 54t53.5 22h557v-128h-97v-547h-138v547h-91v-547h-138v259h-93z" />
    <glyph glyph-name="periodcentered" unicode="&#xb7;" horiz-adv-x="379" 
d="M283 423v-183h-187v183h187z" />
    <glyph glyph-name="cedilla" unicode="&#xb8;" horiz-adv-x="331" 
d="M0 -292l16 88h171q3 0 5 5l9 53q0 4 -4 4h-173l25 150h86l-13 -64h143q19 0 29 -12t7 -31l-24 -150q-3 -19 -17 -31t-33 -12h-227z" />
    <glyph glyph-name="ordmasculine" unicode="&#xba;" horiz-adv-x="332" 
d="M114 675h104q10 0 17 -6.5t7 -17.5v-155q0 -23 -24 -23h-104q-24 0 -24 23v155q0 11 7 17.5t17 6.5zM189 519v109q0 3 -3 3h-41q-3 0 -3 -3v-109q0 -3 3 -3h41q3 0 3 3z" />
    <glyph glyph-name="guillemotright" unicode="&#xbb;" horiz-adv-x="684" 
d="M370 281l-266 -141v133l161 65l-161 65v129l266 -140v-111zM678 281l-266 -141v133l161 65l-161 65v129l266 -140v-111z" />
    <glyph glyph-name="onequarter" unicode="&#xbc;" horiz-adv-x="470" 
d="M345 111v-56h-28v-55h-61v55h-110v187h62v-135h48v135h61v-131h28zM156 614l-8 44l62 22h58v-193h59v-49h-184v49h61v140zM30 368h410v-52h-410v52z" />
    <glyph glyph-name="onehalf" unicode="&#xbd;" horiz-adv-x="470" 
d="M209 101v-45h112v-56h-175v121q0 27 27 27h87v42h-109v52h145q28 0 28 -28v-85q0 -28 -28 -28h-87zM156 614l-8 44l62 22h58v-193h59v-49h-184v49h61v140zM30 368h410v-52h-410v52z" />
    <glyph glyph-name="threequarters" unicode="&#xbe;" horiz-adv-x="470" 
d="M351 111v-56h-28v-55h-61v55h-110v187h62v-135h48v135h61v-131h28zM323 594q0 -27 -28 -31q28 -8 28 -40v-58q0 -27 -27 -27h-138v51h102v48h-96v48h96v43h-102v52h138q27 0 27 -28v-58zM30 368h410v-52h-410v52z" />
    <glyph glyph-name="questiondown" unicode="&#xbf;" horiz-adv-x="536" 
d="M163 -1q-91 0 -91 77v191q0 46 26 71.5t75 25.5h73q4 0 7.5 3.5t3.5 7.5v56h169v-118q0 -78 -83 -78h-92q-10 0 -10 -10v-70q0 -10 10 -10h213v-146h-301zM247 497v178h189v-178h-189z" />
    <glyph glyph-name="Agrave" unicode="&#xc0;" horiz-adv-x="681" 
d="M591 596v-596h-174v168h-153v-168h-174v596q0 35 22 57t57 22h343q35 0 57 -22t22 -57zM264 314h153v203q0 20 -24 20h-108q-9 0 -15 -6t-6 -14v-203zM288 746l-108 172h145l73 -172h-110z" />
    <glyph glyph-name="Aacute" unicode="&#xc1;" horiz-adv-x="681" 
d="M591 596v-596h-174v168h-153v-168h-174v596q0 35 22 57t57 22h343q35 0 57 -22t22 -57zM264 314h153v203q0 20 -24 20h-108q-9 0 -15 -6t-6 -14v-203zM394 746h-110l73 172h145z" />
    <glyph glyph-name="Acircumflex" unicode="&#xc2;" horiz-adv-x="681" 
d="M591 596v-596h-174v168h-153v-168h-174v596q0 35 22 57t57 22h343q35 0 57 -22t22 -57zM264 314h153v203q0 20 -24 20h-108q-9 0 -15 -6t-6 -14v-203zM340 830l-73 -85h-127l153 172h94l153 -172h-127z" />
    <glyph glyph-name="Atilde" unicode="&#xc3;" horiz-adv-x="681" 
d="M591 596v-596h-174v168h-153v-168h-174v596q0 35 22 57t57 22h343q35 0 57 -22t22 -57zM264 314h153v203q0 20 -24 20h-108q-9 0 -15 -6t-6 -14v-203zM266 894q40 0 81 -27t56 -27q19 0 30 15t11 37h93q0 -71 -32.5 -109.5t-87.5 -38.5q-40 0 -82 27t-57 27
q-19 0 -29.5 -15t-10.5 -37h-93q0 71 32.5 109.5t88.5 38.5z" />
    <glyph glyph-name="Adieresis" unicode="&#xc4;" horiz-adv-x="681" 
d="M591 596v-596h-174v168h-153v-168h-174v596q0 35 22 57t57 22h343q35 0 57 -22t22 -57zM264 314h153v203q0 20 -24 20h-108q-9 0 -15 -6t-6 -14v-203zM163 772v136h139v-136h-139zM385 772v136h139v-136h-139z" />
    <glyph glyph-name="Aring" unicode="&#xc5;" horiz-adv-x="681" 
d="M591 596v-596h-174v168h-153v-168h-174v596q0 35 22 57t57 22h343q35 0 57 -22t22 -57zM264 314h153v203q0 20 -24 20h-108q-9 0 -15 -6t-6 -14v-203zM462 853q0 -49 -35 -84t-87 -35q-48 0 -84.5 35.5t-36.5 83.5t36.5 83t84.5 35q52 0 87 -34.5t35 -83.5zM290 853
q0 -23 13.5 -36t36.5 -13t37.5 13.5t14.5 35.5q0 25 -14.5 38.5t-37.5 13.5q-50 0 -50 -52z" />
    <glyph glyph-name="AE" unicode="&#xc6;" horiz-adv-x="950" 
d="M878 0h-451v168h-163v-168h-174v596q0 35 22 57t57 22h709v-145h-277v-117h241v-144h-241v-123h277v-146zM264 314h163v223h-142q-9 0 -15 -6t-6 -14v-203z" />
    <glyph glyph-name="Ccedilla" unicode="&#xc7;" horiz-adv-x="654" 
d="M200 -292l16 88h171q3 0 5 5l9 53q0 4 -4 4h-173l23 142h-80q-32 0 -54.5 22t-22.5 55v522q0 31 22.5 53.5t54.5 22.5h339q32 0 55.5 -22.5t23.5 -53.5v-174h-174v94q0 11 -9 11h-127q-11 0 -11 -11v-363q0 -10 11 -10h127q9 0 9 10v96h174v-175q0 -33 -23 -55t-56 -22
h-173l-11 -56h143q19 0 29 -12t7 -31l-24 -150q-3 -19 -17 -31t-33 -12h-227z" />
    <glyph glyph-name="Egrave" unicode="&#xc8;" horiz-adv-x="609" 
d="M96 0v675h441v-145h-268v-118h232v-144h-232v-122h268v-146h-441zM263 746l-108 172h145l73 -172h-110z" />
    <glyph glyph-name="Eacute" unicode="&#xc9;" horiz-adv-x="609" 
d="M96 0v675h441v-145h-268v-118h232v-144h-232v-122h268v-146h-441zM369 746h-110l73 172h145z" />
    <glyph glyph-name="Ecircumflex" unicode="&#xca;" horiz-adv-x="609" 
d="M96 0v675h441v-145h-268v-118h232v-144h-232v-122h268v-146h-441zM315 830l-73 -85h-127l153 172h94l153 -172h-127z" />
    <glyph glyph-name="Edieresis" unicode="&#xcb;" horiz-adv-x="609" 
d="M96 0v675h441v-145h-268v-118h232v-144h-232v-122h268v-146h-441zM138 772v136h139v-136h-139zM360 772v136h139v-136h-139z" />
    <glyph glyph-name="Igrave" unicode="&#xcc;" horiz-adv-x="365" 
d="M269 675v-675h-173v675h173zM133 746l-108 172h145l73 -172h-110z" />
    <glyph glyph-name="Iacute" unicode="&#xcd;" horiz-adv-x="365" 
d="M269 675v-675h-173v675h173zM239 746h-110l73 172h145z" />
    <glyph glyph-name="Icircumflex" unicode="&#xce;" horiz-adv-x="365" 
d="M269 675v-675h-173v675h173zM185 830l-73 -85h-127l153 172h94l153 -172h-127z" />
    <glyph glyph-name="Idieresis" unicode="&#xcf;" horiz-adv-x="365" 
d="M269 675v-675h-173v675h173zM8 772v136h139v-136h-139zM230 772v136h139v-136h-139z" />
    <glyph glyph-name="Eth" unicode="&#xd0;" horiz-adv-x="686" 
d="M36 269v125h60v281h363q56 0 96.5 -40t40.5 -97v-400q0 -57 -40.5 -97.5t-96.5 -40.5h-363v269h-60zM423 195v286q0 22 -13.5 35.5t-35.5 13.5h-104v-136h73v-125h-73v-123h104q22 0 35.5 13.5t13.5 35.5z" />
    <glyph glyph-name="Ntilde" unicode="&#xd1;" horiz-adv-x="714" 
d="M453 0l-197 371v-371h-160v675h160l202 -372v372h160v-675h-165zM283 894q40 0 81 -27t56 -27q19 0 30 15t11 37h93q0 -71 -32.5 -109.5t-87.5 -38.5q-40 0 -82 27t-57 27q-19 0 -29.5 -15t-10.5 -37h-93q0 71 32.5 109.5t88.5 38.5z" />
    <glyph glyph-name="Ograve" unicode="&#xd2;" horiz-adv-x="685" 
d="M169 675h347q35 0 57 -22t22 -57v-517q0 -35 -22 -57t-57 -22h-347q-35 0 -57 22t-22 57v517q0 35 22 57t57 22zM421 155v363q0 11 -11 11h-137q-9 0 -9 -11v-363q0 -9 9 -9h137q11 0 11 9zM288 746l-108 172h145l73 -172h-110z" />
    <glyph glyph-name="Oacute" unicode="&#xd3;" horiz-adv-x="685" 
d="M169 675h347q35 0 57 -22t22 -57v-517q0 -35 -22 -57t-57 -22h-347q-35 0 -57 22t-22 57v517q0 35 22 57t57 22zM421 155v363q0 11 -11 11h-137q-9 0 -9 -11v-363q0 -9 9 -9h137q11 0 11 9zM394 746h-110l73 172h145z" />
    <glyph glyph-name="Ocircumflex" unicode="&#xd4;" horiz-adv-x="685" 
d="M169 675h347q35 0 57 -22t22 -57v-517q0 -35 -22 -57t-57 -22h-347q-35 0 -57 22t-22 57v517q0 35 22 57t57 22zM421 155v363q0 11 -11 11h-137q-9 0 -9 -11v-363q0 -9 9 -9h137q11 0 11 9zM340 830l-73 -85h-127l153 172h94l153 -172h-127z" />
    <glyph glyph-name="Otilde" unicode="&#xd5;" horiz-adv-x="685" 
d="M169 675h347q35 0 57 -22t22 -57v-517q0 -35 -22 -57t-57 -22h-347q-35 0 -57 22t-22 57v517q0 35 22 57t57 22zM421 155v363q0 11 -11 11h-137q-9 0 -9 -11v-363q0 -9 9 -9h137q11 0 11 9zM266 894q40 0 81 -27t56 -27q19 0 30 15t11 37h93q0 -71 -32.5 -109.5
t-87.5 -38.5q-40 0 -82 27t-57 27q-19 0 -29.5 -15t-10.5 -37h-93q0 71 32.5 109.5t88.5 38.5z" />
    <glyph glyph-name="Odieresis" unicode="&#xd6;" horiz-adv-x="685" 
d="M169 675h347q35 0 57 -22t22 -57v-517q0 -35 -22 -57t-57 -22h-347q-35 0 -57 22t-22 57v517q0 35 22 57t57 22zM421 155v363q0 11 -11 11h-137q-9 0 -9 -11v-363q0 -9 9 -9h137q11 0 11 9zM163 772v136h139v-136h-139zM385 772v136h139v-136h-139z" />
    <glyph glyph-name="multiply" unicode="&#xd7;" horiz-adv-x="578" 
d="M541 489l-153 -152l148 -147l-100 -99l-148 147l-152 -152l-99 100l151 152l-146 146l100 100l146 -146l152 152z" />
    <glyph glyph-name="Oslash" unicode="&#xd8;" horiz-adv-x="685" 
d="M121 -96l46 98q-32 6 -54.5 27t-22.5 50v517q0 35 22 57t57 22h274l43 94h71l-43 -94h2q35 0 57 -22t22 -57v-517q0 -35 -22 -57t-57 -22h-280l-44 -96h-71zM432 128l15 414q0 2 -2 6l-142 -429h118q11 0 11 9zM237 128q0 -3 1 -4l141 430h-117q-3 0 -6.5 -3.5t-3.5 -8.5
z" />
    <glyph glyph-name="Ugrave" unicode="&#xd9;" 
d="M96 675h174v-520q0 -9 9 -9h127q11 0 11 9v520h174v-598q0 -33 -22 -55t-54 -22h-342q-31 0 -54 22.5t-23 54.5v598zM292 746l-108 172h145l73 -172h-110z" />
    <glyph glyph-name="Uacute" unicode="&#xda;" 
d="M96 675h174v-520q0 -9 9 -9h127q11 0 11 9v520h174v-598q0 -33 -22 -55t-54 -22h-342q-31 0 -54 22.5t-23 54.5v598zM398 746h-110l73 172h145z" />
    <glyph glyph-name="Ucircumflex" unicode="&#xdb;" 
d="M96 675h174v-520q0 -9 9 -9h127q11 0 11 9v520h174v-598q0 -33 -22 -55t-54 -22h-342q-31 0 -54 22.5t-23 54.5v598zM344 830l-73 -85h-127l153 172h94l153 -172h-127z" />
    <glyph glyph-name="Udieresis" unicode="&#xdc;" 
d="M96 675h174v-520q0 -9 9 -9h127q11 0 11 9v520h174v-598q0 -33 -22 -55t-54 -22h-342q-31 0 -54 22.5t-23 54.5v598zM167 772v136h139v-136h-139zM389 772v136h139v-136h-139z" />
    <glyph glyph-name="Yacute" unicode="&#xdd;" horiz-adv-x="641" 
d="M408 0h-174v198h-90q-31 0 -53.5 23.5t-22.5 56.5v397h174v-311q0 -4 3.5 -7t7.5 -3h139q7 0 7 10v311h174v-397q0 -33 -22.5 -56.5t-53.5 -23.5h-89v-198zM372 746h-110l73 172h145z" />
    <glyph glyph-name="Thorn" unicode="&#xde;" horiz-adv-x="652" 
d="M96 675h174v-105h239q31 0 53.5 -22t22.5 -54v-307q0 -30 -22.5 -53t-53.5 -23h-239v-111h-174v675zM270 259h132q9 0 9 9v142q0 10 -9 10h-132v-161z" />
    <glyph glyph-name="germandbls" unicode="&#xdf;" horiz-adv-x="676" 
d="M255 541v-541h-173v675h471q51 0 68.5 -31.5t-9.5 -74.5l-119 -194q77 -3 104 -29t27 -87v-173q0 -40 -24.5 -63t-65.5 -23h-205v128h118q10 0 10 10v128q0 11 -10 11h-106v106l91 145q7 13 -6 13h-171z" />
    <glyph glyph-name="agrave" unicode="&#xe0;" horiz-adv-x="681" 
d="M591 596v-596h-174v168h-153v-168h-174v596q0 35 22 57t57 22h343q35 0 57 -22t22 -57zM264 314h153v203q0 20 -24 20h-108q-9 0 -15 -6t-6 -14v-203zM288 746l-108 172h145l73 -172h-110z" />
    <glyph glyph-name="aacute" unicode="&#xe1;" horiz-adv-x="681" 
d="M591 596v-596h-174v168h-153v-168h-174v596q0 35 22 57t57 22h343q35 0 57 -22t22 -57zM264 314h153v203q0 20 -24 20h-108q-9 0 -15 -6t-6 -14v-203zM394 746h-110l73 172h145z" />
    <glyph glyph-name="acircumflex" unicode="&#xe2;" horiz-adv-x="681" 
d="M591 596v-596h-174v168h-153v-168h-174v596q0 35 22 57t57 22h343q35 0 57 -22t22 -57zM264 314h153v203q0 20 -24 20h-108q-9 0 -15 -6t-6 -14v-203zM340 830l-73 -85h-127l153 172h94l153 -172h-127z" />
    <glyph glyph-name="atilde" unicode="&#xe3;" horiz-adv-x="681" 
d="M591 596v-596h-174v168h-153v-168h-174v596q0 35 22 57t57 22h343q35 0 57 -22t22 -57zM264 314h153v203q0 20 -24 20h-108q-9 0 -15 -6t-6 -14v-203zM266 894q40 0 81 -27t56 -27q19 0 30 15t11 37h93q0 -71 -32.5 -109.5t-87.5 -38.5q-40 0 -82 27t-57 27
q-19 0 -29.5 -15t-10.5 -37h-93q0 71 32.5 109.5t88.5 38.5z" />
    <glyph glyph-name="adieresis" unicode="&#xe4;" horiz-adv-x="681" 
d="M591 596v-596h-174v168h-153v-168h-174v596q0 35 22 57t57 22h343q35 0 57 -22t22 -57zM264 314h153v203q0 20 -24 20h-108q-9 0 -15 -6t-6 -14v-203zM163 772v136h139v-136h-139zM385 772v136h139v-136h-139z" />
    <glyph glyph-name="aring" unicode="&#xe5;" horiz-adv-x="681" 
d="M591 596v-596h-174v168h-153v-168h-174v596q0 35 22 57t57 22h343q35 0 57 -22t22 -57zM264 314h153v203q0 20 -24 20h-108q-9 0 -15 -6t-6 -14v-203zM462 853q0 -49 -35 -84t-87 -35q-48 0 -84.5 35.5t-36.5 83.5t36.5 83t84.5 35q52 0 87 -34.5t35 -83.5zM290 853
q0 -23 13.5 -36t36.5 -13t37.5 13.5t14.5 35.5q0 25 -14.5 38.5t-37.5 13.5q-50 0 -50 -52z" />
    <glyph glyph-name="ae" unicode="&#xe6;" horiz-adv-x="950" 
d="M878 0h-451v168h-163v-168h-174v596q0 35 22 57t57 22h709v-145h-277v-117h241v-144h-241v-123h277v-146zM264 314h163v223h-142q-9 0 -15 -6t-6 -14v-203z" />
    <glyph glyph-name="ccedilla" unicode="&#xe7;" horiz-adv-x="654" 
d="M200 -292l16 88h171q3 0 5 5l9 53q0 4 -4 4h-173l23 142h-80q-32 0 -54.5 22t-22.5 55v522q0 31 22.5 53.5t54.5 22.5h339q32 0 55.5 -22.5t23.5 -53.5v-174h-174v94q0 11 -9 11h-127q-11 0 -11 -11v-363q0 -10 11 -10h127q9 0 9 10v96h174v-175q0 -33 -23 -55t-56 -22
h-173l-11 -56h143q19 0 29 -12t7 -31l-24 -150q-3 -19 -17 -31t-33 -12h-227z" />
    <glyph glyph-name="egrave" unicode="&#xe8;" horiz-adv-x="609" 
d="M96 0v675h441v-145h-268v-118h232v-144h-232v-122h268v-146h-441zM263 746l-108 172h145l73 -172h-110z" />
    <glyph glyph-name="eacute" unicode="&#xe9;" horiz-adv-x="609" 
d="M96 0v675h441v-145h-268v-118h232v-144h-232v-122h268v-146h-441zM369 746h-110l73 172h145z" />
    <glyph glyph-name="ecircumflex" unicode="&#xea;" horiz-adv-x="609" 
d="M96 0v675h441v-145h-268v-118h232v-144h-232v-122h268v-146h-441zM315 830l-73 -85h-127l153 172h94l153 -172h-127z" />
    <glyph glyph-name="edieresis" unicode="&#xeb;" horiz-adv-x="609" 
d="M96 0v675h441v-145h-268v-118h232v-144h-232v-122h268v-146h-441zM138 772v136h139v-136h-139zM360 772v136h139v-136h-139z" />
    <glyph glyph-name="igrave" unicode="&#xec;" horiz-adv-x="365" 
d="M269 675v-675h-173v675h173zM133 746l-108 172h145l73 -172h-110z" />
    <glyph glyph-name="iacute" unicode="&#xed;" horiz-adv-x="365" 
d="M269 675v-675h-173v675h173zM239 746h-110l73 172h145z" />
    <glyph glyph-name="icircumflex" unicode="&#xee;" horiz-adv-x="365" 
d="M269 675v-675h-173v675h173zM185 830l-73 -85h-127l153 172h94l153 -172h-127z" />
    <glyph glyph-name="idieresis" unicode="&#xef;" horiz-adv-x="365" 
d="M269 675v-675h-173v675h173zM8 772v136h139v-136h-139zM230 772v136h139v-136h-139z" />
    <glyph glyph-name="eth" unicode="&#xf0;" horiz-adv-x="686" 
d="M36 269v125h60v281h363q56 0 96.5 -40t40.5 -97v-400q0 -57 -40.5 -97.5t-96.5 -40.5h-363v269h-60zM423 195v286q0 22 -13.5 35.5t-35.5 13.5h-104v-136h73v-125h-73v-123h104q22 0 35.5 13.5t13.5 35.5z" />
    <glyph glyph-name="ntilde" unicode="&#xf1;" horiz-adv-x="714" 
d="M453 0l-197 371v-371h-160v675h160l202 -372v372h160v-675h-165zM283 894q40 0 81 -27t56 -27q19 0 30 15t11 37h93q0 -71 -32.5 -109.5t-87.5 -38.5q-40 0 -82 27t-57 27q-19 0 -29.5 -15t-10.5 -37h-93q0 71 32.5 109.5t88.5 38.5z" />
    <glyph glyph-name="ograve" unicode="&#xf2;" horiz-adv-x="685" 
d="M169 675h347q35 0 57 -22t22 -57v-517q0 -35 -22 -57t-57 -22h-347q-35 0 -57 22t-22 57v517q0 35 22 57t57 22zM421 155v363q0 11 -11 11h-137q-9 0 -9 -11v-363q0 -9 9 -9h137q11 0 11 9zM288 746l-108 172h145l73 -172h-110z" />
    <glyph glyph-name="oacute" unicode="&#xf3;" horiz-adv-x="685" 
d="M169 675h347q35 0 57 -22t22 -57v-517q0 -35 -22 -57t-57 -22h-347q-35 0 -57 22t-22 57v517q0 35 22 57t57 22zM421 155v363q0 11 -11 11h-137q-9 0 -9 -11v-363q0 -9 9 -9h137q11 0 11 9zM394 746h-110l73 172h145z" />
    <glyph glyph-name="ocircumflex" unicode="&#xf4;" horiz-adv-x="685" 
d="M169 675h347q35 0 57 -22t22 -57v-517q0 -35 -22 -57t-57 -22h-347q-35 0 -57 22t-22 57v517q0 35 22 57t57 22zM421 155v363q0 11 -11 11h-137q-9 0 -9 -11v-363q0 -9 9 -9h137q11 0 11 9zM340 830l-73 -85h-127l153 172h94l153 -172h-127z" />
    <glyph glyph-name="otilde" unicode="&#xf5;" horiz-adv-x="685" 
d="M169 675h347q35 0 57 -22t22 -57v-517q0 -35 -22 -57t-57 -22h-347q-35 0 -57 22t-22 57v517q0 35 22 57t57 22zM421 155v363q0 11 -11 11h-137q-9 0 -9 -11v-363q0 -9 9 -9h137q11 0 11 9zM266 894q40 0 81 -27t56 -27q19 0 30 15t11 37h93q0 -71 -32.5 -109.5
t-87.5 -38.5q-40 0 -82 27t-57 27q-19 0 -29.5 -15t-10.5 -37h-93q0 71 32.5 109.5t88.5 38.5z" />
    <glyph glyph-name="odieresis" unicode="&#xf6;" horiz-adv-x="685" 
d="M169 675h347q35 0 57 -22t22 -57v-517q0 -35 -22 -57t-57 -22h-347q-35 0 -57 22t-22 57v517q0 35 22 57t57 22zM421 155v363q0 11 -11 11h-137q-9 0 -9 -11v-363q0 -9 9 -9h137q11 0 11 9zM163 772v136h139v-136h-139zM385 772v136h139v-136h-139z" />
    <glyph glyph-name="divide" unicode="&#xf7;" horiz-adv-x="580" 
d="M554 275h-528v143h528v-143zM371 486h-162v146h162v-146zM209 51v146h162v-146h-162z" />
    <glyph glyph-name="oslash" unicode="&#xf8;" horiz-adv-x="685" 
d="M121 -96l46 98q-32 6 -54.5 27t-22.5 50v517q0 35 22 57t57 22h274l43 94h71l-43 -94h2q35 0 57 -22t22 -57v-517q0 -35 -22 -57t-57 -22h-280l-44 -96h-71zM432 128l15 414q0 2 -2 6l-142 -429h118q11 0 11 9zM237 128q0 -3 1 -4l141 430h-117q-3 0 -6.5 -3.5t-3.5 -8.5
z" />
    <glyph glyph-name="ugrave" unicode="&#xf9;" 
d="M96 675h174v-520q0 -9 9 -9h127q11 0 11 9v520h174v-598q0 -33 -22 -55t-54 -22h-342q-31 0 -54 22.5t-23 54.5v598zM292 746l-108 172h145l73 -172h-110z" />
    <glyph glyph-name="uacute" unicode="&#xfa;" 
d="M96 675h174v-520q0 -9 9 -9h127q11 0 11 9v520h174v-598q0 -33 -22 -55t-54 -22h-342q-31 0 -54 22.5t-23 54.5v598zM398 746h-110l73 172h145z" />
    <glyph glyph-name="ucircumflex" unicode="&#xfb;" 
d="M96 675h174v-520q0 -9 9 -9h127q11 0 11 9v520h174v-598q0 -33 -22 -55t-54 -22h-342q-31 0 -54 22.5t-23 54.5v598zM344 830l-73 -85h-127l153 172h94l153 -172h-127z" />
    <glyph glyph-name="udieresis" unicode="&#xfc;" 
d="M96 675h174v-520q0 -9 9 -9h127q11 0 11 9v520h174v-598q0 -33 -22 -55t-54 -22h-342q-31 0 -54 22.5t-23 54.5v598zM167 772v136h139v-136h-139zM389 772v136h139v-136h-139z" />
    <glyph glyph-name="yacute" unicode="&#xfd;" horiz-adv-x="641" 
d="M408 0h-174v198h-90q-31 0 -53.5 23.5t-22.5 56.5v397h174v-311q0 -4 3.5 -7t7.5 -3h139q7 0 7 10v311h174v-397q0 -33 -22.5 -56.5t-53.5 -23.5h-89v-198zM372 746h-110l73 172h145z" />
    <glyph glyph-name="thorn" unicode="&#xfe;" horiz-adv-x="652" 
d="M96 675h174v-105h239q31 0 53.5 -22t22.5 -54v-307q0 -30 -22.5 -53t-53.5 -23h-239v-111h-174v675zM270 259h132q9 0 9 9v142q0 10 -9 10h-132v-161z" />
    <glyph glyph-name="ydieresis" unicode="&#xff;" horiz-adv-x="641" 
d="M408 0h-174v198h-90q-31 0 -53.5 23.5t-22.5 56.5v397h174v-311q0 -4 3.5 -7t7.5 -3h139q7 0 7 10v311h174v-397q0 -33 -22.5 -56.5t-53.5 -23.5h-89v-198zM363 772v136h139v-136h-139zM141 772v136h139v-136h-139z" />
    <glyph glyph-name="Amacron" unicode="&#x100;" horiz-adv-x="681" 
d="M591 596v-596h-174v168h-153v-168h-174v596q0 35 22 57t57 22h343q35 0 57 -22t22 -57zM264 314h153v203q0 20 -24 20h-108q-9 0 -15 -6t-6 -14v-203zM172 786v109h339v-109h-339z" />
    <glyph glyph-name="amacron" unicode="&#x101;" horiz-adv-x="681" 
d="M591 596v-596h-174v168h-153v-168h-174v596q0 35 22 57t57 22h343q35 0 57 -22t22 -57zM264 314h153v203q0 20 -24 20h-108q-9 0 -15 -6t-6 -14v-203zM172 786v109h339v-109h-339z" />
    <glyph glyph-name="Abreve" unicode="&#x102;" horiz-adv-x="681" 
d="M591 596v-596h-174v168h-153v-168h-174v596q0 35 22 57t57 22h343q35 0 57 -22t22 -57zM264 314h153v203q0 20 -24 20h-108q-9 0 -15 -6t-6 -14v-203zM341 835q65 0 65 74h103q0 -161 -168 -161q-176 0 -176 161h109q0 -74 67 -74z" />
    <glyph glyph-name="abreve" unicode="&#x103;" horiz-adv-x="681" 
d="M591 596v-596h-174v168h-153v-168h-174v596q0 35 22 57t57 22h343q35 0 57 -22t22 -57zM264 314h153v203q0 20 -24 20h-108q-9 0 -15 -6t-6 -14v-203zM341 835q65 0 65 74h103q0 -161 -168 -161q-176 0 -176 161h109q0 -74 67 -74z" />
    <glyph glyph-name="Aogonek" unicode="&#x104;" horiz-adv-x="681" 
d="M630 -232h-196q-19 0 -30.5 10.5t-11.5 27.5v52q0 26 17 51l57 91h-49v168h-153v-168h-174v596q0 35 22 57t57 22h343q35 0 57 -22t22 -57v-596h-2l-90 -131h131v-101zM264 314h153v203q0 20 -24 20h-108q-9 0 -15 -6t-6 -14v-203z" />
    <glyph glyph-name="aogonek" unicode="&#x105;" horiz-adv-x="681" 
d="M630 -232h-196q-19 0 -30.5 10.5t-11.5 27.5v52q0 26 17 51l57 91h-49v168h-153v-168h-174v596q0 35 22 57t57 22h343q35 0 57 -22t22 -57v-596h-2l-90 -131h131v-101zM264 314h153v203q0 20 -24 20h-108q-9 0 -15 -6t-6 -14v-203z" />
    <glyph glyph-name="Cacute" unicode="&#x106;" horiz-adv-x="654" 
d="M411 252h174v-175q0 -33 -23 -55t-56 -22h-339q-32 0 -54.5 22t-22.5 55v522q0 31 22.5 53.5t54.5 22.5h339q32 0 55.5 -22.5t23.5 -53.5v-174h-174v94q0 11 -9 11h-127q-11 0 -11 -11v-363q0 -10 11 -10h127q9 0 9 10v96zM394 746h-110l73 172h145z" />
    <glyph glyph-name="cacute" unicode="&#x107;" horiz-adv-x="654" 
d="M411 252h174v-175q0 -33 -23 -55t-56 -22h-339q-32 0 -54.5 22t-22.5 55v522q0 31 22.5 53.5t54.5 22.5h339q32 0 55.5 -22.5t23.5 -53.5v-174h-174v94q0 11 -9 11h-127q-11 0 -11 -11v-363q0 -10 11 -10h127q9 0 9 10v96zM394 746h-110l73 172h145z" />
    <glyph glyph-name="Cdotaccent" unicode="&#x10a;" horiz-adv-x="654" 
d="M411 252h174v-175q0 -33 -23 -55t-56 -22h-339q-32 0 -54.5 22t-22.5 55v522q0 31 22.5 53.5t54.5 22.5h339q32 0 55.5 -22.5t23.5 -53.5v-174h-174v94q0 11 -9 11h-127q-11 0 -11 -11v-363q0 -10 11 -10h127q9 0 9 10v96zM269 771v143h144v-143h-144z" />
    <glyph glyph-name="cdotaccent" unicode="&#x10b;" horiz-adv-x="654" 
d="M411 252h174v-175q0 -33 -23 -55t-56 -22h-339q-32 0 -54.5 22t-22.5 55v522q0 31 22.5 53.5t54.5 22.5h339q32 0 55.5 -22.5t23.5 -53.5v-174h-174v94q0 11 -9 11h-127q-11 0 -11 -11v-363q0 -10 11 -10h127q9 0 9 10v96zM269 771v143h144v-143h-144z" />
    <glyph glyph-name="Ccaron" unicode="&#x10c;" horiz-adv-x="654" 
d="M411 252h174v-175q0 -33 -23 -55t-56 -22h-339q-32 0 -54.5 22t-22.5 55v522q0 31 22.5 53.5t54.5 22.5h339q32 0 55.5 -22.5t23.5 -53.5v-174h-174v94q0 11 -9 11h-127q-11 0 -11 -11v-363q0 -10 11 -10h127q9 0 9 10v96zM268 909l73 -85l73 85h127l-153 -172h-94
l-153 172h127z" />
    <glyph glyph-name="ccaron" unicode="&#x10d;" horiz-adv-x="654" 
d="M411 252h174v-175q0 -33 -23 -55t-56 -22h-339q-32 0 -54.5 22t-22.5 55v522q0 31 22.5 53.5t54.5 22.5h339q32 0 55.5 -22.5t23.5 -53.5v-174h-174v94q0 11 -9 11h-127q-11 0 -11 -11v-363q0 -10 11 -10h127q9 0 9 10v96zM268 909l73 -85l73 85h127l-153 -172h-94
l-153 172h127z" />
    <glyph glyph-name="Dcaron" unicode="&#x10e;" horiz-adv-x="686" 
d="M96 675h363q56 0 96.5 -40t40.5 -97v-400q0 -57 -40.5 -97.5t-96.5 -40.5h-363v675zM423 195v286q0 22 -13.5 35.5t-35.5 13.5h-104v-384h104q22 0 35.5 13.5t13.5 35.5zM268 909l73 -85l73 85h127l-153 -172h-94l-153 172h127z" />
    <glyph glyph-name="dcaron" unicode="&#x10f;" horiz-adv-x="686" 
d="M96 675h363q56 0 96.5 -40t40.5 -97v-400q0 -57 -40.5 -97.5t-96.5 -40.5h-363v675zM423 195v286q0 22 -13.5 35.5t-35.5 13.5h-104v-384h104q22 0 35.5 13.5t13.5 35.5zM268 909l73 -85l73 85h127l-153 -172h-94l-153 172h127z" />
    <glyph glyph-name="Dcroat" unicode="&#x110;" horiz-adv-x="686" 
d="M36 269v125h60v281h363q56 0 96.5 -40t40.5 -97v-400q0 -57 -40.5 -97.5t-96.5 -40.5h-363v269h-60zM423 195v286q0 22 -13.5 35.5t-35.5 13.5h-104v-136h78v-125h-78v-123h104q22 0 35.5 13.5t13.5 35.5z" />
    <glyph glyph-name="dcroat" unicode="&#x111;" horiz-adv-x="686" 
d="M36 269v125h60v281h363q56 0 96.5 -40t40.5 -97v-400q0 -57 -40.5 -97.5t-96.5 -40.5h-363v269h-60zM423 195v286q0 22 -13.5 35.5t-35.5 13.5h-104v-136h78v-125h-78v-123h104q22 0 35.5 13.5t13.5 35.5z" />
    <glyph glyph-name="Emacron" unicode="&#x112;" horiz-adv-x="609" 
d="M96 0v675h441v-145h-268v-118h232v-144h-232v-122h268v-146h-441zM147 786v109h339v-109h-339z" />
    <glyph glyph-name="emacron" unicode="&#x113;" horiz-adv-x="609" 
d="M96 0v675h441v-145h-268v-118h232v-144h-232v-122h268v-146h-441zM147 786v109h339v-109h-339z" />
    <glyph glyph-name="Ebreve" unicode="&#x114;" horiz-adv-x="609" 
d="M96 0v675h441v-145h-268v-118h232v-144h-232v-122h268v-146h-441zM316 835q65 0 65 74h103q0 -161 -168 -161q-176 0 -176 161h109q0 -74 67 -74z" />
    <glyph glyph-name="ebreve" unicode="&#x115;" horiz-adv-x="609" 
d="M96 0v675h441v-145h-268v-118h232v-144h-232v-122h268v-146h-441zM316 835q65 0 65 74h103q0 -161 -168 -161q-176 0 -176 161h109q0 -74 67 -74z" />
    <glyph glyph-name="Edotaccent" unicode="&#x116;" horiz-adv-x="609" 
d="M96 0v675h441v-145h-268v-118h232v-144h-232v-122h268v-146h-441zM244 771v143h144v-143h-144z" />
    <glyph glyph-name="edotaccent" unicode="&#x117;" horiz-adv-x="609" 
d="M96 0v675h441v-145h-268v-118h232v-144h-232v-122h268v-146h-441zM244 771v143h144v-143h-144z" />
    <glyph glyph-name="Eogonek" unicode="&#x118;" horiz-adv-x="609" 
d="M96 0v675h441v-145h-268v-118h232v-144h-232v-122h268v-146h-2l-90 -131h131v-101h-196q-19 0 -30.5 10.5t-11.5 27.5v52q0 26 17 51l57 91h-316z" />
    <glyph glyph-name="eogonek" unicode="&#x119;" horiz-adv-x="609" 
d="M96 0v675h441v-145h-268v-118h232v-144h-232v-122h268v-146h-2l-90 -131h131v-101h-196q-19 0 -30.5 10.5t-11.5 27.5v52q0 26 17 51l57 91h-316z" />
    <glyph glyph-name="Ecaron" unicode="&#x11a;" horiz-adv-x="609" 
d="M96 0v675h441v-145h-268v-118h232v-144h-232v-122h268v-146h-441zM243 909l73 -85l73 85h127l-153 -172h-94l-153 172h127z" />
    <glyph glyph-name="ecaron" unicode="&#x11b;" horiz-adv-x="609" 
d="M96 0v675h441v-145h-268v-118h232v-144h-232v-122h268v-146h-441zM243 909l73 -85l73 85h127l-153 -172h-94l-153 172h127z" />
    <glyph glyph-name="Gcircumflex" unicode="&#x11c;" horiz-adv-x="704" 
d="M333 271v143h306v-143h-56v-194q0 -33 -22.5 -55t-54.5 -22h-338q-33 0 -55.5 22t-22.5 55v522q0 31 23 53.5t55 22.5h418v-145h-313q-10 0 -10 -11v-362q0 -10 10 -10h140q11 0 11 10v114h-91zM349 830l-73 -85h-127l153 172h94l153 -172h-127z" />
    <glyph glyph-name="gcircumflex" unicode="&#x11d;" horiz-adv-x="704" 
d="M333 271v143h306v-143h-56v-194q0 -33 -22.5 -55t-54.5 -22h-338q-33 0 -55.5 22t-22.5 55v522q0 31 23 53.5t55 22.5h418v-145h-313q-10 0 -10 -11v-362q0 -10 10 -10h140q11 0 11 10v114h-91zM349 830l-73 -85h-127l153 172h94l153 -172h-127z" />
    <glyph glyph-name="Gbreve" unicode="&#x11e;" horiz-adv-x="704" 
d="M333 271v143h306v-143h-56v-194q0 -33 -22.5 -55t-54.5 -22h-338q-33 0 -55.5 22t-22.5 55v522q0 31 23 53.5t55 22.5h418v-145h-313q-10 0 -10 -11v-362q0 -10 10 -10h140q11 0 11 10v114h-91zM350 835q65 0 65 74h103q0 -161 -168 -161q-176 0 -176 161h109
q0 -74 67 -74z" />
    <glyph glyph-name="gbreve" unicode="&#x11f;" horiz-adv-x="704" 
d="M333 271v143h306v-143h-56v-194q0 -33 -22.5 -55t-54.5 -22h-338q-33 0 -55.5 22t-22.5 55v522q0 31 23 53.5t55 22.5h418v-145h-313q-10 0 -10 -11v-362q0 -10 10 -10h140q11 0 11 10v114h-91zM350 835q65 0 65 74h103q0 -161 -168 -161q-176 0 -176 161h109
q0 -74 67 -74z" />
    <glyph glyph-name="Gdotaccent" unicode="&#x120;" horiz-adv-x="704" 
d="M333 271v143h306v-143h-56v-194q0 -33 -22.5 -55t-54.5 -22h-338q-33 0 -55.5 22t-22.5 55v522q0 31 23 53.5t55 22.5h418v-145h-313q-10 0 -10 -11v-362q0 -10 10 -10h140q11 0 11 10v114h-91zM278 771v143h144v-143h-144z" />
    <glyph glyph-name="gdotaccent" unicode="&#x121;" horiz-adv-x="704" 
d="M333 271v143h306v-143h-56v-194q0 -33 -22.5 -55t-54.5 -22h-338q-33 0 -55.5 22t-22.5 55v522q0 31 23 53.5t55 22.5h418v-145h-313q-10 0 -10 -11v-362q0 -10 10 -10h140q11 0 11 10v114h-91zM278 771v143h144v-143h-144z" />
    <glyph glyph-name="Gcommaaccent" unicode="&#x122;" horiz-adv-x="704" 
d="M333 271v143h306v-143h-56v-194q0 -33 -22.5 -55t-54.5 -22h-338q-33 0 -55.5 22t-22.5 55v522q0 31 23 53.5t55 22.5h418v-145h-313q-10 0 -10 -11v-362q0 -10 10 -10h140q11 0 11 10v114h-91zM329 -241h-110l73 172h145z" />
    <glyph glyph-name="gcommaaccent" unicode="&#x123;" horiz-adv-x="704" 
d="M333 271v143h306v-143h-56v-194q0 -33 -22.5 -55t-54.5 -22h-338q-33 0 -55.5 22t-22.5 55v522q0 31 23 53.5t55 22.5h418v-145h-313q-10 0 -10 -11v-362q0 -10 10 -10h140q11 0 11 10v114h-91zM329 -241h-110l73 172h145z" />
    <glyph glyph-name="Hcircumflex" unicode="&#x124;" horiz-adv-x="705" 
d="M609 675v-675h-174v268h-165v-268h-174v675h174v-258h165v258h174zM347 830l-73 -85h-127l153 172h94l153 -172h-127z" />
    <glyph glyph-name="hcircumflex" unicode="&#x125;" horiz-adv-x="705" 
d="M609 675v-675h-174v268h-165v-268h-174v675h174v-258h165v258h174zM347 830l-73 -85h-127l153 172h94l153 -172h-127z" />
    <glyph glyph-name="Hbar" unicode="&#x126;" horiz-adv-x="705" 
d="M609 675v-87h75v-114h-75v-474h-174v253h-165v-253h-174v474h-75v114h75v87h174v-87h165v87h174zM270 474v-87h165v87h-165z" />
    <glyph glyph-name="hbar" unicode="&#x127;" horiz-adv-x="705" 
d="M609 675v-87h75v-114h-75v-474h-174v253h-165v-253h-174v474h-75v114h75v87h174v-87h165v87h174zM270 474v-87h165v87h-165z" />
    <glyph glyph-name="Itilde" unicode="&#x128;" horiz-adv-x="365" 
d="M269 675v-675h-173v675h173zM111 894q40 0 81 -27t56 -27q19 0 30 15t11 37h93q0 -71 -32.5 -109.5t-87.5 -38.5q-40 0 -82 27t-57 27q-19 0 -29.5 -15t-10.5 -37h-93q0 71 32.5 109.5t88.5 38.5z" />
    <glyph glyph-name="itilde" unicode="&#x129;" horiz-adv-x="365" 
d="M269 675v-675h-173v675h173zM111 894q40 0 81 -27t56 -27q19 0 30 15t11 37h93q0 -71 -32.5 -109.5t-87.5 -38.5q-40 0 -82 27t-57 27q-19 0 -29.5 -15t-10.5 -37h-93q0 71 32.5 109.5t88.5 38.5z" />
    <glyph glyph-name="Imacron" unicode="&#x12a;" horiz-adv-x="365" 
d="M269 675v-675h-173v675h173zM17 786v109h339v-109h-339z" />
    <glyph glyph-name="imacron" unicode="&#x12b;" horiz-adv-x="365" 
d="M269 675v-675h-173v675h173zM17 786v109h339v-109h-339z" />
    <glyph glyph-name="Ibreve" unicode="&#x12c;" horiz-adv-x="365" 
d="M269 675v-675h-173v675h173zM186 835q65 0 65 74h103q0 -161 -168 -161q-176 0 -176 161h109q0 -74 67 -74z" />
    <glyph glyph-name="ibreve" unicode="&#x12d;" horiz-adv-x="365" 
d="M269 675v-675h-173v675h173zM186 835q65 0 65 74h103q0 -161 -168 -161q-176 0 -176 161h109q0 -74 67 -74z" />
    <glyph glyph-name="Iogonek" unicode="&#x12e;" horiz-adv-x="365" 
d="M308 -232h-196q-19 0 -30.5 10.5t-11.5 27.5v52q0 26 17 51l57 91h-48v675h173v-675h-2l-90 -131h131v-101z" />
    <glyph glyph-name="iogonek" unicode="&#x12f;" horiz-adv-x="365" 
d="M308 -232h-196q-19 0 -30.5 10.5t-11.5 27.5v52q0 26 17 51l57 91h-48v675h173v-675h-2l-90 -131h131v-101z" />
    <glyph glyph-name="Idotaccent" unicode="&#x130;" horiz-adv-x="365" 
d="M269 675v-675h-173v675h173zM114 771v143h144v-143h-144z" />
    <glyph glyph-name="dotlessi" unicode="&#x131;" horiz-adv-x="365" 
d="M269 675v-675h-173v675h173z" />
    <glyph glyph-name="IJ" unicode="&#x132;" horiz-adv-x="692" 
d="M88 0v146h323q11 0 11 9v520h174v-598q0 -33 -22 -55t-54 -22h-432zM263 675v-388h-173v388h173z" />
    <glyph glyph-name="ij" unicode="&#x133;" horiz-adv-x="692" 
d="M88 0v146h323q11 0 11 9v520h174v-598q0 -33 -22 -55t-54 -22h-432zM263 675v-388h-173v388h173z" />
    <glyph glyph-name="Jcircumflex" unicode="&#x134;" horiz-adv-x="620" 
d="M67 322h174v-167q0 -9 9 -9h89q11 0 11 9v520h174v-598q0 -33 -22 -55t-54 -22h-304q-31 0 -54 22.5t-23 54.5v245zM436 830l-73 -85h-127l153 172h94l153 -172h-127z" />
    <glyph glyph-name="jcircumflex" unicode="&#x135;" horiz-adv-x="620" 
d="M67 322h174v-167q0 -9 9 -9h89q11 0 11 9v520h174v-598q0 -33 -22 -55t-54 -22h-304q-31 0 -54 22.5t-23 54.5v245zM436 830l-73 -85h-127l153 172h94l153 -172h-127z" />
    <glyph glyph-name="Kcommaaccent" unicode="&#x136;" horiz-adv-x="666" 
d="M647 0h-190l-132 258l-55 -89v-169h-174v675h174v-281l175 281h194l-195 -293zM321 -241h-110l73 172h145z" />
    <glyph glyph-name="kcommaaccent" unicode="&#x137;" horiz-adv-x="666" 
d="M647 0h-190l-132 258l-55 -89v-169h-174v675h174v-281l175 281h194l-195 -293zM321 -241h-110l73 172h145z" />
    <glyph glyph-name="Lacute" unicode="&#x139;" horiz-adv-x="536" 
d="M96 0v675h173v-529h215v-146h-388zM235 746h-110l73 172h145z" />
    <glyph glyph-name="lacute" unicode="&#x13a;" horiz-adv-x="536" 
d="M96 0v675h173v-529h215v-146h-388zM235 746h-110l73 172h145z" />
    <glyph glyph-name="Lcommaaccent" unicode="&#x13b;" horiz-adv-x="536" 
d="M96 0v675h173v-529h215v-146h-388zM171 -241h-110l73 172h145z" />
    <glyph glyph-name="lcommaaccent" unicode="&#x13c;" horiz-adv-x="536" 
d="M96 0v675h173v-529h215v-146h-388zM171 -241h-110l73 172h145z" />
    <glyph glyph-name="Lcaron" unicode="&#x13d;" horiz-adv-x="536" 
d="M96 0v675h173v-529h215v-146h-388zM109 909l73 -85l73 85h127l-153 -172h-94l-153 172h127z" />
    <glyph glyph-name="lcaron" unicode="&#x13e;" horiz-adv-x="536" 
d="M96 0v675h173v-529h215v-146h-388zM109 909l73 -85l73 85h127l-153 -172h-94l-153 172h127z" />
    <glyph glyph-name="Ldot" unicode="&#x13f;" horiz-adv-x="519" 
d="M106 771v143h144v-143h-144zM96 0v675h173v-529h215v-146h-388z" />
    <glyph glyph-name="Lslash" unicode="&#x141;" horiz-adv-x="519" 
d="M6 116l-57 68l147 123v368h173v-222l137 115l57 -69l-194 -163v-190h215v-146h-388v191z" />
    <glyph glyph-name="lslash" unicode="&#x142;" horiz-adv-x="519" 
d="M6 116l-57 68l147 123v368h173v-222l137 115l57 -69l-194 -163v-190h215v-146h-388v191z" />
    <glyph glyph-name="Nacute" unicode="&#x143;" horiz-adv-x="714" 
d="M453 0l-197 371v-371h-160v675h160l202 -372v372h160v-675h-165zM411 746h-110l73 172h145z" />
    <glyph glyph-name="nacute" unicode="&#x144;" horiz-adv-x="714" 
d="M453 0l-197 371v-371h-160v675h160l202 -372v372h160v-675h-165zM411 746h-110l73 172h145z" />
    <glyph glyph-name="Ncommaaccent" unicode="&#x145;" horiz-adv-x="714" 
d="M453 0l-197 371v-371h-160v675h160l202 -372v372h160v-675h-165zM342 -241h-110l73 172h145z" />
    <glyph glyph-name="ncommaaccent" unicode="&#x146;" horiz-adv-x="714" 
d="M453 0l-197 371v-371h-160v675h160l202 -372v372h160v-675h-165zM342 -241h-110l73 172h145z" />
    <glyph glyph-name="Ncaron" unicode="&#x147;" horiz-adv-x="714" 
d="M453 0l-197 371v-371h-160v675h160l202 -372v372h160v-675h-165zM285 909l73 -85l73 85h127l-153 -172h-94l-153 172h127z" />
    <glyph glyph-name="ncaron" unicode="&#x148;" horiz-adv-x="714" 
d="M453 0l-197 371v-371h-160v675h160l202 -372v372h160v-675h-165zM285 909l73 -85l73 85h127l-153 -172h-94l-153 172h127z" />
    <glyph glyph-name="Eng" unicode="&#x14a;" horiz-adv-x="714" 
d="M304 -230v146h143q11 0 11 9v149l-202 303v-377h-160v675h160l202 -296v296h160v-828q0 -33 -22 -55t-54 -22h-238z" />
    <glyph glyph-name="eng" unicode="&#x14b;" horiz-adv-x="714" 
d="M304 -230v146h143q11 0 11 9v149l-202 303v-377h-160v675h160l202 -296v296h160v-828q0 -33 -22 -55t-54 -22h-238z" />
    <glyph glyph-name="Omacron" unicode="&#x14c;" horiz-adv-x="685" 
d="M169 675h347q35 0 57 -22t22 -57v-517q0 -35 -22 -57t-57 -22h-347q-35 0 -57 22t-22 57v517q0 35 22 57t57 22zM421 155v363q0 11 -11 11h-137q-9 0 -9 -11v-363q0 -9 9 -9h137q11 0 11 9zM172 786v109h339v-109h-339z" />
    <glyph glyph-name="omacron" unicode="&#x14d;" horiz-adv-x="685" 
d="M169 675h347q35 0 57 -22t22 -57v-517q0 -35 -22 -57t-57 -22h-347q-35 0 -57 22t-22 57v517q0 35 22 57t57 22zM421 155v363q0 11 -11 11h-137q-9 0 -9 -11v-363q0 -9 9 -9h137q11 0 11 9zM172 786v109h339v-109h-339z" />
    <glyph glyph-name="Obreve" unicode="&#x14e;" horiz-adv-x="685" 
d="M169 675h347q35 0 57 -22t22 -57v-517q0 -35 -22 -57t-57 -22h-347q-35 0 -57 22t-22 57v517q0 35 22 57t57 22zM421 155v363q0 11 -11 11h-137q-9 0 -9 -11v-363q0 -9 9 -9h137q11 0 11 9zM341 835q65 0 65 74h103q0 -161 -168 -161q-176 0 -176 161h109q0 -74 67 -74z
" />
    <glyph glyph-name="obreve" unicode="&#x14f;" horiz-adv-x="685" 
d="M169 675h347q35 0 57 -22t22 -57v-517q0 -35 -22 -57t-57 -22h-347q-35 0 -57 22t-22 57v517q0 35 22 57t57 22zM421 155v363q0 11 -11 11h-137q-9 0 -9 -11v-363q0 -9 9 -9h137q11 0 11 9zM341 835q65 0 65 74h103q0 -161 -168 -161q-176 0 -176 161h109q0 -74 67 -74z
" />
    <glyph glyph-name="Ohungarumlaut" unicode="&#x150;" horiz-adv-x="685" 
d="M169 675h347q35 0 57 -22t22 -57v-517q0 -35 -22 -57t-57 -22h-347q-35 0 -57 22t-22 57v517q0 35 22 57t57 22zM421 155v363q0 11 -11 11h-137q-9 0 -9 -11v-363q0 -9 9 -9h137q11 0 11 9zM264 746h-110l73 172h145zM496 746h-110l73 172h145z" />
    <glyph glyph-name="ohungarumlaut" unicode="&#x151;" horiz-adv-x="685" 
d="M169 675h347q35 0 57 -22t22 -57v-517q0 -35 -22 -57t-57 -22h-347q-35 0 -57 22t-22 57v517q0 35 22 57t57 22zM421 155v363q0 11 -11 11h-137q-9 0 -9 -11v-363q0 -9 9 -9h137q11 0 11 9zM264 746h-110l73 172h145zM496 746h-110l73 172h145z" />
    <glyph glyph-name="OE" unicode="&#x152;" horiz-adv-x="964" 
d="M273 146h163v383h-163q-9 0 -9 -11v-363q0 -9 9 -9zM169 0q-35 0 -57 22t-22 57v517q0 35 22 57t57 22h723v-145h-282v-117h246v-144h-246v-123h282v-146h-723z" />
    <glyph glyph-name="oe" unicode="&#x153;" horiz-adv-x="964" 
d="M273 146h163v383h-163q-9 0 -9 -11v-363q0 -9 9 -9zM169 0q-35 0 -57 22t-22 57v517q0 35 22 57t57 22h723v-145h-282v-117h246v-144h-246v-123h282v-146h-723z" />
    <glyph glyph-name="Racute" unicode="&#x154;" horiz-adv-x="679" 
d="M96 675h424q31 0 53.5 -22t22.5 -54v-309q0 -31 -22.5 -53.5t-53.5 -22.5h-5l83 -214h-170l-84 214h-74v-214h-174v675zM423 359v161q0 10 -9 10h-144v-180h144q3 0 6 3t3 6zM394 746h-110l73 172h145z" />
    <glyph glyph-name="racute" unicode="&#x155;" horiz-adv-x="679" 
d="M96 675h424q31 0 53.5 -22t22.5 -54v-309q0 -31 -22.5 -53.5t-53.5 -22.5h-5l83 -214h-170l-84 214h-74v-214h-174v675zM423 359v161q0 10 -9 10h-144v-180h144q3 0 6 3t3 6zM394 746h-110l73 172h145z" />
    <glyph glyph-name="Rcommaaccent" unicode="&#x156;" horiz-adv-x="679" 
d="M96 675h424q31 0 53.5 -22t22.5 -54v-309q0 -31 -22.5 -53.5t-53.5 -22.5h-5l83 -214h-170l-84 214h-74v-214h-174v675zM423 359v161q0 10 -9 10h-144v-180h144q3 0 6 3t3 6zM321 -241h-110l73 172h145z" />
    <glyph glyph-name="rcommaaccent" unicode="&#x157;" horiz-adv-x="679" 
d="M96 675h424q31 0 53.5 -22t22.5 -54v-309q0 -31 -22.5 -53.5t-53.5 -22.5h-5l83 -214h-170l-84 214h-74v-214h-174v675zM423 359v161q0 10 -9 10h-144v-180h144q3 0 6 3t3 6zM321 -241h-110l73 172h145z" />
    <glyph glyph-name="Rcaron" unicode="&#x158;" horiz-adv-x="679" 
d="M96 675h424q31 0 53.5 -22t22.5 -54v-309q0 -31 -22.5 -53.5t-53.5 -22.5h-5l83 -214h-170l-84 214h-74v-214h-174v675zM268 909l73 -85l73 85h127l-153 -172h-94l-153 172h127zM423 359v161q0 10 -9 10h-144v-180h144q3 0 6 3t3 6z" />
    <glyph glyph-name="rcaron" unicode="&#x159;" horiz-adv-x="679" 
d="M96 675h424q31 0 53.5 -22t22.5 -54v-309q0 -31 -22.5 -53.5t-53.5 -22.5h-5l83 -214h-170l-84 214h-74v-214h-174v675zM268 909l73 -85l73 85h127l-153 -172h-94l-153 172h127zM423 359v161q0 10 -9 10h-144v-180h144q3 0 6 3t3 6z" />
    <glyph glyph-name="Sacute" unicode="&#x15a;" horiz-adv-x="597" 
d="M82 0v146h253q11 0 11 9v98q0 9 -11 9h-174q-35 0 -57 22t-22 57v255q0 35 22 57t57 22h349v-145h-244q-10 0 -10 -11v-99q0 -9 10 -9h174q35 0 57 -22t22 -57v-253q0 -35 -22 -57t-57 -22h-358zM360 746h-110l73 172h145z" />
    <glyph glyph-name="sacute" unicode="&#x15b;" horiz-adv-x="597" 
d="M82 0v146h253q11 0 11 9v98q0 9 -11 9h-174q-35 0 -57 22t-22 57v255q0 35 22 57t57 22h349v-145h-244q-10 0 -10 -11v-99q0 -9 10 -9h174q35 0 57 -22t22 -57v-253q0 -35 -22 -57t-57 -22h-358zM360 746h-110l73 172h145z" />
    <glyph glyph-name="Scircumflex" unicode="&#x15c;" horiz-adv-x="597" 
d="M82 0v146h253q11 0 11 9v98q0 9 -11 9h-174q-35 0 -57 22t-22 57v255q0 35 22 57t57 22h349v-145h-244q-10 0 -10 -11v-99q0 -9 10 -9h174q35 0 57 -22t22 -57v-253q0 -35 -22 -57t-57 -22h-358zM306 830l-73 -85h-127l153 172h94l153 -172h-127z" />
    <glyph glyph-name="scircumflex" unicode="&#x15d;" horiz-adv-x="597" 
d="M82 0v146h253q11 0 11 9v98q0 9 -11 9h-174q-35 0 -57 22t-22 57v255q0 35 22 57t57 22h349v-145h-244q-10 0 -10 -11v-99q0 -9 10 -9h174q35 0 57 -22t22 -57v-253q0 -35 -22 -57t-57 -22h-358zM306 830l-73 -85h-127l153 172h94l153 -172h-127z" />
    <glyph glyph-name="Scedilla" unicode="&#x15e;" horiz-adv-x="597" 
d="M82 0v146h253q11 0 11 9v98q0 9 -11 9h-174q-35 0 -57 22t-22 57v255q0 35 22 57t57 22h349v-145h-244q-10 0 -10 -11v-99q0 -9 10 -9h174q35 0 57 -22t22 -57v-253q0 -35 -22 -57t-57 -22h-143l-11 -56h143q19 0 29 -12t7 -31l-24 -150q-3 -19 -17 -31t-33 -12h-227
l16 88h171q3 0 5 5l9 53q0 4 -4 4h-173l23 142h-129z" />
    <glyph glyph-name="scedilla" unicode="&#x15f;" horiz-adv-x="597" 
d="M82 0v146h253q11 0 11 9v98q0 9 -11 9h-174q-35 0 -57 22t-22 57v255q0 35 22 57t57 22h349v-145h-244q-10 0 -10 -11v-99q0 -9 10 -9h174q35 0 57 -22t22 -57v-253q0 -35 -22 -57t-57 -22h-143l-11 -56h143q19 0 29 -12t7 -31l-24 -150q-3 -19 -17 -31t-33 -12h-227
l16 88h171q3 0 5 5l9 53q0 4 -4 4h-173l23 142h-129z" />
    <glyph glyph-name="Scaron" unicode="&#x160;" horiz-adv-x="597" 
d="M82 0v146h253q11 0 11 9v98q0 9 -11 9h-174q-35 0 -57 22t-22 57v255q0 35 22 57t57 22h349v-145h-244q-10 0 -10 -11v-99q0 -9 10 -9h174q35 0 57 -22t22 -57v-253q0 -35 -22 -57t-57 -22h-358zM234 909l73 -85l73 85h127l-153 -172h-94l-153 172h127z" />
    <glyph glyph-name="scaron" unicode="&#x161;" horiz-adv-x="597" 
d="M82 0v146h253q11 0 11 9v98q0 9 -11 9h-174q-35 0 -57 22t-22 57v255q0 35 22 57t57 22h349v-145h-244q-10 0 -10 -11v-99q0 -9 10 -9h174q35 0 57 -22t22 -57v-253q0 -35 -22 -57t-57 -22h-358zM234 909l73 -85l73 85h127l-153 -172h-94l-153 172h127z" />
    <glyph glyph-name="Tcommaaccent" unicode="&#x162;" horiz-adv-x="546" 
d="M33 675h480v-146h-153v-529h-174v529h-153v146zM242 -241h-110l73 172h145z" />
    <glyph glyph-name="Tcommaaccent" unicode="&#x21a;" horiz-adv-x="546" 
d="M33 675h480v-146h-153v-529h-174v529h-153v146zM242 -241h-110l73 172h145z" />
    <glyph glyph-name="tcommaaccent" unicode="&#x163;" horiz-adv-x="546" 
d="M33 675h480v-146h-153v-529h-174v529h-153v146zM249 -241h-110l73 172h145z" />
    <glyph glyph-name="tcommaaccent" unicode="&#x21b;" horiz-adv-x="546" 
d="M33 675h480v-146h-153v-529h-174v529h-153v146zM249 -241h-110l73 172h145z" />
    <glyph glyph-name="Tcaron" unicode="&#x164;" horiz-adv-x="546" 
d="M33 675h480v-146h-153v-529h-174v529h-153v146zM200 909l73 -85l73 85h127l-153 -172h-94l-153 172h127z" />
    <glyph glyph-name="tcaron" unicode="&#x165;" horiz-adv-x="546" 
d="M33 675h480v-146h-153v-529h-174v529h-153v146zM200 909l73 -85l73 85h127l-153 -172h-94l-153 172h127z" />
    <glyph glyph-name="Tbar" unicode="&#x166;" horiz-adv-x="648" 
d="M96 675h480v-146h-153v-158h132v-128h-132v-243h-174v243h-132v128h132v158h-153v146z" />
    <glyph glyph-name="Utilde" unicode="&#x168;" 
d="M96 675h174v-520q0 -9 9 -9h127q11 0 11 9v520h174v-598q0 -33 -22 -55t-54 -22h-342q-31 0 -54 22.5t-23 54.5v598zM270 894q40 0 81 -27t56 -27q19 0 30 15t11 37h93q0 -71 -32.5 -109.5t-87.5 -38.5q-40 0 -82 27t-57 27q-19 0 -29.5 -15t-10.5 -37h-93
q0 71 32.5 109.5t88.5 38.5z" />
    <glyph glyph-name="utilde" unicode="&#x169;" 
d="M96 675h174v-520q0 -9 9 -9h127q11 0 11 9v520h174v-598q0 -33 -22 -55t-54 -22h-342q-31 0 -54 22.5t-23 54.5v598zM270 894q40 0 81 -27t56 -27q19 0 30 15t11 37h93q0 -71 -32.5 -109.5t-87.5 -38.5q-40 0 -82 27t-57 27q-19 0 -29.5 -15t-10.5 -37h-93
q0 71 32.5 109.5t88.5 38.5z" />
    <glyph glyph-name="Umacron" unicode="&#x16a;" 
d="M96 675h174v-520q0 -9 9 -9h127q11 0 11 9v520h174v-598q0 -33 -22 -55t-54 -22h-342q-31 0 -54 22.5t-23 54.5v598zM176 786v109h339v-109h-339z" />
    <glyph glyph-name="umacron" unicode="&#x16b;" 
d="M96 675h174v-520q0 -9 9 -9h127q11 0 11 9v520h174v-598q0 -33 -22 -55t-54 -22h-342q-31 0 -54 22.5t-23 54.5v598zM176 786v109h339v-109h-339z" />
    <glyph glyph-name="Ubreve" unicode="&#x16c;" 
d="M96 675h174v-520q0 -9 9 -9h127q11 0 11 9v520h174v-598q0 -33 -22 -55t-54 -22h-342q-31 0 -54 22.5t-23 54.5v598zM345 835q65 0 65 74h103q0 -161 -168 -161q-176 0 -176 161h109q0 -74 67 -74z" />
    <glyph glyph-name="ubreve" unicode="&#x16d;" 
d="M96 675h174v-520q0 -9 9 -9h127q11 0 11 9v520h174v-598q0 -33 -22 -55t-54 -22h-342q-31 0 -54 22.5t-23 54.5v598zM345 835q65 0 65 74h103q0 -161 -168 -161q-176 0 -176 161h109q0 -74 67 -74z" />
    <glyph glyph-name="Uring" unicode="&#x16e;" 
d="M96 675h174v-520q0 -9 9 -9h127q11 0 11 9v520h174v-598q0 -33 -22 -55t-54 -22h-342q-31 0 -54 22.5t-23 54.5v598zM466 853q0 -49 -35 -84t-87 -35q-48 0 -84.5 35.5t-36.5 83.5t36.5 83t84.5 35q52 0 87 -34.5t35 -83.5zM294 853q0 -23 13.5 -36t36.5 -13t37.5 13.5
t14.5 35.5q0 25 -14.5 38.5t-37.5 13.5q-50 0 -50 -52z" />
    <glyph glyph-name="uring" unicode="&#x16f;" 
d="M96 675h174v-520q0 -9 9 -9h127q11 0 11 9v520h174v-598q0 -33 -22 -55t-54 -22h-342q-31 0 -54 22.5t-23 54.5v598zM466 853q0 -49 -35 -84t-87 -35q-48 0 -84.5 35.5t-36.5 83.5t36.5 83t84.5 35q52 0 87 -34.5t35 -83.5zM294 853q0 -23 13.5 -36t36.5 -13t37.5 13.5
t14.5 35.5q0 25 -14.5 38.5t-37.5 13.5q-50 0 -50 -52z" />
    <glyph glyph-name="Uhungarumlaut" unicode="&#x170;" 
d="M96 675h174v-520q0 -9 9 -9h127q11 0 11 9v520h174v-598q0 -33 -22 -55t-54 -22h-342q-31 0 -54 22.5t-23 54.5v598zM268 746h-110l73 172h145zM500 746h-110l73 172h145z" />
    <glyph glyph-name="uhungarumlaut" unicode="&#x171;" 
d="M96 675h174v-520q0 -9 9 -9h127q11 0 11 9v520h174v-598q0 -33 -22 -55t-54 -22h-342q-31 0 -54 22.5t-23 54.5v598zM268 746h-110l73 172h145zM500 746h-110l73 172h145z" />
    <glyph glyph-name="Uogonek" unicode="&#x172;" 
d="M460 -232h-196q-19 0 -30.5 10.5t-11.5 27.5v52q0 26 17 51l57 91h-123q-31 0 -54 22.5t-23 54.5v598h174v-520q0 -9 9 -9h127q11 0 11 9v520h174v-598q0 -33 -22 -55t-54 -22h-96l-90 -131h131v-101z" />
    <glyph glyph-name="uogonek" unicode="&#x173;" 
d="M460 -232h-196q-19 0 -30.5 10.5t-11.5 27.5v52q0 26 17 51l57 91h-123q-31 0 -54 22.5t-23 54.5v598h174v-520q0 -9 9 -9h127q11 0 11 9v520h174v-598q0 -33 -22 -55t-54 -22h-96l-90 -131h131v-101z" />
    <glyph glyph-name="Wcircumflex" unicode="&#x174;" horiz-adv-x="829" 
d="M643 675h156l-127 -675h-153l-104 376l-107 -376h-150l-128 675h170l59 -424l91 424h143l86 -412zM421 830l-73 -85h-127l153 172h94l153 -172h-127z" />
    <glyph glyph-name="wcircumflex" unicode="&#x175;" horiz-adv-x="829" 
d="M643 675h156l-127 -675h-153l-104 376l-107 -376h-150l-128 675h170l59 -424l91 424h143l86 -412zM421 830l-73 -85h-127l153 172h94l153 -172h-127z" />
    <glyph glyph-name="Ycircumflex" unicode="&#x176;" horiz-adv-x="641" 
d="M408 0h-174v198h-90q-31 0 -53.5 23.5t-22.5 56.5v397h174v-311q0 -4 3.5 -7t7.5 -3h139q7 0 7 10v311h174v-397q0 -33 -22.5 -56.5t-53.5 -23.5h-89v-198zM318 830l-73 -85h-127l153 172h94l153 -172h-127z" />
    <glyph glyph-name="ycircumflex" unicode="&#x177;" horiz-adv-x="641" 
d="M408 0h-174v198h-90q-31 0 -53.5 23.5t-22.5 56.5v397h174v-311q0 -4 3.5 -7t7.5 -3h139q7 0 7 10v311h174v-397q0 -33 -22.5 -56.5t-53.5 -23.5h-89v-198zM318 830l-73 -85h-127l153 172h94l153 -172h-127z" />
    <glyph glyph-name="Ydieresis" unicode="&#x178;" horiz-adv-x="641" 
d="M408 0h-174v198h-90q-31 0 -53.5 23.5t-22.5 56.5v397h174v-311q0 -4 3.5 -7t7.5 -3h139q7 0 7 10v311h174v-397q0 -33 -22.5 -56.5t-53.5 -23.5h-89v-198zM363 772v136h139v-136h-139zM141 772v136h139v-136h-139z" />
    <glyph glyph-name="Zacute" unicode="&#x179;" horiz-adv-x="573" 
d="M53 139l252 390h-242v146h450v-139l-258 -390h268v-146h-470v139zM328 746h-110l73 172h145z" />
    <glyph glyph-name="zacute" unicode="&#x17a;" horiz-adv-x="573" 
d="M53 139l252 390h-242v146h450v-139l-258 -390h268v-146h-470v139zM328 746h-110l73 172h145z" />
    <glyph glyph-name="Zdotaccent" unicode="&#x17b;" horiz-adv-x="573" 
d="M53 139l252 390h-242v146h450v-139l-258 -390h268v-146h-470v139zM203 771v143h144v-143h-144z" />
    <glyph glyph-name="zdotaccent" unicode="&#x17c;" horiz-adv-x="573" 
d="M53 139l252 390h-242v146h450v-139l-258 -390h268v-146h-470v139zM203 771v143h144v-143h-144z" />
    <glyph glyph-name="Zcaron" unicode="&#x17d;" horiz-adv-x="573" 
d="M53 139l252 390h-242v146h450v-139l-258 -390h268v-146h-470v139zM202 909l73 -85l73 85h127l-153 -172h-94l-153 172h127z" />
    <glyph glyph-name="zcaron" unicode="&#x17e;" horiz-adv-x="573" 
d="M53 139l252 390h-242v146h450v-139l-258 -390h268v-146h-470v139zM202 909l73 -85l73 85h127l-153 -172h-94l-153 172h127z" />
    <glyph glyph-name="Ucaron" unicode="&#x1d3;" 
d="M96 675h174v-520q0 -9 9 -9h127q11 0 11 9v520h174v-598q0 -33 -22 -55t-54 -22h-342q-31 0 -54 22.5t-23 54.5v598zM272 909l73 -85l73 85h127l-153 -172h-94l-153 172h127z" />
    <glyph glyph-name="ucaron" unicode="&#x1d4;" 
d="M96 675h174v-520q0 -9 9 -9h127q11 0 11 9v520h174v-598q0 -33 -22 -55t-54 -22h-342q-31 0 -54 22.5t-23 54.5v598zM272 909l73 -85l73 85h127l-153 -172h-94l-153 172h127z" />
    <glyph glyph-name="AEmacron" unicode="&#x1e2;" horiz-adv-x="950" 
d="M878 0h-451v168h-163v-168h-174v596q0 35 22 57t57 22h709v-145h-277v-117h241v-144h-241v-123h277v-146zM264 314h163v223h-142q-9 0 -15 -6t-6 -14v-203zM322 786v109h339v-109h-339z" />
    <glyph glyph-name="aemacron" unicode="&#x1e3;" horiz-adv-x="950" 
d="M878 0h-451v168h-163v-168h-174v596q0 35 22 57t57 22h709v-145h-277v-117h241v-144h-241v-123h277v-146zM264 314h163v223h-142q-9 0 -15 -6t-6 -14v-203zM322 786v109h339v-109h-339z" />
    <glyph glyph-name="AEacute" unicode="&#x1fc;" horiz-adv-x="950" 
d="M878 0h-451v168h-163v-168h-174v596q0 35 22 57t57 22h709v-145h-277v-117h241v-144h-241v-123h277v-146zM264 314h163v223h-142q-9 0 -15 -6t-6 -14v-203zM544 746h-110l73 172h145z" />
    <glyph glyph-name="aeacute" unicode="&#x1fd;" horiz-adv-x="950" 
d="M878 0h-451v168h-163v-168h-174v596q0 35 22 57t57 22h709v-145h-277v-117h241v-144h-241v-123h277v-146zM264 314h163v223h-142q-9 0 -15 -6t-6 -14v-203zM544 746h-110l73 172h145z" />
    <glyph glyph-name="Oslashacute" unicode="&#x1fe;" horiz-adv-x="685" 
d="M121 -96l46 98q-32 6 -54.5 27t-22.5 50v517q0 35 22 57t57 22h274l43 94h71l-43 -94h2q35 0 57 -22t22 -57v-517q0 -35 -22 -57t-57 -22h-280l-44 -96h-71zM432 128l15 414q0 2 -2 6l-142 -429h118q11 0 11 9zM237 128q0 -3 1 -4l141 430h-117q-3 0 -6.5 -3.5t-3.5 -8.5
zM394 746h-110l73 172h145z" />
    <glyph glyph-name="oslashacute" unicode="&#x1ff;" horiz-adv-x="685" 
d="M121 -96l46 98q-32 6 -54.5 27t-22.5 50v517q0 35 22 57t57 22h274l43 94h71l-43 -94h2q35 0 57 -22t22 -57v-517q0 -35 -22 -57t-57 -22h-280l-44 -96h-71zM432 128l15 414q0 2 -2 6l-142 -429h118q11 0 11 9zM237 128q0 -3 1 -4l141 430h-117q-3 0 -6.5 -3.5t-3.5 -8.5
zM394 746h-110l73 172h145z" />
    <glyph glyph-name="Scommaaccent" unicode="&#x218;" horiz-adv-x="597" 
d="M82 0v146h253q11 0 11 9v98q0 9 -11 9h-174q-35 0 -57 22t-22 57v255q0 35 22 57t57 22h349v-145h-244q-10 0 -10 -11v-99q0 -9 10 -9h174q35 0 57 -22t22 -57v-253q0 -35 -22 -57t-57 -22h-358zM274 -241h-110l73 172h145z" />
    <glyph glyph-name="scommaaccent" unicode="&#x219;" horiz-adv-x="597" 
d="M82 0v146h253q11 0 11 9v98q0 9 -11 9h-174q-35 0 -57 22t-22 57v255q0 35 22 57t57 22h349v-145h-244q-10 0 -10 -11v-99q0 -9 10 -9h174q35 0 57 -22t22 -57v-253q0 -35 -22 -57t-57 -22h-358zM274 -241h-110l73 172h145z" />
    <glyph glyph-name="Ymacron" unicode="&#x232;" horiz-adv-x="641" 
d="M408 0h-174v198h-90q-31 0 -53.5 23.5t-22.5 56.5v397h174v-311q0 -4 3.5 -7t7.5 -3h139q7 0 7 10v311h174v-397q0 -33 -22.5 -56.5t-53.5 -23.5h-89v-198zM150 786v109h339v-109h-339z" />
    <glyph glyph-name="ymacron" unicode="&#x233;" horiz-adv-x="641" 
d="M408 0h-174v198h-90q-31 0 -53.5 23.5t-22.5 56.5v397h174v-311q0 -4 3.5 -7t7.5 -3h139q7 0 7 10v311h174v-397q0 -33 -22.5 -56.5t-53.5 -23.5h-89v-198zM150 786v109h339v-109h-339z" />
    <glyph glyph-name="Bstroke" unicode="&#x243;" horiz-adv-x="596" 
d="M451 59h-95v-107h-116v107h-144v569h144v105h116v-105h91q34 0 55 -20t21 -52v-126q0 -31 -20 -55.5t-57 -33.5q38 -10 59.5 -33.5t21.5 -52.5v-124q0 -33 -20.5 -52.5t-55.5 -19.5zM381 175v107q0 10 -8 10h-131v-126h131q8 0 8 9zM381 406v100q0 8 -8 8h-131v-118h131
q8 0 8 10z" />
    <glyph glyph-name="circumflex" unicode="&#x2c6;" horiz-adv-x="349" 
d="M200 830l-73 -85h-127l153 172h94l153 -172h-127z" />
    <glyph glyph-name="caron" unicode="&#x2c7;" horiz-adv-x="313" 
d="M127 909l73 -85l73 85h127l-153 -172h-94l-153 172h127z" />
    <glyph glyph-name="breve" unicode="&#x2d8;" horiz-adv-x="330" 
d="M176 835q65 0 65 74h103q0 -161 -168 -161q-176 0 -176 161h109q0 -74 67 -74z" />
    <glyph glyph-name="ring" unicode="&#x2da;" horiz-adv-x="233" 
d="M243 853q0 -49 -35 -84t-87 -35q-48 0 -84.5 35.5t-36.5 83.5t36.5 83t84.5 35q52 0 87 -34.5t35 -83.5zM71 853q0 -23 13.5 -36t36.5 -13t37.5 13.5t14.5 35.5q0 25 -14.5 38.5t-37.5 13.5q-50 0 -50 -52z" />
    <glyph glyph-name="ogonek" unicode="&#x2db;" horiz-adv-x="247" 
d="M238 -232h-196q-19 0 -30.5 10.5t-11.5 27.5v52q0 26 17 51l87 139l95 -30v-16l-92 -133h131v-101z" />
    <glyph glyph-name="tilde" unicode="&#x2dc;" horiz-adv-x="347" 
d="M121 894q40 0 81 -27t56 -27q19 0 30 15t11 37h93q0 -71 -32.5 -109.5t-87.5 -38.5q-40 0 -82 27t-57 27q-19 0 -29.5 -15t-10.5 -37h-93q0 71 32.5 109.5t88.5 38.5z" />
    <glyph glyph-name="hungarumlaut" unicode="&#x2dd;" horiz-adv-x="390" 
d="M110 746h-110l73 172h145zM317 746h-110l73 172h145z" />
    <glyph glyph-name="gravecomb" unicode="&#x300;" horiz-adv-x="218" 
d="M108 746l-108 172h145l73 -172h-110z" />
    <glyph glyph-name="acutecomb" unicode="&#x301;" horiz-adv-x="218" 
d="M110 746h-110l73 172h145z" />
    <glyph glyph-name="circumflexcomb" unicode="&#x302;" horiz-adv-x="400" 
d="M200 830l-73 -85h-127l153 172h94l153 -172h-127z" />
    <glyph glyph-name="tildecomb" unicode="&#x303;" horiz-adv-x="392" 
d="M121 894q40 0 81 -27t56 -27q19 0 30 15t11 37h93q0 -71 -32.5 -109.5t-87.5 -38.5q-40 0 -82 27t-57 27q-19 0 -29.5 -15t-10.5 -37h-93q0 71 32.5 109.5t88.5 38.5z" />
    <glyph glyph-name="macroncomb" unicode="&#x304;" horiz-adv-x="339" 
d="M0 786v109h339v-109h-339z" />
    <glyph glyph-name="brevecomb" unicode="&#x306;" horiz-adv-x="344" 
d="M176 835q65 0 65 74h103q0 -161 -168 -161q-176 0 -176 161h109q0 -74 67 -74z" />
    <glyph glyph-name="dotaccentcomb" unicode="&#x307;" horiz-adv-x="144" 
d="M0 771v143h144v-143h-144z" />
    <glyph glyph-name="dieresiscomb" unicode="&#x308;" horiz-adv-x="361" 
d="M0 772v136h139v-136h-139zM222 772v136h139v-136h-139z" />
    <glyph glyph-name="ringcomb" unicode="&#x30a;" horiz-adv-x="243" 
d="M243 853q0 -49 -35 -84t-87 -35q-48 0 -84.5 35.5t-36.5 83.5t36.5 83t84.5 35q52 0 87 -34.5t35 -83.5zM71 853q0 -23 13.5 -36t36.5 -13t37.5 13.5t14.5 35.5q0 25 -14.5 38.5t-37.5 13.5q-50 0 -50 -52z" />
    <glyph glyph-name="hungarumlautcomb" unicode="&#x30b;" horiz-adv-x="450" 
d="M110 746h-110l73 172h145zM342 746h-110l73 172h145z" />
    <glyph glyph-name="caroncomb" unicode="&#x30c;" horiz-adv-x="400" 
d="M127 909l73 -85l73 85h127l-153 -172h-94l-153 172h127z" />
    <glyph glyph-name="commaaccentcomb" unicode="&#x326;" horiz-adv-x="218" 
d="M110 -241h-110l73 172h145z" />
    <glyph glyph-name="cedillacomb" unicode="&#x327;" horiz-adv-x="302" 
d="M0 -292l16 88h171q3 0 5 5l9 53q0 4 -4 4h-173l25 150h86l-13 -64h143q19 0 29 -12t7 -31l-24 -150q-3 -19 -17 -31t-33 -12h-227z" />
    <glyph glyph-name="ogonekcomb" unicode="&#x328;" horiz-adv-x="238" 
d="M238 -232h-196q-19 0 -30.5 10.5t-11.5 27.5v52q0 26 17 51l87 139l95 -30v-16l-92 -133h131v-101z" />
    <glyph glyph-name="Wgrave" unicode="&#x1e80;" horiz-adv-x="829" 
d="M643 675h156l-127 -675h-153l-104 376l-107 -376h-150l-128 675h170l59 -424l91 424h143l86 -412zM369 746l-108 172h145l73 -172h-110z" />
    <glyph glyph-name="wgrave" unicode="&#x1e81;" horiz-adv-x="829" 
d="M643 675h156l-127 -675h-153l-104 376l-107 -376h-150l-128 675h170l59 -424l91 424h143l86 -412zM369 746l-108 172h145l73 -172h-110z" />
    <glyph glyph-name="Wacute" unicode="&#x1e82;" horiz-adv-x="829" 
d="M643 675h156l-127 -675h-153l-104 376l-107 -376h-150l-128 675h170l59 -424l91 424h143l86 -412zM475 746h-110l73 172h145z" />
    <glyph glyph-name="wacute" unicode="&#x1e83;" horiz-adv-x="829" 
d="M643 675h156l-127 -675h-153l-104 376l-107 -376h-150l-128 675h170l59 -424l91 424h143l86 -412zM475 746h-110l73 172h145z" />
    <glyph glyph-name="Wdieresis" unicode="&#x1e84;" horiz-adv-x="829" 
d="M643 675h156l-127 -675h-153l-104 376l-107 -376h-150l-128 675h170l59 -424l91 424h143l86 -412zM466 772v136h139v-136h-139zM244 772v136h139v-136h-139z" />
    <glyph glyph-name="wdieresis" unicode="&#x1e85;" horiz-adv-x="829" 
d="M643 675h156l-127 -675h-153l-104 376l-107 -376h-150l-128 675h170l59 -424l91 424h143l86 -412zM466 772v136h139v-136h-139zM244 772v136h139v-136h-139z" />
    <glyph glyph-name="Germandbls" unicode="&#x1e9e;" horiz-adv-x="698" 
d="M269 541v-541h-173v675h472q47 0 58.5 -35t-18.5 -82l-112 -183h33q54 0 76.5 -23t22.5 -78v-188q0 -40 -24.5 -63t-65.5 -23h-205v128h118q10 0 10 10v128q0 11 -10 11h-106v106l91 145q7 13 -6 13h-161z" />
    <glyph glyph-name="Etilde" unicode="&#x1ebc;" horiz-adv-x="609" 
d="M96 0v675h441v-145h-268v-118h232v-144h-232v-122h268v-146h-441zM241 894q40 0 81 -27t56 -27q19 0 30 15t11 37h93q0 -71 -32.5 -109.5t-87.5 -38.5q-40 0 -82 27t-57 27q-19 0 -29.5 -15t-10.5 -37h-93q0 71 32.5 109.5t88.5 38.5z" />
    <glyph glyph-name="etilde" unicode="&#x1ebd;" horiz-adv-x="609" 
d="M96 0v675h441v-145h-268v-118h232v-144h-232v-122h268v-146h-441zM241 894q40 0 81 -27t56 -27q19 0 30 15t11 37h93q0 -71 -32.5 -109.5t-87.5 -38.5q-40 0 -82 27t-57 27q-19 0 -29.5 -15t-10.5 -37h-93q0 71 32.5 109.5t88.5 38.5z" />
    <glyph glyph-name="Ygrave" unicode="&#x1ef2;" horiz-adv-x="641" 
d="M408 0h-174v198h-90q-31 0 -53.5 23.5t-22.5 56.5v397h174v-311q0 -4 3.5 -7t7.5 -3h139q7 0 7 10v311h174v-397q0 -33 -22.5 -56.5t-53.5 -23.5h-89v-198zM266 746l-108 172h145l73 -172h-110z" />
    <glyph glyph-name="ygrave" unicode="&#x1ef3;" horiz-adv-x="641" 
d="M408 0h-174v198h-90q-31 0 -53.5 23.5t-22.5 56.5v397h174v-311q0 -4 3.5 -7t7.5 -3h139q7 0 7 10v311h174v-397q0 -33 -22.5 -56.5t-53.5 -23.5h-89v-198zM266 746l-108 172h145l73 -172h-110z" />
    <glyph glyph-name="Ytilde" unicode="&#x1ef8;" horiz-adv-x="641" 
d="M408 0h-174v198h-90q-31 0 -53.5 23.5t-22.5 56.5v397h174v-311q0 -4 3.5 -7t7.5 -3h139q7 0 7 10v311h174v-397q0 -33 -22.5 -56.5t-53.5 -23.5h-89v-198zM244 894q40 0 81 -27t56 -27q19 0 30 15t11 37h93q0 -71 -32.5 -109.5t-87.5 -38.5q-40 0 -82 27t-57 27
q-19 0 -29.5 -15t-10.5 -37h-93q0 71 32.5 109.5t88.5 38.5z" />
    <glyph glyph-name="ytilde" unicode="&#x1ef9;" horiz-adv-x="641" 
d="M408 0h-174v198h-90q-31 0 -53.5 23.5t-22.5 56.5v397h174v-311q0 -4 3.5 -7t7.5 -3h139q7 0 7 10v311h174v-397q0 -33 -22.5 -56.5t-53.5 -23.5h-89v-198zM244 894q40 0 81 -27t56 -27q19 0 30 15t11 37h93q0 -71 -32.5 -109.5t-87.5 -38.5q-40 0 -82 27t-57 27
q-19 0 -29.5 -15t-10.5 -37h-93q0 71 32.5 109.5t88.5 38.5z" />
    <glyph glyph-name="thinspace" unicode="&#x2009;" horiz-adv-x="100" 
 />
    <glyph glyph-name="endash" unicode="&#x2013;" horiz-adv-x="495" 
d="M96 406h303v-153h-303v153z" />
    <glyph glyph-name="emdash" unicode="&#x2014;" horiz-adv-x="765" 
d="M96 406h573v-153h-573v153z" />
    <glyph glyph-name="quoteleft" unicode="&#x2018;" horiz-adv-x="424" 
d="M344 675l-92 -302h-172l124 302h140z" />
    <glyph glyph-name="quoteright" unicode="&#x2019;" horiz-adv-x="424" 
d="M80 373l92 302h172l-124 -302h-140z" />
    <glyph glyph-name="quotesinglbase" unicode="&#x201a;" horiz-adv-x="327" 
d="M225 -119h-123l-22 302h167z" />
    <glyph glyph-name="quotedblleft" unicode="&#x201c;" horiz-adv-x="702" 
d="M344 675l-92 -302h-172l124 302h140zM622 675l-92 -302h-172l124 302h140z" />
    <glyph glyph-name="quotedblright" unicode="&#x201d;" horiz-adv-x="702" 
d="M358 373l92 302h172l-124 -302h-140zM80 373l92 302h172l-124 -302h-140z" />
    <glyph glyph-name="quotedblbase" unicode="&#x201e;" horiz-adv-x="566" 
d="M225 -119h-123l-22 302h167zM464 -119h-123l-22 302h167z" />
    <glyph glyph-name="dagger" unicode="&#x2020;" horiz-adv-x="514" 
d="M30 358v149h140v168h174v-168h140v-149h-140v-358h-174v358h-140z" />
    <glyph glyph-name="daggerdbl" unicode="&#x2021;" horiz-adv-x="646" 
d="M96 403v139h140v133h174v-133h140v-139h-140v-120h140v-139h-140v-144h-174v144h-140v139h140v120h-140z" />
    <glyph glyph-name="bullet" unicode="&#x2022;" horiz-adv-x="431" 
d="M96 231v239h239v-239h-239z" />
    <glyph glyph-name="ellipsis" unicode="&#x2026;" horiz-adv-x="875" 
d="M267 183v-183h-187v183h187zM531 183v-183h-187v183h187zM795 183v-183h-187v183h187z" />
    <glyph glyph-name="perthousand" unicode="&#x2030;" horiz-adv-x="1257" 
d="M752 403q20 0 33.5 -13t13.5 -32v-312q0 -19 -13.5 -32.5t-33.5 -13.5h-214q-19 0 -33.5 13.5t-14.5 32.5v312q0 18 14.5 31.5t33.5 13.5h214zM694 87v230h-99v-230h99zM328 675q20 0 33.5 -13t13.5 -32v-312q0 -19 -13.5 -32.5t-33.5 -13.5h-214q-19 0 -33.5 13.5
t-14.5 32.5v312q0 18 14.5 31.5t33.5 13.5h214zM270 359v230h-99v-230h99zM260 148h123l-106 -187h-123zM699 704l-107 -188h-124l107 188h124zM1146 403q20 0 33.5 -13t13.5 -32v-312q0 -19 -13.5 -32.5t-33.5 -13.5h-214q-19 0 -33.5 13.5t-14.5 32.5v312q0 18 14.5 31.5
t33.5 13.5h214zM1088 87v230h-99v-230h99z" />
    <glyph glyph-name="second" unicode="&#x2033;" horiz-adv-x="702" 
d="M358 373l92 302h172l-124 -302h-140zM80 373l92 302h172l-124 -302h-140z" />
    <glyph glyph-name="guilsinglleft" unicode="&#x2039;" horiz-adv-x="448" 
d="M393 140l-333 141v111l333 140v-129l-202 -65l202 -65v-133z" />
    <glyph glyph-name="guilsinglright" unicode="&#x203a;" horiz-adv-x="448" 
d="M388 281l-333 -141v133l202 65l-202 65v129l333 -140v-111z" />
    <glyph glyph-name="fraction" unicode="&#x2044;" horiz-adv-x="105" 
d="M-114 148h123l-106 -187h-123zM325 704l-107 -188h-124l107 188h124z" />
    <glyph glyph-name="Euro" unicode="&#x20ac;" horiz-adv-x="585" 
d="M40 458h80v141q0 31 22.5 53.5t54.5 22.5h358v-130h-250q-11 0 -11 -11v-76h204l-30 -86h-174v-66h204l-30 -86h-174v-79q0 -10 11 -10h250v-131h-358q-32 0 -54.5 22t-22.5 55v143h-110l30 86h80v66h-110z" />
    <glyph glyph-name="numero" unicode="&#x2116;" horiz-adv-x="1235" 
d="M453 0l-197 371v-371h-160v675h160l202 -372v372h160v-675h-165zM821 673h268q25 0 40.5 -15.5t15.5 -41.5v-343q0 -26 -15 -41.5t-41 -15.5h-268q-25 0 -40.5 15.5t-15.5 41.5v343q0 25 15.5 41t40.5 16zM765 120h380v-120h-380v120zM1015 337v212q0 7 -8 7h-105
q-7 0 -7 -7v-212q0 -6 7 -6h105q8 0 8 6z" />
    <glyph glyph-name="servicemark" unicode="&#x2120;" horiz-adv-x="669" 
d="M456 399l-58 130v-191h-80v338h88l68 -159l63 159h92v-338h-82v195l-57 -134h-34zM39 338v73h127q5 0 5 5v49q0 4 -5 4h-87q-18 0 -29 11t-11 29v127q0 18 11 29t29 11h174v-73h-122q-5 0 -5 -5v-50q0 -4 5 -4h87q18 0 29 -11t11 -29v-126q0 -18 -11 -29t-29 -11h-179z
" />
    <glyph glyph-name="trademark" unicode="&#x2122;" horiz-adv-x="669" 
d="M456 399l-58 130v-191h-80v338h88l68 -159l63 159h92v-338h-82v195l-57 -134h-34zM41 676h240v-73h-77v-265h-87v265h-76v73z" />
    <glyph glyph-name="onethird" unicode="&#x2153;" horiz-adv-x="470" 
d="M317 157q0 -28 -28 -32q28 -8 28 -39v-58q0 -28 -27 -28h-138v52h102v48h-96v48h96v43h-102v51h138q27 0 27 -27v-58zM156 614l-8 44l62 22h58v-193h59v-49h-184v49h61v140zM30 368h410v-52h-410v52z" />
    <glyph glyph-name="twothirds" unicode="&#x2154;" horiz-adv-x="470" 
d="M209 540v-46h112v-56h-175v121q0 27 27 27h87v42h-109v52h145q28 0 28 -28v-85q0 -27 -28 -27h-87zM317 157q0 -28 -28 -32q28 -8 28 -39v-58q0 -28 -27 -28h-138v52h102v48h-96v48h96v43h-102v51h138q27 0 27 -27v-58zM30 368h410v-52h-410v52z" />
    <glyph glyph-name="oneeighth" unicode="&#x215b;" horiz-adv-x="470" 
d="M327 146q0 -19 -24 -21q9 -2 16.5 -9.5t7.5 -17.5v-70q0 -28 -27 -28h-130q-28 0 -28 28v70q0 10 7.5 17.5t17.5 9.5q-25 2 -25 21v68q0 28 28 28h130q27 0 27 -28v-68zM156 614l-8 44l62 22h58v-193h59v-49h-184v49h61v140zM30 368h410v-52h-410v52zM264 51v50h-59v-50
h59zM264 143v48h-59v-48h59z" />
    <glyph glyph-name="threeeighths" unicode="&#x215c;" horiz-adv-x="470" 
d="M327 146q0 -19 -24 -21q9 -2 16.5 -9.5t7.5 -17.5v-70q0 -28 -27 -28h-130q-28 0 -28 28v70q0 10 7.5 17.5t17.5 9.5q-25 2 -25 21v68q0 28 28 28h130q27 0 27 -28v-68zM317 594q0 -27 -28 -31q28 -8 28 -40v-58q0 -27 -27 -27h-138v51h102v48h-96v48h96v43h-102v52h138
q27 0 27 -28v-58zM30 368h410v-52h-410v52zM264 51v50h-59v-50h59zM264 143v48h-59v-48h59z" />
    <glyph glyph-name="fiveeighths" unicode="&#x215d;" horiz-adv-x="470" 
d="M327 146q0 -19 -24 -21q9 -2 16.5 -9.5t7.5 -17.5v-70q0 -28 -27 -28h-130q-28 0 -28 28v70q0 10 7.5 17.5t17.5 9.5q-25 2 -25 21v68q0 28 28 28h130q27 0 27 -28v-68zM316 628h-112v-43h91q27 0 27 -27v-92q0 -28 -27 -28h-147v52h111v47h-111v143h168v-52zM30 368h410
v-52h-410v52zM264 51v50h-59v-50h59zM264 143v48h-59v-48h59z" />
    <glyph glyph-name="seveneighths" unicode="&#x215e;" horiz-adv-x="470" 
d="M327 146q0 -19 -24 -21q9 -2 16.5 -9.5t7.5 -17.5v-70q0 -28 -27 -28h-130q-28 0 -28 28v70q0 10 7.5 17.5t17.5 9.5q-25 2 -25 21v68q0 28 28 28h130q27 0 27 -28v-68zM144 680h181v-52l-103 -190h-72l107 186h-113v56zM30 368h410v-52h-410v52zM264 51v50h-59v-50h59z
M264 143v48h-59v-48h59z" />
    <glyph glyph-name="minus" unicode="&#x2212;" horiz-adv-x="682" 
d="M586 275h-490v143h490v-143z" />
    <glyph glyph-name="approxequal" unicode="&#x2248;" horiz-adv-x="752" 
d="M510 493q-52 0 -131.5 -21t-136.5 -21q-85 0 -146 40v135q61 -40 146 -40q52 0 131.5 21t136.5 21q85 0 146 -40v-135q-61 40 -146 40zM656 0h-560v135h560v-135zM656 227h-560v135h560v-135z" />
    <glyph glyph-name="notequal" unicode="&#x2260;" horiz-adv-x="752" 
d="M656 129h-344l-86 -150l-81 47l59 103h-108v143h190l74 129h-264v143h346l85 148l81 -47l-58 -101h106v-143h-188l-74 -129h262v-143z" />
    <glyph glyph-name="lessequal" unicode="&#x2264;" horiz-adv-x="691" 
d="M595 192l-499 142v156l499 141v-140l-351 -78l351 -80v-141zM96 19v123h499v-123h-499z" />
    <glyph glyph-name="greaterequal" unicode="&#x2265;" horiz-adv-x="691" 
d="M595 334l-499 -142v141l351 80l-351 78v140l499 -141v-156zM595 142v-123h-499v123h499z" />
    <glyph glyph-name="Pcircle" unicode="&#x24c5;" horiz-adv-x="820" 
d="M169 675h482q35 0 57 -22t22 -57v-517q0 -35 -22 -57t-57 -22h-482q-35 0 -57 22t-22 57v517q0 35 22 57t57 22zM628 96v480q0 5 -4.5 9.5t-9.5 4.5h-410q-4 0 -8 -4.5t-4 -9.5v-480q0 -11 12 -11h410q14 0 14 11zM457 334v107q0 5 -5 5h-82v-117h82q5 0 5 5zM511 245
h-141v-97h-98v380h239q18 0 30.5 -12.5t12.5 -30.5v-197q0 -19 -12.5 -31t-30.5 -12z" />
    <glyph glyph-name="uni2B22" unicode="&#x2b22;" horiz-adv-x="519" 
d="M261 549l162 -93v-189l-162 -93l-165 93v189zM261 284q32 0 54.5 22.5t22.5 55.5q0 34 -22.5 57t-54.5 23q-35 0 -58 -22.5t-23 -57.5q0 -33 23 -55.5t58 -22.5z" />
    <glyph glyph-name="uniE000" unicode="&#xe000;" horiz-adv-x="1036" 
d="M556 585l343 -111q16 -5 26.5 -19.5t10.5 -30.5v-168q0 -16 -10.5 -30.5t-26.5 -19.5l-343 -108q-38 -12 -75 0l-342 108q-16 5 -27.5 19.5t-11.5 30.5v168q0 16 11.5 30.5t27.5 19.5l342 111q37 13 75 0zM390 283v121q0 15 -11.5 26t-26.5 11h-146v-195h146
q15 0 26.5 11.5t11.5 25.5zM617 283v121q0 15 -10.5 26t-26.5 11h-146v-195h146q15 0 26 11t11 26zM845 374v30q0 15 -11 26t-26 11h-109q-17 0 -28 -11t-11 -26v-121q0 -15 11 -26t28 -11h109q15 0 26 11.5t11 25.5v27h-57v-12l-6 -9h-58q-6 0 -6 9v92q0 6 6 6h58
q6 -2 6 -6v-16h57zM555 396q5 0 5 -6v-92q0 -9 -5 -9h-64v107h64zM324 396q9 0 9 -6v-92q0 -9 -9 -9h-60v107h60z" />
    <glyph glyph-name="uniF8FF" unicode="&#xf8ff;" horiz-adv-x="737" 
d="M598 577q59 0 93 -27.5t34 -71.5q0 -40 -30 -72t-86 -32q-35 0 -47 5q-8 -17 -24 -59t-28 -68q-8 -23 -23 -46q52 -18 92 -18q31 0 53.5 19t22.5 45q0 36 -40 46q11 -11 11 -23q0 -13 -10 -21.5t-24 -8.5t-24.5 8.5t-10.5 21.5q0 18 13.5 29t38.5 11q27 0 45 -17t18 -46
q0 -45 -34.5 -72t-98.5 -27q-24 0 -75 11q-69 -98 -162 -98q-39 0 -63.5 19.5t-24.5 50.5q0 26 19 44.5t45 18.5q40 0 40 -32q0 -31 -34 -31q-12 0 -20 7t-8 17q0 14 7 23q-31 -15 -31 -47q0 -25 18.5 -38.5t45.5 -13.5q65 0 110 99q-78 26 -203 87q-62 -64 -122 -64
q-31 0 -50.5 13.5t-19.5 38.5q0 31 27 50t78 19q28 0 58 -6q17 38 43 117q-107 7 -107 81q0 35 22 58t53 23q20 0 30.5 -10t10.5 -24t-8 -23t-20 -9q-30 0 -30 26q0 13 6 23q-46 -19 -46 -64q0 -55 92 -64q37 96 82.5 140.5t86.5 44.5q52 0 52 -52q0 -56 -42.5 -99
t-105.5 -51q-31 -89 -61 -128q31 -8 65 -20.5t75.5 -30.5t57.5 -24q3 10 12 28.5t11 23.5q29 69 57 104q-52 18 -99 18q-37 0 -56 -15.5t-19 -42.5q0 -21 13.5 -31t32.5 -10q31 0 42 29q-7 -5 -18 -5q-29 0 -29 25q0 29 31 29q15 0 24 -10t9 -27q0 -23 -17 -41t-42 -18
q-27 0 -45.5 17t-18.5 47q0 41 34 70t89 29q58 0 104 -17q36 43 76 58l11 -7q-21 -16 -46 -63q8 0 26 -3t26 -3q33 0 48.5 17.5t15.5 45.5q0 38 -29 57.5t-75 19.5q-64 0 -88 -29q30 0 30 -25q0 -28 -30 -28q-13 0 -21 8t-8 21q0 30 34.5 50t82.5 20zM394 623
q-21 0 -41 -36.5t-51 -126.5q49 9 82 45t33 83q0 35 -23 35zM75 223q41 0 81 64q-43 17 -70 17q-22 0 -36.5 -12.5t-14.5 -33.5q0 -35 40 -35z" />
    <glyph glyph-name="fi" unicode="&#xfb01;" horiz-adv-x="945" 
d="M96 0v675h428v-145h-255v-153h220v-144h-220v-233h-173zM849 675v-675h-173v675h173z" />
    <glyph glyph-name="fl" unicode="&#xfb02;" horiz-adv-x="1116" 
d="M96 0v675h428v-145h-255v-153h220v-144h-220v-233h-173zM676 0v675h173v-529h215v-146h-388z" />
    <glyph glyph-name="ordinalunderscore" horiz-adv-x="527" 
d="M0 130h527v-130h-527v130z" />
    <glyph glyph-name="A_N_D" horiz-adv-x="1605" 
d="M90 120h1425v-120h-1425v120zM1139 675h274q41 0 71.5 -32t30.5 -76v-244q0 -45 -30.5 -77t-71.5 -32h-274v461zM468 618v-404h-130v106h-118v-106h-130v404q0 25 15.5 41t40.5 16h266q25 0 40.5 -15.5t15.5 -41.5zM873 214l-147 255v-255h-121v461h122l151 -249v249h121
v-461h-126zM1386 374v142q0 19 -11 31.5t-28 12.5h-78v-230h78q17 0 28 12.5t11 31.5zM220 437h118v115q0 16 -18 16h-84q-16 0 -16 -16v-115z" />
    <glyph glyph-name="A_V_E" horiz-adv-x="1481" 
d="M468 618v-404h-130v106h-118v-106h-130v404q0 25 15.5 41t40.5 16h266q25 0 40.5 -15.5t15.5 -41.5zM90 120h1319v-120h-1319v120zM1073 214v461h336v-115h-207v-61h180v-102h-180v-67h207v-116h-336zM854 675h129l-154 -461h-124l-150 461h140l72 -277zM220 437h118v115
q0 16 -18 16h-84q-16 0 -16 -16v-115z" />
    <glyph glyph-name="B_L_V_D" horiz-adv-x="1872" 
d="M96 120h1686v-120h-1686v120zM416 214h-320v461h315q30 0 48 -17.5t18 -46.5v-89q0 -24 -17.5 -48t-50.5 -32q34 -9 53 -31t19 -47v-85q0 -31 -17.5 -48t-47.5 -17zM1406 675h274q41 0 71.5 -32t30.5 -76v-244q0 -45 -30.5 -77t-71.5 -32h-274v461zM1187 675h129
l-154 -461h-124l-150 461h140l72 -277zM600 214v461h130v-346h162v-115h-292zM1653 374v142q0 19 -11 31.5t-28 12.5h-78v-230h78q17 0 28 12.5t11 31.5zM353 316v75q0 6 -6 6h-122v-86h122q6 0 6 5zM353 498v69q0 5 -6 5h-122v-80h122q6 0 6 6z" />
    <glyph glyph-name="C_I_R" horiz-adv-x="1315" 
d="M856 675h325q20 0 35.5 -15t15.5 -35v-219q0 -19 -15.5 -34t-35.5 -15h-9l62 -143h-127l-63 143h-58v-143h-130v461zM90 120h1144v-120h-1144v120zM333 391h130v-124q0 -21 -16 -36t-38 -15h-267q-21 0 -36.5 15t-15.5 36v356q0 19 15.5 34.5t36.5 15.5h267
q21 0 37.5 -15.5t16.5 -34.5v-124h-130v52q0 8 -6 8h-99q-8 0 -8 -8v-213q0 -7 8 -7h99q6 0 6 2v58zM715 675v-461h-130v461h130zM1103 465v89q0 6 -7 6h-110v-102h110q7 0 7 7z" />
    <glyph glyph-name="C_O" horiz-adv-x="1040" 
d="M333 391h130v-124q0 -21 -16 -36t-38 -15h-267q-21 0 -36.5 15t-15.5 36v356q0 19 15.5 34.5t36.5 15.5h267q21 0 37.5 -15.5t16.5 -34.5v-124h-130v52q0 8 -6 8h-99q-8 0 -8 -8v-213q0 -7 8 -7h99q6 0 6 2v58zM90 120h860v-120h-860v120zM626 675h268q25 0 40.5 -15.5
t15.5 -41.5v-349q0 -26 -15 -41.5t-41 -15.5h-268q-25 0 -40.5 15.5t-15.5 41.5v349q0 25 15.5 41t40.5 16zM820 333v218q0 7 -8 7h-105q-7 0 -7 -7v-218q0 -6 7 -6h105q8 0 8 6z" />
    <glyph glyph-name="C_O_O_P" horiz-adv-x="2353" 
d="M90 120h2196v-120h-2196v120zM1459 674h268q25 0 40.5 -15.5t15.5 -41.5v-343q0 -26 -15 -41.5t-41 -15.5h-268q-25 0 -40.5 15.5t-15.5 41.5v343q0 25 15.5 41t40.5 16zM637 674h268q25 0 40.5 -15.5t15.5 -41.5v-343q0 -26 -15 -41.5t-41 -15.5h-268q-25 0 -40.5 15.5
t-15.5 41.5v343q0 25 15.5 41t40.5 16zM1919 675h316q20 0 35.5 -15t15.5 -35v-245q0 -18 -16 -33.5t-35 -15.5h-186v-117h-130v461zM333 392h130v-124q0 -21 -16 -36t-38 -15h-267q-21 0 -36.5 15t-15.5 36v356q0 19 15.5 34.5t36.5 15.5h267q21 0 37.5 -15.5t16.5 -34.5
v-124h-130v52q0 8 -6 8h-99q-8 0 -8 -8v-213q0 -7 8 -7h99q6 0 6 2v58zM1041 500h282v-105h-282v105zM831 338v212q0 7 -8 7h-105q-7 0 -7 -7v-212q0 -6 7 -6h105q8 0 8 6zM1653 338v212q0 7 -8 7h-105q-7 0 -7 -7v-212q0 -6 7 -6h105q8 0 8 6zM2049 444h100q7 0 7 6v104
q0 6 -7 6h-100v-116z" />
    <glyph glyph-name="D_O_Z" horiz-adv-x="1452" 
d="M626 675h268q25 0 40.5 -15.5t15.5 -41.5v-349q0 -26 -15 -41.5t-41 -15.5h-268q-25 0 -40.5 15.5t-15.5 41.5v349q0 25 15.5 41t40.5 16zM96 675h274q41 0 71.5 -32t30.5 -76v-244q0 -45 -30.5 -77t-71.5 -32h-274v461zM96 120h1306v-120h-1306v120zM1046 326l187 234
h-180v115h341v-112l-192 -234h200v-115h-356v112zM820 333v218q0 7 -8 7h-105q-7 0 -7 -7v-218q0 -6 7 -6h105q8 0 8 6zM343 374v142q0 19 -11 31.5t-28 12.5h-78v-230h78q17 0 28 12.5t11 31.5z" />
    <glyph glyph-name="E_X_P" horiz-adv-x="1464" 
d="M96 120h1301v-120h-1301v120zM1030 675h316q20 0 35.5 -15t15.5 -35v-245q0 -18 -16 -33.5t-35 -15.5h-186v-117h-130v461zM96 214v461h336v-115h-207v-56h180v-114h-180v-60h207v-116h-336zM505 214l148 229l-144 232h147l75 -130l65 130h142l-141 -239l139 -222h-146
l-74 124l-72 -124h-139zM1160 444h100q7 0 7 6v104q0 6 -7 6h-100v-116z" />
    <glyph glyph-name="I_N_C" horiz-adv-x="1341" 
d="M635 214l-147 255v-255h-121v461h122l151 -249v249h121v-461h-126zM96 120h1174v-120h-1174v120zM1140 391h130v-124q0 -21 -16 -36t-38 -15h-267q-21 0 -36.5 15t-15.5 36v356q0 19 15.5 34.5t36.5 15.5h267q21 0 37.5 -15.5t16.5 -34.5v-124h-130v52q0 8 -6 8h-99
q-8 0 -8 -8v-213q0 -7 8 -7h99q6 0 6 2v58zM226 675v-461h-130v461h130z" />
    <glyph glyph-name="K_P_H" horiz-adv-x="1560" 
d="M96 120h1368v-120h-1368v120zM593 675h316q20 0 35.5 -15t15.5 -35v-245q0 -18 -16 -33.5t-35 -15.5h-186v-117h-130v461zM1464 675v-461h-130v178h-125v-178h-131v461h131v-163h125v163h130zM354 214h143l-133 270l144 191h-148l-133 -198v198h-131v-461h131v94l44 82z
M723 444h100q7 0 7 6v104q0 6 -7 6h-100v-116z" />
    <glyph glyph-name="L_L_C" horiz-adv-x="1292" 
d="M96 214v461h130v-346h162v-115h-292zM1091 386h130v-119q0 -21 -16 -36t-38 -15h-267q-21 0 -36.5 15t-15.5 36v356q0 19 15.5 34.5t36.5 15.5h267q21 0 37.5 -15.5t16.5 -34.5v-119h-130v47q0 8 -6 8h-99q-8 0 -8 -8v-213q0 -7 8 -7h99q6 0 6 2v53zM484 214v461h130
v-346h162v-115h-292zM96 120h1125v-120h-1125v120z" />
    <glyph glyph-name="L_T_D" horiz-adv-x="1315" 
d="M849 675h274q41 0 71.5 -32t30.5 -76v-244q0 -45 -30.5 -77t-71.5 -32h-274v461zM96 120h1129v-120h-1129v120zM390 675h363v-115h-117v-346h-130v346h-116v115zM96 214v461h130v-346h162v-115h-292zM1096 374v142q0 19 -11 31.5t-28 12.5h-78v-230h78q17 0 28 12.5
t11 31.5z" />
    <glyph glyph-name="M_D" horiz-adv-x="1169" 
d="M703 675h274q41 0 71.5 -32t30.5 -76v-244q0 -45 -30.5 -77t-71.5 -32h-274v461zM303 277l-87 194v-257h-120v461h134l101 -210l91 210h141v-461h-123v261l-85 -198h-52zM96 120h983v-120h-983v120zM950 374v142q0 19 -11 31.5t-28 12.5h-78v-230h78q17 0 28 12.5
t11 31.5z" />
    <glyph glyph-name="M_F_G" horiz-adv-x="1612" 
d="M96 120h1409v-120h-1409v120zM303 277l-87 194v-257h-120v461h134l101 -210l91 210h141v-461h-123v261l-85 -198h-52zM1314 394v103h233v-103h-42v-127q0 -21 -15.5 -36t-36.5 -15h-268q-21 0 -37 15t-16 36v356q0 19 16 34.5t37 15.5h322v-112h-238q-8 0 -8 -7v-217
q0 -7 8 -7h109q8 0 8 7v57h-72zM703 214v461h324v-115h-194v-83h169v-114h-169v-149h-130z" />
    <glyph glyph-name="M_P_H" horiz-adv-x="1671" 
d="M96 120h1479v-120h-1479v120zM303 277l-87 194v-257h-120v461h134l101 -210l91 210h141v-461h-123v261l-85 -198h-52zM703 675h316q20 0 35.5 -15t15.5 -35v-245q0 -18 -16 -33.5t-35 -15.5h-186v-117h-130v461zM1573 675l2 -461h-131v178h-125v-178h-131v461h131v-163
h125v163h129zM833 444h100q7 0 7 6v104q0 6 -7 6h-100v-116z" />
    <glyph glyph-name="M_R" horiz-adv-x="1162" 
d="M303 277l-87 194v-257h-120v461h134l101 -210l91 210h141v-461h-123v261l-85 -198h-52zM703 675h325q20 0 35.5 -15t15.5 -35v-219q0 -19 -15.5 -34t-35.5 -15h-9l62 -143h-127l-63 143h-58v-143h-130v461zM96 120h985v-120h-985v120zM950 465v89q0 6 -7 6h-110v-102h110
q7 0 7 7z" />
    <glyph glyph-name="M_R_S" horiz-adv-x="1618" 
d="M96 120h1444v-120h-1444v120zM303 277l-87 194v-257h-120v461h134l101 -210l91 210h141v-461h-123v261l-85 -198h-52zM703 675h325q20 0 35.5 -15t15.5 -35v-219q0 -19 -15.5 -34t-35.5 -15h-9l62 -143h-127l-63 143h-58v-143h-130v461zM1208 214v114h195q8 0 8 7v48
q0 6 -8 6h-139q-25 0 -40.5 16t-15.5 42v171q0 25 15.5 41t40.5 16h269v-115h-187q-8 0 -8 -7v-51q0 -6 8 -6h138q25 0 40.5 -16t15.5 -42v-167q0 -26 -15.5 -41.5t-40.5 -15.5h-276zM949 465l1 89q0 6 -7 6h-110v-102h109q3 0 5.5 2.5t1.5 4.5z" />
    <glyph glyph-name="M_S" horiz-adv-x="1104" 
d="M303 277l-87 194v-257h-120v461h134l101 -210l91 210h141v-461h-123v261l-85 -198h-52zM694 214v114h195q8 0 8 7v48q0 6 -8 6h-139q-25 0 -40.5 16t-15.5 42v171q0 25 15.5 41t40.5 16h269v-115h-187q-8 0 -8 -7v-51q0 -6 8 -6h138q25 0 40.5 -16t15.5 -42v-167
q0 -26 -15.5 -41.5t-40.5 -15.5h-276zM96 120h930v-120h-930v120z" />
    <glyph glyph-name="M_X" horiz-adv-x="1111" 
d="M303 277l-87 194v-257h-120v461h134l101 -210l91 210h141v-461h-123v261l-85 -198h-52zM96 120h985v-120h-985v120zM650 214l148 229l-144 232h147l75 -130l65 130h142l-141 -239l139 -222h-146l-74 124l-72 -124h-139z" />
    <glyph glyph-name="O_Z" horiz-adv-x="982" 
d="M146 673h268q25 0 40.5 -15.5t15.5 -41.5v-343q0 -26 -15 -41.5t-41 -15.5h-268q-25 0 -40.5 15.5t-15.5 41.5v343q0 25 15.5 41t40.5 16zM576 326l187 234h-180v115h341v-112l-192 -234h200v-115h-356v112zM90 120h842v-120h-842v120zM340 337v212q0 7 -8 7h-105
q-7 0 -7 -7v-212q0 -6 7 -6h105q8 0 8 6z" />
    <glyph glyph-name="R_D" horiz-adv-x="1076" 
d="M610 675h274q41 0 71.5 -32t30.5 -76v-244q0 -45 -30.5 -77t-71.5 -32h-274v461zM96 675h325q20 0 35.5 -15t15.5 -35v-219q0 -19 -15.5 -34t-35.5 -15h-9l62 -143h-127l-63 143h-58v-143h-130v461zM96 120h890v-120h-890v120zM857 374v142q0 19 -11 31.5t-28 12.5h-78
v-230h78q17 0 28 12.5t11 31.5zM343 465v89q0 6 -7 6h-110v-102h110q7 0 7 7z" />
    <glyph glyph-name="R_P_M" horiz-adv-x="1658" 
d="M96 120h1466v-120h-1466v120zM1302 277l-87 194v-257h-120v461h134l101 -210l91 210h141v-461h-123v261l-85 -198h-52zM96 675h325q20 0 35.5 -15t15.5 -35v-219q0 -19 -15.5 -34t-35.5 -15h-9l62 -143h-127l-63 143h-58v-143h-130v461zM610 675h316q20 0 35.5 -15
t15.5 -35v-245q0 -18 -16 -33.5t-35 -15.5h-186v-117h-130v461zM740 444h100q7 0 7 6v104q0 6 -7 6h-100v-116zM343 465v89q0 6 -7 6h-110v-102h110q7 0 7 7z" />
    <glyph glyph-name="S_T" horiz-adv-x="898" 
d="M82 214v114h195q8 0 8 7v48q0 6 -8 6h-139q-25 0 -40.5 16t-15.5 42v171q0 25 15.5 41t40.5 16h269v-115h-187q-8 0 -8 -7v-51q0 -6 8 -6h138q25 0 40.5 -16t15.5 -42v-167q0 -26 -15.5 -41.5t-40.5 -15.5h-276zM82 120h748v-120h-748v120zM502 675h363v-115h-117v-346
h-130v346h-116v115z" />
    <glyph glyph-name="S_T_E" horiz-adv-x="1369" 
d="M82 120h1215v-120h-1215v120zM961 214v461h336v-115h-207v-62h180v-102h-180v-66h207v-116h-336zM82 214v114h195q8 0 8 7v48q0 6 -8 6h-139q-25 0 -40.5 16t-15.5 42v171q0 25 15.5 41t40.5 16h269v-115h-187q-8 0 -8 -7v-51q0 -6 8 -6h138q25 0 40.5 -16t15.5 -42v-167
q0 -26 -15.5 -41.5t-40.5 -15.5h-276zM502 675h363v-115h-117v-346h-130v346h-116v115z" />
    <glyph glyph-name="T_H_E" horiz-adv-x="1427" 
d="M70 120h1285v-120h-1285v120zM878 675v-461h-130v178h-125v-178h-131v461h131v-163h125v163h130zM1019 214v461h336v-115h-207v-63h180v-102h-180v-65h207v-116h-336zM33 675h363v-115h-117v-346h-130v346h-116v115z" />
    <glyph glyph-name="e_s_t_D" horiz-adv-x="2288" 
d="M96 0v675h441v-145h-268v-118h232v-144h-232v-122h268v-146h-441zM691 0v146h253q11 0 11 9v98q0 9 -11 9h-174q-35 0 -57 22t-22 57v255q0 35 22 57t57 22h349v-145h-244q-10 0 -10 -11v-99q0 -9 10 -9h174q35 0 57 -22t22 -57v-253q0 -35 -22 -57t-57 -22h-358z
M1822 675h274q41 0 71.5 -32t30.5 -76v-244q0 -45 -30.5 -77t-71.5 -32h-274v461zM1239 675h480v-146h-153v-529h-174v529h-153v146zM1822 120h376v-120h-376v120zM2069 374v142q0 19 -11 31.5t-28 12.5h-78v-230h78q17 0 28 12.5t11 31.5z" />
    <glyph glyph-name="n_O" horiz-adv-x="1235" 
d="M453 0l-197 371v-371h-160v675h160l202 -372v372h160v-675h-165zM821 673h268q25 0 40.5 -15.5t15.5 -41.5v-343q0 -26 -15 -41.5t-41 -15.5h-268q-25 0 -40.5 15.5t-15.5 41.5v343q0 25 15.5 41t40.5 16zM765 120h380v-120h-380v120zM1015 337v212q0 7 -8 7h-105
q-7 0 -7 -7v-212q0 -6 7 -6h105q8 0 8 6z" />
    <glyph glyph-name="one_sixteenths" horiz-adv-x="558" 
d="M478 189h-116v-39h94q28 0 28 -28v-95q0 -28 -28 -28h-129q-28 0 -28 28v186q0 28 28 28h151v-52zM87 175l-8 44l62 22h58v-193h59v-49h-184v49h61v140zM200 614l-8 44l62 22h58v-193h59v-49h-184v49h61v140zM362 106v-57h60v57h-60zM30 368h498v-52h-498v52z" />
    <glyph glyph-name="three_sixteenths" horiz-adv-x="558" 
d="M478 189h-116v-39h94q28 0 28 -28v-95q0 -28 -28 -28h-129q-28 0 -28 28v186q0 28 28 28h151v-52zM361 589q0 -27 -28 -31q28 -8 28 -40v-58q0 -27 -27 -27h-138v51h102v48h-96v48h96v43h-102v52h138q27 0 27 -28v-58zM87 175l-8 44l62 22h58v-193h59v-49h-184v49h61v140
zM362 106v-57h60v57h-60zM30 368h498v-52h-498v52z" />
    <glyph glyph-name="five_sixteenths" horiz-adv-x="558" 
d="M478 189h-116v-39h94q28 0 28 -28v-95q0 -28 -28 -28h-129q-28 0 -28 28v186q0 28 28 28h151v-52zM360 623h-112v-43h91q27 0 27 -27v-92q0 -28 -27 -28h-147v52h111v47h-111v143h168v-52zM87 175l-8 44l62 22h58v-193h59v-49h-184v49h61v140zM362 106v-57h60v57h-60z
M30 368h498v-52h-498v52z" />
    <glyph glyph-name="seven_sixteenths" horiz-adv-x="558" 
d="M478 189h-116v-39h94q28 0 28 -28v-95q0 -28 -28 -28h-129q-28 0 -28 28v186q0 28 28 28h151v-52zM87 175l-8 44l62 22h58v-193h59v-49h-184v49h61v140zM188 675h181v-52l-103 -190h-72l107 186h-113v56zM362 106v-57h60v57h-60zM30 368h498v-52h-498v52z" />
    <glyph glyph-name="nine_sixteenths" horiz-adv-x="558" 
d="M192 485h117v39h-95q-27 0 -27 28v95q0 28 27 28h130q28 0 28 -28v-186q0 -28 -28 -28h-152v52zM478 189h-116v-39h94q28 0 28 -28v-95q0 -28 -28 -28h-129q-28 0 -28 28v186q0 28 28 28h151v-52zM87 175l-8 44l62 22h58v-193h59v-49h-184v49h61v140zM362 106v-57h60v57
h-60zM309 568v57h-60v-57h60zM30 368h498v-52h-498v52z" />
    <glyph glyph-name="eleven_sixteenths" horiz-adv-x="646" 
d="M522 189h-116v-39h94q28 0 28 -28v-95q0 -28 -28 -28h-129q-28 0 -28 28v186q0 28 28 28h151v-52zM131 614l-8 44l62 22h58v-193h59v-49h-184v49h61v140zM357 614l-8 44l62 22h58v-193h59v-49h-184v49h61v140zM131 175l-8 44l62 22h58v-193h59v-49h-184v49h61v140z
M406 106v-57h60v57h-60zM30 368h586v-52h-586v52z" />
    <glyph glyph-name="thirteen_sixteenths" horiz-adv-x="646" 
d="M522 189h-116v-39h94q28 0 28 -28v-95q0 -28 -28 -28h-129q-28 0 -28 28v186q0 28 28 28h151v-52zM528 594q0 -27 -28 -31q28 -8 28 -40v-58q0 -27 -27 -27h-138v51h102v48h-96v48h96v43h-102v52h138q27 0 27 -28v-58zM131 614l-8 44l62 22h58v-193h59v-49h-184v49h61
v140zM131 175l-8 44l62 22h58v-193h59v-49h-184v49h61v140zM406 106v-57h60v57h-60zM30 368h586v-52h-586v52z" />
    <glyph glyph-name="fifteen_sixteenths" horiz-adv-x="646" 
d="M522 189h-116v-39h94q28 0 28 -28v-95q0 -28 -28 -28h-129q-28 0 -28 28v186q0 28 28 28h151v-52zM131 175l-8 44l62 22h58v-193h59v-49h-184v49h61v140zM131 614l-8 44l62 22h58v-193h59v-49h-184v49h61v140zM406 106v-57h60v57h-60zM30 368h586v-52h-586v52zM519 628
h-112v-43h91q27 0 27 -27v-92q0 -28 -27 -28h-147v52h111v47h-111v143h168v-52z" />
    <glyph glyph-name="zero.dnom" horiz-adv-x="419" 
d="M317 403q20 0 33.5 -13t13.5 -32v-312q0 -19 -13.5 -32.5t-33.5 -13.5h-214q-19 0 -33.5 13.5t-14.5 32.5v312q0 18 14.5 31.5t33.5 13.5h214zM259 87v230h-99v-230h99z" />
    <glyph glyph-name="one.dnom" horiz-adv-x="348" 
d="M47 293l-13 74l102 36h98v-321h97v-82h-306v82h101v231z" />
    <glyph glyph-name="two.dnom" horiz-adv-x="372" 
d="M143 169v-76h187v-93h-292v201q0 46 46 46h145v70h-182v86h242q46 0 46 -46v-142q0 -46 -46 -46h-146z" />
    <glyph glyph-name="three.dnom" horiz-adv-x="351" 
d="M314 261q0 -43 -47 -52q23 -7 35 -25.5t12 -40.5v-97q0 -46 -46 -46h-230v86h170v80h-159v80h159v72h-170v86h230q46 0 46 -46v-97z" />
    <glyph glyph-name="four.dnom" horiz-adv-x="382" 
d="M370 185v-93h-46v-92h-102v92h-184v311h103v-225h81v225h102v-218h46z" />
    <glyph glyph-name="five.dnom" horiz-adv-x="366" 
d="M318 317h-186v-72h151q46 0 46 -46v-153q0 -46 -46 -46h-245v86h186v78h-186v239h280v-86z" />
    <glyph glyph-name="six.dnom" horiz-adv-x="400" 
d="M354 317h-194v-66h157q46 0 46 -46v-159q0 -46 -46 -46h-216q-46 0 -46 46v311q0 46 46 46h253v-86zM160 179v-95h100v95h-100z" />
    <glyph glyph-name="seven.dnom" horiz-adv-x="320" 
d="M29 403h301v-87l-172 -316h-120l179 310h-188v93z" />
    <glyph glyph-name="eight.dnom" horiz-adv-x="419" 
d="M364 244q0 -16 -12.5 -25t-29.5 -10q16 -2 29 -16t13 -30v-117q0 -46 -46 -46h-217q-46 0 -46 46v117q0 17 13 31t29 15q-17 1 -29.5 10t-12.5 25v113q0 46 46 46h217q46 0 46 -46v-113zM259 85v84h-99v-84h99zM259 238v81h-99v-81h99z" />
    <glyph glyph-name="nine.dnom" horiz-adv-x="401" 
d="M47 86h194v66h-157q-46 0 -46 46v159q0 46 46 46h216q46 0 46 -46v-311q0 -46 -46 -46h-253v86zM241 224v95h-100v-95h100z" />
    <glyph glyph-name="horiz_fraction" horiz-adv-x="360" 
d="M-25 367l410 2v-52l-410 -2v52z" />
    <glyph glyph-name="zero.numr" horiz-adv-x="419" 
d="M317 675q20 0 33.5 -13t13.5 -32v-312q0 -19 -13.5 -32.5t-33.5 -13.5h-214q-19 0 -33.5 13.5t-14.5 32.5v312q0 18 14.5 31.5t33.5 13.5h214zM259 359v230h-99v-230h99z" />
    <glyph glyph-name="one.numr" horiz-adv-x="348" 
d="M47 565l-13 74l102 36h98v-321h97v-82h-306v82h101v231z" />
    <glyph glyph-name="two.numr" horiz-adv-x="372" 
d="M143 441v-76h187v-93h-292v201q0 46 46 46h145v70h-182v86h242q46 0 46 -46v-142q0 -46 -46 -46h-146z" />
    <glyph glyph-name="three.numr" horiz-adv-x="351" 
d="M314 532q0 -43 -47 -52q23 -7 35 -25.5t12 -40.5v-97q0 -46 -46 -46h-230v86h170v80h-159v80h159v72h-170v86h230q46 0 46 -46v-97z" />
    <glyph glyph-name="four.numr" horiz-adv-x="382" 
d="M370 457v-93h-46v-92h-102v92h-184v311h103v-225h81v225h102v-218h46z" />
    <glyph glyph-name="five.numr" horiz-adv-x="366" 
d="M318 589h-186v-72h151q46 0 46 -46v-153q0 -46 -46 -46h-245v86h186v78h-186v239h280v-86z" />
    <glyph glyph-name="six.numr" horiz-adv-x="400" 
d="M354 589h-194v-66h157q46 0 46 -46v-159q0 -46 -46 -46h-216q-46 0 -46 46v311q0 46 46 46h253v-86zM160 451v-95h100v95h-100z" />
    <glyph glyph-name="seven.numr" horiz-adv-x="320" 
d="M29 675h301v-87l-172 -316h-120l179 310h-188v93z" />
    <glyph glyph-name="eight.numr" horiz-adv-x="419" 
d="M364 516q0 -16 -12.5 -25t-29.5 -10q16 -2 29 -16t13 -30v-117q0 -46 -46 -46h-217q-46 0 -46 46v117q0 17 13 31t29 15q-17 1 -29.5 10t-12.5 25v113q0 46 46 46h217q46 0 46 -46v-113zM259 357v84h-99v-84h99zM259 510v81h-99v-81h99z" />
    <glyph glyph-name="nine.numr" horiz-adv-x="401" 
d="M47 358h194v66h-157q-46 0 -46 46v159q0 46 46 46h216q46 0 46 -46v-311q0 -46 -46 -46h-253v86zM241 496v95h-100v-95h100z" />
    <glyph glyph-name="zero.zero" horiz-adv-x="651" 
d="M108 -96l44 96q-30 1 -52 23t-22 54v522q0 32 23 54t54 22h270l43 94h71l-43 -94h1q32 0 54 -22t22 -54v-522q0 -33 -22 -55t-54 -22h-274l-44 -96h-71zM424 541q0 5 -4 9l-125 -427h116q13 0 13 12v406zM227 135q0 -6 2 -8l124 426h-113q-13 0 -13 -12v-406z" />
    <glyph glyph-name="I.alt" horiz-adv-x="527" 
d="M60 531v144h407v-144h-117v-387h117v-144h-407v144h117v387h-117z" />
    <glyph glyph-name="i.alt" horiz-adv-x="527" 
d="M60 531v144h407v-144h-117v-387h117v-144h-407v144h117v387h-117z" />
    <glyph glyph-name="one.alt" horiz-adv-x="501" 
d="M60 493l-20 122l181 60h157v-675h-174v526z" />
    <glyph glyph-name="ampersand.alt" horiz-adv-x="650" 
d="M416 -97v97h-262q-25 0 -41 22.5t-16 51.5v180q0 39 20 69t60 39q-80 13 -80 89v160q0 29 17.5 46.5t46.5 17.5h383v-143h-262q-11 0 -11 -11v-83q0 -11 11 -11h208v-136h-208q-11 0 -11 -11v-126q0 -11 11 -11h134v79h149v-319h-149z" />
    <glyph glyph-name="bullet.alt" horiz-adv-x="462" 
d="M231 207q-58 0 -100 42t-42 100t42 100t100 42t100 -42t42 -100q0 -59 -41.5 -100.5t-100.5 -41.5z" />
    <glyph glyph-name="registered.alt" horiz-adv-x="484" 
d="M97 675h290q21 0 34 -13t13 -34v-311q0 -21 -13 -34t-34 -13h-290q-21 0 -34 13t-13 34v311q0 21 13 34t34 13zM373 328v288q0 8 -9 8h-246q-7 0 -7 -8v-288q0 -7 7 -7h246q9 0 9 7zM270 480v55q0 3 -3 3h-49v-61h49q3 0 3 3zM272 359l-29 72h-25v-72h-59v228h144
q10 0 17.5 -7.5t7.5 -18.5v-104q0 -11 -7 -18.5t-18 -7.5h-2l29 -72h-58z" />
    <glyph glyph-name="C_ordinal" horiz-adv-x="534" 
d="M333 391h130v-124q0 -21 -16 -36t-38 -15h-267q-21 0 -36.5 15t-15.5 36v356q0 19 15.5 34.5t36.5 15.5h267q21 0 37.5 -15.5t16.5 -34.5v-124h-130v52q0 8 -6 8h-99q-8 0 -8 -8v-213q0 -7 8 -7h99q6 0 6 2v58zM90 120h373v-120h-373v120z" />
    <glyph glyph-name="hexagon" horiz-adv-x="519" 
d="M261 549l162 -93v-189l-162 -93l-165 93v189z" />
    <glyph glyph-name="at.alt" horiz-adv-x="0" 
 />
    </font>
</defs>
</svg>
