<?xml version="1.0" standalone="no"?>
<!DOCTYPE svg PUBLIC "-//W3C//DTD SVG 1.1//EN" "http://www.w3.org/Graphics/SVG/1.1/DTD/svg11.dtd" >
<svg xmlns="http://www.w3.org/2000/svg" xmlns:xlink="http://www.w3.org/1999/xlink" version="1.1">
<metadata>
Created by FontForge 20170731 at Wed Dec 12 23:54:16 2012
 By Aleksey,,,
(c) 1994, 2001, 2002 Adobe Systems Incorporated. All rights reserved.
</metadata>
<defs>
<font id="ITCGaramondStd-BkIta" horiz-adv-x="566" >
  <font-face 
    font-family="ITC Garamond Std Book"
    font-weight="400"
    font-style="italic"
    font-stretch="normal"
    units-per-em="1000"
    panose-1="2 2 6 2 6 5 6 9 3 4"
    ascent="703"
    descent="-297"
    x-height="457"
    cap-height="624"
    bbox="-182 -250 1157 862"
    underline-thickness="50"
    underline-position="-200"
    slope="-16"
    unicode-range="U+0020-FB02"
  />
<missing-glyph horiz-adv-x="634" 
d="M134 0v700h500v-700h-500zM384 395l170 255h-340zM414 350l170 -255v510zM214 50h340l-170 255zM184 605v-510l170 255z" />
    <glyph glyph-name="f_i" unicode="fi" horiz-adv-x="616" 
d="M174 407h-63q-20 0 -20 8q0 12 6 20q4 8 25 8h63q48 133 97 177q77 72 188 72q54 0 87 -17.5t33 -49.5q0 -20 -14.5 -35t-36.5 -15q-27 0 -44 24l-18 30q-19 28 -55 28q-24 0 -44.5 -14.5t-36 -42t-24 -47.5t-18.5 -50q-16 -44 -20 -60h149q33 0 75 8q9 1 19.5 3t17.5 3
t11 1q23 0 23 -32q0 -18 -17 -69q-7 -24 -72 -232q-10 -32 -10 -42q0 -18 13 -18q12 0 32.5 22t37.5 47q20 32 28 32q9 0 9 -10q0 -34 -66.5 -101.5t-116.5 -67.5q-41 0 -41 48q0 19 18 88q34 108 56 181q15 48 15 64q0 25 -20.5 32t-58.5 7h-112q-90 -303 -116 -387
q-32 -108 -77 -164q-33 -39 -78.5 -62t-87.5 -23q-40 0 -65.5 17.5t-25.5 48.5q0 23 13 38t36 15q40 0 51 -39q2 -14 2 -23q1 -10 1.5 -14t4.5 -8.5t12 -4.5q12 0 27 12.5t25 30.5q25 42 63 166q80 266 120 397z" />
    <glyph glyph-name="f_l" unicode="fl" horiz-adv-x="617" 
d="M174 407h-63q-20 0 -20 8q0 12 6 20q4 8 25 8h63q46 131 99 179q35 31 83 50.5t93 19.5q65 0 101 -34q17 4 36 12.5t32 14.5t17 6q11 0 11 -11q0 -3 -3 -13.5t-4 -13.5q-19 -62 -75.5 -244.5t-87.5 -282.5q-12 -41 -12 -48q0 -15 13 -15q21 0 64 58q4 5 10 14.5t10 14.5
t8.5 9.5t8.5 4.5q7 0 7 -10q0 -19 -29 -58.5t-74 -74t-81 -34.5q-40 0 -40 45q0 27 20 98q15 50 43.5 141t51.5 165.5t43 140.5q-39 0 -57 25q-6 7 -17 30q-18 25 -48 25q-28 0 -52 -29t-35 -56.5t-24 -69.5q-3 -11 -10 -32.5t-8 -26.5h81q23 0 23 -8q0 -7 -6 -20
q-2 -8 -23 -8h-85q-90 -303 -116 -387q-32 -108 -77 -164q-33 -39 -78.5 -62t-87.5 -23q-40 0 -65.5 17.5t-25.5 48.5q0 23 13 38t36 15q40 0 51 -39q2 -14 2 -23q1 -10 1.5 -14t4.5 -8.5t12 -4.5q12 0 27 12.5t25 30.5q25 42 63 166q80 266 120 397z" />
    <glyph glyph-name=".notdef" horiz-adv-x="634" 
d="M134 0v700h500v-700h-500zM384 395l170 255h-340zM414 350l170 -255v510zM214 50h340l-170 255zM184 605v-510l170 255z" />
    <glyph glyph-name=".null" horiz-adv-x="0" 
 />
    <glyph glyph-name="nonmarkingreturn" horiz-adv-x="333" 
 />
    <glyph glyph-name="space" unicode=" " horiz-adv-x="283" 
 />
    <glyph glyph-name="exclam" unicode="!" horiz-adv-x="277" 
d="M335 611v-1q0 -20 -22 -66q-87 -196 -153 -340q-16 -35 -31 -35t-15 16q0 10 4 24q10 37 39.5 155.5t46.5 180.5q5 22 9.5 35t13.5 30.5t24 26t36 8.5q48 0 48 -34zM30 36v1q0 26 17.5 47t45.5 21q21 0 34 -14t13 -35q0 -28 -18 -48.5t-46 -20.5q-22 0 -34 14.5t-12 34.5
z" />
    <glyph glyph-name="quotedbl" unicode="&#x22;" horiz-adv-x="343" 
d="M153 329h-1q-13 0 -16 32q-18 175 -18 223q0 58 35 58q36 0 36 -58q0 -48 -18 -223q-3 -32 -18 -32zM312 329h-1q-13 0 -16 32q-18 175 -18 223q0 58 35 58q36 0 36 -58q0 -48 -18 -223q-3 -32 -18 -32z" />
    <glyph glyph-name="numbersign" unicode="#" 
d="M104 317h98q13 0 17 2.5t10 15.5l28 72q5 10 5 16t-19 6h-89q-21 0 -21 7l3 12l13 31q3 8 22 8h99q14 0 18 3t9 16l39 96q5 12 8.5 14.5t14.5 2.5q14 0 14 -7t-4 -15l-36 -87q-5 -10 -5 -16q0 -7 20 -7h88q13 0 17 3t9 16l39 96q5 12 8.5 14.5t12.5 2.5q16 0 16 -7
q0 -3 -4 -15l-35 -87q-5 -10 -5 -16q0 -7 19 -7h89q21 0 21 -6l-3 -12l-12 -31q-4 -9 -24 -9h-98q-13 0 -17 -3t-9 -15l-29 -71q0 -1 -3 -7.5t-3 -9.5q0 -6 20 -6h89q21 0 21 -6l-3 -12l-12 -32q-6 -8 -24 -8h-98q-13 0 -16.5 -3t-8.5 -15l-43 -106q-4 -13 -8 -15.5
t-15 -2.5q-15 0 -15 7l4 16l40 97q4 12 4 15q0 5 -3.5 6t-17.5 1h-85q-14 0 -18 -3t-9 -15l-43 -106q-4 -12 -7.5 -15t-12.5 -3q-17 0 -17 7l4 16l40 97q4 12 4 15q1 5 -3 6t-17 1h-88q-22 0 -22 7q0 1 0.5 3t1.5 4.5t1 3.5l14 32q3 8 22 8zM407 429h-86q-14 0 -17.5 -2.5
t-8.5 -13.5l-30 -73q-5 -12 -5 -18q0 -5 20 -5h88q14 0 17.5 2t8.5 13l29 74q5 10 5 16q0 7 -21 7z" />
    <glyph glyph-name="dollar" unicode="$" horiz-adv-x="552" 
d="M201 50l74 264q-36 32 -56 62.5t-20 71.5q0 64 46 105t113 55l21 75q2 8 5 11.5t5.5 4t9.5 0.5q11 0 14.5 -2t0.5 -12l-20 -72q9 1 23 1q23 0 34 -2l20 71q2 7 5 10.5t5.5 4t9.5 0.5q11 0 14 -2t1 -12l-21 -76q76 -16 76 -37q0 -6 -7 -32q-4 -11 -11 -45q0 -1 -1.5 -5.5
t-2 -6.5t-2 -6t-3.5 -6t-4.5 -3.5t-5.5 -1.5q-14 0 -14 20q0 68 -35 88l-66 -235q74 -68 74 -137q0 -66 -46.5 -114t-117.5 -67l-23 -83q-2 -8 -5 -11.5t-6 -4t-9 -0.5q-11 0 -14.5 2t-0.5 12l22 79q-21 -3 -34 -3q-14 0 -23 1l-22 -75q-4 -16 -20 -16q-10 0 -14 2.5
t-1 12.5l23 81q-107 20 -107 52q0 17 4 41q5 19 7 45q0 2 1 7t1.5 8.5t2 8t4.5 6.5t7 2q15 0 17 -27q3 -46 18.5 -71t53.5 -39zM386 584l-51 -181q6 -6 22 -19.5t24 -21.5l62 222q-20 2 -32 2q-11 0 -25 -2zM309 433l40 142q-63 -27 -63 -84q0 -30 23 -58zM292 44l57 204
q-6 7 -13.5 14t-17 15t-14.5 13l-70 -248q3 0 11.5 -0.5t12.5 -0.5q18 0 34 3zM375 218l-45 -161q65 32 65 101q0 30 -20 60z" />
    <glyph glyph-name="percent" unicode="%" horiz-adv-x="802" 
d="M153 -7v1q0 2 23 30l489 591q14 17 19.5 20.5t14.5 3.5h18q15 0 15 -6q0 -5 -22 -30l-490 -593q-13 -16 -18.5 -19.5t-15.5 -3.5h-19q-14 0 -14 6zM299 614h-1q-41 0 -74 -38t-47.5 -85t-14.5 -88q0 -87 64 -87q42 0 74.5 38t47 85t14.5 88q0 87 -63 87zM660 310h-1
q-41 0 -73.5 -38t-47 -85t-14.5 -87q0 -88 63 -88q42 0 75 38t47.5 85t14.5 88q0 87 -64 87zM227 291h-1q-60 0 -97.5 43.5t-37.5 102.5q0 77 62.5 139.5t143.5 62.5q60 0 98 -43.5t38 -102.5q0 -77 -62.5 -139.5t-143.5 -62.5zM589 -13h-1q-60 0 -97.5 43.5t-37.5 102.5
q0 77 62.5 139.5t143.5 62.5q60 0 98 -43t38 -103q0 -77 -62.5 -139.5t-143.5 -62.5z" />
    <glyph glyph-name="ampersand" unicode="&#x26;" horiz-adv-x="668" 
d="M27 189v1q0 80 65 134t150 68q-36 47 -36 88q0 21 12 46t35.5 51.5t68.5 44t103 17.5q50 0 95.5 -21t45.5 -46q0 -7 -10 -40q-10 -38 -24 -38q-6 0 -11 2t-10 8t-8 9t-10 13.5l-9 13.5q-31 46 -83 46q-65 0 -106 -41t-41 -84q0 -38 30 -62q4 0 13 1.5t17 2t16 0.5
q77 0 77 -31q0 -14 -17.5 -21.5t-34.5 -7.5q-48 0 -89 26q-56 -12 -93.5 -57t-37.5 -104q0 -79 57.5 -127t136.5 -48q73 0 142.5 44.5t69.5 114.5q0 27 -23 39.5t-52 12.5q-35 0 -60 -14t-37 -28t-15 -14q-10 0 -10 13q0 18 30 48q33 28 72.5 39t98.5 12q39 1 54.5 2t33 6.5
t27.5 17.5q3 5 6.5 10.5t5.5 8.5t4.5 5t4.5 2q13 0 13 -25q0 -41 -33.5 -67t-71.5 -27q-10 -1 -27 -1q14 -18 13 -46q-3 -42 -29.5 -81t-67.5 -65q-83 -53 -195 -53q-101 0 -178.5 54.5t-77.5 147.5z" />
    <glyph glyph-name="quotesingle" unicode="'" horiz-adv-x="196" 
d="M156 329h-1q-14 0 -17 32q-18 175 -18 223q0 58 36 58q35 0 35 -58q0 -48 -18 -223q-3 -32 -17 -32z" />
    <glyph glyph-name="parenleft" unicode="(" horiz-adv-x="389" 
d="M549 681v-1q0 -5 -16.5 -8.5t-50 -15.5t-65.5 -37q-71 -53 -133.5 -178t-95 -246t-34.5 -199q0 -69 26.5 -114t64.5 -55q4 -1 9.5 -2.5t8.5 -2t6 -2t4.5 -3t1.5 -4.5q0 -12 -18 -12q-72 0 -125 77t-53 205q0 134 62 276t165 231q60 51 122 77t103 26q18 0 18 -12z" />
    <glyph glyph-name="parenright" unicode=")" horiz-adv-x="389" 
d="M-111 -188v1q0 5 16.5 8.5t50.5 15.5t66 37q71 53 133 178.5t94.5 246.5t34.5 198q0 69 -26.5 114t-64.5 55q-4 1 -9.5 2.5t-8.5 2t-6 2t-4.5 3t-1.5 4.5q0 13 19 13q71 0 124 -77.5t53 -204.5q0 -135 -61.5 -277t-164.5 -230q-61 -52 -122.5 -77.5t-102.5 -25.5
q-19 0 -19 11z" />
    <glyph glyph-name="asterisk" unicode="*" horiz-adv-x="368" 
d="M291 641h1q16 0 27 -9.5t11 -26.5q0 -21 -31 -62t-31 -57q0 -10 12 -10q11 0 53 30.5t63 30.5q16 0 27 -9.5t11 -27.5q0 -37 -49 -37q-14 0 -41.5 4t-40.5 4q-26 0 -26 -10q0 -13 30.5 -27t60.5 -30.5t30 -36.5q0 -41 -38 -41q-18 0 -33.5 19t-23.5 42.5t-18 42.5t-19 19
q-14 0 -14 -30q0 -20 5 -45.5t5 -37.5q0 -21 -11 -33.5t-30 -12.5q-17 0 -27 12.5t-10 29.5q0 22 31 59.5t31 56.5q0 8 -6 8q-21 0 -60 -33t-58 -33t-29.5 11t-10.5 29t13.5 28t33.5 10q12 0 41 -3t40 -3q29 0 29 11t-30 22t-60 28t-30 40q0 16 9.5 27.5t24.5 11.5
q17 0 31 -18.5t22.5 -40.5t20 -40.5t24.5 -18.5q9 0 9 20q0 7 -4 36t-4 47q0 26 10.5 40t28.5 14z" />
    <glyph glyph-name="plus" unicode="+" horiz-adv-x="574" 
d="M284 288v218h70v-218h217v-70h-217v-218h-70v218h-217v70h217z" />
    <glyph glyph-name="comma" unicode="," horiz-adv-x="282" 
d="M36 32v1q0 25 19 44.5t46 19.5t41 -19t14 -45q0 -48 -33.5 -99.5t-71 -82t-56.5 -30.5q-13 0 -13 10q0 5 10.5 13.5t28.5 22.5t30 27q19 22 33.5 47t14.5 38q0 14 -11 14q-2 0 -5 -0.5t-4 -0.5q-4 -2 -9 -2q-14 0 -24 13t-10 29z" />
    <glyph glyph-name="hyphen" unicode="-" horiz-adv-x="314" 
d="M70 254h235q10 0 10 -5q0 -2 -3.5 -11t-7.5 -20.5t-6 -16.5q-3 -10 -13 -10h-235q-10 0 -10 5l17 48q4 10 13 10z" />
    <glyph glyph-name="period" unicode="." horiz-adv-x="282" 
d="M191 55v-1q0 -26 -18.5 -46.5t-45.5 -20.5q-23 0 -34.5 13t-11.5 34q0 26 18 47t45 21q22 0 34.5 -13t12.5 -34z" />
    <glyph glyph-name="slash" unicode="/" horiz-adv-x="322" 
d="M467 684v-1q0 -5 -8 -17l-547 -843q-13 -20 -24 -20h-31q-11 0 -11 6q0 7 9 18l544 839q7 10 9.5 13.5t8 7.5t11.5 4h27q12 0 12 -7z" />
    <glyph glyph-name="zero" unicode="0" 
d="M61 218v1q0 66 27.5 140t73 136t112.5 103t138 41q82 0 129 -66t47 -156q0 -89 -42 -187t-122 -170.5t-173 -72.5t-141.5 68.5t-48.5 162.5zM495 489v1q0 116 -85 116q-57 0 -104.5 -55.5t-81.5 -131.5q-68 -159 -68 -271q0 -53 23 -90t74 -37q52 0 97 55.5t79 138.5
q29 67 47.5 146.5t18.5 127.5z" />
    <glyph glyph-name="one" unicode="1" 
d="M84 9v1q0 19 54 19q47 0 62 14t31 65q55 183 115 384q9 22 9 36t-16 14q-8 0 -64.5 -21t-68.5 -21q-19 0 -19 14q0 17 51 29q112 31 212 81q24 13 33 13t9 -12q0 -3 -9 -37q-133 -442 -145 -483q-11 -30 -11 -46q0 -13 9 -20.5t18 -8.5t25 -1q56 0 56 -17q0 -16 -27 -16
q-28 0 -82 2t-78 2q-26 0 -71.5 -2t-67.5 -2q-25 0 -25 13z" />
    <glyph glyph-name="two" unicode="2" 
d="M127 87l2 -4q48 2 79 2q21 0 68 -0.5t66 -0.5q45 0 71.5 11t43.5 42q18 29 27 29q13 0 13 -14q0 -4 -7 -27t-16 -52.5t-12 -40.5q-7 -24 -15 -30t-34 -6q-23 0 -88 2t-98 2q-31 0 -93.5 -2t-86.5 -2q-43 0 -43 16q0 11 20 30t71 59q36 28 112.5 86.5t115.5 88.5
q139 112 139 210q0 48 -31 79.5t-80 31.5q-68 0 -132 -64q-10 -11 -23 -28.5t-20.5 -26.5t-13.5 -9q-12 0 -12 14q0 21 27 56t84 67.5t124 32.5q81 0 135.5 -43.5t54.5 -117.5q0 -30 -12 -58t-28.5 -48.5t-46 -44t-50.5 -37.5t-58 -36.5t-53 -33.5q-89 -55 -200 -133z" />
    <glyph glyph-name="three" unicode="3" 
d="M535 530v-1q0 -22 -8.5 -41.5t-26.5 -36.5t-34.5 -30t-45 -27t-44.5 -21.5t-46 -19.5t-38 -15l2 -2q30 2 60 -1q65 -7 110 -46t45 -101q0 -81 -61 -151t-145.5 -107.5t-163.5 -37.5q-48 0 -99 18t-51 54q0 19 12.5 29.5t32.5 10.5q15 0 27 -7t17.5 -13.5t16.5 -22.5
q29 -40 67 -40q92 0 163.5 77.5t71.5 176.5q0 58 -36 95t-92 37q-30 0 -59.5 -7.5t-48 -15.5t-20.5 -8q-11 0 -11 13q0 7 6.5 13t22 13t30 12.5t40.5 15.5t45 17q65 26 106 69t41 97q0 35 -20.5 54t-54.5 19q-46 0 -99 -40q-11 -9 -24 -21t-19.5 -16.5t-10.5 -4.5
q-13 0 -13 12q0 6 8.5 18.5t26.5 28t41.5 30t58 24t72.5 9.5q61 0 104.5 -29t43.5 -80z" />
    <glyph glyph-name="four" unicode="4" 
d="M312 200h-249h-15t-8.5 1t-5.5 3t-1 5q0 9 4 21q6 13 24 30q147 136 439 404q16 15 31 15h33q15 0 15 -7t-21 -23q-209 -177 -468 -406h235q15 0 19 3.5t9 18.5l50 165q6 21 10 26t18 9q83 24 86 24q6 0 6 -8q0 -5 -5 -22q-25 -85 -59 -196q0 -2 -1.5 -8t-1.5 -8
q0 -4 14 -4h65q24 0 24 -8q0 -10 -7 -24q-3 -11 -24 -11h-71q-10 0 -14 -3t-7 -14q-2 -7 -11 -35.5t-15.5 -52.5t-6.5 -35q0 -31 45 -31q39 -2 39 -15q0 -18 -36 -18q-15 0 -57 2t-64 2t-64 -2t-64 -2t-22 12q0 20 44 22q36 1 51 13t25 45q31 96 31 106q0 6 -19 6z" />
    <glyph glyph-name="five" unicode="5" 
d="M545 551l-243 -19q-34 -3 -45 -9q-8 -5 -25.5 -46t-17.5 -50q0 -8 22 -8q106 -2 168 -30q110 -49 110 -166q0 -78 -56 -142t-136 -99q-122 -54 -295 -54q-40 0 -40 15q0 16 57 16q68 2 130.5 18t114.5 45t83.5 77.5t31.5 108.5q0 124 -202 127q-36 1 -44.5 2.5t-8.5 10.5
q0 4 9 27q11 28 79 209q8 20 13 24.5t27 6.5q104 9 308 25q13 0 13 -10q0 -9 -16 -57q-4 -14 -9.5 -17t-27.5 -5z" />
    <glyph glyph-name="six" unicode="6" 
d="M545 238v-1q0 -101 -78 -175.5t-187 -74.5q-102 0 -161.5 67.5t-59.5 174.5q0 105 55 192.5t145 151.5q86 61 186.5 94t170.5 33q19 0 19 -13q0 -5 -3 -8t-9.5 -5.5t-12.5 -4t-15 -3t-13 -2.5q-188 -39 -305 -170q-55 -66 -85 -148.5t-30 -160.5q0 -40 9 -74.5t36 -62.5
t68 -28q73 0 118.5 77.5t45.5 158.5q0 48 -27 85t-71 38q-17 1 -39 -6t-25 -6q-7 2 -7 7q0 14 31 29t78 15q73 0 119.5 -53.5t46.5 -126.5z" />
    <glyph glyph-name="seven" unicode="7" 
d="M516 530l-280 -1h-47q-25 0 -25 12q0 4 7 36.5t8 38.5q4 13 7 16q21 -9 68 -11q56 -2 169 -2q33 0 97 2q66 2 88 2q31 0 31 -10q0 -15 -24 -53q-124 -202 -374 -608q-7 -13 -13.5 -17.5t-20.5 -4.5q-26 0 -26 11q0 6 10 21q196 317 339 550q7 12 7 14q0 4 -21 4z" />
    <glyph glyph-name="eight" unicode="8" 
d="M525 186v-1q0 -89 -82.5 -143.5t-187.5 -54.5q-55 0 -104 17t-84 55.5t-35 91.5q0 24 6.5 44.5t21 36t28.5 27t37.5 22.5t38.5 17t42.5 15.5t38.5 13.5q-104 54 -104 131q0 83 74.5 132t173.5 49q79 0 139.5 -34.5t60.5 -99.5q0 -26 -11 -47.5t-26 -34.5t-39.5 -25
t-43 -18t-45.5 -14t-38 -12q29 -15 49.5 -28t43 -33.5t34.5 -47.5t12 -59zM238 496v-1q0 -43 32 -70t83 -51q62 16 106 48.5t44 86.5q0 47 -37.5 73.5t-89.5 26.5q-53 0 -95.5 -31.5t-42.5 -81.5zM122 143v-1q0 -55 38.5 -89t96.5 -34q63 0 113 38.5t50 100.5q0 13 -2.5 25
t-9.5 23t-12 19t-17.5 18t-18 14.5t-22 13.5t-21 11.5t-23 11.5t-20.5 10q-66 -19 -109 -59t-43 -102z" />
    <glyph glyph-name="nine" unicode="9" 
d="M585 395v-1q0 -181 -174 -323q-74 -61 -186.5 -104t-205.5 -43q-21 0 -21 13q0 5 3.5 9t11.5 6t15 3.5t20 4t20 3.5q183 35 294 159q59 67 90.5 154t31.5 168q0 39 -9 73t-35.5 61.5t-67.5 27.5q-49 0 -88 -39.5t-58 -92t-19 -101.5t27 -85.5t72 -37.5q15 -1 35 6.5
t24 7.5q9 -2 9 -10q0 -14 -31 -28t-75 -14q-71 0 -118.5 52.5t-47.5 127.5q0 100 77.5 173.5t182.5 73.5q102 0 162.5 -68t60.5 -176z" />
    <glyph glyph-name="colon" unicode=":" horiz-adv-x="282" 
d="M222 335v-1q0 -27 -18 -47t-46 -20q-46 0 -46 47q0 26 18 46.5t45 20.5q21 0 34 -12.5t13 -33.5zM138 55v-1q0 -26 -18.5 -46.5t-45.5 -20.5q-23 0 -34.5 13t-11.5 34q0 26 18 47t45 21q22 0 34.5 -13t12.5 -34z" />
    <glyph glyph-name="semicolon" unicode=";" horiz-adv-x="282" 
d="M219 334v-1q0 -27 -18 -47t-46 -20q-45 0 -45 47q0 26 17.5 46.5t45.5 20.5q21 0 33.5 -12.5t12.5 -33.5zM23 32v1q0 25 19 44.5t46 19.5t41.5 -19t14.5 -45q0 -48 -34 -99.5t-71.5 -82t-56.5 -30.5q-13 0 -13 10q0 5 10.5 13.5t28.5 22.5t30 27q20 22 34.5 47t14.5 38
q0 14 -12 14q-1 0 -4 -0.5t-5 -0.5q-4 -2 -9 -2q-14 0 -24 13t-10 29z" />
    <glyph glyph-name="less" unicode="&#x3c;" horiz-adv-x="574" 
d="M573 65v-73l-508 228v66l508 228v-73l-419 -188z" />
    <glyph glyph-name="equal" unicode="=" horiz-adv-x="574" 
d="M571 388v-70h-504v70h504zM571 188v-70h-504v70h504z" />
    <glyph glyph-name="greater" unicode="&#x3e;" horiz-adv-x="574" 
d="M65 65l419 188l-419 188v73l508 -228v-66l-508 -228v73z" />
    <glyph glyph-name="question" unicode="?" horiz-adv-x="378" 
d="M429 492v-1q0 -116 -179 -195l-18 -9l-16 -8t-13.5 -6.5t-12 -7t-9.5 -7.5t-9.5 -9t-7 -10t-7 -12.5t-5.5 -15t-6 -18.5q-1 -2 -2.5 -7.5t-2.5 -7.5t-2.5 -6t-3.5 -6t-5 -3.5t-6 -1.5q-13 0 -13 12q0 4 3 15l2 12q1 6 21 92q9 41 19.5 54t49.5 32q86 41 117 70
q45 41 45 92q0 28 -19.5 48t-46.5 20q-11 0 -23 -6.5t-18 -11.5t-20.5 -20.5t-17.5 -18.5q-32 -30 -55 -30q-20 0 -20 19q0 14 9 39q11 36 25 46q31 20 84 20q71 0 117 -43t46 -110zM142 53v-1q0 -26 -17.5 -45.5t-44.5 -19.5q-21 0 -33.5 12.5t-12.5 33.5q0 26 17.5 46
t44.5 20q22 0 34 -13t12 -33z" />
    <glyph glyph-name="at" unicode="@" horiz-adv-x="705" 
d="M595 463l-61 -242q-4 -18 -4 -27q0 -41 37 -41q54 0 89 62.5t35 135.5q0 100 -76 177t-202 77q-118 0 -198 -88t-80 -226q0 -123 81.5 -204.5t211.5 -81.5q41 0 77.5 8t52 15t55.5 25l14 -31q-115 -54 -204 -54q-74 0 -136 19.5t-103.5 52t-71 74.5t-42.5 86.5t-13 88.5
q0 154 103.5 252t252.5 98q140 0 229.5 -81.5t89.5 -205.5q0 -83 -49.5 -157t-130.5 -74q-42 0 -65 26t-22 43h-2q-14 -21 -45 -45t-67 -24q-94 0 -94 121q0 84 56 158.5t135 74.5q26 0 41.5 -11.5t28.5 -37.5l10 37h67zM330 243v-1q0 -78 54 -78q41 0 76 58.5t43 148.5
q0 61 -43 61t-86.5 -56.5t-43.5 -132.5z" />
    <glyph glyph-name="A" unicode="A" horiz-adv-x="657" 
d="M434 229h-207q-9 0 -14 -6q-4 -5 -77 -103q-25 -35 -25 -57q0 -12 8.5 -19t16.5 -9t24 -5q10 -2 13.5 -2.5t10 -2.5t9 -5.5t2.5 -8.5q0 -15 -26 -15q-19 0 -57 2t-56 2q-17 0 -47.5 -2t-40.5 -2q-22 0 -22 14q0 3 1.5 5.5t3 4t5 3t5.5 2.5t6.5 2t6.5 2q12 2 23 7.5l18 9
t18.5 15.5t14.5 15t17 21t16 20q48 61 181.5 230.5t206.5 262.5q19 26 47 26q21 0 21 -31q2 -70 4 -249.5t3 -250.5q2 -47 8.5 -60.5t31.5 -15.5q3 0 10 -1t9.5 -2t6.5 -2.5t5.5 -4t1.5 -6.5q0 -17 -25 -17q-15 0 -55 2t-61 2q-22 0 -55.5 -2t-45.5 -2q-29 0 -29 14
q0 15 28 18q3 0 11 1h6q22 1 34 13.5t13 45.5q0 27 -2 76t-2 65zM434 266l-5 233l-1 1q-78 -101 -182 -234h188z" />
    <glyph glyph-name="B" unicode="B" horiz-adv-x="656" 
d="M454 341v-2q71 -4 118 -40t47 -108q0 -45 -25.5 -85t-65.5 -66q-65 -43 -188 -43q-22 0 -84.5 1.5t-88.5 1.5q-31 0 -85.5 -1.5t-71.5 -1.5q-33 0 -33 12q0 4 1.5 7.5t4.5 6t5.5 4t7.5 2.5t8.5 1.5t9.5 1.5t9 1q23 0 36.5 11.5t18.5 24.5t15 46q23 74 121 395
q12 45 12 52q0 13 -9 19.5t-14.5 7t-21.5 1.5q-1 0 -6 0.5t-7 0.5t-6.5 0.5t-6 1.5t-4 2.5t-3.5 4t-1 5.5q0 18 28 18q13 0 56.5 -1.5t65.5 -2.5q32 0 104 2t107 2q70 0 113 -32t43 -84q0 -37 -21 -68t-54 -50.5t-67 -31.5t-68 -16zM430 591h-1q-61 0 -75 -8q-9 -4 -19 -45
l-42 -133q-6 -24 -17 -56q8 0 25 0.5t26 0.5q108 2 161 39q29 22 47 55t18 67q0 80 -123 80zM249 261l-41 -135q-11 -40 -11 -58q0 -6 2 -11.5t6.5 -9t8 -6.5t11 -4.5t12 -2.5t14 -1.5t12.5 -0.5h12.5h10.5q101 0 152 43q63 55 63 136q0 62 -43 85t-116 23q-72 0 -74 -2
q-1 -1 -19 -56z" />
    <glyph glyph-name="C" unicode="C" horiz-adv-x="634" 
d="M61 230v1q1 85 55 164.5t137 133.5q76 50 178.5 79.5t192.5 29.5q84 0 84 -26q0 -7 -6 -27q-15 -50 -28 -89q-9 -34 -24 -34q-21 0 -21 31q0 6 3 35.5t3 37.5q0 21 -9 29.5t-32 8.5q-69 0 -142.5 -29.5t-134.5 -81.5q-137 -120 -137 -271q0 -80 46 -140.5t128 -60.5
q103 0 167 110q2 4 8 15.5t9 16t8 11.5t9.5 9.5t9.5 2.5q16 0 16 -13q0 -10 -7 -33q-5 -12 -12 -38t-13 -46.5t-11 -27.5q-17 -19 -81 -30t-117 -11q-115 0 -189 56q-90 70 -90 187z" />
    <glyph glyph-name="D" unicode="D" horiz-adv-x="738" 
d="M91 106l123 406q12 38 12 50q0 11 -4 17t-13.5 8t-13.5 2.5t-16 0.5q-34 0 -34 17q0 16 30 16q27 0 81 -2t81 -2q26 0 78.5 2t78.5 2q97 0 158 -43q47 -32 73 -82.5t26 -107.5q0 -81 -36.5 -158t-99.5 -132q-119 -104 -313 -104q-19 0 -82.5 1.5t-104.5 2.5
q-25 -1 -62 -2.5t-43 -1.5q-36 0 -36 13t9.5 16t38.5 4q22 0 35.5 10.5t19 23.5t14.5 43zM334 536l-120 -397q-18 -63 -18 -76t7.5 -21.5t22.5 -11.5t24 -3.5t26 -0.5q169 0 260 113q44 54 72 132.5t28 147.5q0 85 -50.5 128t-137.5 43q-82 0 -93 -8q-8 -6 -21 -46z" />
    <glyph glyph-name="E" unicode="E" horiz-adv-x="574" 
d="M265 311l-53 -178q-15 -51 -15 -68q0 -24 17.5 -29.5t62.5 -5.5q108 0 153 23q42 22 78 89q10 19 22 19q15 0 15 -16q0 -5 -7 -29q-8 -27 -24 -83q-5 -20 -12.5 -28t-25.5 -8q-11 0 -96.5 1.5t-137.5 1.5q-85 0 -155.5 -1.5t-76.5 -1.5q-34 0 -34 13q0 18 34 18
q39 1 53 17t29 64q99 329 122 406q11 36 11 48q0 18 -11.5 23.5t-33.5 6.5h-5.5t-5.5 0.5t-5 0.5t-5.5 0.5l-5 1t-4 1.5t-3 2.5t-2 3.5t-0.5 5q0 17 28 17q16 0 90.5 -2.5t133.5 -1.5q46 0 117.5 2t96.5 2q20 0 20 -13q0 -16 -30 -103q-10 -37 -22 -37q-16 0 -18 24
q0 59 -24 78q-17 12 -38.5 15t-72.5 3q-59 0 -69 -6q-8 -5 -18 -38l-62 -203h89q47 1 67.5 11.5t42.5 51.5q7 13 9.5 17t7.5 8.5t11 4.5q5 0 9.5 -4t4.5 -10q0 -2 -15 -47q-29 -78 -40 -136q0 -1 -1.5 -8t-3 -10l-4 -8t-6 -7.5t-8.5 -2.5q-16 0 -16 20q0 6 1 20.5t1 22.5
q0 9 -2 15.5t-3.5 11t-7 7.5t-8.5 4.5t-11.5 2.5t-12 1.5t-14 0.5h-14.5h-87z" />
    <glyph glyph-name="F" unicode="F" horiz-adv-x="546" 
d="M265 308l-60 -198q-12 -39 -12 -50q0 -4 1 -8t2 -6.5t3.5 -5l4 -4t6 -2.5t6.5 -1.5t7 -1.5t7 -1t8 -0.5t8 -0.5q30 0 30 -16q0 -17 -27 -17q-12 0 -58.5 1.5t-73.5 2.5q-22 -1 -59 -2.5t-44 -1.5q-37 0 -37 14q0 18 49 20q16 1 26 5t18 16.5t9.5 17.5t8.5 28l3 9
q72 242 124 409q12 45 12 50q0 13 -9.5 20t-17 7.5t-22.5 0.5q-1 0 -7 0.5t-9 1t-7.5 1.5t-6.5 4t-2 8q0 17 32 17q10 0 54 -2t83 -2q56 0 159 2t149 2q15 0 15 -11q0 -7 -5 -27q-3 -11 -27 -86q-8 -33 -23 -33q-14 0 -16 27q-2 31 -10 51q-12 27 -40 36.5t-81 9.5h-44
q-28 0 -36.5 -5t-13.5 -24l-66 -219h98q46 0 66.5 10.5t39.5 48.5l2.5 5t2.5 4.5t2.5 4t2 3.5t2 3t3 2.5t3 1.5t3.5 1.5t4 0.5q15 0 15 -15q0 -7 -6 -23q-33 -82 -47 -160q-7 -33 -23 -33q-15 0 -15 15q0 7 1.5 22t1.5 22q0 33 -18 42t-56 9h-93z" />
    <glyph glyph-name="G" unicode="G" horiz-adv-x="720" 
d="M64 240v1q0 88 54 166t140 131q76 47 170 73.5t186 26.5q70 0 105 -9q1 0 6 -1.5t7 -2.5l6 -3t5.5 -3.5t3 -4.5t1.5 -6t-7 -24q-5 -14 -17.5 -44t-17.5 -44q-14 -36 -30 -36q-18 0 -18 23q0 7 4.5 42t4.5 44q0 17 -13.5 26t-57.5 9q-70 0 -142.5 -27.5t-131.5 -77.5
q-61 -51 -100.5 -123.5t-39.5 -147.5q0 -41 18.5 -83.5t47.5 -70.5q56 -53 142 -53q44 0 66 14q16 9 31 58l30 103q8 24 8 36q0 15 -11.5 21t-38.5 8q-30 3 -30 16q0 17 31 17q16 0 52.5 -2t53.5 -2q23 0 64.5 2t53.5 2q27 0 27 -15q0 -5 -2 -8t-6 -4.5t-7.5 -2.5t-10 -1.5
t-9.5 -1.5q-17 -2 -27 -5.5t-17 -14t-9.5 -17t-8.5 -26.5l-50 -168q-7 -18 -61 -28q-77 -15 -132 -15q-131 0 -215 52q-55 35 -81.5 89t-26.5 112z" />
    <glyph glyph-name="H" unicode="H" horiz-adv-x="759" 
d="M265 307l-62 -204q-11 -36 -11 -47q0 -12 8 -18.5t15 -7.5t20 -2q27 -2 27 -16q0 -16 -26 -16q-17 0 -60 2t-62 2q-18 0 -53 -2t-48 -2q-36 0 -36 13q0 16 24 18q39 3 51 10q20 11 38 65l125 417q12 33 12 44q0 13 -9 19.5t-19.5 7.5t-30.5 1q-26 0 -26 17q0 15 39 15
q13 0 49 -2t56 -2q19 0 61 2t57 2q24 0 24 -16q0 -12 -30 -17q-15 -1 -26 -5.5t-16.5 -7.5t-12 -17.5t-8 -18.5t-8.5 -27l-52 -171h155h155l52 171q11 33 11 47q0 13 -8.5 20t-17.5 8t-27 2q-24 2 -24 17t35 15q12 0 48.5 -2t53.5 -2q19 0 61.5 2t58.5 2q25 0 25 -15
q0 -16 -31 -16q-32 0 -45.5 -16t-25.5 -57l-126 -414q-11 -39 -11 -48q0 -12 8 -19t15 -8t21 -2q33 0 33 -15q0 -17 -30 -17q-12 0 -55.5 2t-63.5 2t-54.5 -2t-47.5 -2q-35 0 -35 12q0 19 25 19q38 2 51 13q5 4 9 9t7.5 13t5.5 12.5t5 15.5t4 13l62 204h-154h-155z" />
    <glyph glyph-name="I" unicode="I" horiz-adv-x="337" 
d="M193 59v-1q0 -13 8.5 -20t16.5 -8t23 -2q31 0 31 -15q0 -17 -29 -17q-6 0 -52 1.5t-77 2.5q-21 -1 -57 -2.5t-48 -1.5q-34 0 -34 13q0 9 6.5 13t15.5 5t29 2q16 1 26.5 6t18.5 20t10.5 22.5t10.5 33.5l123 404q11 33 11 49q0 13 -9 19t-18.5 7t-29.5 1q-28 -3 -28 18
q0 5 2.5 8.5t8 4.5t9 1.5t11.5 0.5l7 -1q10 0 46 -1.5l60 -2.5q27 1 70 2.5t58 1.5q24 0 24 -15q0 -3 -0.5 -5t-1.5 -3.5t-3 -3t-3.5 -2.5t-4 -1.5t-4.5 -1t-5.5 -0.5t-5 -0.5t-5 -0.5h-5.5q-36 -1 -47.5 -16t-25.5 -61l-114 -381q-19 -61 -19 -73z" />
    <glyph glyph-name="J" unicode="J" horiz-adv-x="340" 
d="M234 563v1q0 31 -53 27q-28 -2 -28 19q0 5 2.5 8t8 4t9 1.5t11 0t8.5 -0.5q11 0 46.5 -1.5t57.5 -2.5q26 1 70.5 2.5t55.5 1.5q24 0 24 -15q0 -17 -32 -17q-39 0 -54 -16.5t-28 -63.5q-19 -64 -101 -337q-21 -70 -30 -97.5t-28 -70t-43 -75.5q-41 -57 -95.5 -96
t-113.5 -39q-34 0 -63.5 16t-29.5 50q0 24 14 40t36 16q31 0 46 -30q4 -8 14 -33q8 -23 28 -23q23 0 43.5 22.5t30.5 50.5q10 25 26 84t21 76q77 252 134 445q13 46 13 53z" />
    <glyph glyph-name="K" unicode="K" horiz-adv-x="678" 
d="M234 563v1q0 12 -8.5 18t-18 7.5t-26.5 2.5q-26 0 -26 17q0 14 40 14q12 0 47.5 -2t56.5 -2t63.5 2t55.5 2q25 0 25 -15q0 -10 -8.5 -13t-26.5 -4h-3q-33 -1 -44.5 -16t-25.5 -60q-29 -97 -60 -195q2 -2 2 -4q10 8 16 13q28 22 103 80t115 90q72 57 72 77q0 15 -35 15
q-29 2 -29 18q0 14 34 14q11 0 42 -2t49 -2q17 0 53.5 2t46.5 2q20 0 20 -14q0 -11 -7.5 -14t-22.5 -4q-10 -1 -20 -3.5t-22 -9t-18 -9.5t-21 -13.5t-18 -12.5q-117 -82 -239 -176q20 -10 37 -46l119 -233q17 -34 30 -46t40 -13q30 -2 30 -16q0 -17 -24 -17q-11 0 -36 2
t-36 2t-33.5 -2t-34.5 -2q-10 0 -16 7.5t-15 27.5q-13 26 -54.5 107.5t-64.5 125.5q-18 35 -25 44q-22 -14 -54 -44l-46 -153q-12 -36 -12 -50q0 -30 42 -33q36 -2 36 -16q0 -16 -25 -16q-18 0 -60 2t-66 2q-20 0 -57.5 -2t-53.5 -2q-30 0 -30 14q0 11 9 14.5t30 4.5
q34 0 47 17.5t26 61.5q82 270 122 405q13 39 13 50z" />
    <glyph glyph-name="L" unicode="L" horiz-adv-x="501" 
d="M226 565v1q0 24 -48 24q-28 0 -28 18q0 15 37 15q3 0 40.5 -1.5t66.5 -2.5q26 1 70.5 2.5t56.5 1.5q25 0 25 -16q0 -14 -32 -17q-44 -1 -58 -13.5t-28 -58.5q-14 -45 -59 -194t-70 -231q-10 -30 -10 -41q0 -18 22 -18h29q37 0 53.5 0.5t44 5t42.5 14.5t33 28.5t32 46.5
q15 27 25 27q15 0 15 -14q0 -9 -32 -113q-7 -23 -13.5 -27.5t-32.5 -4.5q-28 0 -96 1.5t-105 1.5q-35 0 -93 -1.5t-85 -1.5q-29 0 -40 2t-11 12q0 18 46 20q22 1 35.5 12t18.5 23.5t14 41.5l123 405q12 36 12 52z" />
    <glyph glyph-name="M" unicode="M" horiz-adv-x="835" 
d="M165 608v1q0 15 31 15q11 0 38.5 -1.5t44.5 -1.5t45 1.5t39 1.5q5 0 9 -1t6 -4t3.5 -5t2 -7t0.5 -8v-10v-10q0 -6 18 -407h2q33 48 130.5 191t150.5 221q2 2 6.5 9.5l6 10t6 7t7.5 6.5t7.5 4t10.5 3q10 0 33 -1.5t39 -1.5q13 0 41 1.5t40 1.5q31 0 31 -13q0 -20 -30 -20
q-40 -1 -52.5 -14.5t-24.5 -62.5q-66 -272 -101 -409q-9 -45 -9 -47q0 -30 48 -30q33 0 33 -16t-26 -16q-8 0 -54 2t-72 2q-22 0 -60 -2t-47 -2q-33 0 -33 12q0 20 28 20q23 -1 37.5 3t23.5 18t12 22.5t9 33.5q18 74 54 220t54 220h-3q-66 -97 -186.5 -276t-160.5 -238
q-20 -29 -36 -29q-20 0 -20 47l-15 375q-1 20 -2 60.5t-2 60.5h-2q-21 -56 -64 -169.5t-64 -170.5q-38 -107 -38 -134q0 -39 37 -43q37 -2 37 -16q0 -16 -23 -16q-9 0 -43.5 2t-51.5 2q-18 0 -48 -2t-38 -2q-27 0 -27 12q0 20 39 20q20 0 33 4.5t23 19.5t14.5 25t14.5 38
q21 55 151 404q13 39 13 49q0 23 -42 23q-34 0 -34 17z" />
    <glyph glyph-name="N" unicode="N" horiz-adv-x="681" 
d="M543 162h2q17 56 50 167.5t50 167.5q14 47 14 68q0 26 -52 26q-25 0 -25 16t33 16q6 0 32.5 -2t43.5 -2q16 0 47 2t40 2q20 0 20 -15q0 -11 -9 -14t-31 -4q-29 -1 -42 -15.5t-30 -71.5q-100 -330 -149 -494q-2 -7 -3.5 -10.5t-6.5 -6.5t-13 -3q-5 0 -9 0.5t-6.5 1.5
t-4.5 3l-3 3t-2.5 5t-2.5 5l-235 536h-2q-18 -63 -52.5 -180t-42.5 -143q-33 -113 -33 -153q0 -35 49 -39q27 -2 27 -16q0 -16 -22 -16q-6 0 -40 2t-52 2q-15 0 -42 -2t-34 -2q-28 0 -28 15q0 14 23 17q37 4 51 22q16 22 40 100q85 276 110 359q14 48 14 60q0 22 -37 22
q-31 0 -31 19q0 13 27 13q6 0 30 -1t39 -1t39.5 1t31.5 1t11.5 -1.5t8 -6t5 -7t5 -11t4.5 -11.5q23 -50 90 -196.5t103 -227.5z" />
    <glyph glyph-name="O" unicode="O" horiz-adv-x="728" 
d="M733 368v-1q0 -151 -113 -265.5t-266 -114.5q-120 0 -197 78q-81 80 -81 199q0 152 115.5 263t267.5 111q119 0 196.5 -78t77.5 -192zM458 605h-1q-119 0 -202 -153q-29 -55 -48 -124.5t-19 -119.5q0 -82 42.5 -134.5t120.5 -52.5q59 0 109.5 34t79.5 87q31 57 56 135
t25 135q0 88 -40 140.5t-123 52.5z" />
    <glyph glyph-name="P" unicode="P" horiz-adv-x="610" 
d="M665 492v-1q0 -61 -44 -114t-113 -78q-50 -21 -102 -27t-130 -6h-24q-8 -28 -47 -154q-12 -41 -12 -51q0 -14 8.5 -21.5t17.5 -9t26 -2.5q30 0 30 -15q0 -17 -28 -17q-7 0 -53.5 1.5t-75.5 2.5q-24 -1 -59.5 -2.5t-44.5 -1.5q-37 0 -37 15q0 12 10.5 15t37.5 4
q16 1 27 6.5t18.5 20t10.5 23t10 30.5q42 136 124 408q10 43 10 45q0 13 -8 20.5t-16.5 8.5t-22.5 1q-3 0 -9.5 0.5t-9.5 1.5t-7.5 2t-6 4t-1.5 8q0 16 27 16q15 0 59.5 -1.5t76.5 -1.5q38 0 107 1.5t90 1.5q71 0 112 -31q49 -37 49 -102zM549 503v1q0 51 -32 69t-87 18
t-69 -6t-21 -27q-50 -164 -75 -247q-3 -7 0 -10t14 -3q63 0 108.5 10t84.5 44q35 30 56 70.5t21 80.5z" />
    <glyph glyph-name="Q" unicode="Q" horiz-adv-x="731" 
d="M29 -145v1q0 19 40.5 39.5t89.5 27.5q8 2 63.5 28t107.5 39q-116 6 -185 84.5t-69 187.5q0 68 29 137.5t78 120.5q114 117 275 117q126 0 201.5 -79t75.5 -192q0 -77 -34.5 -150t-95.5 -125q-47 -45 -98.5 -69.5t-127.5 -45.5q-106 -31 -140 -50v-1q42 3 96 -13
q23 -6 63.5 -19.5t72 -22t56.5 -8.5q69 0 110 45q4 5 9.5 11.5t8.5 10.5t6.5 8t6 5.5t5.5 1.5q5 0 9 -4t4 -9q0 -16 -16 -39.5t-33 -38.5q-34 -32 -81.5 -52t-95.5 -20q-66 0 -160 54l-24 15t-25.5 15.5t-21.5 12.5t-21.5 10t-16.5 3q-17 0 -63 -34q-52 -29 -69 -29
q-13 0 -21.5 7.5t-8.5 19.5zM622 412v1q-1 87 -40 139.5t-122 52.5q-125 0 -206 -152q-28 -54 -46.5 -123t-18.5 -122q0 -81 41.5 -135.5t122.5 -54.5q60 0 110.5 35t79.5 90q32 59 55 135.5t24 133.5z" />
    <glyph glyph-name="R" unicode="R" horiz-adv-x="631" 
d="M647 507v-1q0 -62 -42.5 -109t-107.5 -75q-52 -23 -73 -26v-2q21 -6 35 -49q25 -67 58 -160q7 -18 9 -22.5t8.5 -14.5t16 -13t24.5 -4q28 -3 28 -17q0 -16 -26 -16q-5 0 -27 1t-34 1q-16 0 -39 -1t-29 -1q-4 0 -7 0.5t-5 1.5t-4 3.5t-3 3.5t-3 5t-2.5 5.5t-2 6.5t-2.5 7
l-69 195q-17 47 -22 48q-2 0 -16 -1.5t-33 -3.5t-27 -3q-7 -26 -10 -34l-39 -128q-10 -32 -10 -46q0 -30 47 -30q33 0 33 -15q0 -17 -30 -17q-13 0 -58.5 1.5t-71.5 2.5q-21 -1 -57 -2.5t-46 -1.5h-6q-5 -1 -8.5 -0.5t-8.5 1.5t-7.5 3.5t-2.5 7.5q0 9 5 13t12 5t24 2
q33 1 46.5 17t27.5 65q82 270 122 405q12 33 12 47q0 12 -8 18t-14.5 7.5t-22.5 2.5q-31 0 -35 10q-1 3 -1 7q0 18 31 18q20 0 74 -1.5t83 -1.5q25 0 76 1.5t81 1.5q41 0 74.5 -10t58 -37.5t24.5 -70.5zM528 502v1q0 55 -27 72t-85 17q-48 0 -58 -5t-19 -34l-60 -198
q-10 -30 -16 -56q2 0 32 3q79 5 142 46q41 27 66 67t25 87z" />
    <glyph glyph-name="S" unicode="S" horiz-adv-x="494" 
d="M137 457v1q0 86 74 133t166 47q79 0 135 -25q25 -10 25 -24q0 -11 -7 -30q-2 -9 -6.5 -28t-6.5 -27q0 -1 -1.5 -6.5t-3 -8.5t-3.5 -7.5t-5.5 -6.5t-7.5 -2t-7 1.5t-5 5.5t-2.5 6t-1.5 7.5t-1 6.5q-4 49 -21 72q-26 34 -83 34q-49 0 -90 -27.5t-41 -73.5q0 -36 23 -64.5
t76 -73.5q36 -31 56 -52t38 -55t18 -71q0 -87 -77 -144.5t-178 -57.5q-78 0 -150 32q-1 1 -6 3.5t-6.5 3.5t-5.5 3.5t-5.5 4t-3.5 4.5t-3 6t-1 7q0 12 5.5 45t6.5 43q5 38 19 38q8 0 12.5 -5.5t6 -10.5t3.5 -17q9 -58 23 -77q37 -46 104 -46q58 0 100 34t42 90
q0 39 -22.5 70t-69.5 72q-37 32 -55.5 50t-37.5 51.5t-19 68.5z" />
    <glyph glyph-name="T" unicode="T" horiz-adv-x="572" 
d="M215 112l143 473h-47q-29 0 -45.5 -1.5t-39 -8.5t-40.5 -21q-31 -22 -52 -59q-1 -1 -2.5 -4t-2 -4.5t-2 -4t-2.5 -4t-3 -3.5l-3 -3t-3 -2t-4 -1.5t-4 -0.5q-15 0 -15 15q0 5 9 33.5t21 66t15 48.5q9 30 24 30q7 0 10 -4.5t5 -13t5 -13.5q4 -8 14.5 -9.5t44.5 -1.5h345
q50 0 67 8q14 6 25 20t19 14q13 0 13 -13q0 -7 -8 -33t-19 -62t-15 -49l-4 -12t-4 -9.5t-7.5 -8.5t-10.5 -2q-15 0 -15 23v35q0 38 -15 46.5t-64 8.5h-77l-144 -475q-11 -44 -11 -50q0 -13 9 -20t16.5 -8.5t25.5 -2.5q31 0 31 -16q0 -17 -30 -17q-20 0 -61 1.5t-61 2.5
q-23 -1 -63.5 -2.5t-47.5 -1.5q-36 0 -36 13q0 9 7 14t14 5.5t25 1.5q22 0 36 12t19.5 25.5t14.5 44.5z" />
    <glyph glyph-name="U" unicode="U" horiz-adv-x="653" 
d="M100 129v1q0 38 27 132q26 86 78 256q1 4 4 14t5 18.5t2 13.5q0 27 -46 27q-30 0 -30 17q0 15 35 15q15 0 54.5 -2t63.5 -2q22 0 59.5 2t52.5 2q25 0 25 -15q0 -4 -1.5 -7t-3.5 -4.5t-6.5 -3t-6.5 -1.5t-7.5 -1t-6.5 -1q-41 -1 -55 -16.5t-26 -58.5q-58 -196 -88 -295
q-23 -78 -23 -105q0 -48 38 -71t92 -23q51 0 87.5 14t60 45t36.5 61t28 79q16 51 43 143.5t35 119.5q17 57 17 78q0 14 -7.5 21t-17.5 8t-31 2q-24 0 -24 16q0 15 29 15q10 0 36.5 -2t41.5 -2q16 0 44 2t38 2q21 0 21 -15q0 -10 -7.5 -13t-28.5 -4q-28 -2 -37.5 -12.5
t-24.5 -60.5q-37 -118 -88 -289q-31 -103 -56 -142q-11 -18 -24 -31q-71 -69 -192 -69q-35 0 -70 7t-69 22.5t-55 44.5t-21 68z" />
    <glyph glyph-name="V" unicode="V" horiz-adv-x="637" 
d="M334 127h2q17 25 109 158t140 206q31 47 31 76q0 5 -1.5 9t-5 6.5t-6.5 4.5t-8.5 3t-8.5 1t-8 0.5t-6 0.5q-24 0 -24 16q0 15 30 15q10 0 37 -2t44 -2t52 2t44 2q24 0 24 -14t-34 -17q-23 -2 -42.5 -14.5t-30.5 -26t-31 -42.5q-228 -330 -342 -496q-6 -9 -9 -12.5
t-10.5 -7.5t-17.5 -4q-25 0 -28 37q-7 90 -21.5 263t-21.5 256q-2 30 -10 37t-41 9q-24 1 -24 16q0 16 35 16q8 0 42 -2t54 -2q23 0 62.5 2t48.5 2q24 0 24 -15q0 -16 -29 -16q-37 -1 -46 -9.5t-6 -42.5q1 -5 1.5 -13.5t0.5 -13.5q10 -118 31 -386z" />
    <glyph glyph-name="W" unicode="W" horiz-adv-x="898" 
d="M497 267l-173 -244q-1 -1 -6 -8t-7.5 -10t-7 -8t-9 -7t-8.5 -2q-13 0 -17 10.5t-6 30.5l-66 486q-5 34 -8 47t-12 21t-27 9q-32 0 -32 16q0 15 28 15q14 0 46 -2t49 -2t51 2t47 2q20 0 20 -15q0 -16 -25 -16q-19 -1 -28 -6t-9 -21q0 -8 2 -22.5t2 -19.5l55 -400h2
l134 190l-29 218q0 3 -1 9l-1.5 9t-2 8.5t-2 8t-2.5 7t-4 6.5t-4.5 5t-5.5 4.5t-7.5 2.5t-9.5 1q-24 2 -24 15q0 16 26 16q13 0 39 -2t40 -2q15 0 44.5 2t42.5 2q18 0 18 -14q0 -11 -20 -16q-10 -1 -15.5 -2t-9.5 -6.5t-4 -15.5q0 -22 18 -145h2l79 113q21 30 21 41
q0 13 -23 16q-20 2 -20 15q0 14 24 14q11 0 33 -2t34 -2t35 2t33 2q19 0 19 -14q0 -16 -33 -18q-44 -1 -78 -46l-117 -162l33 -249h2l258 371q36 52 36 69t-36 17q-25 2 -25 16q0 16 26 16q11 0 37 -2t40 -2q16 0 42.5 2t35.5 2q17 0 17 -16t-37 -18q-19 -1 -32.5 -9
t-20.5 -16.5t-22 -30.5l-366 -524q-1 -1 -5 -6.5t-6.5 -7.5t-6.5 -4.5t-9 -2.5q-3 0 -5.5 1t-4.5 4t-3 5t-2 6.5t-1.5 7t-1 8t-0.5 7.5l-31 240h-2z" />
    <glyph glyph-name="X" unicode="X" horiz-adv-x="673" 
d="M118 610v1q0 12 35 12q13 0 47 -2t53 -2q23 0 63.5 2t54.5 2q22 0 22 -15q0 -12 -29 -17q-38 -4 -38 -28q0 -13 17 -50q27 -58 64 -144q1 1 140 143q35 32 35 57q0 20 -49 23q-22 4 -22 19q0 12 30 12q13 0 41.5 -2t46.5 -2q19 0 51.5 2t47.5 2q21 0 21 -15
q0 -10 -7.5 -13t-27.5 -5q-24 -1 -47.5 -19t-74.5 -67q-57 -55 -171 -167l101 -228q3 -6 8.5 -19.5t8 -18t7.5 -14t9.5 -13t11.5 -8.5t15 -6.5t19 -1.5q33 -2 33 -16q0 -16 -26 -16q-16 0 -60 2t-70 2q-20 0 -56.5 -2t-49.5 -2q-35 0 -35 13q0 19 27 19q58 -3 58 26
q0 7 -14 43q-13 32 -74 170q-88 -90 -133 -135q-63 -63 -63 -84q0 -17 35 -21q28 -2 28 -15q0 -16 -21 -16q-13 0 -49 2t-52 2q-17 0 -47 -2t-41 -2q-31 0 -31 14q1 17 39 18q10 0 20 3t21 9.5t19 11.5t20.5 16.5t19 17.5t21.5 20.5t21 20.5q59 58 175 174q-62 142 -94 214
q-12 29 -18 40t-21 23.5t-37 12.5q-28 2 -28 19z" />
    <glyph glyph-name="Y" unicode="Y" horiz-adv-x="612" 
d="M311 566v-1q0 -1 11 -41l69 -216q60 69 180 205q38 44 38 61q0 14 -43 17q-9 1 -13 2.5t-8 5t-4 10.5q0 14 27 14q9 0 33 -2t40 -2q14 0 42 2t41 2q20 0 20 -15q0 -14 -27 -17q-24 -2 -38 -12.5t-38 -37.5q-160 -182 -240 -272q-9 -32 -27.5 -92t-21.5 -70
q-12 -36 -12 -50q0 -25 32 -29q2 0 16 -1q31 0 31 -15q0 -16 -31 -16q-17 0 -62 2t-66 2q-18 0 -53.5 -2t-45.5 -2q-37 0 -37 12q0 7 3 10.5t11.5 6t15.5 3t24 1.5q19 1 32 14.5t17.5 25.5t11.5 36q34 112 50 167q-72 213 -87 256q-11 33 -22 47.5t-32 15.5q-33 3 -33 16
q0 16 36 16q17 0 51 -2t50 -2q22 0 59 2t52 2q26 0 26 -14q0 -15 -40 -18q-38 -3 -38 -25z" />
    <glyph glyph-name="Z" unicode="Z" horiz-adv-x="609" 
d="M-9 11v1q0 8 41 53q288 316 432 473q41 42 41 47q0 4 -117 4q-82 0 -131 -17t-75 -74q-7 -13 -9.5 -17.5t-8.5 -9.5t-13 -5q-14 0 -14 14q0 6 32 112q8 23 16 28t39 5q30 0 94 -2t101 -2q36 0 108 2t100 2q20 0 27 -2.5t7 -11.5q0 -8 -21 -34q-71 -77 -220.5 -241.5
t-227.5 -249.5q-42 -46 -42 -49q0 -4 127 -4h47t39 1.5t36 4.5t29.5 8t28 13t22.5 20t22.5 28.5t19.5 37.5q12 26 25 26q17 0 17 -17q0 -9 -5.5 -28t-14.5 -47t-13 -44q-7 -28 -15 -33.5t-34 -5.5q-25 0 -99 1.5t-129 1.5q-26 0 -215 -3q-47 0 -47 14z" />
    <glyph glyph-name="bracketleft" unicode="[" horiz-adv-x="263" 
d="M248 691h148q16 0 16 -12q0 -18 -23 -18h-45q-31 0 -40.5 -8.5t-20.5 -43.5l-215 -710q-8 -29 -8 -34q0 -11 7.5 -15t32.5 -4h55q18 0 18 -16q0 -15 -23 -15h-158q-27 0 -27 16q0 13 17 68l235 777q3 10 8.5 12.5t22.5 2.5z" />
    <glyph glyph-name="backslash" unicode="\" horiz-adv-x="493" 
d="M80 684v1q0 6 12 6h25q12 0 24 -24l390 -835q8 -19 8 -23q0 -6 -11 -6h-27q-11 0 -21 20l-392 839q-8 16 -8 22z" />
    <glyph glyph-name="bracketright" unicode="]" horiz-adv-x="263" 
d="M60 -187h-147q-17 0 -17 12q0 18 23 18h45q31 0 40.5 8.5t20.5 43.5l215 709q1 4 3.5 12.5t4 14t1.5 8.5q0 10 -8.5 14.5t-32.5 4.5h-55q-10 0 -13.5 4t-3.5 12q0 15 22 15h158q16 0 22 -3.5t6 -12.5t-17 -68l-236 -777q-3 -10 -8.5 -12.5t-22.5 -2.5z" />
    <glyph glyph-name="asciicircum" unicode="^" horiz-adv-x="574" 
d="M283 618h67l222 -400h-74l-182 322l-181 -322h-75z" />
    <glyph glyph-name="underscore" unicode="_" horiz-adv-x="500" 
d="M0 -75h500v-50h-500v50z" />
    <glyph glyph-name="grave" unicode="`" horiz-adv-x="406" 
d="M148 637v1q0 26 33 26q21 0 54 -27l103 -85q25 -21 25 -27q0 -8 -9 -8q-6 0 -30 11l-140 69q-36 17 -36 40z" />
    <glyph glyph-name="a" unicode="a" horiz-adv-x="588" 
d="M25 93v1q0 58 33.5 125.5t81.5 116.5q50 53 113.5 86.5t125.5 33.5q26 0 43.5 -8t25.5 -16t9 -8t14 29q5 11 19 12q30 2 51 2q20 0 20 -13q0 -3 -6 -24q-16 -55 -49 -160.5t-46 -148.5q-9 -25 -9 -37q0 -14 9 -14q14 0 37.5 25.5t38.5 47.5q15 21 22 21q10 0 10 -11
q0 -13 -21 -43.5t-38 -46.5q-75 -75 -132 -75q-33 0 -33 37q0 23 11 56q10 31 28.5 91.5t27.5 87.5h-2q-25 -42 -56.5 -84.5t-72.5 -87.5t-86.5 -73t-85.5 -28q-38 0 -60.5 31t-22.5 75zM444 381v1q0 22 -16 33.5t-40 11.5q-79 0 -170 -115q-31 -39 -58 -96.5t-27 -97.5
q0 -21 10.5 -37t29.5 -16q59 0 169 138q31 38 66.5 94.5t35.5 83.5z" />
    <glyph glyph-name="b" unicode="b" horiz-adv-x="548" 
d="M549 325v-1q0 -129 -106.5 -233t-239.5 -104q-59 0 -100.5 30t-41.5 92q0 39 28 128q32 104 96 310q14 40 14 55q0 23 -26 23q-2 0 -6.5 0.5t-7 0.5t-7 0.5t-7.5 1.5t-5.5 2.5t-4 3.5t-1.5 5q0 18 43 20q69 3 121 29q8 5 15 5q12 0 12 -12q-1 -2 -5.5 -18.5t-7.5 -24.5
l-123 -388l2 -1q46 75 117.5 142t135.5 67q51 0 78 -40t27 -93zM448 320v1q0 29 -12.5 51.5t-37.5 22.5q-44 0 -106.5 -62.5t-107 -140t-44.5 -121.5q0 -28 18 -42t46 -14q56 0 114 53t94 124t36 128z" />
    <glyph glyph-name="c" unicode="c" horiz-adv-x="465" 
d="M470 401v-1q0 -16 -13.5 -27t-30.5 -11q-25 0 -45 16q-16 16 -24 31q-15 20 -31 20q-46 0 -104 -73q-33 -40 -55 -96t-22 -104q0 -47 23 -76.5t66 -29.5q67 0 127 58q11 10 24.5 24t21 20.5t11.5 6.5q9 0 9 -10q0 -15 -40 -62q-92 -100 -190 -100q-69 0 -113 49t-44 118
q0 53 25.5 107t68.5 97t102 71.5t119 28.5q42 0 78.5 -15.5t36.5 -41.5z" />
    <glyph glyph-name="d" unicode="d" horiz-adv-x="588" 
d="M32 105v1q0 63 34 129.5t85 115.5q48 47 111 77t124 30q48 0 71 -33q26 86 39 128q1 3 3.5 12t4 16t1.5 11q0 27 -40 27q-30 0 -30 13q0 3 0.5 5t2 3.5l2.5 2.5t4 2t4 1.5t4.5 1t4.5 0.5t4.5 0.5t4.5 0.5q69 2 116 28q32 15 34 15q10 0 10 -12q0 -4 -6 -28
q-53 -172 -157 -516q-13 -42 -13 -54q0 -15 13 -15t35 24.5t37 48.5q17 25 25 25t8 -10q0 -27 -44 -77q-78 -91 -140 -91q-36 0 -36 42q0 30 17 87q12 37 37 116l-2 2q-78 -112 -118 -154q-87 -93 -159 -93q-46 0 -68.5 36t-22.5 82zM443 384v1q0 20 -15.5 31.5t-36.5 11.5
q-44 0 -92 -33t-82 -77q-34 -43 -57.5 -98t-23.5 -101q0 -57 41 -57q60 0 173 143q31 42 62 96.5t31 82.5z" />
    <glyph glyph-name="e" unicode="e" horiz-adv-x="452" 
d="M467 362v-1q0 -27 -12 -50t-27.5 -38.5t-45.5 -29t-50 -20.5t-58.5 -14.5t-53 -10t-50.5 -6.5q-10 -1 -15 -2q-3 -1 -9 -2t-9 -2q-2 -12 -2 -36q0 -48 25 -76.5t70 -28.5q40 0 81.5 25.5t66.5 59.5q11 13 18 13q10 0 10 -10q0 -5 -26 -42q-91 -104 -200 -104
q-69 0 -109 46t-40 112q0 75 43.5 147.5t116 119t151.5 46.5q45 0 85 -24.5t40 -71.5zM331 432h-1q-64 0 -115.5 -66.5t-72.5 -151.5q164 20 211 83q30 42 30 84q0 24 -14 37.5t-38 13.5z" />
    <glyph glyph-name="f" unicode="f" horiz-adv-x="338" 
d="M523 629v-1q0 -21 -13.5 -34.5t-35.5 -13.5q-30 0 -43 25q0 1 -10 36q-4 17 -20 17q-25 0 -47 -30q-25 -28 -56 -127q-12 -38 -18 -58h80q23 0 23 -8q0 -7 -6 -20q-2 -8 -23 -8h-85q-90 -303 -116 -387q-32 -108 -77 -164q-33 -39 -78.5 -62t-87.5 -23q-40 0 -65.5 17.5
t-25.5 48.5q0 23 13 38t36 15q40 0 51 -39q2 -14 2 -23q1 -10 1.5 -14t4.5 -8.5t12 -4.5q12 0 27 12.5t25 30.5q25 42 63 166q80 266 120 397h-63q-20 0 -20 8q0 12 6 20q4 8 25 8h63q39 124 95 178q32 28 77 49.5t82 21.5q36 0 60 -16t24 -47z" />
    <glyph glyph-name="g" unicode="g" horiz-adv-x="506" 
d="M73 291v1q0 69 61 117.5t144 48.5q44 0 75 -11q19 -8 30 -9h111q26 0 26 -6q0 -12 -7 -24q-5 -9 -25 -9h-69q43 -45 43 -100q0 -70 -61.5 -119.5t-142.5 -49.5q-67 0 -108 33q-27 -15 -27 -38q0 -37 116 -63q5 -1 8 -2q185 -47 185 -136q0 -61 -68 -107t-177 -46
q-88 0 -164 38t-76 94q0 17 6 31t19 25.5t24 19t32.5 15t31.5 10.5t34 9l28 7q-66 29 -66 76q0 14 6 26.5t20.5 24.5t21 17t24.5 16q-55 49 -55 111zM371 346v1q0 36 -19 60.5t-57 24.5q-54 0 -91.5 -63.5t-37.5 -121.5q0 -37 20 -63.5t55 -26.5q54 0 92 64t38 125z
M206 -202h1q51 0 95 23.5t44 67.5q0 31 -23 48t-63 31q-16 6 -53 17.5t-54 17.5q-21 -6 -32 -9.5t-31 -12t-30.5 -17.5t-19 -24t-8.5 -32q0 -53 55.5 -81.5t118.5 -28.5z" />
    <glyph glyph-name="h" unicode="h" horiz-adv-x="581" 
d="M547 317v-1q0 -56 -35.5 -132.5t-98 -136.5t-126.5 -60q-28 0 -49.5 12.5t-21.5 37.5q0 13 9 21.5t23 8.5q4 0 8 -1.5t6 -3t5.5 -6t4.5 -6t4 -7.5t4 -7q11 -18 27 -18q29 0 60.5 54.5t52.5 122.5t26 121q4 37 -9 58.5t-39 21.5q-30 0 -76.5 -43.5t-74.5 -84.5
q-70 -95 -113 -225q-5 -15 -6.5 -18t-6 -11.5t-9 -9.5l-13.5 -3t-22 -2q-44 0 -44 13q0 8 8 32q28 90 79.5 255.5t71.5 231.5q14 49 14 59q0 32 -37 32h-11t-10 1q-11 0 -11 11q0 17 31 17q66 2 125 27q28 13 31 13q10 0 10 -10q0 -3 -4 -14.5t-4 -13.5q-29 -91 -127 -400
l2 -2q18 29 41.5 59.5t57 66.5t72 58.5t72.5 22.5q103 0 103 -141z" />
    <glyph glyph-name="i" unicode="i" horiz-adv-x="324" 
d="M333 589v-1q0 -26 -19.5 -48.5t-46.5 -22.5q-20 0 -31 12.5t-11 30.5q0 26 19 49t45 23q19 0 31.5 -12.5t12.5 -30.5zM281 419v-1q0 -17 -16 -70q-13 -41 -37.5 -117t-33.5 -106q-10 -32 -10 -42q0 -18 12 -18t33 22t38 47q20 32 28 32q9 0 9 -10q0 -15 -41 -73
q-28 -35 -68 -65.5t-74 -30.5q-41 0 -41 48q0 27 18 85q9 31 33 106t36 113q9 27 9 32q0 17 -12 17q-18 0 -56 -42q-5 -5 -11.5 -12.5t-11 -12t-8.5 -9t-7.5 -6.5t-5.5 -2q-8 0 -8 10q0 19 50 69q78 75 135 75q40 0 40 -39z" />
    <glyph glyph-name="j" unicode="j" horiz-adv-x="293" 
d="M337 589v-1q0 -26 -19.5 -48.5t-44.5 -22.5q-23 0 -33 13.5t-10 31.5q0 25 19 47.5t44 22.5q20 0 32 -12t12 -31zM287 419v-1q0 -20 -16 -68q-74 -244 -112 -367q-36 -115 -85 -162q-61 -56 -139 -56q-31 0 -57.5 13t-26.5 44q0 17 11.5 29.5t29.5 12.5q11 0 20.5 -6
t14 -12t12.5 -19q7 -12 10.5 -16.5t11 -10t16.5 -5.5q25 0 38 30q3 10 9 33t12 39q23 73 67 218t67 217q1 4 4 13t5 16t2 10q0 16 -12 16q-18 0 -57 -41q-8 -8 -18.5 -20.5t-15.5 -17.5t-9 -5q-10 0 -10 11q0 17 50 67q83 77 140 77q38 0 38 -39z" />
    <glyph glyph-name="k" unicode="k" horiz-adv-x="527" 
d="M531 368v-1q0 -76 -71 -121t-173 -55l-3 -2q22 -7 34 -24t27 -51q8 -19 13 -28.5t15.5 -26.5t22.5 -25t26 -8q15 0 26.5 9.5t11.5 25.5q0 15 -19 26t-19 28q0 10 7.5 18.5t18.5 8.5q21 0 33.5 -17t12.5 -40q0 -43 -34 -70.5t-79 -27.5q-32 0 -56.5 11t-41 33t-26 39.5
t-21.5 46.5q-3 8 -5 12q-19 47 -42 47q-7 0 -10.5 -4.5t-8.5 -17.5q-24 -70 -37 -105q-9 -32 -17 -41t-29 -9h-31q-27 1 -27 13q0 3 2 10.5t4.5 17t3.5 15.5q146 478 152 498q12 42 12 52q0 27 -44 27q-22 2 -22 14t33 14q6 1 9 1q70 2 110 22q18 8 26 8q10 0 10 -9
q0 -3 -16 -54l-113 -371l1 -2q39 69 108.5 136t135.5 67q39 0 64.5 -26.5t25.5 -63.5zM436 362v1q0 17 -10.5 28t-28.5 11q-48 0 -112.5 -68t-96.5 -133h26q75 2 148.5 49.5t73.5 111.5z" />
    <glyph glyph-name="l" unicode="l" horiz-adv-x="287" 
d="M43 32v1q0 35 22 103q52 172 128 416q10 40 10 42q0 24 -41 24q-28 0 -28 13q0 15 36 17q67 2 122 32q17 11 24 11q11 0 11 -11q0 -6 -7 -27q-54 -175 -162 -527q-12 -34 -12 -48q0 -15 13 -15q15 0 41.5 30.5t40.5 54.5q11 16 18 16q8 0 8 -10q0 -25 -45 -76
q-27 -33 -66 -62t-74 -29q-39 0 -39 45z" />
    <glyph glyph-name="m" unicode="m" horiz-adv-x="860" 
d="M269 407v-1q0 -21 -8.5 -54t-22 -75t-18.5 -60l2 -1q137 242 240 242q32 0 47 -23t15 -56q0 -41 -39 -161h3q61 109 106 159q28 31 67 56t74 25q30 0 50 -16t20 -49q0 -30 -20 -92l-68 -187q-9 -27 -9 -42q0 -14 15 -14q25 0 74 67q2 3 10 14.5t13.5 17.5t8.5 6
q10 0 10 -10q0 -13 -18 -40.5t-35 -44.5q-73 -81 -134 -81q-20 0 -32.5 12t-12.5 36q0 28 27 104q28 76 50 139q26 75 26 91q0 28 -29 28q-28 0 -66 -39.5t-65 -83.5q-81 -124 -114 -234q-9 -27 -15.5 -34t-28.5 -7h-22q-33 0 -33 12q0 6 8 30q15 49 44.5 145.5t35.5 115.5
q14 47 14 61q0 32 -26 32q-23 0 -57 -34.5t-56 -69.5q-37 -51 -75 -124t-55 -127q-9 -28 -16.5 -34.5t-28.5 -6.5h-23q-30 0 -30 15q0 6 9 35q12 41 26 86.5t31.5 101t26.5 85.5q11 40 11 52q0 16 -11 16q-22 0 -66 -53q-3 -3 -8 -10t-8 -11t-7 -9t-7 -7t-6 -2q-10 0 -10 11
q0 7 19.5 33.5t32.5 39.5q76 76 128 76q36 0 36 -51z" />
    <glyph glyph-name="n" unicode="n" horiz-adv-x="638" 
d="M584 394v-1q0 -18 -17 -67q-10 -28 -34 -91.5t-37 -98.5q-18 -42 -18 -57q0 -19 18 -19q26 0 74 60q3 4 12.5 17t15 19t10.5 6q10 0 10 -10q0 -23 -49 -75q-30 -33 -71 -61.5t-74 -28.5q-50 0 -50 48q0 38 26 102q3 8 27.5 72.5t37.5 100.5q16 45 16 59q0 31 -30 31
q-52 0 -138 -111q-37 -46 -79.5 -121t-59.5 -130q-8 -26 -15.5 -32.5t-33.5 -6.5h-20q-31 0 -31 14q0 11 7 28q40 124 87 277q12 34 12 52q0 21 -18 21q-12 0 -35 -21t-41 -45q-19 -27 -23 -27q-11 0 -11 10q0 9 17 33.5t29 36.5q73 80 130 80q47 0 47 -52q0 -32 -15 -79
q-7 -23 -20.5 -66.5t-17.5 -55.5l2 -2q24 43 52 82.5t66 81t82.5 66.5t88.5 25q32 0 51.5 -18t19.5 -46z" />
    <glyph glyph-name="o" unicode="o" horiz-adv-x="521" 
d="M505 262v-1q0 -49 -22.5 -98.5t-59.5 -86.5q-39 -39 -93 -64t-105 -25q-81 0 -131.5 58t-50.5 138q0 106 84 190.5t190 84.5q81 0 134.5 -58t53.5 -138zM413 316v1q0 48 -20.5 80t-66.5 32q-71 0 -124 -81q-30 -45 -47 -103t-17 -106q0 -52 20.5 -86.5t67.5 -34.5
q68 0 124 87q29 46 46 105t17 106z" />
    <glyph glyph-name="p" unicode="p" horiz-adv-x="535" 
d="M534 315v-1q0 -58 -27 -119.5t-71 -106.5q-41 -45 -97.5 -71.5t-116.5 -26.5q-50 -1 -93 35q-7 -21 -19 -61t-16 -54q-13 -49 -13 -57q0 -41 55 -43q35 -2 39 -9q2 -2 2 -6q0 -16 -26 -16q-25 0 -58 3q-42 2 -62 2q-30 0 -78 -5q-12 -1 -26.5 -2t-23 -2t-11.5 -1
q-17 0 -17 14q0 17 45 21q35 3 48 21t29 74q1 2 1 3t1 3t1.5 3.5t0.5 3.5l141 467q3 5 -2 5h-2q-6 -2 -24.5 -8.5t-34 -12t-20.5 -5.5q-12 0 -12 11q0 4 1.5 7t5.5 6t6.5 4.5l7.5 4.5t6 3q14 6 72 27q10 4 12 13l24 78q4 13 6 17.5t6 9t10 5.5q8 2 36 2h28q14 -2 14 -13
q0 -4 -5 -19q-20 -66 -22 -72q17 4 53 8q36 2 51 2q75 0 125 -33.5t50 -108.5zM327 423h-1q-33 0 -81 -13l-18 -60q-49 -160 -64 -208q-14 -56 -14 -68q0 -27 22 -40t52 -13q83 0 150 113q61 102 61 190q0 50 -28.5 74.5t-78.5 24.5z" />
    <glyph glyph-name="q" unicode="q" horiz-adv-x="545" 
d="M27 95v1q0 60 31.5 125t77.5 114q50 52 116.5 87.5t127.5 35.5q23 0 67 -13q22 -6 36 -6q21 0 43 19q16 14 23 14q11 0 11 -12q0 -10 -7 -29l-162 -534q-14 -45 -14 -54q0 -29 39 -34q34 -3 37 -12q1 -2 1 -4q0 -14 -23 -14q-11 0 -41 3q-40 2 -57 2q-22 0 -69 -5
q-11 -1 -27 -2t-26 -2t-14 -1h-11.5t-8 1.5t-6 4t-1.5 7.5q0 15 44 18q38 4 51 21.5t29 68.5l95 315l-1 2q-20 -33 -46 -67t-61.5 -72t-77 -62t-79.5 -24q-46 0 -71.5 31t-25.5 77zM439 380v1q0 23 -15 34.5t-38 11.5q-46 0 -92 -34t-80 -82q-33 -46 -58.5 -102.5
t-25.5 -97.5q0 -26 12.5 -43t35.5 -17q43 0 106.5 64.5t109 143.5t45.5 121z" />
    <glyph glyph-name="r" unicode="r" horiz-adv-x="422" 
d="M484 401v-1q0 -27 -16 -48.5t-41 -21.5q-15 0 -23 6q-10 9 -19 36q-3 8 -11 8q-16 0 -45.5 -37.5t-47.5 -68.5q-80 -130 -111 -230q-11 -33 -18 -38q-11 -7 -40 -7h-16.5t-13 1.5t-11.5 5.5t-3 10q0 5 8 33q56 180 83 270q12 38 12 54q0 20 -13 20q-19 0 -55 -45
q-5 -7 -12 -16.5t-12 -15.5q-11 -14 -15 -14q-10 0 -10 10q0 12 19 38.5t35 42.5q22 24 53 44.5t56 20.5q21 0 33.5 -18.5t12.5 -43.5q0 -14 -5.5 -39.5t-12 -45t-18 -55.5t-15.5 -50h2q2 4 16.5 30t21.5 39t23.5 40.5t28 43t29 37t31.5 33.5t31 20.5t33 8.5q26 0 41 -15.5
t15 -41.5z" />
    <glyph glyph-name="s" unicode="s" horiz-adv-x="387" 
d="M342 131v-1q0 -28 -19 -57t-46 -48q-57 -38 -131 -38q-70 0 -126 35q-23 15 -23 31q0 10 9 37q0 1 2 7t3 8.5t3.5 8t5 8t6 5t7.5 2.5q14 0 31 -29q15 -25 25 -39t32.5 -29t48.5 -15q30 0 54 20t24 48q0 20 -14 41.5t-25 31.5t-41 36q-25 23 -39.5 38t-27.5 38.5t-13 46.5
q0 63 52.5 102t127.5 39q20 0 46 -2.5t55 -13.5t29 -29q0 -9 -9 -34q0 -1 -3.5 -9t-5.5 -11.5t-6.5 -7.5t-9.5 -4q-4 0 -8.5 2t-10 7t-9 8.5t-11 12t-10.5 12.5q-39 41 -76 41q-27 0 -46 -17t-19 -44q0 -17 12.5 -36.5t25.5 -32t44 -39.5q26 -23 42 -39t30 -41t14 -50z" />
    <glyph glyph-name="t" unicode="t" horiz-adv-x="307" 
d="M47 42v1q0 25 21 92q56 182 82 272h-55q-21 0 -21 8q0 13 6 21q5 7 23 7h57l33 105q4 14 18 14q16 2 36 2q19 0 29 -1q12 0 12 -9q0 -4 -5 -24l-27 -87h76q21 0 21 -7q0 -6 -6 -19q-3 -10 -24 -10h-77q-27 -90 -83 -274q-12 -36 -12 -52q0 -20 14 -20q22 0 71 64
q3 4 7 10.5t7 11t6 8.5t5.5 6t4.5 2q11 0 11 -11q0 -14 -31 -55q-29 -39 -73 -74.5t-82 -35.5q-19 0 -31.5 16t-12.5 39z" />
    <glyph glyph-name="u" unicode="u" horiz-adv-x="630" 
d="M74 44v1q0 32 20 87q11 32 70 203q12 27 12 40q0 16 -13 16q-27 0 -75 -68q-2 -3 -5.5 -7.5t-6 -7t-5 -5.5t-5 -4.5t-5.5 -1.5q-8 0 -8 12q0 13 26.5 48t71.5 68t85 33q18 0 29.5 -12.5t11.5 -32.5q0 -23 -15 -66q-61 -181 -73 -218q-12 -36 -12 -50q0 -26 24 -26
q27 0 72.5 37.5t71.5 73.5q93 114 132 244q8 25 12 31.5t13 7.5q9 2 63 2q15 0 15 -11q0 -7 -6 -25q-16 -52 -86 -280q-11 -44 -11 -51q0 -19 15 -19q19 0 47.5 30.5t45.5 57.5q10 15 17 15q10 0 10 -9q0 -12 -19 -39.5t-47 -56.5t-66.5 -51.5t-72.5 -22.5q-33 0 -33 40
q0 44 53 200l-4 1q-60 -93 -146 -167t-154 -74q-49 0 -49 57z" />
    <glyph glyph-name="v" unicode="v" horiz-adv-x="482" 
d="M61 76v1q0 27 26 95q11 27 33 83t33 83q14 39 14 42q0 14 -13 14q-15 0 -41.5 -26.5t-38.5 -44.5q-12 -16 -20 -16q-9 0 -9 10q0 7 13 27q31 43 81 78q54 35 87 35q43 0 43 -42q0 -28 -18 -75q-35 -86 -73 -185q-19 -52 -19 -72t13 -33t32 -13q48 0 104.5 50.5t93.5 118
t37 116.5q0 20 -11 39q-20 32 -20 50q0 19 12 33t32 14q24 0 36.5 -22t12.5 -46q0 -71 -51.5 -166t-134.5 -166t-160 -71q-94 0 -94 89z" />
    <glyph glyph-name="w" unicode="w" horiz-adv-x="748" 
d="M479 449h56q20 0 20 -9q0 -6 -9 -37q-7 -21 -21 -64.5t-25 -77.5t-22 -71.5t-17.5 -64t-6.5 -37.5q0 -49 36 -49q37 0 89 48t90 114.5t38 114.5q0 24 -17 49.5t-17 42.5q0 21 10 35.5t29 14.5q25 0 38.5 -22t13.5 -48q0 -78 -52 -173t-131 -161.5t-148 -66.5
q-74 0 -74 78q0 32 26 108l-2 1q-43 -77 -103 -132t-127 -55q-37 0 -58 23t-21 58q0 46 51 168t51 143q0 17 -12 17q-19 0 -62 -47q-5 -6 -13.5 -16t-12.5 -15t-9.5 -10.5t-8.5 -7.5t-6 -2q-9 0 -9 10q0 15 30.5 51t77.5 67.5t82 31.5q48 0 48 -47q0 -35 -54.5 -162.5
t-54.5 -156.5q0 -19 10 -32t28 -13q45 0 93.5 57.5t87.5 142.5q30 66 61 161l3 9l3 9t3 7.5t3.5 6.5t3.5 4.5t5 3.5t6 1z" />
    <glyph glyph-name="x" unicode="x" horiz-adv-x="539" 
d="M573 406v-1q0 -24 -16.5 -45t-41.5 -21q-23 0 -29 19q-2 5 -2.5 14.5t-1.5 11.5q-2 11 -12 11q-15 0 -45 -32q-32 -33 -86 -110q25 -76 42 -133q20 -64 45 -64q21 0 34.5 26t16.5 51q4 22 14 22q11 0 11 -20q0 -44 -37 -96t-85 -52q-17 0 -29.5 5.5t-21.5 20t-12.5 22.5
t-11.5 29q-9 24 -39 113q-68 -94 -111 -134q-63 -56 -115 -56q-29 0 -44.5 14.5t-15.5 40.5q0 24 16.5 45.5t39.5 21.5q33 0 36 -30q0 -6 -1.5 -15t-0.5 -13q2 -12 14 -12q30 0 87.5 65t82.5 108q-12 43 -35 109q0 1 -2.5 8.5t-3 9.5t-3 9t-4 10t-4 9t-5.5 8.5t-6.5 6.5
t-7.5 6t-9 3.5t-10 1.5q-36 0 -49 -49q-1 -5 -3.5 -15t-3.5 -14.5t-3.5 -10t-5 -8t-6.5 -2.5q-11 0 -11 17q0 50 37 98.5t91 48.5q38 0 57.5 -22.5t31.5 -63.5q4 -14 13 -41.5t14 -41.5q8 9 31.5 40.5t37.5 47.5t36 38t43 32.5t41 10.5q24 0 41 -14.5t17 -37.5z" />
    <glyph glyph-name="y" unicode="y" horiz-adv-x="493" 
d="M512 390v-1q0 -120 -228 -388q-10 -12 -30 -35t-23 -27q-30 -34 -52.5 -57.5t-55.5 -51.5t-65.5 -42.5t-63.5 -14.5q-29 0 -53.5 17t-24.5 42q0 17 12.5 29t29.5 12q24 0 46 -28q22 -24 41 -24q30 0 61 29t49 61q21 40 26 86q3 63 3 132q0 4 -0.5 21.5t-1.5 31.5t-2 37
t-2.5 41t-4 39t-6 37t-8 30t-10.5 21t-13 7q-16 0 -35 -24.5t-29 -45.5q-14 -28 -22 -28q-9 0 -9 12q0 25 38 76q56 74 109 74q49 0 75 -110q16 -77 16 -196q0 -18 -2.5 -56t-2.5 -60l1 -2q48 59 105 136q65 96 65 151q0 18 -12 44q-15 30 -15 42q0 20 13 35.5t33 15.5
q24 0 36 -22t12 -46z" />
    <glyph glyph-name="z" unicode="z" horiz-adv-x="510" 
d="M-6 18v1q0 23 40 43q32 16 58 20q36 34 74 74q101 102 246 203l-1 2q-41 -17 -82 -17q-29 0 -80.5 12t-70.5 12q-30 0 -46 -14t-15 -42q0 -1 -0.5 -4.5t-0.5 -5.5t-1 -4.5t-2.5 -3.5t-4.5 -1q-17 0 -17 36q0 54 37.5 91t94.5 37q29 0 103 -31q69 -34 121 -28q7 4 21 17.5
t21 19.5q25 22 44 22q24 0 24 -16q0 -5 -3.5 -11t-8.5 -11t-13 -11t-13 -9.5t-13 -8t-9 -5.5q-55 -35 -76 -54q-46 -40 -148 -131q-24 -20 -70 -58t-66 -55l2 -1q37 14 74 14q43 0 89 -13q49 -15 65 -15q25 0 44 14t19 38q0 6 -2 15.5t-2 11.5q0 9 10 9t16 -15t6 -30
q0 -45 -36 -83q-42 -45 -113 -45q-54 0 -116 37q-55 31 -74 31q-14 0 -40 -24q-40 -35 -59 -35q-26 0 -26 22z" />
    <glyph glyph-name="braceleft" unicode="{" horiz-adv-x="273" 
d="M26 -107v1q0 34 9 69q4 16 19.5 71.5t22.5 85.5q11 41 11 68q0 34 -27 40q-25 6 -25 19q0 16 34 21q28 5 46 34.5t32 81.5l40 150q42 159 171 159q29 0 29 -16q0 -15 -23 -15q-32 0 -54 -29t-39 -92l-38 -144q-18 -67 -43 -100.5t-77 -47.5v-2q53 -20 51 -74
q0 -33 -12 -76q-9 -35 -38 -143q-12 -44 -12 -74q-2 -47 39 -48q16 -1 16 -16t-30 -15q-102 0 -102 92z" />
    <glyph glyph-name="bar" unicode="|" horiz-adv-x="547" 
d="M347 -250h-68v1000h68v-1000z" />
    <glyph glyph-name="braceright" unicode="}" horiz-adv-x="273" 
d="M291 601v-1q0 -30 -10 -70q-7 -31 -23 -89t-19 -68q-10 -43 -10 -67q0 -36 27 -40q25 -6 25 -20q0 -15 -34 -21q-28 -4 -46 -33t-33 -83l-39 -150q-42 -158 -172 -158q-29 0 -29 15q0 16 24 16q32 0 54 29t39 92l38 143q18 68 42.5 101.5t77.5 47.5v2q-52 20 -52 73
q0 26 12 76q21 72 39 144q12 48 12 74q0 46 -39 47q-16 1 -16 16q0 16 29 16q103 0 103 -92z" />
    <glyph glyph-name="asciitilde" unicode="~" horiz-adv-x="574" 
d="M116 182l-38 48q53 88 125 88q44 0 116 -35q72 -33 101 -33q41 0 86 68l38 -48q-55 -90 -125 -88q-51 0 -113 34t-104 34q-46 0 -86 -68z" />
    <glyph glyph-name="uni00A0" unicode="&#xa0;" horiz-adv-x="283" 
 />
    <glyph glyph-name="exclamdown" unicode="&#xa1;" horiz-adv-x="277" 
d="M162 390v1q0 26 18 46.5t46 20.5q22 0 34.5 -14.5t12.5 -34.5q0 -27 -18 -47.5t-45 -20.5q-22 0 -35 14.5t-13 34.5zM-32 -167v1q0 20 22 66q51 114 153 340q16 35 31 35t15 -16q0 -10 -4 -24q-13 -49 -41.5 -163t-44.5 -173q-5 -22 -9.5 -35t-13.5 -30.5t-24 -26
t-36 -8.5q-48 0 -48 34z" />
    <glyph glyph-name="cent" unicode="&#xa2;" 
d="M225 16l22 73q-57 9 -92.5 52.5t-35.5 103.5q0 94 76.5 182t186.5 109l24 79q4 13 8.5 16.5t18.5 3.5t16.5 -3.5t-2.5 -19.5l-22 -72q35 1 71.5 -12t36.5 -41q0 -16 -11.5 -26t-29.5 -10q-25 0 -41 13q-8 6 -26 33q-10 15 -27 15q-57 0 -118 -87t-61 -177
q0 -45 22.5 -72.5t63.5 -27.5q44 0 78.5 21.5t73.5 61.5q19 19 25 19q9 0 9 -9q0 -15 -28.5 -49.5t-78 -67.5t-95.5 -35l-23 -75q-5 -17 -9 -20.5t-17 -3.5q-15 0 -17.5 4.5t2.5 21.5z" />
    <glyph glyph-name="sterling" unicode="&#xa3;" 
d="M273 283h-84q-19 0 -19 6q0 8 5 21q3 8 22 8h71q-10 48 -10 93q0 92 51.5 160t139.5 68q34 0 56 -14t22 -42q0 -18 -10.5 -28.5t-27.5 -10.5q-24 0 -32 18q-3 4 -14 31q-6 14 -27 14q-33 0 -51.5 -44.5t-18.5 -89.5q0 -28 10 -80.5t11 -74.5h88q19 0 19 -6q0 -9 -6 -21
q-3 -8 -21 -8h-81q-2 -113 -61 -176q2 -1 15 -9t18.5 -11t17.5 -9.5t20 -9.5t18.5 -7.5t20 -6t17.5 -1.5q37 0 60.5 21.5t24.5 56.5q0 6 -1.5 15t-1.5 13q0 10 10 10q23 0 23 -48q0 -61 -41.5 -97.5t-97.5 -36.5q-41 0 -73.5 17t-71.5 52q-59 -67 -150 -67q-40 0 -74 19.5
t-34 60.5q0 48 39 72t85 24q71 0 134 -40q20 37 20 79q0 43 -10 79zM79 71v-1q0 -24 15.5 -36t37.5 -12q58 0 103 56q-18 21 -43.5 36t-48.5 15q-27 0 -45.5 -14.5t-18.5 -43.5z" />
    <glyph glyph-name="currency" unicode="&#xa4;" 
d="M109 52l-45 46l91 92q-39 50 -39 121q0 70 39 121l-91 91l45 46l92 -92q48 39 121 39t122 -39l91 92l46 -46l-91 -91q39 -51 39 -121t-39 -121l91 -92l-46 -46l-91 92q-52 -40 -122 -40q-73 0 -121 40zM322 457h-1q-59 0 -100.5 -44t-41.5 -102q0 -59 42 -103t101 -44
q60 0 102 44t42 103t-42 102.5t-102 43.5z" />
    <glyph glyph-name="yen" unicode="&#xa5;" 
d="M295 566v-1q0 -8 9 -41q44 -144 65 -216q60 69 178 205q37 46 37 62q0 14 -41 17q-23 2 -23 18q0 13 25 13q9 0 33 -2t40 -2q14 0 41 2t41 2q20 0 20 -15q0 -14 -26 -17q-24 -2 -39.5 -12.5t-38.5 -37.5l-115 -134h90q15 0 15 -6q0 -3 -5 -23q-4 -10 -20 -10h-113
q-13 -14 -40 -45t-42 -47h168q15 0 15 -7q0 -10 -5 -22q-3 -10 -19 -10h-176q-4 -13 -39 -130q-12 -36 -12 -50q0 -25 32 -29q2 0 16 -1q31 0 31 -15q0 -16 -31 -16q-16 0 -58.5 2t-62.5 2q-19 0 -55.5 -2t-48.5 -2q-36 0 -36 12q0 7 3 10.5t11.5 6t15.5 3t23 1.5
q12 1 21.5 7t15 10.5t11.5 19t7 17.5t7 22q5 18 18.5 63t20.5 69h-167q-15 0 -15 6q0 3 5 23q4 10 20 10h166q-11 39 -29 92h-111q-15 0 -15 7q0 8 6 22q2 10 19 10h89l-38 121q-10 32 -21.5 47t-33.5 16q-32 3 -32 16q0 16 36 16q16 0 49.5 -2t51.5 -2t53.5 2t51.5 2
q26 0 26 -14q0 -15 -38 -18q-37 -2 -37 -25z" />
    <glyph glyph-name="brokenbar" unicode="&#xa6;" horiz-adv-x="547" 
d="M347 325h-68v350h68v-350zM347 -175h-68v350h68v-350z" />
    <glyph glyph-name="section" unicode="&#xa7;" horiz-adv-x="421" 
d="M415 202v-1q0 -52 -33 -89t-86 -38q-17 0 -31 5q-6 0 -6 -6q1 -2 11 -15t15 -21.5t12.5 -22t11 -28t3.5 -28.5q0 -67 -48 -107t-118 -40q-55 0 -93.5 29t-38.5 72q0 27 14 46.5t39 19.5q20 0 31.5 -12t11.5 -34q0 -21 -18 -38.5t-18 -25.5q0 -13 24 -23t45 -10
q44 0 74.5 25t30.5 68q0 26 -19.5 57.5t-47.5 62.5t-55.5 63.5t-47 71.5t-19.5 75q0 55 33 88t79 35q23 0 41 -6q5 0 5 6q-54 74 -54 126q0 61 45.5 96.5t115.5 35.5q60 0 92.5 -30.5t32.5 -66.5q0 -23 -14.5 -40.5t-36.5 -17.5q-18 0 -30.5 12t-12.5 30q0 17 15 33.5
t15 25.5q0 12 -17 21t-43 9q-43 0 -70.5 -24t-27.5 -62q0 -35 29.5 -77.5t64.5 -77.5t64.5 -82t29.5 -90zM285 95h1q31 0 49 23.5t18 52.5q0 40 -53 112q-59 77 -110 77q-28 0 -49 -19.5t-21 -47.5q0 -24 11.5 -49.5t48.5 -73.5q55 -75 105 -75z" />
    <glyph glyph-name="dieresis" unicode="&#xa8;" horiz-adv-x="379" 
d="M209 545h-1q-16 0 -27 11t-11 29q0 24 18 46.5t42 22.5q17 0 28 -11t11 -28q0 -25 -18 -47.5t-42 -22.5zM376 545h-1q-17 0 -27.5 11t-10.5 29q0 25 18 47t42 22q17 0 28 -11t11 -28q0 -25 -18 -47.5t-42 -22.5z" />
    <glyph glyph-name="copyright" unicode="&#xa9;" horiz-adv-x="773" 
d="M780 349v-1q0 -150 -103 -255t-251 -105q-149 0 -252 105.5t-103 255.5q0 151 103 257t252 106q148 0 251 -106t103 -257zM133 349v-1q0 -126 86 -219.5t207 -93.5t206.5 93.5t85.5 220.5q0 128 -85.5 222t-206.5 94q-122 0 -207.5 -94t-85.5 -222zM600 262l-16 -71
q-3 -14 -27 -22q-59 -17 -111 -17q-98 0 -158.5 51.5t-60.5 156.5q0 75 59 138.5t168 63.5q52 0 108 -20q22 -9 22 -22v-72h-21q-4 37 -31 62t-82 25q-64 0 -101 -46.5t-37 -124.5q-2 -86 34.5 -136t109.5 -50q90 0 125 84h19z" />
    <glyph glyph-name="ordfeminine" unicode="&#xaa;" horiz-adv-x="377" 
d="M340 501h-2q-97 -147 -175 -147q-23 0 -37.5 18.5t-14.5 45.5q0 74 70.5 144.5t144.5 70.5q25 0 46 -14q8 14 9 15q7 5 20 5h18q18 0 18 -9q0 -10 -32 -109t-32 -109q0 -5 4 -5q9 0 42 41q11 14 15 14q9 0 9 -8q0 -23 -43 -61.5t-75 -38.5q-21 0 -21 25q0 27 36 122z
M363 587v1q0 11 -9.5 17.5t-22.5 6.5q-48 0 -100 -65t-52 -115q0 -11 6 -20t18 -9q33 0 96.5 76t63.5 108z" />
    <glyph glyph-name="guillemotleft" unicode="&#xab;" horiz-adv-x="305" 
d="M145 96h-49q-23 0 -30 20l-27 71l-11 22l-3 3t-3.5 4t-1.5 4q0 4 10 9q5 2 22 22l60 73q16 19 42 19h53q11 0 11 -5t-14 -5q-19 0 -45 -31l-52 -64q-11 -14 -22 -21q6 -6 9 -17l24 -63q4 -11 7 -16.5t8.5 -10t14.5 -4.5q11 0 11 -5t-14 -5zM273 96h-48q-23 0 -30 20
l-28 71q-5 14 -11 22q-7 9 -7 11q0 4 9 9q7 3 23 22l59 73q16 19 43 19h53q10 0 10 -5t-14 -5q-18 0 -44 -31l-53 -64q-12 -15 -22 -21q5 -4 9 -17l25 -63q10 -31 29 -31q12 0 12 -5t-15 -5z" />
    <glyph glyph-name="logicalnot" unicode="&#xac;" horiz-adv-x="574" 
d="M501 108v210h-434v70h504v-280h-70z" />
    <glyph glyph-name="uni00AD" unicode="&#xad;" horiz-adv-x="314" 
d="M70 254h235q10 0 10 -5q0 -2 -3.5 -11t-7.5 -20.5t-6 -16.5q-3 -10 -13 -10h-235q-10 0 -10 5l17 48q4 10 13 10z" />
    <glyph glyph-name="registered" unicode="&#xae;" horiz-adv-x="775" 
d="M780 349v-1q0 -150 -103 -255t-251 -105q-149 0 -252 105.5t-103 255.5q0 151 103 257t252 106q148 0 251 -106t103 -257zM133 349v-1q0 -126 86 -219.5t207 -93.5t206.5 93.5t85.5 220.5q0 128 -85.5 222t-206.5 94q-122 0 -207.5 -94t-85.5 -222zM257 533v16h187
q51 0 86 -25t35 -72q0 -38 -23 -67t-61 -41l61 -84q46 -64 78 -88v-10h-69q-16 0 -31 19t-44 69.5t-51 82.5h-48v-105q0 -31 7 -38.5t42 -9.5l1 -18h-170v18q35 2 42 9.5t7 38.5v257q0 31 -7 38.5t-42 9.5zM377 528v-175h43q37 0 55.5 26t18.5 69q0 80 -75 80h-42z" />
    <glyph glyph-name="macron" unicode="&#xaf;" horiz-adv-x="397" 
d="M232 608h227q14 0 14 -5q0 -6 -15 -33q-9 -15 -25 -15h-227q-13 0 -13 5q0 3 15 33q5 10 9.5 12.5t14.5 2.5z" />
    <glyph glyph-name="degree" unicode="&#xb0;" horiz-adv-x="400" 
d="M271 639h1q60 0 102.5 -43t42.5 -104q0 -62 -42.5 -105t-103.5 -43q-62 0 -105 43t-43 105t43 104.5t105 42.5zM271 600h-1q-44 0 -74.5 -32t-30.5 -76q0 -45 31 -77.5t75 -32.5q42 0 72.5 32.5t30.5 77.5q0 44 -30.5 76t-72.5 32z" />
    <glyph glyph-name="plusminus" unicode="&#xb1;" horiz-adv-x="574" 
d="M284 345v176h70v-176h217v-71h-217v-177h-70v177h-217v71h217zM67 -27v71h504v-71h-504z" />
    <glyph glyph-name="twosuperior" unicode="&#xb2;" horiz-adv-x="346" 
d="M125 312l2 -2q14 1 45 1h82q30 0 47 5.5t28 23.5q13 18 19 18q11 0 11 -12q0 -2 -5 -15.5t-11 -31t-8 -24.5q-4 -14 -9.5 -18t-21.5 -4q-14 0 -58.5 1.5t-70.5 1.5q-20 0 -60.5 -1.5t-56.5 -1.5q-28 0 -28 10q0 11 60 53q29 20 80 56.5t68 48.5q89 65 89 126
q0 28 -18.5 45.5t-46.5 17.5q-50 0 -86 -36q-7 -7 -15 -18t-14 -16.5t-11 -5.5q-8 0 -8 11q0 13 16 34t55 40.5t88 19.5q53 0 88.5 -26.5t35.5 -70.5q0 -21 -9 -39.5t-30.5 -36.5t-35 -27t-47 -28t-40.5 -23q-48 -27 -124 -76z" />
    <glyph glyph-name="threesuperior" unicode="&#xb3;" horiz-adv-x="346" 
d="M239 459l1 -1q24 0 37 -1q43 -4 72.5 -27.5t29.5 -61.5q0 -73 -80 -125.5t-168 -52.5q-35 0 -67.5 11t-32.5 34q0 13 9.5 20.5t23.5 7.5q22 0 41 -27q18 -23 41 -23q59 0 104 45t45 102q0 33 -22.5 54.5t-58.5 21.5q-19 0 -38.5 -5t-31.5 -9.5t-13 -4.5q-8 0 -8 11
q0 5 4.5 9t14.5 8t19 7.5t26.5 9.5t29.5 10q95 37 95 99q0 18 -12.5 29t-32.5 11q-30 0 -64 -24q-5 -4 -11.5 -9t-10.5 -8t-8.5 -5.5t-7.5 -2.5q-8 0 -8 9t14.5 24t48.5 29.5t76 14.5t71 -17t29 -48q0 -13 -5.5 -25t-17 -22.5t-22.5 -18t-29.5 -16t-29 -13t-29.5 -11.5
t-24 -9z" />
    <glyph glyph-name="acute" unicode="&#xb4;" horiz-adv-x="363" 
d="M208 517h-1q-8 0 -8 8t29 26l120 79q39 25 58 25q14 0 24.5 -8.5t10.5 -22.5q0 -12 -8.5 -21t-15 -12t-21.5 -9l-154 -55q-28 -10 -34 -10z" />
    <glyph glyph-name="mu" unicode="&#xb5;" horiz-adv-x="630" 
d="M427 227l-4 1q-60 -93 -146 -167t-154 -74q-18 -31 -33 -126q-12 -83 -64 -83q-21 0 -31 10.5t-9 27.5q0 26 38 99t41 112q4 27 25 89q8 25 23.5 70t28 81.5t22.5 67.5q12 27 12 40q0 16 -13 16q-27 0 -75 -68q-2 -3 -5.5 -7.5t-6 -7t-5 -5.5t-5 -4.5t-5.5 -1.5
q-8 0 -8 12q0 13 26.5 48t71.5 68t85 33q18 0 29.5 -12.5t11.5 -32.5q0 -23 -15 -66q-61 -181 -73 -218q-12 -36 -12 -50q0 -26 24 -26q27 0 72.5 37.5t71.5 73.5q93 115 133 246q7 24 11.5 30.5t12.5 8.5q5 1 64 1q15 0 15 -10q0 -3 -7 -26q-7 -24 -37.5 -124.5
t-47.5 -155.5q-12 -38 -12 -52q0 -19 15 -19q19 0 47.5 30.5t45.5 57.5q10 15 17 15q10 0 10 -9q0 -12 -19 -39.5t-47 -56.5t-66.5 -51.5t-72.5 -22.5q-33 0 -33 40q0 44 53 200z" />
    <glyph glyph-name="paragraph" unicode="&#xb6;" horiz-adv-x="609" 
d="M163 -172l107 387q-74 2 -109.5 42t-35.5 104q0 104 85 181t190 77h238q29 0 29 -17q0 -16 -36 -16q-43 0 -55 -13.5t-28 -72.5l-186 -672h-71l207 748h-58l-207 -748h-70z" />
    <glyph glyph-name="periodcentered" unicode="&#xb7;" horiz-adv-x="282" 
d="M222 264v-1q0 -26 -18 -46.5t-46 -20.5q-22 0 -33.5 13t-11.5 34q0 26 17.5 47t45.5 21q21 0 33.5 -13t12.5 -34z" />
    <glyph glyph-name="cedilla" unicode="&#xb8;" horiz-adv-x="355" 
d="M131 0l-33 -52q14 2 24 2q33 0 56.5 -16.5t23.5 -46.5q0 -41 -37 -66.5t-84 -25.5q-35 0 -67.5 14t-32.5 37q0 8 6 14.5t14 6.5q13 0 23 -12t23.5 -24t36.5 -12q26 0 44 17t18 41q0 41 -50 41q-7 0 -21 -2.5t-19 -2.5q-9 0 -9 7q0 4 11 20l39 60h34z" />
    <glyph glyph-name="onesuperior" unicode="&#xb9;" horiz-adv-x="346" 
d="M250 291v-1q0 -13 34 -13q36 0 36 -11q0 -13 -17 -13t-54 1.5t-58 1.5q-17 0 -47 -1.5t-42 -1.5q-19 0 -19 11q0 13 35 13q31 0 41.5 7.5t19.5 36.5q67 204 75 229q5 15 5 20q0 7 -6 7q-8 0 -45 -12t-44 -12q-14 0 -14 10q0 11 34 19q89 26 139 48q20 8 25 8q9 0 9 -7
q0 -5 -6 -23q-30 -96 -94 -290q-7 -21 -7 -27z" />
    <glyph glyph-name="ordmasculine" unicode="&#xba;" horiz-adv-x="377" 
d="M427 523v-1q0 -64 -53 -114t-118 -50q-50 0 -81 35t-31 83q0 64 51 113.5t118 49.5q48 0 81 -35t33 -81zM205 451v-1q0 -28 12.5 -48.5t41.5 -20.5q46 0 76 58t30 113q0 64 -50 64q-48 0 -79 -55.5t-31 -109.5z" />
    <glyph glyph-name="guillemotright" unicode="&#xbb;" horiz-adv-x="306" 
d="M59 343h50q23 0 30 -19l27 -71q6 -16 11 -22q1 -2 4.5 -5.5t3.5 -5.5q0 -5 -10 -10q-7 -3 -23 -22l-59 -72q-16 -20 -42 -20h-54q-10 0 -10 5t14 5q20 0 44 31l53 64q12 15 22 21q-5 4 -9 17l-24 63q-6 16 -12 23.5t-18 7.5t-12 5t14 5zM187 343h50q23 0 30 -19l27 -71
q6 -16 11 -22q1 -2 4.5 -5.5t3.5 -5.5q0 -5 -10 -10q-7 -3 -23 -22l-59 -72q-16 -20 -44 -20h-52q-10 0 -10 5t14 5q20 0 44 31l53 64q12 15 22 21q-5 4 -9 17l-24 63q-6 16 -12 23.5t-18 7.5t-12 5t14 5z" />
    <glyph glyph-name="onequarter" unicode="&#xbc;" horiz-adv-x="862" 
d="M348 638h1q9 0 9 -7q0 -5 -6 -23q-11 -33 -43.5 -134t-50.5 -156q-8 -24 -8 -27q0 -14 34 -14q37 0 37 -11q0 -13 -17 -13q-18 0 -55 1.5t-58 1.5q-17 0 -47 -1.5t-42 -1.5q-18 0 -18 11q0 13 35 13q31 0 41.5 7.5t19.5 36.5q42 128 74 229q6 18 6 20q0 7 -7 7t-44.5 -12
t-43.5 -12q-14 0 -14 10q0 11 33 19q107 30 139 48q21 8 25 8zM235 -13h-18q-15 0 -15 6q0 2 24 31l489 591q13 17 18.5 20.5t14.5 3.5h19q14 0 14 -6q0 -5 -22 -30l-490 -593q-14 -17 -19 -20t-15 -3zM840 118h-46q-10 0 -13 -10q-21 -67 -21 -72q0 -13 28 -15q26 0 26 -13
q0 -10 -22 -10q-10 0 -39 1t-47 1q-16 0 -44 -1t-42 -1t-14 9q0 15 28 15q24 1 34 7.5t16 24.5q19 54 19 60q-1 4 -10 4h-164q-19 0 -19 7q0 4 3 13q3 7 15 18q55 47 155.5 132.5t130.5 110.5q9 8 24 8h25q10 0 10 -4q0 -3 -13 -14q-99 -76 -303 -241h143q10 0 13 2t5 10
l32 100q5 12 8.5 15.5t14.5 6.5q51 15 59 15q6 0 6 -5l-4 -16q-5 -15 -17.5 -54t-19.5 -61q-2 -10 -2 -11q0 -2 10 -2h40q15 0 15 -5q0 -7 -4 -19q-2 -6 -16 -6z" />
    <glyph glyph-name="onehalf" unicode="&#xbd;" horiz-adv-x="862" 
d="M358 631v-1q0 -4 -6 -22q-11 -33 -43.5 -134t-50.5 -156q-8 -24 -8 -27q0 -14 34 -14q37 0 37 -11q0 -13 -17 -13q-18 0 -55 1.5t-58 1.5q-17 0 -47 -1.5t-42 -1.5q-18 0 -18 11q0 13 35 13q31 0 41.5 7.5t19.5 36.5q42 128 74 229q6 18 6 20q0 7 -7 7t-44.5 -12
t-43.5 -12q-14 0 -14 10q0 11 33 19q107 30 139 48q21 8 25 8q10 0 10 -7zM227 -13h-19q-14 0 -14 6q0 3 23 31l489 591q14 17 19 20.5t15 3.5h18q15 0 15 -6q0 -5 -22 -30l-490 -593q-13 -16 -18.5 -19.5t-15.5 -3.5zM582 55l2 -1h46h82q56 0 75 31q13 17 19 17
q11 0 11 -11q0 -3 -5 -16.5t-11 -31t-8 -24.5q-4 -14 -9.5 -18t-21.5 -4q-14 0 -58.5 1.5t-70.5 1.5q-20 0 -60.5 -1.5t-56.5 -1.5q-28 0 -28 10q0 11 60 54q23 16 72.5 51t75.5 53q89 65 89 126q0 28 -18.5 45.5t-46.5 17.5q-50 0 -86 -36q-7 -6 -15 -17t-14 -17t-11 -6
q-8 0 -8 11q0 13 16.5 34t55 40.5t87.5 19.5q53 0 88.5 -26t35.5 -70q0 -18 -8 -35t-18.5 -29t-30 -26.5t-33 -22.5t-38 -22t-34.5 -20q-49 -28 -125 -77z" />
    <glyph glyph-name="threequarters" unicode="&#xbe;" horiz-adv-x="862" 
d="M240 459v-1q24 0 38 -1q42 -4 71.5 -27.5t29.5 -61.5q0 -73 -80 -125.5t-168 -52.5q-35 0 -67 11t-32 34q0 13 9 20.5t23 7.5q11 0 19 -4.5t11.5 -8.5t10.5 -14q18 -23 41 -23q59 0 104 45t45 102q0 33 -22.5 54.5t-58.5 21.5q-19 0 -38.5 -5t-31.5 -9.5t-13 -4.5
q-8 0 -8 11q0 5 4.5 9t14.5 8t19 7.5t26.5 9.5t29.5 10q95 37 95 99q0 18 -12.5 29t-32.5 11q-31 0 -65 -24q-33 -25 -37 -25q-8 0 -8 9t15 24t49.5 29.5t76.5 14.5q41 0 69.5 -17t28.5 -48q0 -15 -9 -29.5t-19.5 -24t-31.5 -20.5t-32.5 -16t-35.5 -14.5t-28 -10.5zM246 -13
h-18q-15 0 -15 6q0 2 24 31l489 591q13 17 18.5 20.5t14.5 3.5h18q15 0 15 -6q0 -5 -22 -30l-490 -593q-13 -16 -18.5 -19.5t-15.5 -3.5zM840 118h-46q-10 0 -13 -10q-21 -67 -21 -72q0 -13 28 -15q26 0 26 -13q0 -10 -22 -10q-10 0 -39 1t-47 1q-16 0 -44 -1t-42 -1t-14 9
q0 15 28 15q24 1 34 7.5t16 24.5q19 54 19 60q-1 4 -10 4h-164q-19 0 -19 7q0 4 3 13q3 7 15 18q55 47 155.5 132.5t130.5 110.5q9 8 24 8h25q10 0 10 -4q0 -3 -13 -14q-99 -76 -303 -241h143q10 0 13 2t5 10l32 100q5 12 8.5 15.5t14.5 6.5q51 15 59 15q6 0 6 -5l-4 -16
q-5 -15 -17.5 -54t-19.5 -61q-2 -10 -2 -11q0 -2 10 -2h40q15 0 15 -5q0 -7 -4 -19q-2 -6 -16 -6z" />
    <glyph glyph-name="questiondown" unicode="&#xbf;" horiz-adv-x="378" 
d="M261 390v1q0 26 17.5 45.5t44.5 19.5q21 0 33.5 -12.5t12.5 -33.5q0 -26 -17.5 -46t-44.5 -20q-22 0 -34 13t-12 33zM-27 -49v1q0 116 180 195q5 2 18 8.5l16 8t13 7t12 7.5t9.5 7t9.5 9t6.5 10t7 12.5t5.5 15t6 18.5q1 2 2 5t1.5 5t1.5 5t2 4.5t2 4t2.5 3.5t3 2.5t3.5 2
t4 0.5q14 0 14 -12q0 -4 -2 -16l-3 -11q-2 -8 -9 -41t-12 -51q-10 -41 -20.5 -54.5t-48.5 -31.5q-85 -40 -116 -68q-47 -42 -47 -94q0 -28 20 -48t47 -20q11 0 23 6.5t18 11.5t20.5 20.5t17.5 18.5q32 30 55 30q20 0 20 -19q0 -14 -9 -39q-11 -36 -25 -46q-31 -20 -84 -20
q-71 0 -117.5 43t-46.5 110z" />
    <glyph glyph-name="Agrave" unicode="&#xc0;" horiz-adv-x="657" 
d="M434 229h-207q-9 0 -14 -6q-4 -5 -77 -103q-25 -35 -25 -57q0 -12 8.5 -19t16.5 -9t24 -5q10 -2 13.5 -2.5t10 -2.5t9 -5.5t2.5 -8.5q0 -15 -26 -15q-19 0 -57 2t-56 2q-17 0 -47.5 -2t-40.5 -2q-22 0 -22 14q0 3 1.5 5.5t3 4t5 3t5.5 2.5t6.5 2t6.5 2q12 2 23 7.5l18 9
t18.5 15.5t14.5 15t17 21t16 20q48 61 181.5 230.5t206.5 262.5q19 26 47 26q21 0 21 -31q2 -70 4 -249.5t3 -250.5q2 -47 8.5 -60.5t31.5 -15.5q3 0 10 -1t9.5 -2t6.5 -2.5t5.5 -4t1.5 -6.5q0 -17 -25 -17q-15 0 -55 2t-61 2q-22 0 -55.5 -2t-45.5 -2q-29 0 -29 14
q0 15 28 18q3 0 11 1h6q22 1 34 13.5t13 45.5q0 27 -2 76t-2 65zM434 266l-5 233l-1 1q-78 -101 -182 -234h188zM339 786v1q0 26 32 26q21 0 54 -27l103 -85q25 -20 25 -27q0 -8 -9 -8q-4 0 -30 11l-140 69q-35 18 -35 40z" />
    <glyph glyph-name="Aacute" unicode="&#xc1;" horiz-adv-x="657" 
d="M434 229h-207q-9 0 -14 -6q-4 -5 -77 -103q-25 -35 -25 -57q0 -12 8.5 -19t16.5 -9t24 -5q10 -2 13.5 -2.5t10 -2.5t9 -5.5t2.5 -8.5q0 -15 -26 -15q-19 0 -57 2t-56 2q-17 0 -47.5 -2t-40.5 -2q-22 0 -22 14q0 3 1.5 5.5t3 4t5 3t5.5 2.5t6.5 2t6.5 2q12 2 23 7.5l18 9
t18.5 15.5t14.5 15t17 21t16 20q48 61 181.5 230.5t206.5 262.5q19 26 47 26q21 0 21 -31q2 -70 4 -249.5t3 -250.5q2 -47 8.5 -60.5t31.5 -15.5q3 0 10 -1t9.5 -2t6.5 -2.5t5.5 -4t1.5 -6.5q0 -17 -25 -17q-15 0 -55 2t-61 2q-22 0 -55.5 -2t-45.5 -2q-29 0 -29 14
q0 15 28 18q3 0 11 1h6q22 1 34 13.5t13 45.5q0 27 -2 76t-2 65zM434 266l-5 233l-1 1q-78 -101 -182 -234h188zM412 666h-1q-9 0 -9 8t29 26l120 79q39 25 58 25q15 0 25 -8.5t10 -22.5q0 -17 -11.5 -25.5t-33.5 -16.5l-154 -55q-26 -10 -33 -10z" />
    <glyph glyph-name="Acircumflex" unicode="&#xc2;" horiz-adv-x="657" 
d="M434 229h-207q-9 0 -14 -6q-4 -5 -77 -103q-25 -35 -25 -57q0 -12 8.5 -19t16.5 -9t24 -5q10 -2 13.5 -2.5t10 -2.5t9 -5.5t2.5 -8.5q0 -15 -26 -15q-19 0 -57 2t-56 2q-17 0 -47.5 -2t-40.5 -2q-22 0 -22 14q0 3 1.5 5.5t3 4t5 3t5.5 2.5t6.5 2t6.5 2q12 2 23 7.5l18 9
t18.5 15.5t14.5 15t17 21t16 20q48 61 181.5 230.5t206.5 262.5q19 26 47 26q21 0 21 -31q2 -70 4 -249.5t3 -250.5q2 -47 8.5 -60.5t31.5 -15.5q3 0 10 -1t9.5 -2t6.5 -2.5t5.5 -4t1.5 -6.5q0 -17 -25 -17q-15 0 -55 2t-61 2q-22 0 -55.5 -2t-45.5 -2q-29 0 -29 14
q0 15 28 18q3 0 11 1h6q22 1 34 13.5t13 45.5q0 27 -2 76t-2 65zM434 266l-5 233l-1 1q-78 -101 -182 -234h188zM506 778l-151 -97q-24 -15 -32 -15q-9 0 -9 8q0 3 3 8t6.5 8.5t9.5 9t7 6.5l107 94q22 20 30.5 25.5t18.5 5.5h33q11 0 15.5 -4t14.5 -23l52 -102
q11 -26 11 -27q0 -9 -10 -9q-7 0 -27 22z" />
    <glyph glyph-name="Atilde" unicode="&#xc3;" horiz-adv-x="657" 
d="M434 229h-207q-9 0 -14 -6q-4 -5 -77 -103q-25 -35 -25 -57q0 -12 8.5 -19t16.5 -9t24 -5q10 -2 13.5 -2.5t10 -2.5t9 -5.5t2.5 -8.5q0 -15 -26 -15q-19 0 -57 2t-56 2q-17 0 -47.5 -2t-40.5 -2q-22 0 -22 14q0 3 1.5 5.5t3 4t5 3t5.5 2.5t6.5 2t6.5 2q12 2 23 7.5l18 9
t18.5 15.5t14.5 15t17 21t16 20q48 61 181.5 230.5t206.5 262.5q19 26 47 26q21 0 21 -31q2 -70 4 -249.5t3 -250.5q2 -47 8.5 -60.5t31.5 -15.5q3 0 10 -1t9.5 -2t6.5 -2.5t5.5 -4t1.5 -6.5q0 -17 -25 -17q-15 0 -55 2t-61 2q-22 0 -55.5 -2t-45.5 -2q-29 0 -29 14
q0 15 28 18q3 0 11 1h6q22 1 34 13.5t13 45.5q0 27 -2 76t-2 65zM434 266l-5 233l-1 1q-78 -101 -182 -234h188zM541 688h-1q-40 0 -89 33q-2 2 -10 7t-10.5 7t-9 6t-10.5 5.5t-9 3.5t-10 3t-10 1q-20 0 -37.5 -14.5t-29.5 -29t-17 -14.5q-8 0 -8 10q0 22 37.5 56.5
t88.5 34.5q42 0 91 -33q4 -3 14 -9.5t15 -9.5t12.5 -7t13.5 -5.5t12 -1.5q20 0 37.5 14.5t30 29t17.5 14.5q8 0 8 -10q0 -22 -38 -56.5t-88 -34.5z" />
    <glyph glyph-name="Adieresis" unicode="&#xc4;" horiz-adv-x="657" 
d="M434 229h-207q-9 0 -14 -6q-4 -5 -77 -103q-25 -35 -25 -57q0 -12 8.5 -19t16.5 -9t24 -5q10 -2 13.5 -2.5t10 -2.5t9 -5.5t2.5 -8.5q0 -15 -26 -15q-19 0 -57 2t-56 2q-17 0 -47.5 -2t-40.5 -2q-22 0 -22 14q0 3 1.5 5.5t3 4t5 3t5.5 2.5t6.5 2t6.5 2q12 2 23 7.5l18 9
t18.5 15.5t14.5 15t17 21t16 20q48 61 181.5 230.5t206.5 262.5q19 26 47 26q21 0 21 -31q2 -70 4 -249.5t3 -250.5q2 -47 8.5 -60.5t31.5 -15.5q3 0 10 -1t9.5 -2t6.5 -2.5t5.5 -4t1.5 -6.5q0 -17 -25 -17q-15 0 -55 2t-61 2q-22 0 -55.5 -2t-45.5 -2q-29 0 -29 14
q0 15 28 18q3 0 11 1h6q22 1 34 13.5t13 45.5q0 27 -2 76t-2 65zM434 266l-5 233l-1 1q-78 -101 -182 -234h188zM396 694h-1q-16 0 -27 11t-11 29q0 24 18 46.5t42 22.5q17 0 28.5 -11t11.5 -28q0 -25 -18 -47.5t-43 -22.5zM563 694h-1q-16 0 -27 11t-11 29q0 24 18 46.5
t42 22.5q17 0 28 -11t11 -28q0 -25 -18 -47.5t-42 -22.5z" />
    <glyph glyph-name="Aring" unicode="&#xc5;" horiz-adv-x="657" 
d="M434 229h-207q-9 0 -14 -6q-4 -5 -77 -103q-25 -35 -25 -57q0 -12 8.5 -19t16.5 -9t24 -5q10 -2 13.5 -2.5t10 -2.5t9 -5.5t2.5 -8.5q0 -15 -26 -15q-19 0 -57 2t-56 2q-17 0 -47.5 -2t-40.5 -2q-22 0 -22 14q0 3 1.5 5.5t3 4t5 3t5.5 2.5t6.5 2t6.5 2q12 2 23 7.5l18 9
t18.5 15.5t14.5 15t17 21t16 20q48 61 181.5 230.5t206.5 262.5q19 26 47 26q21 0 21 -31q2 -70 4 -249.5t3 -250.5q2 -47 8.5 -60.5t31.5 -15.5q3 0 10 -1t9.5 -2t6.5 -2.5t5.5 -4t1.5 -6.5q0 -17 -25 -17q-15 0 -55 2t-61 2q-22 0 -55.5 -2t-45.5 -2q-29 0 -29 14
q0 15 28 18q3 0 11 1h6q22 1 34 13.5t13 45.5q0 27 -2 76t-2 65zM434 266l-5 233l-1 1q-78 -101 -182 -234h188zM517 660h-1q-42 0 -72 29.5t-30 71.5q0 43 30 72t73 29t73 -29t30 -72t-30 -72t-73 -29zM517 696h1q27 0 45.5 19t18.5 46q0 28 -18.5 46.5t-46.5 18.5
q-27 0 -46 -18.5t-19 -46.5q0 -27 19 -46t46 -19z" />
    <glyph glyph-name="AE" unicode="&#xc6;" horiz-adv-x="848" 
d="M447 298h-161q-14 0 -23 -10l-119 -141q-55 -61 -55 -88q0 -31 52 -31q27 -2 27 -16q0 -15 -27 -15q-9 0 -24.5 0.5t-36.5 1.5t-32 1q-14 0 -46 -1.5t-42 -1.5q-29 0 -29 12q0 16 29 19q8 0 16.5 3.5t14 6t14 10t11 10.5t11.5 13t10 11l410 472q17 21 17 29q0 10 -22 10
q-28 3 -28 16q0 16 48 16q31 0 99.5 -2t101.5 -2q45 0 116.5 2t96.5 2q21 0 21 -15q0 -5 -30 -104q-12 -37 -23 -37q-16 0 -18 24q0 61 -24 78q-24 19 -82 19q-57 0 -69 -6q-8 -5 -18 -39l-62 -206q40 0 60 1q46 0 66.5 11t43.5 52q5 9 6.5 12.5t5 8.5t7 6.5t8.5 1.5
q14 0 14 -13q0 -3 -15 -48q-31 -85 -40 -136q-7 -36 -22 -36t-17 20q0 7 1 21.5t1 21.5t-1 12.5t-2.5 10t-5 7.5t-5.5 5.5t-8 4l-8 2t-9.5 1t-9.5 0.5h-11.5h-11.5h-58l-52 -175q-15 -49 -15 -65q0 -23 16 -28.5t56 -5.5q91 0 135 22q45 23 77 89q9 19 22 19q15 0 15 -16
q0 -5 -7 -29q-8 -27 -24 -83q-5 -20 -12.5 -28t-25.5 -8q-11 0 -94.5 1.5t-135.5 1.5q-54 0 -120.5 -1.5t-86.5 -1.5q-34 0 -34 12q0 19 44 19q33 1 45 16t26 65zM302 333h156l60 201q8 24 8 32t-8 8q-9 0 -34 -30q-32 -37 -93 -108t-89 -103z" />
    <glyph glyph-name="Ccedilla" unicode="&#xc7;" horiz-adv-x="634" 
d="M318 -11l-27 -41q16 2 24 2q33 0 57 -16.5t24 -46.5q0 -41 -37 -66.5t-84 -25.5q-35 0 -67.5 14t-32.5 37q-1 8 5 14.5t15 6.5q13 0 22.5 -12t23.5 -24t36 -12q26 0 44 17t18 41q0 41 -49 41q-7 0 -21 -2.5t-20 -2.5q-8 0 -8 7q0 9 11 20l33 51q-77 9 -134 52
q-90 70 -90 187q1 85 55 165t137 134q76 50 178 79.5t192 29.5q84 0 84 -26q0 -7 -6 -27q-15 -50 -28 -89q-9 -34 -24 -34q-21 0 -21 31q0 6 3 35.5t3 37.5q0 21 -9 29.5t-31 8.5q-69 0 -142.5 -29.5t-134.5 -81.5q-137 -120 -137 -271q0 -80 46 -140.5t128 -60.5
q103 0 167 110q2 4 8 15.5t9 16t8 11.5t9.5 9.5t9.5 2.5q16 0 16 -13q0 -10 -7 -33q-5 -12 -12 -38t-13 -46.5t-11 -27.5q-17 -19 -76.5 -29t-113.5 -11q-17 -2 -30 1z" />
    <glyph glyph-name="Egrave" unicode="&#xc8;" horiz-adv-x="574" 
d="M265 311l-53 -178q-15 -51 -15 -68q0 -24 17.5 -29.5t62.5 -5.5q108 0 153 23q42 22 78 89q10 19 22 19q15 0 15 -16q0 -5 -7 -29q-8 -27 -24 -83q-5 -20 -12.5 -28t-25.5 -8q-11 0 -96.5 1.5t-137.5 1.5q-85 0 -155.5 -1.5t-76.5 -1.5q-34 0 -34 13q0 18 34 18
q39 1 53 17t29 64q99 329 122 406q11 36 11 48q0 18 -11.5 23.5t-33.5 6.5h-5.5t-5.5 0.5t-5 0.5t-5.5 0.5l-5 1t-4 1.5t-3 2.5t-2 3.5t-0.5 5q0 17 28 17q16 0 90.5 -2.5t133.5 -1.5q46 0 117.5 2t96.5 2q20 0 20 -13q0 -16 -30 -103q-10 -37 -22 -37q-16 0 -18 24
q0 59 -24 78q-17 12 -38.5 15t-72.5 3q-59 0 -69 -6q-8 -5 -18 -38l-62 -203h89q47 1 67.5 11.5t42.5 51.5q7 13 9.5 17t7.5 8.5t11 4.5q5 0 9.5 -4t4.5 -10q0 -2 -15 -47q-29 -78 -40 -136q0 -1 -1.5 -8t-3 -10l-4 -8t-6 -7.5t-8.5 -2.5q-16 0 -16 20q0 6 1 20.5t1 22.5
q0 9 -2 15.5t-3.5 11t-7 7.5t-8.5 4.5t-11.5 2.5t-12 1.5t-14 0.5h-14.5h-87zM273 786v1q0 26 32 26q22 0 55 -27l102 -85q25 -20 25 -27q0 -8 -9 -8q-5 0 -29 11l-140 69q-36 17 -36 40z" />
    <glyph glyph-name="Eacute" unicode="&#xc9;" horiz-adv-x="574" 
d="M265 311l-53 -178q-15 -51 -15 -68q0 -24 17.5 -29.5t62.5 -5.5q108 0 153 23q42 22 78 89q10 19 22 19q15 0 15 -16q0 -5 -7 -29q-8 -27 -24 -83q-5 -20 -12.5 -28t-25.5 -8q-11 0 -96.5 1.5t-137.5 1.5q-85 0 -155.5 -1.5t-76.5 -1.5q-34 0 -34 13q0 18 34 18
q39 1 53 17t29 64q99 329 122 406q11 36 11 48q0 18 -11.5 23.5t-33.5 6.5h-5.5t-5.5 0.5t-5 0.5t-5.5 0.5l-5 1t-4 1.5t-3 2.5t-2 3.5t-0.5 5q0 17 28 17q16 0 90.5 -2.5t133.5 -1.5q46 0 117.5 2t96.5 2q20 0 20 -13q0 -16 -30 -103q-10 -37 -22 -37q-16 0 -18 24
q0 59 -24 78q-17 12 -38.5 15t-72.5 3q-59 0 -69 -6q-8 -5 -18 -38l-62 -203h89q47 1 67.5 11.5t42.5 51.5q7 13 9.5 17t7.5 8.5t11 4.5q5 0 9.5 -4t4.5 -10q0 -2 -15 -47q-29 -78 -40 -136q0 -1 -1.5 -8t-3 -10l-4 -8t-6 -7.5t-8.5 -2.5q-16 0 -16 20q0 6 1 20.5t1 22.5
q0 9 -2 15.5t-3.5 11t-7 7.5t-8.5 4.5t-11.5 2.5t-12 1.5t-14 0.5h-14.5h-87zM378 666h-1q-8 0 -8 8q0 9 28 26l120 79q39 25 58 25q15 0 25 -8.5t10 -22.5q0 -17 -11.5 -25.5t-33.5 -16.5l-154 -55q-26 -10 -33 -10z" />
    <glyph glyph-name="Ecircumflex" unicode="&#xca;" horiz-adv-x="574" 
d="M265 311l-53 -178q-15 -51 -15 -68q0 -24 17.5 -29.5t62.5 -5.5q108 0 153 23q42 22 78 89q10 19 22 19q15 0 15 -16q0 -5 -7 -29q-8 -27 -24 -83q-5 -20 -12.5 -28t-25.5 -8q-11 0 -96.5 1.5t-137.5 1.5q-85 0 -155.5 -1.5t-76.5 -1.5q-34 0 -34 13q0 18 34 18
q39 1 53 17t29 64q99 329 122 406q11 36 11 48q0 18 -11.5 23.5t-33.5 6.5h-5.5t-5.5 0.5t-5 0.5t-5.5 0.5l-5 1t-4 1.5t-3 2.5t-2 3.5t-0.5 5q0 17 28 17q16 0 90.5 -2.5t133.5 -1.5q46 0 117.5 2t96.5 2q20 0 20 -13q0 -16 -30 -103q-10 -37 -22 -37q-16 0 -18 24
q0 59 -24 78q-17 12 -38.5 15t-72.5 3q-59 0 -69 -6q-8 -5 -18 -38l-62 -203h89q47 1 67.5 11.5t42.5 51.5q7 13 9.5 17t7.5 8.5t11 4.5q5 0 9.5 -4t4.5 -10q0 -2 -15 -47q-29 -78 -40 -136q0 -1 -1.5 -8t-3 -10l-4 -8t-6 -7.5t-8.5 -2.5q-16 0 -16 20q0 6 1 20.5t1 22.5
q0 9 -2 15.5t-3.5 11t-7 7.5t-8.5 4.5t-11.5 2.5t-12 1.5t-14 0.5h-14.5h-87zM456 778l-150 -97q-26 -15 -32 -15q-10 0 -10 8q0 3 3 8t6.5 8.5t9.5 9t7 6.5l107 94q35 31 49 31h33q11 0 15.5 -4t14.5 -23l52 -102q11 -26 11 -27q0 -9 -10 -9q-7 0 -27 22z" />
    <glyph glyph-name="Edieresis" unicode="&#xcb;" horiz-adv-x="574" 
d="M265 311l-53 -178q-15 -51 -15 -68q0 -24 17.5 -29.5t62.5 -5.5q108 0 153 23q42 22 78 89q10 19 22 19q15 0 15 -16q0 -5 -7 -29q-8 -27 -24 -83q-5 -20 -12.5 -28t-25.5 -8q-11 0 -96.5 1.5t-137.5 1.5q-85 0 -155.5 -1.5t-76.5 -1.5q-34 0 -34 13q0 18 34 18
q39 1 53 17t29 64q99 329 122 406q11 36 11 48q0 18 -11.5 23.5t-33.5 6.5h-5.5t-5.5 0.5t-5 0.5t-5.5 0.5l-5 1t-4 1.5t-3 2.5t-2 3.5t-0.5 5q0 17 28 17q16 0 90.5 -2.5t133.5 -1.5q46 0 117.5 2t96.5 2q20 0 20 -13q0 -16 -30 -103q-10 -37 -22 -37q-16 0 -18 24
q0 59 -24 78q-17 12 -38.5 15t-72.5 3q-59 0 -69 -6q-8 -5 -18 -38l-62 -203h89q47 1 67.5 11.5t42.5 51.5q7 13 9.5 17t7.5 8.5t11 4.5q5 0 9.5 -4t4.5 -10q0 -2 -15 -47q-29 -78 -40 -136q0 -1 -1.5 -8t-3 -10l-4 -8t-6 -7.5t-8.5 -2.5q-16 0 -16 20q0 6 1 20.5t1 22.5
q0 9 -2 15.5t-3.5 11t-7 7.5t-8.5 4.5t-11.5 2.5t-12 1.5t-14 0.5h-14.5h-87zM338 694h-1q-16 0 -27 11t-11 29q0 25 18.5 47t42.5 22q17 0 28 -11t11 -28q0 -25 -18 -47.5t-43 -22.5zM505 694h-1q-16 0 -27 11t-11 29q0 24 18 46.5t42 22.5q17 0 28.5 -11t11.5 -28
q0 -25 -18 -47.5t-43 -22.5z" />
    <glyph glyph-name="Igrave" unicode="&#xcc;" horiz-adv-x="337" 
d="M193 59v-1q0 -13 8.5 -20t16.5 -8t23 -2q31 0 31 -15q0 -17 -29 -17q-6 0 -52 1.5t-77 2.5q-21 -1 -57 -2.5t-48 -1.5q-34 0 -34 13q0 9 6.5 13t15.5 5t29 2q16 1 26.5 6t18.5 20t10.5 22.5t10.5 33.5l123 404q11 33 11 49q0 13 -9 19t-18.5 7t-29.5 1q-28 -3 -28 18
q0 5 2.5 8.5t8 4.5t9 1.5t11.5 0.5l7 -1q10 0 46 -1.5l60 -2.5q27 1 70 2.5t58 1.5q24 0 24 -15q0 -3 -0.5 -5t-1.5 -3.5t-3 -3t-3.5 -2.5t-4 -1.5t-4.5 -1t-5.5 -0.5t-5 -0.5t-5 -0.5h-5.5q-36 -1 -47.5 -16t-25.5 -61l-114 -381q-19 -61 -19 -73zM146 786v1q0 26 32 26
q22 0 55 -27l102 -85q25 -20 25 -27q0 -8 -9 -8q-5 0 -29 11l-140 69q-36 17 -36 40z" />
    <glyph glyph-name="Iacute" unicode="&#xcd;" horiz-adv-x="337" 
d="M193 59v-1q0 -13 8.5 -20t16.5 -8t23 -2q31 0 31 -15q0 -17 -29 -17q-6 0 -52 1.5t-77 2.5q-21 -1 -57 -2.5t-48 -1.5q-34 0 -34 13q0 9 6.5 13t15.5 5t29 2q16 1 26.5 6t18.5 20t10.5 22.5t10.5 33.5l123 404q11 33 11 49q0 13 -9 19t-18.5 7t-29.5 1q-28 -3 -28 18
q0 5 2.5 8.5t8 4.5t9 1.5t11.5 0.5l7 -1q10 0 46 -1.5l60 -2.5q27 1 70 2.5t58 1.5q24 0 24 -15q0 -3 -0.5 -5t-1.5 -3.5t-3 -3t-3.5 -2.5t-4 -1.5t-4.5 -1t-5.5 -0.5t-5 -0.5t-5 -0.5h-5.5q-36 -1 -47.5 -16t-25.5 -61l-114 -381q-19 -61 -19 -73zM236 666h-1q-9 0 -9 8
t29 26l120 79q39 25 58 25q15 0 25 -8.5t10 -22.5q0 -17 -11.5 -25.5t-33.5 -16.5l-154 -55q-26 -10 -33 -10z" />
    <glyph glyph-name="Icircumflex" unicode="&#xce;" horiz-adv-x="337" 
d="M193 59v-1q0 -13 8.5 -20t16.5 -8t23 -2q31 0 31 -15q0 -17 -29 -17q-6 0 -52 1.5t-77 2.5q-21 -1 -57 -2.5t-48 -1.5q-34 0 -34 13q0 9 6.5 13t15.5 5t29 2q16 1 26.5 6t18.5 20t10.5 22.5t10.5 33.5l123 404q11 33 11 49q0 13 -9 19t-18.5 7t-29.5 1q-28 -3 -28 18
q0 5 2.5 8.5t8 4.5t9 1.5t11.5 0.5l7 -1q10 0 46 -1.5l60 -2.5q27 1 70 2.5t58 1.5q24 0 24 -15q0 -3 -0.5 -5t-1.5 -3.5t-3 -3t-3.5 -2.5t-4 -1.5t-4.5 -1t-5.5 -0.5t-5 -0.5t-5 -0.5h-5.5q-36 -1 -47.5 -16t-25.5 -61l-114 -381q-19 -61 -19 -73zM321 778l-150 -97
q-26 -15 -32 -15q-10 0 -10 8q0 3 3 8t6.5 8.5t9.5 9t7 6.5l107 94q35 31 49 31h33q11 0 15.5 -4t14.5 -23l52 -102q11 -26 11 -27q0 -9 -10 -9q-7 0 -27 22z" />
    <glyph glyph-name="Idieresis" unicode="&#xcf;" horiz-adv-x="337" 
d="M193 59v-1q0 -13 8.5 -20t16.5 -8t23 -2q31 0 31 -15q0 -17 -29 -17q-6 0 -52 1.5t-77 2.5q-21 -1 -57 -2.5t-48 -1.5q-34 0 -34 13q0 9 6.5 13t15.5 5t29 2q16 1 26.5 6t18.5 20t10.5 22.5t10.5 33.5l123 404q11 33 11 49q0 13 -9 19t-18.5 7t-29.5 1q-28 -3 -28 18
q0 5 2.5 8.5t8 4.5t9 1.5t11.5 0.5l7 -1q10 0 46 -1.5l60 -2.5q27 1 70 2.5t58 1.5q24 0 24 -15q0 -3 -0.5 -5t-1.5 -3.5t-3 -3t-3.5 -2.5t-4 -1.5t-4.5 -1t-5.5 -0.5t-5 -0.5t-5 -0.5h-5.5q-36 -1 -47.5 -16t-25.5 -61l-114 -381q-19 -61 -19 -73zM220 694h-1q-16 0 -27 11
t-11 29q0 24 18 46.5t42 22.5q17 0 28.5 -11t11.5 -28q0 -25 -18 -47.5t-43 -22.5zM387 694h-1q-16 0 -27 11t-11 29q0 24 18 46.5t42 22.5q17 0 28 -11t11 -28q0 -25 -18 -47.5t-42 -22.5z" />
    <glyph glyph-name="Eth" unicode="&#xd0;" horiz-adv-x="738" 
d="M164 345l50 167q12 38 12 50q0 11 -4 17t-13.5 8t-13.5 2.5t-16 0.5q-34 0 -34 17q0 16 30 16q27 0 81 -2t81 -2q26 0 78.5 2t78.5 2q97 0 158 -43q47 -32 73 -82.5t26 -107.5q0 -81 -36.5 -158t-99.5 -132q-119 -104 -313 -104q-25 0 -87 2t-100 2q-23 0 -59 -2t-49 -2
q-33 0 -33 13t9.5 16t38.5 4q22 0 35.5 10.5t19 23.5t14.5 43l61 202h-105q-14 0 -14 6q0 3 6 21q3 10 18 10h107zM265 308l-51 -169q-18 -63 -18 -76t7.5 -21.5t22.5 -11.5t24 -3.5t26 -0.5q169 0 260 113q44 54 72 132.5t28 147.5q0 85 -50.5 128t-137.5 43q-82 0 -93 -8
q-8 -6 -21 -46l-58 -191h168q13 0 13 -6t-5 -21q-3 -10 -18 -10h-169z" />
    <glyph glyph-name="Ntilde" unicode="&#xd1;" horiz-adv-x="681" 
d="M543 162h2q17 56 50 167.5t50 167.5q14 47 14 68q0 26 -52 26q-25 0 -25 16t33 16q6 0 32.5 -2t43.5 -2q16 0 47 2t40 2q20 0 20 -15q0 -11 -9 -14t-31 -4q-29 -1 -42 -15.5t-30 -71.5q-100 -330 -149 -494q-2 -7 -3.5 -10.5t-6.5 -6.5t-13 -3q-5 0 -9 0.5t-6.5 1.5
t-4.5 3l-3 3t-2.5 5t-2.5 5l-235 536h-2q-18 -63 -52.5 -180t-42.5 -143q-33 -113 -33 -153q0 -35 49 -39q27 -2 27 -16q0 -16 -22 -16q-6 0 -40 2t-52 2q-15 0 -42 -2t-34 -2q-28 0 -28 15q0 14 23 17q37 4 51 22q16 22 40 100q85 276 110 359q14 48 14 60q0 22 -37 22
q-31 0 -31 19q0 13 27 13q6 0 30 -1t39 -1t39.5 1t31.5 1t11.5 -1.5t8 -6t5 -7t5 -11t4.5 -11.5q23 -50 90 -196.5t103 -227.5zM545 688h-1q-40 0 -89 33q-2 2 -10 7t-10.5 7t-9 6t-10.5 5.5t-9 3.5t-10 3t-10 1q-20 0 -37.5 -14.5t-29.5 -29t-17 -14.5q-8 0 -8 10
q0 22 37.5 56.5t88.5 34.5q42 0 91 -33q4 -3 14 -9.5t15 -9.5t12.5 -7t13.5 -5.5t12 -1.5q20 0 37.5 14.5t30 29t17.5 14.5q8 0 8 -10q0 -22 -38 -56.5t-88 -34.5z" />
    <glyph glyph-name="Ograve" unicode="&#xd2;" horiz-adv-x="728" 
d="M733 368v-1q0 -151 -113 -265.5t-266 -114.5q-120 0 -197 78q-81 80 -81 199q0 152 115.5 263t267.5 111q119 0 196.5 -78t77.5 -192zM458 605h-1q-119 0 -202 -153q-29 -55 -48 -124.5t-19 -119.5q0 -82 42.5 -134.5t120.5 -52.5q59 0 109.5 34t79.5 87q31 57 56 135
t25 135q0 88 -40 140.5t-123 52.5zM341 786v1q0 26 33 26q21 0 54 -27l103 -85q25 -21 25 -27q0 -8 -9 -8q-6 0 -30 11l-140 69q-36 17 -36 40z" />
    <glyph glyph-name="Oacute" unicode="&#xd3;" horiz-adv-x="728" 
d="M733 368v-1q0 -151 -113 -265.5t-266 -114.5q-120 0 -197 78q-81 80 -81 199q0 152 115.5 263t267.5 111q119 0 196.5 -78t77.5 -192zM458 605h-1q-119 0 -202 -153q-29 -55 -48 -124.5t-19 -119.5q0 -82 42.5 -134.5t120.5 -52.5q59 0 109.5 34t79.5 87q31 57 56 135
t25 135q0 88 -40 140.5t-123 52.5zM415 666h-1q-8 0 -8 8q0 7 28 26l120 79q39 25 59 25q14 0 24 -8.5t10 -22.5q0 -17 -11.5 -25.5t-33.5 -16.5l-154 -55q-26 -10 -33 -10z" />
    <glyph glyph-name="Ocircumflex" unicode="&#xd4;" horiz-adv-x="728" 
d="M733 368v-1q0 -151 -113 -265.5t-266 -114.5q-120 0 -197 78q-81 80 -81 199q0 152 115.5 263t267.5 111q119 0 196.5 -78t77.5 -192zM458 605h-1q-119 0 -202 -153q-29 -55 -48 -124.5t-19 -119.5q0 -82 42.5 -134.5t120.5 -52.5q59 0 109.5 34t79.5 87q31 57 56 135
t25 135q0 88 -40 140.5t-123 52.5zM500 778l-150 -97q-26 -15 -32 -15q-10 0 -10 8q0 4 4 9.5t13 13.5t10 9l106 94q36 31 49 31h33q11 0 15.5 -4t14.5 -23l52 -102q11 -19 11 -27q0 -9 -9 -9q-7 0 -27 22z" />
    <glyph glyph-name="Otilde" unicode="&#xd5;" horiz-adv-x="728" 
d="M733 368v-1q0 -151 -113 -265.5t-266 -114.5q-120 0 -197 78q-81 80 -81 199q0 152 115.5 263t267.5 111q119 0 196.5 -78t77.5 -192zM458 605h-1q-119 0 -202 -153q-29 -55 -48 -124.5t-19 -119.5q0 -82 42.5 -134.5t120.5 -52.5q59 0 109.5 34t79.5 87q31 57 56 135
t25 135q0 88 -40 140.5t-123 52.5zM543 688h-1q-37 0 -89 33q-47 33 -68 33q-20 0 -37.5 -14.5t-29.5 -29t-17 -14.5q-9 0 -9 10q0 22 38 56.5t89 34.5q43 0 90 -33q4 -3 14 -9.5t15 -9.5t12.5 -7t14 -5.5t12.5 -1.5q20 0 37.5 14.5t29.5 29t17 14.5q9 0 9 -10
q0 -22 -38 -56.5t-89 -34.5z" />
    <glyph glyph-name="Odieresis" unicode="&#xd6;" horiz-adv-x="728" 
d="M733 368v-1q0 -151 -113 -265.5t-266 -114.5q-120 0 -197 78q-81 80 -81 199q0 152 115.5 263t267.5 111q119 0 196.5 -78t77.5 -192zM458 605h-1q-119 0 -202 -153q-29 -55 -48 -124.5t-19 -119.5q0 -82 42.5 -134.5t120.5 -52.5q59 0 109.5 34t79.5 87q31 57 56 135
t25 135q0 88 -40 140.5t-123 52.5zM400 694h-1q-17 0 -28 11t-11 29q0 25 18.5 47t42.5 22q17 0 28 -11t11 -28q0 -25 -18 -47.5t-42 -22.5zM566 694h-1q-16 0 -27 11t-11 29q0 25 18.5 47t42.5 22q17 0 28 -11t11 -28q0 -25 -18 -47.5t-43 -22.5z" />
    <glyph glyph-name="multiply" unicode="&#xd7;" horiz-adv-x="574" 
d="M270 253l-185 185l49 49l184 -186l186 186l49 -49l-186 -185l186 -185l-49 -49l-186 186l-184 -186l-49 49z" />
    <glyph glyph-name="Oslash" unicode="&#xd8;" horiz-adv-x="732" 
d="M93 -36h-27q-10 0 -10 5q0 3 20 26l73 79q-70 76 -70 187q0 154 114.5 265.5t266.5 111.5q103 0 176 -60l62 67q15 16 23 16h28q9 0 9 -5t-19 -25l-73 -80q70 -76 70 -186q0 -151 -114 -264.5t-267 -113.5q-99 0 -176 61l-62 -68q-16 -16 -24 -16zM214 121l371 425
q-39 59 -125 59q-58 0 -109 -36.5t-83.5 -91.5t-51.5 -116t-20 -115q-2 -79 18 -125zM600 504l-370 -425q38 -58 124 -58q76 0 138.5 61.5t93 142.5t32.5 155q3 76 -18 124z" />
    <glyph glyph-name="Ugrave" unicode="&#xd9;" horiz-adv-x="653" 
d="M100 129v1q0 38 27 132q26 86 78 256q1 4 4 14t5 18.5t2 13.5q0 27 -46 27q-30 0 -30 17q0 15 35 15q15 0 54.5 -2t63.5 -2q22 0 59.5 2t52.5 2q25 0 25 -15q0 -4 -1.5 -7t-3.5 -4.5t-6.5 -3t-6.5 -1.5t-7.5 -1t-6.5 -1q-41 -1 -55 -16.5t-26 -58.5q-58 -196 -88 -295
q-23 -78 -23 -105q0 -48 38 -71t92 -23q51 0 87.5 14t60 45t36.5 61t28 79q16 51 43 143.5t35 119.5q17 57 17 78q0 14 -7.5 21t-17.5 8t-31 2q-24 0 -24 16q0 15 29 15q10 0 36.5 -2t41.5 -2q16 0 44 2t38 2q21 0 21 -15q0 -10 -7.5 -13t-28.5 -4q-28 -2 -37.5 -12.5
t-24.5 -60.5q-37 -118 -88 -289q-31 -103 -56 -142q-11 -18 -24 -31q-71 -69 -192 -69q-35 0 -70 7t-69 22.5t-55 44.5t-21 68zM320 786v1q0 26 33 26q21 0 54 -27l103 -85q25 -21 25 -27q0 -8 -9 -8q-6 0 -30 11l-140 69q-36 17 -36 40z" />
    <glyph glyph-name="Uacute" unicode="&#xda;" horiz-adv-x="653" 
d="M100 129v1q0 38 27 132q26 86 78 256q1 4 4 14t5 18.5t2 13.5q0 27 -46 27q-30 0 -30 17q0 15 35 15q15 0 54.5 -2t63.5 -2q22 0 59.5 2t52.5 2q25 0 25 -15q0 -4 -1.5 -7t-3.5 -4.5t-6.5 -3t-6.5 -1.5t-7.5 -1t-6.5 -1q-41 -1 -55 -16.5t-26 -58.5q-58 -196 -88 -295
q-23 -78 -23 -105q0 -48 38 -71t92 -23q51 0 87.5 14t60 45t36.5 61t28 79q16 51 43 143.5t35 119.5q17 57 17 78q0 14 -7.5 21t-17.5 8t-31 2q-24 0 -24 16q0 15 29 15q10 0 36.5 -2t41.5 -2q16 0 44 2t38 2q21 0 21 -15q0 -10 -7.5 -13t-28.5 -4q-28 -2 -37.5 -12.5
t-24.5 -60.5q-37 -118 -88 -289q-31 -103 -56 -142q-11 -18 -24 -31q-71 -69 -192 -69q-35 0 -70 7t-69 22.5t-55 44.5t-21 68zM417 666h-1q-8 0 -8 8q0 7 28 26l121 79q39 25 58 25q14 0 24 -8.5t10 -22.5q0 -12 -8 -20.5t-15 -12t-21 -9.5l-154 -55q-28 -10 -34 -10z" />
    <glyph glyph-name="Ucircumflex" unicode="&#xdb;" horiz-adv-x="653" 
d="M100 129v1q0 38 27 132q26 86 78 256q1 4 4 14t5 18.5t2 13.5q0 27 -46 27q-30 0 -30 17q0 15 35 15q15 0 54.5 -2t63.5 -2q22 0 59.5 2t52.5 2q25 0 25 -15q0 -4 -1.5 -7t-3.5 -4.5t-6.5 -3t-6.5 -1.5t-7.5 -1t-6.5 -1q-41 -1 -55 -16.5t-26 -58.5q-58 -196 -88 -295
q-23 -78 -23 -105q0 -48 38 -71t92 -23q51 0 87.5 14t60 45t36.5 61t28 79q16 51 43 143.5t35 119.5q17 57 17 78q0 14 -7.5 21t-17.5 8t-31 2q-24 0 -24 16q0 15 29 15q10 0 36.5 -2t41.5 -2q16 0 44 2t38 2q21 0 21 -15q0 -10 -7.5 -13t-28.5 -4q-28 -2 -37.5 -12.5
t-24.5 -60.5q-37 -118 -88 -289q-31 -103 -56 -142q-11 -18 -24 -31q-71 -69 -192 -69q-35 0 -70 7t-69 22.5t-55 44.5t-21 68zM511 778l-150 -97q-26 -15 -32 -15q-10 0 -10 8q0 4 4 9.5t13 13.5t10 9l106 94q36 31 49 31h33q11 0 15.5 -4t14.5 -23l52 -102q11 -19 11 -27
q0 -9 -9 -9q-7 0 -27 22z" />
    <glyph glyph-name="Udieresis" unicode="&#xdc;" horiz-adv-x="653" 
d="M100 129v1q0 38 27 132q26 86 78 256q1 4 4 14t5 18.5t2 13.5q0 27 -46 27q-30 0 -30 17q0 15 35 15q15 0 54.5 -2t63.5 -2q22 0 59.5 2t52.5 2q25 0 25 -15q0 -4 -1.5 -7t-3.5 -4.5t-6.5 -3t-6.5 -1.5t-7.5 -1t-6.5 -1q-41 -1 -55 -16.5t-26 -58.5q-58 -196 -88 -295
q-23 -78 -23 -105q0 -48 38 -71t92 -23q51 0 87.5 14t60 45t36.5 61t28 79q16 51 43 143.5t35 119.5q17 57 17 78q0 14 -7.5 21t-17.5 8t-31 2q-24 0 -24 16q0 15 29 15q10 0 36.5 -2t41.5 -2q16 0 44 2t38 2q21 0 21 -15q0 -10 -7.5 -13t-28.5 -4q-28 -2 -37.5 -12.5
t-24.5 -60.5q-37 -118 -88 -289q-31 -103 -56 -142q-11 -18 -24 -31q-71 -69 -192 -69q-35 0 -70 7t-69 22.5t-55 44.5t-21 68zM394 694h-1q-17 0 -27.5 11t-10.5 29q0 25 18 47t42 22q17 0 28 -11t11 -28q0 -25 -18 -47.5t-42 -22.5zM561 694h-1q-17 0 -28 11t-11 29
q0 25 18.5 47t42.5 22q17 0 28 -11t11 -28q0 -25 -18 -47.5t-42 -22.5z" />
    <glyph glyph-name="Yacute" unicode="&#xdd;" horiz-adv-x="612" 
d="M311 566v-1q0 -1 11 -41l69 -216q60 69 180 205q38 44 38 61q0 14 -43 17q-9 1 -13 2.5t-8 5t-4 10.5q0 14 27 14q9 0 33 -2t40 -2q14 0 42 2t41 2q20 0 20 -15q0 -14 -27 -17q-24 -2 -38 -12.5t-38 -37.5q-160 -182 -240 -272q-9 -32 -27.5 -92t-21.5 -70
q-12 -36 -12 -50q0 -25 32 -29q2 0 16 -1q31 0 31 -15q0 -16 -31 -16q-17 0 -62 2t-66 2q-18 0 -53.5 -2t-45.5 -2q-37 0 -37 12q0 7 3 10.5t11.5 6t15.5 3t24 1.5q19 1 32 14.5t17.5 25.5t11.5 36q34 112 50 167q-72 213 -87 256q-11 33 -22 47.5t-32 15.5q-33 3 -33 16
q0 16 36 16q17 0 51 -2t50 -2q22 0 59 2t52 2q26 0 26 -14q0 -15 -40 -18q-38 -3 -38 -25zM397 666h-1q-9 0 -9 8t29 26l120 79q39 25 58 25q15 0 25 -8.5t10 -22.5q0 -17 -11.5 -25.5t-33.5 -16.5l-154 -55q-26 -10 -33 -10z" />
    <glyph glyph-name="Thorn" unicode="&#xde;" horiz-adv-x="610" 
d="M629 373v-1q0 -58 -40.5 -109t-103.5 -77q-80 -34 -210 -36h-58q-24 -72 -24 -89q0 -32 48 -32q1 0 7.5 -0.5t9.5 -1t8 -2t7 -4.5t2 -8q0 -17 -29 -17q-16 0 -58 2t-68 2q-24 0 -61 -2t-51 -2q-31 0 -31 14q0 11 9 15t31 4q33 1 47.5 19.5t27.5 64.5l123 402q11 41 11 49
q0 13 -9.5 19t-19 7t-30.5 1q-28 -3 -28 17q0 15 38 15q15 0 50 -2t57 -2q26 0 68 2t60 2q24 0 24 -15q0 -11 -10 -14t-34 -4q-32 -2 -44.5 -22t-21.5 -61q26 -2 78 -2q128 0 175 -32q50 -34 50 -100zM300 428l-63 -210q-7 -21 -7 -30q0 -5 23 -5q123 2 182 49q36 29 57 70
t21 83q0 28 -10 46.5t-28.5 26.5t-36.5 11t-43 3q-43 0 -59 -3t-22.5 -10.5t-13.5 -30.5z" />
    <glyph glyph-name="germandbls" unicode="&#xdf;" horiz-adv-x="625" 
d="M175 407h-65q-20 0 -20 8q0 12 6 20q5 8 25 8h64q41 123 118.5 186.5t185.5 63.5q77 0 131 -33t54 -93q0 -47 -24 -77t-59 -42.5t-70 -20.5t-61.5 -19t-29.5 -30q2 -16 18 -32.5t37.5 -32.5t42.5 -37t35.5 -55t14.5 -77q0 -74 -52 -115t-122 -41q-44 0 -100 21t-56 46
q0 1 10 44q0 1 1.5 6t2.5 7.5t2.5 7t3 7t4 5.5t5.5 4t7 1q8 0 14.5 -6.5t9.5 -13.5t9 -22q8 -19 13 -28.5t15.5 -23.5t26 -20.5t36.5 -6.5q37 0 61.5 28.5t24.5 76.5q0 37 -15 66.5t-36 49t-42 37t-36 38t-15 43.5q0 33 24 50.5t58 25.5t67.5 18t57.5 38.5t24 77.5
q0 45 -29.5 72t-71.5 27q-37 0 -68 -16t-50.5 -37.5t-38 -59t-27 -63.5t-21.5 -68q-92 -307 -121 -400q-32 -108 -78 -164q-32 -39 -77.5 -62t-87.5 -23q-40 0 -66 17.5t-26 48.5q0 22 13.5 37.5t36.5 15.5q41 0 50 -39q3 -11 3 -23q0 -27 18 -27q26 0 52 43q25 42 63 166
q80 266 120 397z" />
    <glyph glyph-name="agrave" unicode="&#xe0;" horiz-adv-x="588" 
d="M25 93v1q0 58 33.5 125.5t81.5 116.5q50 53 113.5 86.5t125.5 33.5q26 0 43.5 -8t25.5 -16t9 -8t14 29q5 11 19 12q30 2 51 2q20 0 20 -13q0 -3 -6 -24q-16 -55 -49 -160.5t-46 -148.5q-9 -25 -9 -37q0 -14 9 -14q14 0 37.5 25.5t38.5 47.5q15 21 22 21q10 0 10 -11
q0 -13 -21 -43.5t-38 -46.5q-75 -75 -132 -75q-33 0 -33 37q0 23 11 56q10 31 28.5 91.5t27.5 87.5h-2q-25 -42 -56.5 -84.5t-72.5 -87.5t-86.5 -73t-85.5 -28q-38 0 -60.5 31t-22.5 75zM444 381v1q0 22 -16 33.5t-40 11.5q-79 0 -170 -115q-31 -39 -58 -96.5t-27 -97.5
q0 -21 10.5 -37t29.5 -16q59 0 169 138q31 38 66.5 94.5t35.5 83.5zM243 637v1q0 26 32 26q22 0 55 -27l103 -85q25 -21 25 -27q0 -8 -9 -8q-6 0 -30 11l-140 69q-36 17 -36 40z" />
    <glyph glyph-name="aacute" unicode="&#xe1;" horiz-adv-x="588" 
d="M25 93v1q0 58 33.5 125.5t81.5 116.5q50 53 113.5 86.5t125.5 33.5q26 0 43.5 -8t25.5 -16t9 -8t14 29q5 11 19 12q30 2 51 2q20 0 20 -13q0 -3 -6 -24q-16 -55 -49 -160.5t-46 -148.5q-9 -25 -9 -37q0 -14 9 -14q14 0 37.5 25.5t38.5 47.5q15 21 22 21q10 0 10 -11
q0 -13 -21 -43.5t-38 -46.5q-75 -75 -132 -75q-33 0 -33 37q0 23 11 56q10 31 28.5 91.5t27.5 87.5h-2q-25 -42 -56.5 -84.5t-72.5 -87.5t-86.5 -73t-85.5 -28q-38 0 -60.5 31t-22.5 75zM444 381v1q0 22 -16 33.5t-40 11.5q-79 0 -170 -115q-31 -39 -58 -96.5t-27 -97.5
q0 -21 10.5 -37t29.5 -16q59 0 169 138q31 38 66.5 94.5t35.5 83.5zM321 517h-1q-8 0 -8 8q0 7 28 26l120 79q39 25 59 25q14 0 24 -8.5t10 -22.5q0 -17 -11.5 -25.5t-33.5 -16.5l-154 -55q-26 -10 -33 -10z" />
    <glyph glyph-name="acircumflex" unicode="&#xe2;" horiz-adv-x="588" 
d="M25 93v1q0 58 33.5 125.5t81.5 116.5q50 53 113.5 86.5t125.5 33.5q26 0 43.5 -8t25.5 -16t9 -8t14 29q5 11 19 12q30 2 51 2q20 0 20 -13q0 -3 -6 -24q-16 -55 -49 -160.5t-46 -148.5q-9 -25 -9 -37q0 -14 9 -14q14 0 37.5 25.5t38.5 47.5q15 21 22 21q10 0 10 -11
q0 -13 -21 -43.5t-38 -46.5q-75 -75 -132 -75q-33 0 -33 37q0 23 11 56q10 31 28.5 91.5t27.5 87.5h-2q-25 -42 -56.5 -84.5t-72.5 -87.5t-86.5 -73t-85.5 -28q-38 0 -60.5 31t-22.5 75zM444 381v1q0 22 -16 33.5t-40 11.5q-79 0 -170 -115q-31 -39 -58 -96.5t-27 -97.5
q0 -21 10.5 -37t29.5 -16q59 0 169 138q31 38 66.5 94.5t35.5 83.5zM427 629l-150 -97q-26 -15 -32 -15q-10 0 -10 8t27 32l106 94q35 31 49 31h33q11 0 15.5 -4t14.5 -23l52 -102q11 -19 11 -27q0 -9 -10 -9q-5 0 -27 22z" />
    <glyph glyph-name="atilde" unicode="&#xe3;" horiz-adv-x="588" 
d="M25 93v1q0 58 33.5 125.5t81.5 116.5q50 53 113.5 86.5t125.5 33.5q26 0 43.5 -8t25.5 -16t9 -8t14 29q5 11 19 12q30 2 51 2q20 0 20 -13q0 -3 -6 -24q-16 -55 -49 -160.5t-46 -148.5q-9 -25 -9 -37q0 -14 9 -14q14 0 37.5 25.5t38.5 47.5q15 21 22 21q10 0 10 -11
q0 -13 -21 -43.5t-38 -46.5q-75 -75 -132 -75q-33 0 -33 37q0 23 11 56q10 31 28.5 91.5t27.5 87.5h-2q-25 -42 -56.5 -84.5t-72.5 -87.5t-86.5 -73t-85.5 -28q-38 0 -60.5 31t-22.5 75zM444 381v1q0 22 -16 33.5t-40 11.5q-79 0 -170 -115q-31 -39 -58 -96.5t-27 -97.5
q0 -21 10.5 -37t29.5 -16q59 0 169 138q31 38 66.5 94.5t35.5 83.5zM458 539h-1q-37 0 -89 33q-47 33 -68 33q-20 0 -37.5 -14.5t-30 -29t-17.5 -14.5q-8 0 -8 10q0 22 38 56.5t88 34.5q42 0 91 -33q4 -3 14 -9.5t15 -9.5t12.5 -7t14 -5.5t12.5 -1.5q20 0 37.5 14.5t29.5 29
t17 14.5q8 0 8 -10q0 -22 -37.5 -56.5t-88.5 -34.5z" />
    <glyph glyph-name="adieresis" unicode="&#xe4;" horiz-adv-x="588" 
d="M25 93v1q0 58 33.5 125.5t81.5 116.5q50 53 113.5 86.5t125.5 33.5q26 0 43.5 -8t25.5 -16t9 -8t14 29q5 11 19 12q30 2 51 2q20 0 20 -13q0 -3 -6 -24q-16 -55 -49 -160.5t-46 -148.5q-9 -25 -9 -37q0 -14 9 -14q14 0 37.5 25.5t38.5 47.5q15 21 22 21q10 0 10 -11
q0 -13 -21 -43.5t-38 -46.5q-75 -75 -132 -75q-33 0 -33 37q0 23 11 56q10 31 28.5 91.5t27.5 87.5h-2q-25 -42 -56.5 -84.5t-72.5 -87.5t-86.5 -73t-85.5 -28q-38 0 -60.5 31t-22.5 75zM444 381v1q0 22 -16 33.5t-40 11.5q-79 0 -170 -115q-31 -39 -58 -96.5t-27 -97.5
q0 -21 10.5 -37t29.5 -16q59 0 169 138q31 38 66.5 94.5t35.5 83.5zM316 545h-1q-17 0 -28 11t-11 29q0 25 18.5 47t42.5 22q17 0 28 -11t11 -28q0 -25 -18 -47.5t-42 -22.5zM482 545h-1q-16 0 -27 11t-11 29q0 25 18.5 47t42.5 22q17 0 28 -11t11 -28q0 -25 -18 -47.5
t-43 -22.5z" />
    <glyph glyph-name="aring" unicode="&#xe5;" horiz-adv-x="588" 
d="M25 93v1q0 58 33.5 125.5t81.5 116.5q50 53 113.5 86.5t125.5 33.5q26 0 43.5 -8t25.5 -16t9 -8t14 29q5 11 19 12q30 2 51 2q20 0 20 -13q0 -3 -6 -24q-16 -55 -49 -160.5t-46 -148.5q-9 -25 -9 -37q0 -14 9 -14q14 0 37.5 25.5t38.5 47.5q15 21 22 21q10 0 10 -11
q0 -13 -21 -43.5t-38 -46.5q-75 -75 -132 -75q-33 0 -33 37q0 23 11 56q10 31 28.5 91.5t27.5 87.5h-2q-25 -42 -56.5 -84.5t-72.5 -87.5t-86.5 -73t-85.5 -28q-38 0 -60.5 31t-22.5 75zM444 381v1q0 22 -16 33.5t-40 11.5q-79 0 -170 -115q-31 -39 -58 -96.5t-27 -97.5
q0 -21 10.5 -37t29.5 -16q59 0 169 138q31 38 66.5 94.5t35.5 83.5zM409 515h-1q-42 0 -72 29.5t-30 71.5q0 43 30 72t73 29q42 0 72 -29.5t30 -71.5t-30 -71.5t-72 -29.5zM409 551h1q26 0 44.5 19t18.5 46q0 28 -18.5 46.5t-45.5 18.5q-28 0 -46.5 -18.5t-18.5 -46.5
q0 -27 18.5 -46t46.5 -19z" />
    <glyph glyph-name="ae" unicode="&#xe6;" horiz-adv-x="792" 
d="M383 180h-2q-156 -193 -267 -193q-40 0 -65 27.5t-25 73.5q0 82 53.5 168t138 143t166.5 57q57 0 87 -35q3 5 8.5 17.5t10.5 18.5t14 6h36q23 0 23 -9q0 -6 -10 -38q55 42 122 42q47 0 86.5 -24t39.5 -73q0 -32 -16.5 -58.5t-39 -42.5t-57 -29t-59.5 -19t-59 -12
q-43 -7 -85 -12q-3 -18 -3 -34q0 -47 23.5 -78t62.5 -31q57 0 120 59q5 5 15.5 17t16.5 17t10 5q10 0 10 -10q0 -11 -26 -44q-36 -43 -87.5 -72.5t-101.5 -29.5q-65 0 -105 42t-40 104q0 24 5 47zM714 380v1q0 24 -13 37.5t-37 13.5q-61 0 -111 -67.5t-67 -149.5
q228 29 228 165zM447 385v1q0 18 -15.5 28.5t-36.5 10.5q-55 0 -119 -55t-105 -128.5t-41 -127.5q0 -22 12 -38t33 -16q47 0 113 62.5t112.5 140t46.5 122.5z" />
    <glyph glyph-name="ccedilla" unicode="&#xe7;" horiz-adv-x="465" 
d="M198 -12l-25 -40q14 2 24 2q33 0 56.5 -16.5t23.5 -46.5q0 -41 -37 -66.5t-84 -25.5q-35 0 -67.5 14t-32.5 37q0 8 6 14.5t14 6.5q13 0 23 -12t23.5 -24t36.5 -12q26 0 44 17t18 41q0 41 -50 41q-7 0 -21 -2.5t-19 -2.5q-9 0 -9 7q0 4 11 20l33 51q-56 10 -91 56t-35 107
q0 53 25.5 107t68.5 97t102 71.5t119 28.5q42 0 78.5 -15.5t36.5 -41.5q0 -17 -13.5 -28t-30.5 -11q-25 0 -45 16q-16 16 -24 31q-15 20 -31 20q-46 0 -104 -73q-33 -40 -55 -96t-22 -104q0 -47 23 -76.5t66 -29.5q67 0 127 58q11 10 24.5 24t21 20.5t11.5 6.5q9 0 9 -10
q0 -15 -40 -62q-90 -98 -189 -99z" />
    <glyph glyph-name="egrave" unicode="&#xe8;" horiz-adv-x="452" 
d="M467 362v-1q0 -27 -12 -50t-27.5 -38.5t-45.5 -29t-50 -20.5t-58.5 -14.5t-53 -10t-50.5 -6.5q-10 -1 -15 -2q-3 -1 -9 -2t-9 -2q-2 -12 -2 -36q0 -48 25 -76.5t70 -28.5q40 0 81.5 25.5t66.5 59.5q11 13 18 13q10 0 10 -10q0 -5 -26 -42q-91 -104 -200 -104
q-69 0 -109 46t-40 112q0 75 43.5 147.5t116 119t151.5 46.5q45 0 85 -24.5t40 -71.5zM331 432h-1q-64 0 -115.5 -66.5t-72.5 -151.5q164 20 211 83q30 42 30 84q0 24 -14 37.5t-38 13.5zM176 637v1q0 26 32 26q22 0 55 -27l102 -85q25 -20 25 -27q0 -8 -9 -8q-5 0 -29 11
l-140 69q-36 17 -36 40z" />
    <glyph glyph-name="eacute" unicode="&#xe9;" horiz-adv-x="452" 
d="M467 362v-1q0 -27 -12 -50t-27.5 -38.5t-45.5 -29t-50 -20.5t-58.5 -14.5t-53 -10t-50.5 -6.5q-10 -1 -15 -2q-3 -1 -9 -2t-9 -2q-2 -12 -2 -36q0 -48 25 -76.5t70 -28.5q40 0 81.5 25.5t66.5 59.5q11 13 18 13q10 0 10 -10q0 -5 -26 -42q-91 -104 -200 -104
q-69 0 -109 46t-40 112q0 75 43.5 147.5t116 119t151.5 46.5q45 0 85 -24.5t40 -71.5zM331 432h-1q-64 0 -115.5 -66.5t-72.5 -151.5q164 20 211 83q30 42 30 84q0 24 -14 37.5t-38 13.5zM253 517h-1q-8 0 -8 8q0 9 28 26l120 79q39 25 58 25q15 0 25 -8.5t10 -22.5
q0 -17 -11.5 -25.5t-33.5 -16.5l-154 -55q-26 -10 -33 -10z" />
    <glyph glyph-name="ecircumflex" unicode="&#xea;" horiz-adv-x="452" 
d="M467 362v-1q0 -27 -12 -50t-27.5 -38.5t-45.5 -29t-50 -20.5t-58.5 -14.5t-53 -10t-50.5 -6.5q-10 -1 -15 -2q-3 -1 -9 -2t-9 -2q-2 -12 -2 -36q0 -48 25 -76.5t70 -28.5q40 0 81.5 25.5t66.5 59.5q11 13 18 13q10 0 10 -10q0 -5 -26 -42q-91 -104 -200 -104
q-69 0 -109 46t-40 112q0 75 43.5 147.5t116 119t151.5 46.5q45 0 85 -24.5t40 -71.5zM331 432h-1q-64 0 -115.5 -66.5t-72.5 -151.5q164 20 211 83q30 42 30 84q0 24 -14 37.5t-38 13.5zM363 629l-150 -97q-26 -15 -32 -15q-10 0 -10 8q0 3 3 8t6.5 8.5t9.5 9t7 6.5l107 94
q35 31 49 31h33q11 0 15.5 -4t14.5 -23l52 -102q11 -26 11 -27q0 -9 -10 -9q-7 0 -27 22z" />
    <glyph glyph-name="edieresis" unicode="&#xeb;" horiz-adv-x="452" 
d="M467 362v-1q0 -27 -12 -50t-27.5 -38.5t-45.5 -29t-50 -20.5t-58.5 -14.5t-53 -10t-50.5 -6.5q-10 -1 -15 -2q-3 -1 -9 -2t-9 -2q-2 -12 -2 -36q0 -48 25 -76.5t70 -28.5q40 0 81.5 25.5t66.5 59.5q11 13 18 13q10 0 10 -10q0 -5 -26 -42q-91 -104 -200 -104
q-69 0 -109 46t-40 112q0 75 43.5 147.5t116 119t151.5 46.5q45 0 85 -24.5t40 -71.5zM331 432h-1q-64 0 -115.5 -66.5t-72.5 -151.5q164 20 211 83q30 42 30 84q0 24 -14 37.5t-38 13.5zM245 545h-1q-16 0 -27 11t-11 29q0 25 18.5 47t42.5 22q17 0 28 -11t11 -28
q0 -25 -18 -47.5t-43 -22.5zM412 545h-1q-16 0 -27 11t-11 29q0 24 18 46.5t42 22.5q17 0 28.5 -11t11.5 -28q0 -25 -18 -47.5t-43 -22.5z" />
    <glyph glyph-name="igrave" unicode="&#xec;" horiz-adv-x="324" 
d="M281 419v-1q0 -17 -16 -70q-13 -41 -37.5 -117t-33.5 -106q-10 -32 -10 -42q0 -18 12 -18t33 22t38 47q20 32 28 32q9 0 9 -10q0 -15 -41 -73q-28 -35 -68 -65.5t-74 -30.5q-41 0 -41 48q0 27 18 85q9 31 33 106t36 113q9 27 9 32q0 17 -12 17q-18 0 -56 -42
q-5 -5 -11.5 -12.5t-11 -12t-8.5 -9t-7.5 -6.5t-5.5 -2q-8 0 -8 10q0 19 50 69q78 75 135 75q40 0 40 -39zM116 637v1q0 26 32 26q22 0 55 -27l103 -85q25 -21 25 -27q0 -8 -9 -8q-6 0 -30 11l-140 69q-36 17 -36 40z" />
    <glyph glyph-name="iacute" unicode="&#xed;" horiz-adv-x="324" 
d="M281 419v-1q0 -17 -16 -70q-13 -41 -37.5 -117t-33.5 -106q-10 -32 -10 -42q0 -18 12 -18t33 22t38 47q20 32 28 32q9 0 9 -10q0 -15 -41 -73q-28 -35 -68 -65.5t-74 -30.5q-41 0 -41 48q0 27 18 85q9 31 33 106t36 113q9 27 9 32q0 17 -12 17q-18 0 -56 -42
q-5 -5 -11.5 -12.5t-11 -12t-8.5 -9t-7.5 -6.5t-5.5 -2q-8 0 -8 10q0 19 50 69q78 75 135 75q40 0 40 -39zM177 517h-1q-8 0 -8 8q0 7 28 26l120 79q39 25 59 25q14 0 24 -8.5t10 -22.5q0 -17 -11.5 -25.5t-33.5 -16.5l-154 -55q-26 -10 -33 -10z" />
    <glyph glyph-name="icircumflex" unicode="&#xee;" horiz-adv-x="324" 
d="M281 419v-1q0 -17 -16 -70q-13 -41 -37.5 -117t-33.5 -106q-10 -32 -10 -42q0 -18 12 -18t33 22t38 47q20 32 28 32q9 0 9 -10q0 -15 -41 -73q-28 -35 -68 -65.5t-74 -30.5q-41 0 -41 48q0 27 18 85q9 31 33 106t36 113q9 27 9 32q0 17 -12 17q-18 0 -56 -42
q-5 -5 -11.5 -12.5t-11 -12t-8.5 -9t-7.5 -6.5t-5.5 -2q-8 0 -8 10q0 19 50 69q78 75 135 75q40 0 40 -39zM274 629l-150 -97q-26 -15 -32 -15q-10 0 -10 8q0 4 4 9.5t13 13.5t10 9l106 94q36 31 49 31h33q11 0 15.5 -4t14.5 -23l52 -102q11 -19 11 -27q0 -9 -9 -9
q-7 0 -27 22z" />
    <glyph glyph-name="idieresis" unicode="&#xef;" horiz-adv-x="324" 
d="M281 419v-1q0 -17 -16 -70q-13 -41 -37.5 -117t-33.5 -106q-10 -32 -10 -42q0 -18 12 -18t33 22t38 47q20 32 28 32q9 0 9 -10q0 -15 -41 -73q-28 -35 -68 -65.5t-74 -30.5q-41 0 -41 48q0 27 18 85q9 31 33 106t36 113q9 27 9 32q0 17 -12 17q-18 0 -56 -42
q-5 -5 -11.5 -12.5t-11 -12t-8.5 -9t-7.5 -6.5t-5.5 -2q-8 0 -8 10q0 19 50 69q78 75 135 75q40 0 40 -39zM166 545h-1q-17 0 -28 11t-11 29q0 25 18.5 47t42.5 22q17 0 28 -11t11 -28q0 -25 -18 -47.5t-42 -22.5zM332 545h-1q-16 0 -27 11t-11 29q0 25 18.5 47t42.5 22
q17 0 28 -11t11 -28q0 -25 -18 -47.5t-43 -22.5z" />
    <glyph glyph-name="eth" unicode="&#xf0;" horiz-adv-x="523" 
d="M375 631l92 48q20 10 28 10t14 -6t6 -12q0 -7 -16 -16l-92 -48q104 -99 104 -261q0 -78 -20 -141.5t-51 -103t-70 -66t-75.5 -37.5t-69.5 -11q-82 0 -131.5 59t-49.5 139q0 103 83.5 188t190.5 85q59 0 93 -34q-13 94 -61 155l-103 -55q-18 -9 -26 -9t-14 6.5t-6 12.5
q0 7 14 15l109 57q-30 29 -72 48q-37 17 -37 25q0 14 17 14q23 0 71.5 -21.5t71.5 -40.5zM414 316v1q0 112 -87 112q-69 0 -124 -81q-30 -45 -47 -103t-17 -106q0 -51 20.5 -86t68.5 -35q69 0 123 87q29 47 46 106t17 105z" />
    <glyph glyph-name="ntilde" unicode="&#xf1;" horiz-adv-x="638" 
d="M584 394v-1q0 -18 -17 -67q-10 -28 -34 -91.5t-37 -98.5q-18 -42 -18 -57q0 -19 18 -19q26 0 74 60q3 4 12.5 17t15 19t10.5 6q10 0 10 -10q0 -23 -49 -75q-30 -33 -71 -61.5t-74 -28.5q-50 0 -50 48q0 38 26 102q3 8 27.5 72.5t37.5 100.5q16 45 16 59q0 31 -30 31
q-52 0 -138 -111q-37 -46 -79.5 -121t-59.5 -130q-8 -26 -15.5 -32.5t-33.5 -6.5h-20q-31 0 -31 14q0 11 7 28q40 124 87 277q12 34 12 52q0 21 -18 21q-12 0 -35 -21t-41 -45q-19 -27 -23 -27q-11 0 -11 10q0 9 17 33.5t29 36.5q73 80 130 80q47 0 47 -52q0 -32 -15 -79
q-7 -23 -20.5 -66.5t-17.5 -55.5l2 -2q24 43 52 82.5t66 81t82.5 66.5t88.5 25q32 0 51.5 -18t19.5 -46zM483 539h-1q-40 0 -89 33q-47 33 -68 33q-20 0 -38 -14.5t-30 -29t-17 -14.5q-8 0 -8 10q0 22 38 56.5t88 34.5q42 0 91 -33q4 -3 14 -9.5t15 -9.5t12.5 -7t13.5 -5.5
t12 -1.5q20 0 38 14.5t30 29t17 14.5q8 0 8 -10q0 -22 -38 -56.5t-88 -34.5z" />
    <glyph glyph-name="ograve" unicode="&#xf2;" horiz-adv-x="521" 
d="M505 262v-1q0 -49 -22.5 -98.5t-59.5 -86.5q-39 -39 -93 -64t-105 -25q-81 0 -131.5 58t-50.5 138q0 106 84 190.5t190 84.5q81 0 134.5 -58t53.5 -138zM413 316v1q0 48 -20.5 80t-66.5 32q-71 0 -124 -81q-30 -45 -47 -103t-17 -106q0 -52 20.5 -86.5t67.5 -34.5
q68 0 124 87q29 46 46 105t17 106zM208 637v1q0 26 32 26q22 0 55 -27l102 -85q25 -20 25 -27q0 -8 -9 -8q-5 0 -29 11l-140 69q-36 17 -36 40z" />
    <glyph glyph-name="oacute" unicode="&#xf3;" horiz-adv-x="521" 
d="M505 262v-1q0 -49 -22.5 -98.5t-59.5 -86.5q-39 -39 -93 -64t-105 -25q-81 0 -131.5 58t-50.5 138q0 106 84 190.5t190 84.5q81 0 134.5 -58t53.5 -138zM413 316v1q0 48 -20.5 80t-66.5 32q-71 0 -124 -81q-30 -45 -47 -103t-17 -106q0 -52 20.5 -86.5t67.5 -34.5
q68 0 124 87q29 46 46 105t17 106zM284 517h-1q-9 0 -9 8t29 26l120 79q39 25 58 25q15 0 25 -8.5t10 -22.5q0 -17 -11.5 -25.5t-33.5 -16.5l-154 -55q-26 -10 -33 -10z" />
    <glyph glyph-name="ocircumflex" unicode="&#xf4;" horiz-adv-x="521" 
d="M505 262v-1q0 -49 -22.5 -98.5t-59.5 -86.5q-39 -39 -93 -64t-105 -25q-81 0 -131.5 58t-50.5 138q0 106 84 190.5t190 84.5q81 0 134.5 -58t53.5 -138zM413 316v1q0 48 -20.5 80t-66.5 32q-71 0 -124 -81q-30 -45 -47 -103t-17 -106q0 -52 20.5 -86.5t67.5 -34.5
q68 0 124 87q29 46 46 105t17 106zM373 629l-150 -97q-26 -15 -32 -15q-10 0 -10 8q0 3 3 8t6.5 8.5t9.5 9t7 6.5l107 94q35 31 49 31h33q11 0 15.5 -4t14.5 -23l52 -102q11 -26 11 -27q0 -9 -10 -9q-7 0 -27 22z" />
    <glyph glyph-name="otilde" unicode="&#xf5;" horiz-adv-x="521" 
d="M505 262v-1q0 -49 -22.5 -98.5t-59.5 -86.5q-39 -39 -93 -64t-105 -25q-81 0 -131.5 58t-50.5 138q0 106 84 190.5t190 84.5q81 0 134.5 -58t53.5 -138zM413 316v1q0 48 -20.5 80t-66.5 32q-71 0 -124 -81q-30 -45 -47 -103t-17 -106q0 -52 20.5 -86.5t67.5 -34.5
q68 0 124 87q29 46 46 105t17 106zM422 539h-1q-39 0 -89 33q-47 33 -68 33q-20 0 -38 -14.5t-30 -29t-17 -14.5q-8 0 -8 10q0 22 38 56.5t88 34.5q42 0 91 -33q4 -3 14 -9.5t15 -9.5t12.5 -7t13.5 -5.5t12 -1.5q20 0 38 14.5t30 29t17 14.5q8 0 8 -10q0 -22 -38 -56.5
t-88 -34.5z" />
    <glyph glyph-name="odieresis" unicode="&#xf6;" horiz-adv-x="521" 
d="M505 262v-1q0 -49 -22.5 -98.5t-59.5 -86.5q-39 -39 -93 -64t-105 -25q-81 0 -131.5 58t-50.5 138q0 106 84 190.5t190 84.5q81 0 134.5 -58t53.5 -138zM413 316v1q0 48 -20.5 80t-66.5 32q-71 0 -124 -81q-30 -45 -47 -103t-17 -106q0 -52 20.5 -86.5t67.5 -34.5
q68 0 124 87q29 46 46 105t17 106zM264 545h-1q-16 0 -27 11t-11 29q0 24 18 46.5t42 22.5q17 0 28.5 -11t11.5 -28q0 -25 -18 -47.5t-43 -22.5zM431 545h-1q-16 0 -27 11t-11 29q0 24 18 46.5t42 22.5q17 0 28 -11t11 -28q0 -25 -18 -47.5t-42 -22.5z" />
    <glyph glyph-name="divide" unicode="&#xf7;" horiz-adv-x="574" 
d="M253 460v1q0 27 20 46.5t46 19.5q27 0 47 -20t20 -47q0 -25 -20 -45.5t-46 -20.5q-27 0 -47 19.5t-20 46.5zM571 218h-504v70h504v-70zM253 46v1q0 27 19.5 46t46.5 19t47 -19.5t20 -46.5q0 -25 -20 -46t-46 -21q-27 0 -47 20t-20 47z" />
    <glyph glyph-name="oslash" unicode="&#xf8;" horiz-adv-x="519" 
d="M53 -47h-19q-12 0 -12 5q0 4 20 28l48 60q-50 55 -50 138q0 107 85 190.5t194 83.5q62 0 105 -34l45 54q13 15 20 15h19q13 0 13 -6q0 -4 -20 -28l-49 -59q51 -58 51 -139q0 -106 -85 -190t-194 -84q-61 0 -106 35l-45 -54q-13 -15 -20 -15zM143 88l245 307
q-18 33 -68 33q-56 0 -99 -47.5t-62.5 -107t-21.5 -116.5q0 -33 6 -69zM401 357l-245 -307q16 -33 67 -33q53 0 96 49t64 109.5t23 113.5q1 31 -5 68z" />
    <glyph glyph-name="ugrave" unicode="&#xf9;" horiz-adv-x="630" 
d="M74 44v1q0 32 20 87q11 32 70 203q12 27 12 40q0 16 -13 16q-27 0 -75 -68q-2 -3 -5.5 -7.5t-6 -7t-5 -5.5t-5 -4.5t-5.5 -1.5q-8 0 -8 12q0 13 26.5 48t71.5 68t85 33q18 0 29.5 -12.5t11.5 -32.5q0 -23 -15 -66q-61 -181 -73 -218q-12 -36 -12 -50q0 -26 24 -26
q27 0 72.5 37.5t71.5 73.5q93 114 132 244q8 25 12 31.5t13 7.5q9 2 63 2q15 0 15 -11q0 -7 -6 -25q-16 -52 -86 -280q-11 -44 -11 -51q0 -19 15 -19q19 0 47.5 30.5t45.5 57.5q10 15 17 15q10 0 10 -9q0 -12 -19 -39.5t-47 -56.5t-66.5 -51.5t-72.5 -22.5q-33 0 -33 40
q0 44 53 200l-4 1q-60 -93 -146 -167t-154 -74q-49 0 -49 57zM257 637v1q0 26 32 26q22 0 55 -27l102 -85q25 -20 25 -27q0 -8 -9 -8q-5 0 -29 11l-140 69q-36 17 -36 40z" />
    <glyph glyph-name="uacute" unicode="&#xfa;" horiz-adv-x="630" 
d="M74 44v1q0 32 20 87q11 32 70 203q12 27 12 40q0 16 -13 16q-27 0 -75 -68q-2 -3 -5.5 -7.5t-6 -7t-5 -5.5t-5 -4.5t-5.5 -1.5q-8 0 -8 12q0 13 26.5 48t71.5 68t85 33q18 0 29.5 -12.5t11.5 -32.5q0 -23 -15 -66q-61 -181 -73 -218q-12 -36 -12 -50q0 -26 24 -26
q27 0 72.5 37.5t71.5 73.5q93 114 132 244q8 25 12 31.5t13 7.5q9 2 63 2q15 0 15 -11q0 -7 -6 -25q-16 -52 -86 -280q-11 -44 -11 -51q0 -19 15 -19q19 0 47.5 30.5t45.5 57.5q10 15 17 15q10 0 10 -9q0 -12 -19 -39.5t-47 -56.5t-66.5 -51.5t-72.5 -22.5q-33 0 -33 40
q0 44 53 200l-4 1q-60 -93 -146 -167t-154 -74q-49 0 -49 57zM330 517h-1q-8 0 -8 8q0 9 28 26l120 79q39 25 58 25q15 0 25 -8.5t10 -22.5q0 -17 -11.5 -25.5t-33.5 -16.5l-154 -55q-26 -10 -33 -10z" />
    <glyph glyph-name="ucircumflex" unicode="&#xfb;" horiz-adv-x="630" 
d="M74 44v1q0 32 20 87q11 32 70 203q12 27 12 40q0 16 -13 16q-27 0 -75 -68q-2 -3 -5.5 -7.5t-6 -7t-5 -5.5t-5 -4.5t-5.5 -1.5q-8 0 -8 12q0 13 26.5 48t71.5 68t85 33q18 0 29.5 -12.5t11.5 -32.5q0 -23 -15 -66q-61 -181 -73 -218q-12 -36 -12 -50q0 -26 24 -26
q27 0 72.5 37.5t71.5 73.5q93 114 132 244q8 25 12 31.5t13 7.5q9 2 63 2q15 0 15 -11q0 -7 -6 -25q-16 -52 -86 -280q-11 -44 -11 -51q0 -19 15 -19q19 0 47.5 30.5t45.5 57.5q10 15 17 15q10 0 10 -9q0 -12 -19 -39.5t-47 -56.5t-66.5 -51.5t-72.5 -22.5q-33 0 -33 40
q0 44 53 200l-4 1q-60 -93 -146 -167t-154 -74q-49 0 -49 57zM428 629l-150 -97q-26 -15 -32 -15q-10 0 -10 8q0 3 3 8t6.5 8.5t9.5 9t7 6.5l107 94q35 31 49 31h33q11 0 15.5 -4t14.5 -23l52 -102q11 -26 11 -27q0 -9 -10 -9q-7 0 -27 22z" />
    <glyph glyph-name="udieresis" unicode="&#xfc;" horiz-adv-x="630" 
d="M74 44v1q0 32 20 87q11 32 70 203q12 27 12 40q0 16 -13 16q-27 0 -75 -68q-2 -3 -5.5 -7.5t-6 -7t-5 -5.5t-5 -4.5t-5.5 -1.5q-8 0 -8 12q0 13 26.5 48t71.5 68t85 33q18 0 29.5 -12.5t11.5 -32.5q0 -23 -15 -66q-61 -181 -73 -218q-12 -36 -12 -50q0 -26 24 -26
q27 0 72.5 37.5t71.5 73.5q93 114 132 244q8 25 12 31.5t13 7.5q9 2 63 2q15 0 15 -11q0 -7 -6 -25q-16 -52 -86 -280q-11 -44 -11 -51q0 -19 15 -19q19 0 47.5 30.5t45.5 57.5q10 15 17 15q10 0 10 -9q0 -12 -19 -39.5t-47 -56.5t-66.5 -51.5t-72.5 -22.5q-33 0 -33 40
q0 44 53 200l-4 1q-60 -93 -146 -167t-154 -74q-49 0 -49 57zM314 545h-1q-16 0 -27 11t-11 29q0 25 18.5 47t42.5 22q17 0 28 -11t11 -28q0 -25 -18 -47.5t-43 -22.5zM481 545h-1q-16 0 -27 11t-11 29q0 24 18 46.5t42 22.5q17 0 28.5 -11t11.5 -28q0 -25 -18 -47.5
t-43 -22.5z" />
    <glyph glyph-name="yacute" unicode="&#xfd;" horiz-adv-x="493" 
d="M512 390v-1q0 -120 -228 -388q-10 -12 -30 -35t-23 -27q-30 -34 -52.5 -57.5t-55.5 -51.5t-65.5 -42.5t-63.5 -14.5q-29 0 -53.5 17t-24.5 42q0 17 12.5 29t29.5 12q24 0 46 -28q22 -24 41 -24q30 0 61 29t49 61q21 40 26 86q3 63 3 132q0 4 -0.5 21.5t-1.5 31.5t-2 37
t-2.5 41t-4 39t-6 37t-8 30t-10.5 21t-13 7q-16 0 -35 -24.5t-29 -45.5q-14 -28 -22 -28q-9 0 -9 12q0 25 38 76q56 74 109 74q49 0 75 -110q16 -77 16 -196q0 -18 -2.5 -56t-2.5 -60l1 -2q48 59 105 136q65 96 65 151q0 18 -12 44q-15 30 -15 42q0 20 13 35.5t33 15.5
q24 0 36 -22t12 -46zM290 517h-1q-8 0 -8 8q0 7 28 26l121 79q39 25 58 25q14 0 24 -8.5t10 -22.5q0 -12 -8 -20.5t-15 -12t-21 -9.5l-154 -55q-28 -10 -34 -10z" />
    <glyph glyph-name="thorn" unicode="&#xfe;" horiz-adv-x="535" 
d="M534 315v-1q0 -58 -27 -119.5t-71 -106.5q-41 -45 -97.5 -71.5t-116.5 -26.5q-50 -1 -93 35q-6 -19 -17.5 -57.5t-17.5 -57.5q-13 -49 -13 -57q0 -41 55 -43q35 -2 39 -9q2 -2 2 -6q0 -16 -26 -16q-25 0 -58 3q-42 2 -62 2q-30 0 -78 -5q-12 -1 -26.5 -2t-23 -2t-11.5 -1
q-17 0 -17 14q0 17 45 21q35 3 48 21t29 74q1 2 1 3t1 3t1.5 3.5t0.5 3.5l141 467q3 5 -2 5h-2q-6 -2 -24.5 -8.5t-34 -12t-20.5 -5.5q-12 0 -12 11q0 4 1.5 7t5.5 6t6.5 4.5l7.5 4.5t6 3q23 10 71 26q11 4 15 18l36 110q9 25 9 37q0 27 -38 27h-3q-26 4 -28 14q0 15 37 17
q67 3 125 33l24 12q11 0 11 -12q0 -6 -7 -26q-31 -87 -71 -208q17 4 53 8q36 2 51 2q75 0 125 -33.5t50 -108.5zM434 324v1q0 49 -28.5 73.5t-78.5 24.5q-35 0 -81 -13q-2 -8 -9 -28.5t-10 -32.5q-24 -81 -64 -207q-14 -47 -14 -68q0 -27 22 -40t52 -13q83 0 150 113
q61 102 61 190z" />
    <glyph glyph-name="ydieresis" unicode="&#xff;" horiz-adv-x="493" 
d="M512 390v-1q0 -120 -228 -388q-10 -12 -30 -35t-23 -27q-30 -34 -52.5 -57.5t-55.5 -51.5t-65.5 -42.5t-63.5 -14.5q-29 0 -53.5 17t-24.5 42q0 17 12.5 29t29.5 12q24 0 46 -28q22 -24 41 -24q30 0 61 29t49 61q21 40 26 86q3 63 3 132q0 4 -0.5 21.5t-1.5 31.5t-2 37
t-2.5 41t-4 39t-6 37t-8 30t-10.5 21t-13 7q-16 0 -35 -24.5t-29 -45.5q-14 -28 -22 -28q-9 0 -9 12q0 25 38 76q56 74 109 74q49 0 75 -110q16 -77 16 -196q0 -18 -2.5 -56t-2.5 -60l1 -2q48 59 105 136q65 96 65 151q0 18 -12 44q-15 30 -15 42q0 20 13 35.5t33 15.5
q24 0 36 -22t12 -46zM250 545h-1q-17 0 -27.5 11t-10.5 29q0 25 18 47t42 22q17 0 28 -11t11 -28q0 -25 -18 -47.5t-42 -22.5zM417 545h-1q-17 0 -28 11t-11 29q0 25 18.5 47t42.5 22q17 0 28 -11t11 -28q0 -25 -18 -47.5t-42 -22.5z" />
    <glyph glyph-name="dotlessi" unicode="&#x131;" horiz-adv-x="324" 
d="M281 419v-1q0 -17 -16 -70q-13 -41 -37.5 -117t-33.5 -106q-10 -32 -10 -42q0 -18 12 -18t33 22t38 47q20 32 28 32q9 0 9 -10q0 -15 -41 -73q-28 -35 -68 -65.5t-74 -30.5q-41 0 -41 48q0 27 18 85q9 31 33 106t36 113q9 27 9 32q0 17 -12 17q-18 0 -56 -42
q-5 -5 -11.5 -12.5t-11 -12t-8.5 -9t-7.5 -6.5t-5.5 -2q-8 0 -8 10q0 19 50 69q78 75 135 75q40 0 40 -39z" />
    <glyph glyph-name="Lslash" unicode="&#x141;" horiz-adv-x="505" 
d="M272 333l-73 -240q-10 -30 -10 -41q0 -18 22 -18h29q37 0 53.5 0.5t44 5t42.5 14.5t33 28.5t32 46.5q15 27 25 27q15 0 15 -14q0 -9 -32 -113q-7 -23 -13.5 -27.5t-32.5 -4.5q-28 0 -96 1.5t-105 1.5q-35 0 -93 -1.5t-85 -1.5q-29 0 -40 2t-11 12q0 18 46 20
q22 1 35.5 12t18.5 23.5t14 41.5q5 18 15 50.5t18 59t15 49.5l-72 -42q-14 -7 -19 -7t-5 5q0 8 7 27q1 9 14 15l91 52l59 196q12 36 12 52q0 25 -48 25q-28 0 -28 18q0 15 37 15q3 0 40.5 -1.5t66.5 -2.5q26 1 70.5 2.5t56.5 1.5q25 0 25 -16q0 -14 -32 -17
q-44 -1 -58 -13.5t-28 -58.5l-41 -135l130 74q12 7 19 7q4 0 4 -5q0 -8 -7 -27q-1 -8 -13 -15z" />
    <glyph glyph-name="lslash" unicode="&#x142;" horiz-adv-x="312" 
d="M57 32v1q0 38 21 103q38 120 56 180l-66 -45q-18 -11 -20 -11q-4 0 -4 7t5 24q3 12 13 17l87 58q25 77 57 186q10 30 10 42q0 24 -41 24q-28 0 -28 13q0 15 37 17q67 2 122 32q17 11 24 11q11 0 11 -11q0 -3 -3 -13.5t-4 -13.5q-15 -50 -68 -218l67 45q17 12 20 12
q4 0 4 -7t-5 -24q-3 -12 -13 -18l-89 -59q-25 -86 -79 -258q-11 -37 -11 -48q0 -15 13 -15q14 0 40 30t42 55q9 16 18 16q7 0 7 -10q0 -12 -15 -36t-29 -40q-28 -33 -67 -62t-73 -29q-39 0 -39 45z" />
    <glyph glyph-name="OE" unicode="&#x152;" horiz-adv-x="947" 
d="M647 312l-61 -204q-9 -29 -9 -41q0 -23 24 -28.5t83 -5.5q62 0 97.5 9.5t64.5 41.5q13 15 24.5 35t19 30t14.5 10q15 0 15 -14q0 -5 -13 -48l-20 -70q-5 -18 -10.5 -24t-23.5 -6q-21 0 -64 1.5t-51 1.5h-172q-48 0 -118 -6q-72 -6 -100 -6q-115 0 -195 85t-80 196
q0 146 116.5 257t267.5 111q24 0 90 -8q59 -8 148 -8q46 0 142 2q94 2 142 2q28 0 28 -17q0 -4 -5.5 -22t-13.5 -43.5t-12 -41.5q-8 -31 -23 -31q-14 0 -16 26q-2 32 -6 48q-8 31 -36.5 38.5t-99.5 7.5q-47 0 -56 -4t-18 -32l-63 -208h85q47 1 67.5 11.5t42.5 51.5
q14 26 21 29q3 1 7 1q5 0 9.5 -4t4.5 -10q0 -4 -3 -13.5t-7 -20.5t-5 -14q-28 -73 -40 -135q0 -1 -1.5 -8t-3 -10l-4 -8t-6 -7.5t-8.5 -2.5q-16 0 -16 20q0 6 1 20.5t1 22.5t-1 14t-4 10.5l-5 7.5t-7.5 5t-8.5 3t-10.5 1.5t-10.5 0.5h-13h-13q-26 1 -82 1zM187 215v-1
q0 -86 43 -140.5t126 -54.5q57 0 82 27.5t44 92.5q20 69 44.5 148.5t34.5 112t17.5 65.5t7.5 55q0 30 -22.5 50t-49 26.5t-54.5 6.5q-134 0 -210 -142q-63 -121 -63 -246z" />
    <glyph glyph-name="oe" unicode="&#x153;" horiz-adv-x="816" 
d="M41 186v1q0 105 88.5 188t196.5 83q113 0 168 -109q34 46 90.5 77.5t117.5 31.5q46 0 82 -24t36 -72q0 -57 -47 -93t-111 -51q-9 -2 -154 -33q-3 -36 -3 -39q0 -46 25.5 -74t67.5 -28q63 0 122 61q7 7 17 18.5t15.5 16.5t9.5 5q9 0 9 -10q0 -13 -37 -54
q-33 -40 -82.5 -67t-99.5 -27q-90 0 -125 91q-37 -39 -88.5 -65t-105.5 -26q-85 0 -138.5 57.5t-53.5 141.5zM739 379v1q0 24 -13 39t-38 15q-63 0 -112.5 -72t-62.5 -148q108 15 161 50q28 20 46.5 51.5t18.5 63.5zM428 324v1q0 47 -22.5 77.5t-69.5 30.5q-61 0 -109 -55
t-70 -123.5t-22 -126.5q0 -51 22 -83.5t70 -32.5q59 0 107 56.5t71 127t23 128.5z" />
    <glyph glyph-name="Scaron" unicode="&#x160;" horiz-adv-x="494" 
d="M137 457v1q0 86 74 133t166 47q79 0 135 -25q25 -10 25 -24q0 -11 -7 -30q-2 -9 -6.5 -28t-6.5 -27q0 -1 -1.5 -6.5t-3 -8.5t-3.5 -7.5t-5.5 -6.5t-7.5 -2t-7 1.5t-5 5.5t-2.5 6t-1.5 7.5t-1 6.5q-4 49 -21 72q-26 34 -83 34q-49 0 -90 -27.5t-41 -73.5q0 -36 23 -64.5
t76 -73.5q36 -31 56 -52t38 -55t18 -71q0 -87 -77 -144.5t-178 -57.5q-78 0 -150 32q-1 1 -6 3.5t-6.5 3.5t-5.5 3.5t-5.5 4t-3.5 4.5t-3 6t-1 7q0 12 5.5 45t6.5 43q5 38 19 38q8 0 12.5 -5.5t6 -10.5t3.5 -17q9 -58 23 -77q37 -46 104 -46q58 0 100 34t42 90
q0 39 -22.5 70t-69.5 72q-37 32 -55.5 50t-37.5 51.5t-19 68.5zM374 720l150 96q26 15 32 15q10 0 10 -8q0 -3 -3 -8t-6.5 -8.5t-9.5 -9t-7 -6.5l-107 -94q-36 -31 -49 -31h-33q-11 0 -15.5 4t-14.5 23l-52 102q-11 26 -11 27q0 9 10 9q7 0 27 -22z" />
    <glyph glyph-name="scaron" unicode="&#x161;" horiz-adv-x="387" 
d="M342 131v-1q0 -28 -19 -57t-46 -48q-57 -38 -131 -38q-70 0 -126 35q-23 15 -23 31q0 10 9 37q0 1 2 7t3 8.5t3.5 8t5 8t6 5t7.5 2.5q14 0 31 -29q15 -25 25 -39t32.5 -29t48.5 -15q30 0 54 20t24 48q0 20 -14 41.5t-25 31.5t-41 36q-25 23 -39.5 38t-27.5 38.5t-13 46.5
q0 63 52.5 102t127.5 39q20 0 46 -2.5t55 -13.5t29 -29q0 -9 -9 -34q0 -1 -3.5 -9t-5.5 -11.5t-6.5 -7.5t-9.5 -4q-4 0 -8.5 2t-10 7t-9 8.5t-11 12t-10.5 12.5q-39 41 -76 41q-27 0 -46 -17t-19 -44q0 -17 12.5 -36.5t25.5 -32t44 -39.5q26 -23 42 -39t30 -41t14 -50z
M288 571l150 96q26 15 32 15q10 0 10 -8t-27 -32l-106 -94q-36 -31 -49 -31h-33q-11 0 -15.5 4t-14.5 23l-52 102q-11 19 -11 27q0 9 10 9q5 0 27 -22z" />
    <glyph glyph-name="Ydieresis" unicode="&#x178;" horiz-adv-x="612" 
d="M311 566v-1q0 -1 11 -41l69 -216q60 69 180 205q38 44 38 61q0 14 -43 17q-9 1 -13 2.5t-8 5t-4 10.5q0 14 27 14q9 0 33 -2t40 -2q14 0 42 2t41 2q20 0 20 -15q0 -14 -27 -17q-24 -2 -38 -12.5t-38 -37.5q-160 -182 -240 -272q-9 -32 -27.5 -92t-21.5 -70
q-12 -36 -12 -50q0 -25 32 -29q2 0 16 -1q31 0 31 -15q0 -16 -31 -16q-17 0 -62 2t-66 2q-18 0 -53.5 -2t-45.5 -2q-37 0 -37 12q0 7 3 10.5t11.5 6t15.5 3t24 1.5q19 1 32 14.5t17.5 25.5t11.5 36q34 112 50 167q-72 213 -87 256q-11 33 -22 47.5t-32 15.5q-33 3 -33 16
q0 16 36 16q17 0 51 -2t50 -2q22 0 59 2t52 2q26 0 26 -14q0 -15 -40 -18q-38 -3 -38 -25zM357 694h-1q-16 0 -27 11t-11 29q0 24 18 46.5t42 22.5q17 0 28.5 -11t11.5 -28q0 -25 -18 -47.5t-43 -22.5zM524 694h-1q-16 0 -27 11t-11 29q0 24 18 46.5t42 22.5q17 0 28 -11
t11 -28q0 -25 -18 -47.5t-42 -22.5z" />
    <glyph glyph-name="Zcaron" unicode="&#x17d;" horiz-adv-x="609" 
d="M-9 11v1q0 8 41 53q288 316 432 473q41 42 41 47q0 4 -117 4q-82 0 -131 -17t-75 -74q-7 -13 -9.5 -17.5t-8.5 -9.5t-13 -5q-14 0 -14 14q0 6 32 112q8 23 16 28t39 5q30 0 94 -2t101 -2q36 0 108 2t100 2q20 0 27 -2.5t7 -11.5q0 -8 -21 -34q-71 -77 -220.5 -241.5
t-227.5 -249.5q-42 -46 -42 -49q0 -4 127 -4h47t39 1.5t36 4.5t29.5 8t28 13t22.5 20t22.5 28.5t19.5 37.5q12 26 25 26q17 0 17 -17q0 -9 -5.5 -28t-14.5 -47t-13 -44q-7 -28 -15 -33.5t-34 -5.5q-25 0 -99 1.5t-129 1.5q-26 0 -215 -3q-47 0 -47 14zM415 720l151 96
q24 15 32 15q9 0 9 -8q0 -3 -3 -8t-6.5 -8.5t-9.5 -9t-7 -6.5l-107 -94q-34 -29 -43 -30q-3 -1 -6 -1h-33q-11 0 -15.5 4t-14.5 23l-52 102q-11 26 -11 27q0 9 10 9q7 0 27 -22z" />
    <glyph glyph-name="zcaron" unicode="&#x17e;" horiz-adv-x="510" 
d="M-6 18v1q0 23 40 43q32 16 58 20q36 34 74 74q101 102 246 203l-1 2q-41 -17 -82 -17q-29 0 -80.5 12t-70.5 12q-30 0 -46 -14t-15 -42q0 -1 -0.5 -4.5t-0.5 -5.5t-1 -4.5t-2.5 -3.5t-4.5 -1q-17 0 -17 36q0 54 37.5 91t94.5 37q29 0 103 -31q69 -34 121 -28q7 4 21 17.5
t21 19.5q25 22 44 22q24 0 24 -16q0 -5 -3.5 -11t-8.5 -11t-13 -11t-13 -9.5t-13 -8t-9 -5.5q-55 -35 -76 -54q-46 -40 -148 -131q-24 -20 -70 -58t-66 -55l2 -1q37 14 74 14q43 0 89 -13q49 -15 65 -15q25 0 44 14t19 38q0 6 -2 15.5t-2 11.5q0 9 10 9t16 -15t6 -30
q0 -45 -36 -83q-42 -45 -113 -45q-54 0 -116 37q-55 31 -74 31q-14 0 -40 -24q-40 -35 -59 -35q-26 0 -26 22zM362 571l150 96q26 15 32 15q10 0 10 -8q0 -3 -3 -8t-6.5 -8.5t-9.5 -9t-7 -6.5l-107 -94q-36 -31 -49 -31h-33q-11 0 -15.5 4t-14.5 23l-52 102q-11 26 -11 27
q0 9 10 9q7 0 27 -22z" />
    <glyph glyph-name="florin" unicode="&#x192;" 
d="M261 352h-63q-20 0 -20 8q0 12 6 20q4 8 25 8h63q38 124 96 180q31 28 76.5 49.5t82.5 21.5q36 0 60 -16t24 -47q0 -22 -14 -35.5t-36 -13.5q-29 0 -42 25q-5 9 -10 36q-6 17 -20 17q-24 0 -48 -30q-26 -32 -56 -127q-5 -20 -18 -60h80q23 0 23 -8q0 -6 -6 -20
q-2 -8 -23 -8h-85q-50 -174 -99 -332q-33 -110 -73 -164q-67 -85 -156 -85q-41 0 -70.5 18.5t-29.5 51.5q0 21 15 34.5t36 13.5q39 0 49 -40q3 -11 3 -24q1 -10 1.5 -14t4.5 -8.5t12 -4.5q26 0 49 44q21 36 60 168q9 28 103 342z" />
    <glyph glyph-name="circumflex" unicode="&#x2c6;" horiz-adv-x="436" 
d="M355 629l-151 -97q-24 -15 -32 -15q-10 0 -10 8q0 4 4 9.5t13 13.5t10 9l107 94q35 31 48 31h33q11 0 15.5 -4t14.5 -23l53 -102q10 -23 10 -27q0 -9 -9 -9q-7 0 -27 22z" />
    <glyph glyph-name="caron" unicode="&#x2c7;" horiz-adv-x="436" 
d="M328 571l151 96q24 15 32 15q10 0 10 -8q0 -4 -4 -9.5t-13 -13.5t-10 -9l-107 -94q-36 -31 -48 -31h-33q-11 0 -15.5 4t-14.5 23l-53 102q-10 23 -10 27q0 9 9 9q7 0 27 -22z" />
    <glyph glyph-name="uni02C9" unicode="&#x2c9;" horiz-adv-x="397" 
d="M232 608h227q14 0 14 -5q0 -6 -15 -33q-9 -15 -25 -15h-227q-13 0 -13 5q0 3 15 33q5 10 9.5 12.5t14.5 2.5z" />
    <glyph glyph-name="breve" unicode="&#x2d8;" horiz-adv-x="434" 
d="M342 527h-1q-60 0 -98 34t-38 89q0 22 14 22q13 0 14 -15q1 -29 32.5 -52.5t77.5 -23.5q112 0 147 78q6 13 15 13q12 0 12 -18q0 -42 -48 -84.5t-127 -42.5z" />
    <glyph glyph-name="dotaccent" unicode="&#x2d9;" horiz-adv-x="258" 
d="M236 543h-1q-17 0 -28.5 11.5t-11.5 29.5q0 25 19 48.5t44 23.5q18 0 29.5 -11.5t11.5 -29.5q0 -26 -18.5 -49t-44.5 -23z" />
    <glyph glyph-name="ring" unicode="&#x2da;" horiz-adv-x="326" 
d="M277 515h-1q-42 0 -72 29.5t-30 71.5q0 43 30 72t73 29t73 -29t30 -72t-30 -72t-73 -29zM277 551h1q26 0 45 19t19 46q0 28 -19 46.5t-46 18.5q-28 0 -46.5 -18.5t-18.5 -46.5q0 -27 18.5 -46t46.5 -19z" />
    <glyph glyph-name="ogonek" unicode="&#x2db;" horiz-adv-x="326" 
d="M87 0h36q-57 -41 -57 -89q0 -36 39 -36q19 0 43.5 13.5t26.5 13.5q11 0 11 -12q0 -15 -33 -33.5t-70 -18.5q-36 0 -56.5 17.5t-20.5 49.5q0 31 25 56.5t56 38.5z" />
    <glyph glyph-name="tilde" unicode="&#x2dc;" horiz-adv-x="460" 
d="M393 539h-1q-37 0 -89 33q-47 33 -68 33q-20 0 -37.5 -14.5t-29.5 -29t-17 -14.5q-9 0 -9 10q0 22 38 56.5t89 34.5q43 0 90 -33q4 -3 14 -9.5t15 -9.5t12.5 -7t14 -5.5t12.5 -1.5q20 0 37.5 14.5t29.5 29t17 14.5q9 0 9 -10q0 -22 -38 -56.5t-89 -34.5z" />
    <glyph glyph-name="hungarumlaut" unicode="&#x2dd;" horiz-adv-x="350" 
d="M297 666h1q31 0 31 -28q0 -23 -35 -39l-140 -69q-22 -11 -30 -11q-9 0 -9 7q0 5 25 28l103 84q32 28 54 28zM467 666h1q31 0 31 -28q0 -23 -35 -39l-140 -69q-22 -11 -30 -11q-9 0 -9 7q0 5 25 28l103 84q32 28 54 28z" />
    <glyph glyph-name="uni03A9" unicode="&#x3a9;" horiz-adv-x="741" 
d="M695 136l-65 -136h-240l-1 19q6 6 35 37.5t43.5 47.5t42 50t44 60t34 61t26.5 68q38 137 0.5 201t-120.5 64q-87 0 -159 -65t-112 -205q-12 -44 -14.5 -85.5t7.5 -86t16.5 -66t23.5 -66.5q3 -9 5 -14l-13 -20h-239l15 136l24 1q4 -44 15.5 -57.5t42.5 -13.5h105
q-16 16 -27 28t-27 33.5t-24.5 42.5t-15.5 48t-5 59.5t12 67.5q38 132 145.5 212.5t235.5 80.5q130 0 189.5 -76.5t21.5 -207.5q-13 -45 -39.5 -87.5t-66 -80.5t-71 -63t-76.5 -57h111q33 0 49.5 12t46.5 59z" />
    <glyph glyph-name="uni03BC" unicode="&#x3bc;" horiz-adv-x="630" 
d="M427 227l-4 1q-60 -93 -146 -167t-154 -74q-18 -31 -33 -126q-12 -83 -64 -83q-21 0 -31 10.5t-9 27.5q0 26 38 99t41 112q4 27 25 89q8 25 23.5 70t28 81.5t22.5 67.5q12 27 12 40q0 16 -13 16q-27 0 -75 -68q-2 -3 -5.5 -7.5t-6 -7t-5 -5.5t-5 -4.5t-5.5 -1.5
q-8 0 -8 12q0 13 26.5 48t71.5 68t85 33q18 0 29.5 -12.5t11.5 -32.5q0 -23 -15 -66q-61 -181 -73 -218q-12 -36 -12 -50q0 -26 24 -26q27 0 72.5 37.5t71.5 73.5q93 115 133 246q7 24 11.5 30.5t12.5 8.5q5 1 64 1q15 0 15 -10q0 -3 -7 -26q-7 -24 -37.5 -124.5
t-47.5 -155.5q-12 -38 -12 -52q0 -19 15 -19q19 0 47.5 30.5t45.5 57.5q10 15 17 15q10 0 10 -9q0 -12 -19 -39.5t-47 -56.5t-66.5 -51.5t-72.5 -22.5q-33 0 -33 40q0 44 53 200z" />
    <glyph glyph-name="pi" unicode="&#x3c0;" horiz-adv-x="562" 
d="M589 441l20 -9q-28 -58 -60 -87q-21 -5 -69 -5q-24 -63 -65 -213q-24 -83 19 -83q22 0 57 28l6 -21q-55 -62 -121 -62q-27 0 -42.5 10t-21 36t9.5 72q28 98 78 235q-60 2 -156 2l-5 -16q-27 -95 -63 -172t-58 -108.5t-35 -42.5q-42 -15 -63 -16l-1 16q64 57 113.5 154.5
t75.5 186.5q-44 0 -72 -10t-68 -34l-8 21q53 48 83 64q48 25 109 25q1 0 106.5 -2t161.5 -2q22 0 36.5 6.5t32.5 26.5z" />
    <glyph glyph-name="uni2010" unicode="&#x2010;" horiz-adv-x="314" 
d="M70 254h235q10 0 10 -5q0 -2 -3.5 -11t-7.5 -20.5t-6 -16.5q-3 -10 -13 -10h-235q-10 0 -10 5l17 48q4 10 13 10z" />
    <glyph glyph-name="endash" unicode="&#x2013;" horiz-adv-x="500" 
d="M38 258h474q12 0 12 -6t-4 -17l-9 -29q-4 -12 -17 -12h-474q-12 0 -12 5q0 6 4 17l9 30q4 12 17 12z" />
    <glyph glyph-name="emdash" unicode="&#x2014;" horiz-adv-x="1000" 
d="M38 258h974q12 0 12 -6t-4 -17l-9 -29q-4 -12 -17 -12h-974q-12 0 -12 5q0 6 4 17l9 30q4 12 17 12z" />
    <glyph glyph-name="quoteleft" unicode="&#x2018;" horiz-adv-x="259" 
d="M275 509v-1q0 -23 -18.5 -41t-43.5 -18q-23 0 -37 18t-14 42q0 62 57 123t85 61q11 0 11 -9q0 -6 -9 -12.5t-25.5 -19t-29.5 -27.5q-39 -43 -39 -70q0 -12 10 -12q2 0 8.5 1.5t10.5 1.5q15 0 24.5 -11.5t9.5 -25.5z" />
    <glyph glyph-name="quoteright" unicode="&#x2019;" horiz-adv-x="259" 
d="M192 578v1q0 23 18.5 41t43.5 18q24 0 37.5 -17.5t13.5 -42.5q0 -33 -18 -68t-42.5 -59t-47.5 -40t-34 -16q-12 0 -12 8q0 6 9 13t26 19.5t30 27.5q38 44 38 70q0 11 -9 11q-3 0 -9 -1.5t-11 -1.5q-15 0 -24 11.5t-9 25.5z" />
    <glyph glyph-name="quotesinglbase" unicode="&#x201a;" horiz-adv-x="259" 
d="M26 24v1q0 24 18.5 42t43.5 18q24 0 37.5 -18t13.5 -42q0 -33 -18 -68.5t-42 -59.5t-47 -40t-34 -16q-12 0 -12 9q0 5 9 12.5t26 20.5t30 28q38 43 38 69q0 11 -10 11q-4 0 -10 -2t-10 -2q-15 0 -24 12t-9 25z" />
    <glyph glyph-name="quotedblleft" unicode="&#x201c;" horiz-adv-x="444" 
d="M275 509v-1q0 -23 -18.5 -41t-43.5 -18q-23 0 -37 18t-14 42q0 62 57 123t85 61q11 0 11 -9q0 -6 -9 -12.5t-25.5 -19t-29.5 -27.5q-39 -43 -39 -70q0 -12 10 -12q2 0 8.5 1.5t10.5 1.5q15 0 24.5 -11.5t9.5 -25.5zM459 509v-1q0 -23 -18.5 -41t-43.5 -18q-23 0 -37 18
t-14 42q0 62 57 123t85 61q11 0 11 -9q0 -6 -9 -12.5t-25.5 -19t-29.5 -27.5q-38 -44 -38 -70q0 -12 9 -12q2 0 8.5 1.5t11.5 1.5q15 0 24 -11.5t9 -25.5z" />
    <glyph glyph-name="quotedblright" unicode="&#x201d;" horiz-adv-x="444" 
d="M192 578v1q0 23 18.5 41t43.5 18q24 0 37.5 -17.5t13.5 -42.5q0 -33 -18 -68t-42.5 -59t-47.5 -40t-34 -16q-12 0 -12 8q0 6 9 13t26 19.5t30 27.5q38 44 38 70q0 11 -9 11q-3 0 -9 -1.5t-11 -1.5q-15 0 -24 11.5t-9 25.5zM377 578v1q0 23 18.5 41t43.5 18
q24 0 37.5 -17.5t13.5 -42.5q0 -33 -18 -68t-42.5 -59t-47.5 -40t-34 -16q-12 0 -12 8q0 6 9 13t26 19.5t30 27.5q38 44 38 70q0 11 -9 11q-2 0 -8.5 -1.5t-11.5 -1.5q-15 0 -24 11.5t-9 25.5z" />
    <glyph glyph-name="quotedblbase" unicode="&#x201e;" horiz-adv-x="443" 
d="M26 23v1q0 24 18.5 42t43.5 18q24 0 37.5 -17.5t13.5 -42.5q0 -63 -56.5 -123.5t-84.5 -60.5q-12 0 -12 9q0 5 9 12.5t26 20.5t30 28q38 43 38 69q0 11 -10 11q-4 0 -10 -2t-10 -2q-15 0 -24 12t-9 25zM211 23v1q0 24 18 42t44 18q24 0 37 -17.5t13 -42.5
q0 -63 -56.5 -123.5t-84.5 -60.5q-12 0 -12 9q0 5 9 12.5t26 20.5t30 28q38 43 38 69q0 11 -10 11q-2 0 -10 -2q-6 -2 -10 -2q-15 0 -23.5 11.5t-8.5 25.5z" />
    <glyph glyph-name="dagger" unicode="&#x2020;" horiz-adv-x="454" 
d="M152 -184h-25q70 276 70 355q0 38 -4 63q28 33 45 67t36 99q-45 0 -85.5 -16t-59.5 -16q-21 0 -34 12t-13 30q0 19 14 31.5t36 12.5q20 0 55.5 -16.5t89.5 -16.5q13 52 13 79q0 15 -4 40.5t-4 36.5q0 31 14 47.5t38 16.5q20 0 31 -13t11 -33t-15 -43.5t-35 -57t-28 -73.5
q45 0 91.5 16.5t57.5 16.5q45 0 45 -45q0 -18 -13.5 -30.5t-33.5 -12.5t-59.5 17t-91.5 17q-16 -68 -16 -105q0 -44 15 -64q-63 -80 -141 -415z" />
    <glyph glyph-name="daggerdbl" unicode="&#x2021;" horiz-adv-x="454" 
d="M491 410v-1q0 -18 -14 -29.5t-34 -11.5q-16 0 -59 17t-88 17q-14 -68 -14 -111q0 -36 9 -66q-61 -70 -83 -171q35 0 82 17.5t63 17.5q21 0 34 -12t13 -31t-14.5 -31t-36.5 -12q-20 0 -53 15.5t-91 16.5q-14 -56 -14 -80q0 -16 3.5 -40.5t3.5 -36.5q0 -63 -53 -63
q-19 0 -30 13t-11 33q0 21 15 44t35.5 56.5t29.5 73.5q-44 0 -90.5 -16t-56.5 -16q-45 0 -45 42q0 19 13 31.5t34 12.5q18 0 59.5 -17t88.5 -18q16 74 16 111q0 31 -8 63q7 7 13.5 14.5t12.5 18t10 17t9.5 20t8 19t7.5 22t6 20t6.5 22.5t6.5 21q-36 0 -82 -17t-62 -17
q-22 0 -34.5 12t-12.5 31q0 18 14 30.5t36 12.5q18 0 56 -16q34 -17 89 -17q13 56 13 80q0 15 -3.5 39.5t-3.5 36.5q0 31 14 47.5t38 16.5q19 0 30.5 -13t11.5 -32q0 -23 -35 -75t-45 -100q43 1 91 17q46 16 55 16q46 0 46 -44z" />
    <glyph glyph-name="bullet" unicode="&#x2022;" horiz-adv-x="596" 
d="M337 448h1q58 0 97.5 -40.5t39.5 -99.5q0 -56 -40 -96t-98 -40q-57 0 -97.5 40t-40.5 96q-1 58 39.5 99t98.5 41z" />
    <glyph glyph-name="ellipsis" unicode="&#x2026;" horiz-adv-x="1000" 
d="M178 55v-1q0 -26 -18.5 -46.5t-45.5 -20.5q-23 0 -34.5 13t-11.5 34q0 26 18 46.5t45 20.5q22 0 34.5 -12.5t12.5 -33.5zM511 55v-1q0 -26 -18.5 -46.5t-45.5 -20.5q-23 0 -34.5 13t-11.5 34q0 26 18 46.5t45 20.5q22 0 34.5 -12.5t12.5 -33.5zM844 55v-1
q0 -26 -18.5 -46.5t-45.5 -20.5q-23 0 -34.5 13t-11.5 34q0 26 18 46.5t45 20.5q22 0 34.5 -12.5t12.5 -33.5z" />
    <glyph glyph-name="perthousand" unicode="&#x2030;" horiz-adv-x="1162" 
d="M145 -7v1q0 2 23 30l489 591q14 17 19.5 20.5t14.5 3.5h18q15 0 15 -6q0 -5 -22 -30l-490 -593q-13 -16 -18.5 -19.5t-15.5 -3.5h-19q-14 0 -14 6zM299 614h-1q-41 0 -74 -38t-47.5 -85t-14.5 -88q0 -87 64 -87q42 0 74.5 38t47 85t14.5 88q0 87 -63 87zM644 310h-1
q-41 0 -73.5 -38t-47 -85t-14.5 -87q0 -88 63 -88q42 0 75 38t47.5 85t14.5 88q0 87 -64 87zM227 291h-1q-60 0 -97.5 43.5t-37.5 102.5q0 77 62.5 139.5t143.5 62.5q60 0 98 -43.5t38 -102.5q0 -77 -62.5 -139.5t-143.5 -62.5zM573 -13h-1q-60 0 -97.5 43.5t-37.5 102.5
q0 77 62.5 139.5t143.5 62.5q60 0 98 -43t38 -103q0 -77 -62.5 -139.5t-143.5 -62.5zM951 -13h-1q-60 0 -97.5 43.5t-37.5 102.5q0 77 62.5 139.5t143.5 62.5q60 0 98 -43t38 -103q0 -77 -62.5 -139.5t-143.5 -62.5zM1023 310h-1q-41 0 -74 -38t-47.5 -85t-14.5 -87
q0 -88 64 -88q42 0 74.5 38t47 85t14.5 88q0 87 -63 87z" />
    <glyph glyph-name="guilsinglleft" unicode="&#x2039;" horiz-adv-x="182" 
d="M148 96h-49q-23 0 -30 20l-28 71q-5 13 -10 22l-3 3t-3.5 4t-1.5 4q0 4 9 9q6 3 23 22l60 73q15 19 42 19h53q10 0 10 -5t-14 -5q-18 0 -44 -31l-52 -64q-14 -16 -22 -21q3 -3 9 -17l24 -63q4 -11 7 -16.5t8.5 -10t13.5 -4.5q12 0 12 -5t-14 -5z" />
    <glyph glyph-name="guilsinglright" unicode="&#x203a;" horiz-adv-x="182" 
d="M61 343h49q23 0 30 -19l28 -71q6 -16 10 -22q1 -2 4.5 -5.5t3.5 -5.5q0 -6 -9 -10q-6 -3 -23 -22l-60 -72q-14 -20 -42 -20h-53q-10 0 -10 5t14 5q18 0 44 31l52 64q15 16 22 21q-3 3 -9 17l-24 63q-4 11 -7 16.5t-8.5 10t-13.5 4.5q-12 0 -12 5t14 5z" />
    <glyph glyph-name="fraction" unicode="&#x2044;" horiz-adv-x="130" 
d="M-182 -7v1q0 1 24 30l489 591q13 17 18.5 20.5t14.5 3.5h18q15 0 15 -6q0 -5 -22 -30l-490 -593q-13 -16 -18.5 -19.5t-15.5 -3.5h-18q-15 0 -15 6z" />
    <glyph glyph-name="Euro" unicode="&#x20ac;" horiz-adv-x="561" 
d="M621 612q0 -15 -31 -108l-7 -22q-6 -17 -18 -17q-14 0 -14 18l4 24q10 50 10 85q0 23 -21 23q-84 0 -155.5 -65.5t-117.5 -163.5h224q3 0 3 -8q0 -9 -7 -18q-5 -7 -18 -7h-216q-14 -36 -23 -70h209q4 0 4 -8t-7 -17q-8 -8 -18 -8h-195q-6 -36 -6 -68q0 -179 104 -179
q49 0 84 36.5t70 117.5q10 21 25 21q12 0 10 -13q0 -6 -3 -15q-4 -14 -12.5 -42t-10.5 -35q-1 -4 -3.5 -15.5t-5.5 -24.5q-3 -14 -25 -23q-65 -28 -141 -28q-94 0 -143.5 61.5t-49.5 158.5q0 24 3 48h-78q-12 0 -12 8q0 5 6 15q5 10 13 10h76q8 38 21 70h-86q-12 0 -12 7
q0 3 7 15q6 11 13 11h93q55 111 161.5 180.5t230.5 69.5q65 0 65 -24z" />
    <glyph glyph-name="afii61289" unicode="&#x2113;" horiz-adv-x="406" 
d="M353 113l14 -17q-91 -107 -197 -107q-67 0 -88 36q-24 41 3 136l20 68l-73 -42l-5 23l88 54l33 118q33 113 57.5 162.5t65.5 84.5q50 44 101 44q43 0 56.5 -38t-2.5 -85q-21 -75 -77.5 -139.5t-147.5 -132.5l-22 -78q-24 -92 -12.5 -125t56.5 -33q59 0 130 71zM247 438
l-34 -117q126 108 159 226q13 39 9 68t-27 29q-27 0 -51 -46.5t-56 -159.5z" />
    <glyph glyph-name="trademark" unicode="&#x2122;" horiz-adv-x="917" 
d="M130 538h-22v82h312v-82h-21q-9 61 -58 61h-45v-274q0 -31 6.5 -38.5t38.5 -10.5v-22h-154v22q31 3 37.5 10.5t6.5 38.5v274h-44q-24 0 -38.5 -17t-18.5 -44zM459 620h110l139 -278l138 278h100v-21q-28 -1 -39 -13.5t-11 -37.5v-235q0 -23 6 -28t38 -9v-22h-153v22
q32 4 38 9t6 28v215h-2l-137 -276h-9l-136 276h-2v-193q0 -31 9 -43.5t39 -15.5v-22h-119v22q28 3 36.5 15t8.5 44v220q-4 19 -22 31.5t-38 12.5v21z" />
    <glyph glyph-name="Omega" unicode="&#x2126;" horiz-adv-x="741" 
d="M695 136l-65 -136h-240l-1 19q6 6 35 37.5t43.5 47.5t42 50t44 60t34 61t26.5 68q38 137 0.5 201t-120.5 64q-87 0 -159 -65t-112 -205q-12 -44 -14.5 -85.5t7.5 -86t16.5 -66t23.5 -66.5q3 -9 5 -14l-13 -20h-239l15 136l24 1q4 -44 15.5 -57.5t42.5 -13.5h105
q-16 16 -27 28t-27 33.5t-24.5 42.5t-15.5 48t-5 59.5t12 67.5q38 132 145.5 212.5t235.5 80.5q130 0 189.5 -76.5t21.5 -207.5q-13 -45 -39.5 -87.5t-66 -80.5t-71 -63t-76.5 -57h111q33 0 49.5 12t46.5 59z" />
    <glyph glyph-name="estimated" unicode="&#x212e;" horiz-adv-x="918" 
d="M887 303h-585q-5 0 -5 -4v-177q0 -10 8 -20q93 -96 221 -96q140 0 233 108h52q-49 -58 -124.5 -92t-161.5 -34q-149 0 -255 95t-106 229q0 135 106 230.5t255 95.5q151 0 256.5 -95.5t105.5 -230.5v-9zM754 326v179q0 13 -8 21q-94 92 -220 92q-128 0 -220 -95
q-9 -9 -9 -22v-175q0 -5 5 -5h449q3 0 3 5z" />
    <glyph glyph-name="partialdiff" unicode="&#x2202;" horiz-adv-x="529" 
d="M325 399h1q37 0 70 -18t46 -50q23 55 36 96q24 82 15 146q-6 35 -33.5 61.5t-67.5 26.5q-68 0 -156 -58q-8 -1 -15 10t-7 24.5t8 26.5q76 40 154 40q131 0 168 -130q24 -85 -11 -212q-39 -138 -115 -232q-111 -141 -245 -141q-83 0 -118.5 51t-10.5 137q25 90 102 154
q83 68 179 68zM337 360h-1q-67 0 -124 -53q-62 -63 -90 -166q-17 -52 -0.5 -87t61.5 -35q67 0 141 94q49 64 100 178q-6 24 -29 46.5t-58 22.5z" />
    <glyph glyph-name="uni2206" unicode="&#x2206;" horiz-adv-x="634" 
d="M548 0h-562l7 24l429 602l44 11l89 -613zM452 45l-64 480l-336 -480h400z" />
    <glyph glyph-name="product" unicode="&#x220f;" horiz-adv-x="814" 
d="M787 633v-25q-63 -4 -76 -14t-13 -50v-522q0 -46 13.5 -58t73.5 -16v-25h-258v25q59 4 71.5 15t12.5 59v548q0 20 -6.5 25.5t-28.5 5.5h-208q-21 0 -26.5 -4.5t-5.5 -22.5v-552q0 -47 10.5 -58.5t65.5 -15.5v-25h-250v25q59 5 73 16.5t14 57.5v522q0 40 -14 50t-77 14v25
h629z" />
    <glyph glyph-name="summation" unicode="&#x2211;" horiz-adv-x="683" 
d="M660 100l-43 -181h-458v24l220 314l-214 352v24h451q0 -7 2.5 -31.5t5.5 -61t5 -62.5l-26 -6q-12 65 -34 101q-10 17 -29.5 23t-72.5 6h-192l180 -292l-219 -318h260q66 0 86.5 16.5t51.5 99.5z" />
    <glyph glyph-name="minus" unicode="&#x2212;" horiz-adv-x="574" 
d="M571 218h-504v70h504v-70z" />
    <glyph glyph-name="uni2215" unicode="&#x2215;" horiz-adv-x="130" 
d="M-182 -7v1q0 1 24 30l489 591q13 17 18.5 20.5t14.5 3.5h18q15 0 15 -6q0 -5 -22 -30l-490 -593q-13 -16 -18.5 -19.5t-15.5 -3.5h-18q-15 0 -15 6z" />
    <glyph glyph-name="uni2219" unicode="&#x2219;" horiz-adv-x="282" 
d="M222 264v-1q0 -26 -18 -46.5t-46 -20.5q-22 0 -33.5 13t-11.5 34q0 26 17.5 47t45.5 21q21 0 33.5 -13t12.5 -34z" />
    <glyph glyph-name="radical" unicode="&#x221a;" horiz-adv-x="671" 
d="M657 809l-162 -941l-21 -12l-214 504l-85 -41l-11 31l153 74l167 -406h2l133 800z" />
    <glyph glyph-name="infinity" unicode="&#x221e;" horiz-adv-x="793" 
d="M747 260v-1q0 -68 -43.5 -110.5t-101.5 -42.5q-43 0 -82.5 25.5t-88.5 84.5q-45 -54 -84 -82t-90 -28q-59 0 -101 43t-42 107q0 66 42.5 109t107.5 43q83 0 171 -108q54 60 80 78q44 30 93 30q61 0 100 -41t39 -107zM263 158h1q9 0 18 1.5t18.5 6t16.5 8t16.5 12t14.5 12
t15.5 14.5t13 13.5t13.5 15t12 13.5q-23 29 -31.5 39t-29 29.5t-40 27t-42.5 7.5q-41 0 -66 -29.5t-25 -72.5q0 -40 27 -68.5t68 -28.5zM602 357h-1q-17 0 -33.5 -6t-33 -20t-26 -23t-26.5 -27.5t-20 -22.5q49 -56 78.5 -78t63.5 -22q40 0 64.5 30t24.5 68q0 46 -25.5 73.5
t-65.5 27.5z" />
    <glyph glyph-name="integral" unicode="&#x222b;" horiz-adv-x="495" 
d="M290 13l-19 372q-20 388 146 388q22 0 40.5 -11.5t18.5 -31.5t-12 -31t-30 -11q-17 0 -29 22.5t-21 22.5q-46 0 -39 -155l17 -353q21 -411 -148 -411q-25 0 -42 13.5t-17 32.5q-1 18 14.5 31t34.5 13q14 0 26 -24t21 -24q22 0 32.5 42.5t6.5 114.5z" />
    <glyph glyph-name="approxequal" unicode="&#x2248;" horiz-adv-x="600" 
d="M524 400l36 -33q-51 -89 -127 -89q-19 0 -37.5 5t-33 12t-40.5 21q-52 31 -86 31q-30 0 -50.5 -17.5t-44.5 -50.5l-36 32q22 41 58.5 65.5t77.5 24.5q13 0 25 -2t24.5 -7t19.5 -8t20 -10.5t16 -8.5q23 -14 31.5 -18.5t24 -9.5t31.5 -5q49 0 91 68zM524 235l36 -33
q-52 -89 -128 -89q-39 0 -110 38q-54 31 -86 31q-30 0 -51.5 -18t-43.5 -50l-36 33q22 41 58.5 65t77.5 24q11 0 22.5 -2t19 -4t18.5 -6.5t15.5 -7t15.5 -8.5t13 -7t16 -9.5t18.5 -10.5t15 -6.5t19.5 -6t19 -1.5q28 0 48 16.5t43 51.5z" />
    <glyph glyph-name="notequal" unicode="&#x2260;" horiz-adv-x="624" 
d="M474 463l-40 -88h143v-54h-166l-61 -132h227v-54h-250l-50 -111l-44 20l41 91h-138v54h161l61 132h-222v54h244l50 108z" />
    <glyph glyph-name="lessequal" unicode="&#x2264;" horiz-adv-x="646" 
d="M597 89l-433 207v59l433 206v-64l-374 -170v-2l374 -172v-64zM600 -2h-441v55h441v-55z" />
    <glyph glyph-name="greaterequal" unicode="&#x2265;" horiz-adv-x="646" 
d="M164 561l434 -207v-58l-433 -207v64l373 171v2l-374 171v64zM598 -2h-438v55h438v-55z" />
    <glyph glyph-name="lozenge" unicode="&#x25ca;" horiz-adv-x="683" 
d="M638 303l-198 -371h-63l-197 371l198 373h63zM574 303l-163 314h-3l-165 -313l165 -315h3z" />
    <glyph glyph-name="fi" unicode="&#xfb01;" horiz-adv-x="616" 
d="M174 407h-63q-20 0 -20 8q0 12 6 20q4 8 25 8h63q48 133 97 177q77 72 188 72q54 0 87 -17.5t33 -49.5q0 -20 -14.5 -35t-36.5 -15q-27 0 -44 24l-18 30q-19 28 -55 28q-24 0 -44.5 -14.5t-36 -42t-24 -47.5t-18.5 -50q-16 -44 -20 -60h149q33 0 75 8q9 1 19.5 3t17.5 3
t11 1q23 0 23 -32q0 -18 -17 -69q-7 -24 -72 -232q-10 -32 -10 -42q0 -18 13 -18q12 0 32.5 22t37.5 47q20 32 28 32q9 0 9 -10q0 -34 -66.5 -101.5t-116.5 -67.5q-41 0 -41 48q0 19 18 88q34 108 56 181q15 48 15 64q0 25 -20.5 32t-58.5 7h-112q-90 -303 -116 -387
q-32 -108 -77 -164q-33 -39 -78.5 -62t-87.5 -23q-40 0 -65.5 17.5t-25.5 48.5q0 23 13 38t36 15q40 0 51 -39q2 -14 2 -23q1 -10 1.5 -14t4.5 -8.5t12 -4.5q12 0 27 12.5t25 30.5q25 42 63 166q80 266 120 397z" />
    <glyph glyph-name="fl" unicode="&#xfb02;" horiz-adv-x="617" 
d="M174 407h-63q-20 0 -20 8q0 12 6 20q4 8 25 8h63q46 131 99 179q35 31 83 50.5t93 19.5q65 0 101 -34q17 4 36 12.5t32 14.5t17 6q11 0 11 -11q0 -3 -3 -13.5t-4 -13.5q-19 -62 -75.5 -244.5t-87.5 -282.5q-12 -41 -12 -48q0 -15 13 -15q21 0 64 58q4 5 10 14.5t10 14.5
t8.5 9.5t8.5 4.5q7 0 7 -10q0 -19 -29 -58.5t-74 -74t-81 -34.5q-40 0 -40 45q0 27 20 98q15 50 43.5 141t51.5 165.5t43 140.5q-39 0 -57 25q-6 7 -17 30q-18 25 -48 25q-28 0 -52 -29t-35 -56.5t-24 -69.5q-3 -11 -10 -32.5t-8 -26.5h81q23 0 23 -8q0 -7 -6 -20
q-2 -8 -23 -8h-85q-90 -303 -116 -387q-32 -108 -77 -164q-33 -39 -78.5 -62t-87.5 -23q-40 0 -65.5 17.5t-25.5 48.5q0 23 13 38t36 15q40 0 51 -39q2 -14 2 -23q1 -10 1.5 -14t4.5 -8.5t12 -4.5q12 0 27 12.5t25 30.5q25 42 63 166q80 266 120 397z" />
    <glyph glyph-name="a.superior" horiz-adv-x="377" 
d="M340 501h-2q-97 -147 -175 -147q-23 0 -37.5 18.5t-14.5 45.5q0 74 70.5 144.5t144.5 70.5q25 0 46 -14q8 14 9 15q7 5 20 5h18q18 0 18 -9q0 -10 -32 -109t-32 -109q0 -5 4 -5q9 0 42 41q11 14 15 14q9 0 9 -8q0 -23 -43 -61.5t-75 -38.5q-21 0 -21 25q0 27 36 122z
M363 587v1q0 11 -9.5 17.5t-22.5 6.5q-48 0 -100 -65t-52 -115q0 -11 6 -20t18 -9q33 0 96.5 76t63.5 108z" />
    <glyph glyph-name="o.superior" horiz-adv-x="377" 
d="M427 523v-1q0 -64 -53 -114t-118 -50q-50 0 -81 35t-31 83q0 64 51 113.5t118 49.5q48 0 81 -35t33 -81zM205 451v-1q0 -28 12.5 -48.5t41.5 -20.5q46 0 76 58t30 113q0 64 -50 64q-48 0 -79 -55.5t-31 -109.5z" />
    <glyph glyph-name="one.superior" horiz-adv-x="346" 
d="M250 291v-1q0 -13 34 -13q36 0 36 -11q0 -13 -17 -13t-54 1.5t-58 1.5q-17 0 -47 -1.5t-42 -1.5q-19 0 -19 11q0 13 35 13q31 0 41.5 7.5t19.5 36.5q67 204 75 229q5 15 5 20q0 7 -6 7q-8 0 -45 -12t-44 -12q-14 0 -14 10q0 11 34 19q89 26 139 48q20 8 25 8q9 0 9 -7
q0 -5 -6 -23q-30 -96 -94 -290q-7 -21 -7 -27z" />
    <glyph glyph-name="two.superior" horiz-adv-x="346" 
d="M125 312l2 -2q14 1 45 1h82q30 0 47 5.5t28 23.5q13 18 19 18q11 0 11 -12q0 -2 -5 -15.5t-11 -31t-8 -24.5q-4 -14 -9.5 -18t-21.5 -4q-14 0 -58.5 1.5t-70.5 1.5q-20 0 -60.5 -1.5t-56.5 -1.5q-28 0 -28 10q0 11 60 53q29 20 80 56.5t68 48.5q89 65 89 126
q0 28 -18.5 45.5t-46.5 17.5q-50 0 -86 -36q-7 -7 -15 -18t-14 -16.5t-11 -5.5q-8 0 -8 11q0 13 16 34t55 40.5t88 19.5q53 0 88.5 -26.5t35.5 -70.5q0 -21 -9 -39.5t-30.5 -36.5t-35 -27t-47 -28t-40.5 -23q-48 -27 -124 -76z" />
    <glyph glyph-name="three.superior" horiz-adv-x="346" 
d="M239 459l1 -1q24 0 37 -1q43 -4 72.5 -27.5t29.5 -61.5q0 -73 -80 -125.5t-168 -52.5q-35 0 -67.5 11t-32.5 34q0 13 9.5 20.5t23.5 7.5q22 0 41 -27q18 -23 41 -23q59 0 104 45t45 102q0 33 -22.5 54.5t-58.5 21.5q-19 0 -38.5 -5t-31.5 -9.5t-13 -4.5q-8 0 -8 11
q0 5 4.5 9t14.5 8t19 7.5t26.5 9.5t29.5 10q95 37 95 99q0 18 -12.5 29t-32.5 11q-30 0 -64 -24q-5 -4 -11.5 -9t-10.5 -8t-8.5 -5.5t-7.5 -2.5q-8 0 -8 9t14.5 24t48.5 29.5t76 14.5t71 -17t29 -48q0 -13 -5.5 -25t-17 -22.5t-22.5 -18t-29.5 -16t-29 -13t-29.5 -11.5
t-24 -9z" />
    </font>
</defs>
</svg>
